<?xml version="1.0" encoding="iso-8859-1"?>
<!-- Generator: Adobe Illustrator 19.0.0, SVG Export Plug-In . SVG Version: 6.00 Build 0)  -->
<svg version="1.1" id="Layer_1" xmlns="http://www.w3.org/2000/svg" xmlns:xlink="http://www.w3.org/1999/xlink" x="0px" y="0px"
	 viewBox="0 0 512 512" style="enable-background:new 0 0 512 512;" xml:space="preserve">
<circle style="fill:#662E57;" cx="256" cy="256" r="256"/>
<path style="fill:#590F38;" d="M292.262,509.431C416.471,491.816,512,385.074,512,256c0-6.637-0.253-13.215-0.748-19.723
	l-153.09-153.09l-92.967-31.756l-87.824,21.835l-58.708,66.658L85.32,288.342l156.946,156.946l-4.632,9.516L292.262,509.431z"/>
<path style="fill:#FFCF35;" d="M308.277,443.644H256v-16.518h52.277c45.525,0,82.561-37.036,82.561-82.561v-99.976h16.518v99.976
	C407.357,399.196,362.911,443.644,308.277,443.644z"/>
<path style="fill:#FFD863;" d="M405.292,261.932h-12.39v-83.256c0-65.446-61.414-118.691-136.902-118.691
	S119.098,113.23,119.098,178.676v83.256H106.71v-83.256c0-72.278,66.972-131.079,149.292-131.079s149.292,58.802,149.292,131.079
	v83.256H405.292z"/>
<path style="fill:#FFCF35;" d="M256.002,47.595v12.39c75.488,0,136.902,53.245,136.902,118.691v83.256h12.39v-83.256
	C405.292,106.398,338.322,47.595,256.002,47.595z"/>
<path style="fill:#FFB344;" d="M383.198,188.214h10.045c27.981,0,50.662,22.681,50.662,50.662v11.419
	c0,27.981-22.681,50.662-50.662,50.662h-10.045V188.214z"/>
<path style="fill:#FFCF35;" d="M128.803,188.214h-10.045c-27.981,0-50.662,22.681-50.662,50.662v11.419
	c0,27.981,22.681,50.662,50.662,50.662h10.045V188.214z"/>
<path style="fill:#FFFFFF;" d="M401.989,226.032c0,80.643-64.714,194.691-144.543,194.691S112.904,306.676,112.904,226.032
	S177.617,80.013,257.446,80.013S401.989,145.389,401.989,226.032z"/>
<path style="fill:#E0E0E0;" d="M257.446,80.015c-0.484,0-0.962,0.033-1.445,0.036V420.69c0.483,0.009,0.962,0.033,1.445,0.033
	c79.829,0,144.543-114.047,144.543-194.691S337.275,80.015,257.446,80.015z"/>
<path style="fill:#FF9451;" d="M257.446,80.015c-79.829,0-144.543,65.376-144.543,146.018c0,24.931,6.199,53.051,17.103,80.01
	l0.986,1.541c142.677-39.393,174.635-130.224,174.635-130.224s24.86,44.627,90.665,93.198c3.682-15.334,5.696-30.442,5.696-44.525
	C401.989,145.389,337.275,80.015,257.446,80.015z"/>
<path style="fill:#F7674F;" d="M257.446,80.015c-0.484,0-0.962,0.033-1.445,0.036v163.004c38.479-34.04,49.626-65.696,49.626-65.696
	s24.86,44.627,90.665,93.198c3.682-15.334,5.696-30.442,5.696-44.525C401.989,145.389,337.275,80.015,257.446,80.015z"/>
<path style="fill:#FF9451;" d="M290.571,459.233h-43.124c-7.251,0-13.129-5.879-13.129-13.129v-21.442
	c0-7.251,5.879-13.129,13.129-13.129h43.124c7.251,0,13.129,5.879,13.129,13.129v21.442
	C303.7,453.354,297.822,459.233,290.571,459.233z"/>
<path style="fill:#F7674F;" d="M290.571,411.534h-34.569v47.699h34.569c7.251,0,13.129-5.879,13.129-13.129v-21.442
	C303.7,417.411,297.822,411.534,290.571,411.534z"/>
<g>
</g>
<g>
</g>
<g>
</g>
<g>
</g>
<g>
</g>
<g>
</g>
<g>
</g>
<g>
</g>
<g>
</g>
<g>
</g>
<g>
</g>
<g>
</g>
<g>
</g>
<g>
</g>
<g>
</g>
</svg>
