<?xml version="1.0" encoding="iso-8859-1"?>
<!-- Generator: Adobe Illustrator 19.0.0, SVG Export Plug-In . SVG Version: 6.00 Build 0)  -->
<svg version="1.1" id="Layer_1" xmlns="http://www.w3.org/2000/svg" xmlns:xlink="http://www.w3.org/1999/xlink" x="0px" y="0px"
	 viewBox="0 0 512.001 512.001" style="enable-background:new 0 0 512.001 512.001;" xml:space="preserve">
<g>
	<path style="fill:#E2E5E7;" d="M512.001,391.792c0,7.145-5.79,12.936-12.937,12.936H12.937C5.791,404.728,0,398.937,0,391.793
		V64.937c0-7.143,5.791-12.938,12.937-12.938h486.127c7.146,0,12.937,5.795,12.937,12.938L512.001,391.792L512.001,391.792z"/>
	<path style="fill:#D1D5D5;" d="M314.069,404.728h-58.068h-58.069c0,0-2.353,38.809-7.057,47.041h65.126h65.125
		C316.421,443.536,314.069,404.728,314.069,404.728z"/>
	<path style="fill:#C6CBCB;" d="M332.002,455.004c-7.057-0.883-10.877-3.234-10.877-3.234H256h-65.126c0,0-3.82,2.352-10.877,3.234
		c-7.055,0.883-11.76,1.469-11.76,4.998H256h87.762C343.762,456.473,339.058,455.886,332.002,455.004z"/>
	<path style="fill:#2D404E;" d="M499.064,51.999H12.937C5.791,51.999,0,57.794,0,64.937v293.535h512V64.937
		C512.001,57.794,506.21,51.999,499.064,51.999z M490.811,340.087H233.865H21.19V70.388h377.583h92.038V340.087z"/>
	<polygon style="fill:#DF584C;" points="21.19,70.388 21.19,340.087 233.865,340.087 490.811,340.087 490.811,70.388 
		398.773,70.388 	"/>
	<path style="fill:#C6CBCB;" d="M314.069,404.728h-58.068h-58.069c0,0-0.351,5.773-1.05,13.33h118.237
		C314.419,410.501,314.069,404.728,314.069,404.728z"/>
	<circle style="fill:#2D404E;" cx="256.067" cy="382.687" r="8.412"/>
	<g>
		<path style="fill:#E2E5E7;" d="M331.877,249.245c0,4.654-3.729,8.428-8.328,8.428H188.452c-4.599,0-8.328-3.773-8.328-8.428
			v-88.016c0-4.654,3.729-8.428,8.328-8.428h135.097c4.6,0,8.328,3.773,8.328,8.428V249.245z"/>
		<path style="fill:#D1D5D5;" d="M183.743,256.197c-0.836-0.582-1.562-1.312-2.14-2.156l59.823-40.396l1.852,1.85L183.743,256.197z"
			/>
		<path style="fill:#D1D5D5;" d="M328.309,256.197c0.836-0.582,1.562-1.312,2.141-2.156l-59.824-40.396l-1.851,1.85L328.309,256.197
			z"/>
		<path style="fill:#C6CBCB;" d="M180.496,158.738c1.05-3.438,4.215-5.936,7.956-5.936h135.097c3.449,0,6.408,2.123,7.673,5.146
			c0.13,0.312,0.242,0.633,0.335,0.961l-53.889,54.734c0,0-11.567,14.727-21.643,14.727c-9.587,0-21.385-14.727-21.385-14.727
			L180.496,158.738z"/>
		<path style="fill:#E2E5E7;" d="M180.496,158.738c1.05-3.438,4.215-5.936,7.956-5.936h135.097c3.449,0,6.408,2.123,7.673,5.146
			c0.13,0.312,0.242,0.633,0.335,0.961l-58.053,54.734c0,0-9.254,8.25-17.479,8.25c-8.431,0-17.684-8.25-17.684-8.25
			L180.496,158.738z"/>
	</g>
	<path style="opacity:0.16;fill:#E2E5E7;enable-background:new    ;" d="M499.064,51.999h-89.058L222.628,358.472H512V64.937
		C512.001,57.794,506.21,51.999,499.064,51.999z"/>
</g>
<g>
</g>
<g>
</g>
<g>
</g>
<g>
</g>
<g>
</g>
<g>
</g>
<g>
</g>
<g>
</g>
<g>
</g>
<g>
</g>
<g>
</g>
<g>
</g>
<g>
</g>
<g>
</g>
<g>
</g>
</svg>
