<?xml version="1.0" encoding="iso-8859-1"?>
<!-- Generator: Adobe Illustrator 18.1.1, SVG Export Plug-In . SVG Version: 6.00 Build 0)  -->
<svg xmlns="http://www.w3.org/2000/svg" xmlns:xlink="http://www.w3.org/1999/xlink" version="1.1" id="Capa_1" x="0px" y="0px" viewBox="0 0 58.438 58.438" style="enable-background:new 0 0 58.438 58.438;" xml:space="preserve" width="512px" height="512px">
<g>
	<g>
		<path d="M57.9,28.425l-10.258-10.6c-0.548-0.568-1.519-0.98-2.309-0.98h-2.274    c-0.096,0-0.198,0.006-0.31,0.019l-0.001-1.791c0.034-0.743-0.453-0.995-0.606-1.056c-0.105-0.041-0.221-0.062-0.335-0.062    c-0.211,0-0.524,0.073-0.821,0.42l-0.401,0.47l-7.28-7.527c-0.55-0.566-1.521-0.978-2.311-0.978h-3.497    c-0.949,0-1.769,0.74-1.908,1.72c-0.39,2.765-2.307,6.868-4.153,6.868s-3.762-4.103-4.152-6.868    c-0.138-0.981-0.959-1.72-1.909-1.72h-2.274c-0.789,0-1.76,0.412-2.308,0.979l-10.255,10.6c-0.691,0.715-0.72,1.861-0.064,2.609    l4.266,4.865C5.073,25.774,5.529,25.99,6.042,26C6.557,25.983,7,25.791,7.325,25.446l5.074-5.34v19.646    c0,1.016,0.825,1.84,1.839,1.84h12.5v5.635c0,0.913,0.653,1.824,1.519,2.122l7.016,2.381c0.045,0.015,1.098,0.368,1.621,0.368    c0.547,0,1.596-0.398,1.639-0.415l6.029-2.31c0.842-0.322,1.477-1.246,1.477-2.146l0.007-17.246l7.038,4.1    c0.287,0.166,0.633,0.256,0.996,0.256c0.621,0,1.213-0.252,1.584-0.678l2.301-2.625C58.62,30.287,58.592,29.139,57.9,28.425z     M26.736,39.933L26.736,39.933H14.235c-0.1,0-0.181-0.08-0.181-0.182V19.04c0-0.885-0.508-1.183-0.727-1.27    c-0.126-0.05-0.259-0.075-0.394-0.075c-0.243,0-0.615,0.087-1.005,0.497l-5.81,6.114c-0.008,0.009-0.025,0.029-0.133-0.004    l-4.267-4.865c-0.083-0.096-0.079-0.273,0.01-0.364L11.982,8.472c0.231-0.239,0.784-0.473,1.116-0.473h2.274    c0.108,0,0.243,0.12,0.268,0.293c0.491,3.478,2.778,8.295,5.794,8.295c3.017,0,5.304-4.817,5.795-8.295    C27.254,8.117,27.388,8,27.496,8h3.496c0.334,0,0.888,0.234,1.119,0.473l7.39,7.64l-3.13,3.657l-4.836-5.39    c-0.5-0.589-0.98-0.432-1.162-0.36c-0.15,0.059-0.639,0.312-0.602,1.055l0.082,1.775c-0.048-0.002-0.096-0.003-0.142-0.003H27.44    c-0.792,0-1.764,0.412-2.31,0.979L14.875,28.423c-0.691,0.716-0.719,1.861-0.063,2.609l2.351,2.682    c0.59,0.674,1.804,0.871,2.582,0.412l6.991-4.133V39.933z M56.712,29.941l-2.299,2.623c-0.074,0.086-0.371,0.16-0.5,0.082    l-7.416-4.318c-0.252-0.146-0.524-0.225-0.787-0.225c-0.762,0-1.334,0.62-1.334,1.441v17.682c0,0.219-0.207,0.521-0.41,0.598    l-6.029,2.311c-0.523,0.199-0.968,0.3-1.043,0.306c-0.082-0.004-0.545-0.095-1.093-0.28l-7.012-2.38    c-0.196-0.067-0.396-0.347-0.396-0.553V29.544c0-0.838-0.549-1.447-1.305-1.447c-0.087,0-0.175,0.008-0.262,0.023l-0.018-0.037    l-0.004,0.041c-0.179,0.037-0.357,0.106-0.532,0.211L18.896,32.7c-0.125,0.074-0.415,0.004-0.488-0.078l-2.351-2.683    c-0.084-0.096-0.079-0.272,0.009-0.362l10.255-10.603c0.23-0.239,0.784-0.473,1.117-0.473h2.272c0.395,0,1.076,0.202,1.404,0.417    l3.97,2.574c0.694,0.452,1.897,0.455,2.599,0l3.969-2.574c0.33-0.214,1.013-0.417,1.405-0.417h2.274    c0.332,0,0.885,0.234,1.115,0.474L56.7,29.578C56.791,29.667,56.796,29.845,56.712,29.941z" fill="#D80027"/>
		<path d="M36.131,23.668c-0.671,0-1.216,0.546-1.216,1.217c0,0.671,0.545,1.216,1.216,1.216    c0.672,0,1.218-0.545,1.218-1.216C37.349,24.214,36.803,23.668,36.131,23.668z M36.131,25.351c-0.257,0-0.466-0.209-0.466-0.466    s0.209-0.467,0.466-0.467c0.258,0,0.468,0.209,0.468,0.467C36.599,25.142,36.389,25.351,36.131,25.351z" fill="#D80027"/>
		<path d="M36.131,29.983c-0.671,0-1.216,0.546-1.216,1.218c0,0.67,0.545,1.217,1.216,1.217    c0.672,0,1.218-0.547,1.218-1.217C37.349,30.529,36.803,29.983,36.131,29.983z M36.131,31.666c-0.257,0-0.466-0.209-0.466-0.467    s0.209-0.467,0.466-0.467c0.258,0,0.468,0.209,0.468,0.467C36.599,31.458,36.389,31.666,36.131,31.666z" fill="#D80027"/>
		<path d="M36.131,36.296c-0.671,0-1.216,0.547-1.216,1.218s0.545,1.217,1.216,1.217    c0.672,0,1.218-0.546,1.218-1.217S36.803,36.296,36.131,36.296z M36.131,37.981c-0.257,0-0.466-0.209-0.466-0.467    c0-0.259,0.209-0.468,0.466-0.468c0.258,0,0.468,0.209,0.468,0.468C36.599,37.772,36.389,37.981,36.131,37.981z" fill="#D80027"/>
		<path d="M36.131,42.613c-0.671,0-1.216,0.547-1.216,1.217c0,0.672,0.545,1.217,1.216,1.217    c0.672,0,1.218-0.545,1.218-1.217C37.349,43.16,36.803,42.613,36.131,42.613z M36.131,44.296c-0.257,0-0.466-0.209-0.466-0.467    c0-0.259,0.209-0.468,0.466-0.468c0.258,0,0.468,0.209,0.468,0.468C36.599,44.087,36.389,44.296,36.131,44.296z" fill="#D80027"/>
	</g>
</g>
<g>
</g>
<g>
</g>
<g>
</g>
<g>
</g>
<g>
</g>
<g>
</g>
<g>
</g>
<g>
</g>
<g>
</g>
<g>
</g>
<g>
</g>
<g>
</g>
<g>
</g>
<g>
</g>
<g>
</g>
</svg>
