<?xml version="1.0" encoding="iso-8859-1"?>
<!-- Generator: Adobe Illustrator 18.0.0, SVG Export Plug-In . SVG Version: 6.00 Build 0)  -->
<!DOCTYPE svg PUBLIC "-//W3C//DTD SVG 1.1//EN" "http://www.w3.org/Graphics/SVG/1.1/DTD/svg11.dtd">
<svg version="1.1" id="Capa_1" xmlns="http://www.w3.org/2000/svg" xmlns:xlink="http://www.w3.org/1999/xlink" x="0px" y="0px"
	 viewBox="0 0 202.714 202.714" style="enable-background:new 0 0 202.714 202.714;" xml:space="preserve">
<g>
	<g>
		<path style="fill:#351F10;" d="M110.078,134.551l-12.061-34.287l35.469,19.922l-39.285-43.46l-38.487,8.532l-8.992,31.25
			L66.1,139.772l-6-22l-0.543-11.127l0.448,36.219l6.721-1.131l6.569,49.123l-10.414,9.24l18.162-0.424l1.221-11.49
			c0,0,4.295-45.123,4.523-43.906c0.229,1.215,0.127,55.988,0.127,55.988l20.615-0.107l-13.547-13.052l11.363-51.884
			L110.078,134.551z"/>
		<polygon style="fill:#E2D4BF;" points="61.063,79.385 84.547,122.113 85.215,74.016 		"/>
		<g>
			<path style="fill:#EABB98;" d="M101.619,51.352c-0.299-4.088-2.938-7.225-5.887-7.008c-1.189,0.088-2.244,0.712-3.064,1.686
				c-5.342-5.533-15.785-7.873-26.751-5.291C54.154,43.513,45.453,51.094,43.94,59.039c-1.722-0.93-3.57-1.067-5.009-0.185
				c-2.523,1.546-2.835,5.632-0.694,9.124c2.141,3.494,5.922,5.072,8.445,3.525c0.389-0.236,0.717-0.539,0.998-0.885
				c5.426,5.318,15.695,7.525,26.457,4.988c10.902-2.569,19.17-9.264,21.533-16.553c0.373,0.083,0.758,0.116,1.146,0.088
				C99.768,58.925,101.916,55.438,101.619,51.352z"/>
			<g>
				
					<ellipse transform="matrix(0.9973 0.0731 -0.0731 0.9973 4.2811 -4.2885)" style="fill:#351F10;" cx="60.756" cy="56.371" rx="2.139" ry="2.319"/>
				
					<ellipse transform="matrix(0.9973 0.0731 -0.0731 0.9973 4.0784 -5.6125)" style="fill:#351F10;" cx="78.752" cy="52.938" rx="2.139" ry="2.318"/>
			</g>
			<path style="fill:#351F10;" d="M43.839,62.363c0,0,3.14-14.648,20.886-19.959c17.746-5.311,32.279,10.633,32.279,10.633
				S96.416,25.496,63.123,19.21C63.123,19.21,29.345,40.225,43.839,62.363z"/>
		</g>
		<path style="fill:#665E5A;" d="M61.862,79.018l-9.143,7.049c0,0,14.418,30.492,31.332,35.707L61.862,79.018z"/>
		<path style="fill:#665E5A;" d="M82.047,71.689l2.5,50.425c0,0,11.139-25.957,11.619-45.756L82.047,71.689z"/>
		<polygon style="fill:#FFFFFF;" points="73.071,75.672 58.204,71.558 62.883,88.631 73.895,78.928 88.209,83.898 84.76,66.671 		
			"/>
		<g>
			<polygon style="fill:#351F10;" points="98.601,31.958 30.52,42.341 29.555,35.745 97.636,25.362 			"/>
			
				<rect x="43.468" y="2.526" transform="matrix(0.9895 -0.1446 0.1446 0.9895 -1.834 9.1441)" style="fill:#351F10;" width="37.082" height="29.333"/>
			
				<rect x="59.324" y="8.166" transform="matrix(-0.1445 -0.9895 0.9895 -0.1445 46.1359 93.2999)" style="fill:#665E5A;" width="8.148" height="37.082"/>
		</g>
	</g>
	<g>
		<path style="fill:#F7F2E8;" d="M102.946,38.924c0,0-27.932,7.889-28.417,60.705c0,0,49.763,12.344,83.28-13.574
			c0,0-8.74-40.944-35.936-44.087L102.946,38.924z"/>
		<path style="fill:#EABB98;" d="M123.299,81.932c4.641-1.639,8.455-4.205,10.902-7.287c1.596-0.126,3.457-1.971,4.496-4.631
			c1.236-3.17,0.832-6.287-0.898-6.961c-0.398-0.156-0.836-0.162-1.283-0.051c-2.619-7.342-12.797-12.346-24.576-11.56
			c-10.518,0.702-19.156,5.813-22.037,12.329c-0.613-0.428-1.264-0.617-1.889-0.481c-1.818,0.393-2.727,3.317-2.031,6.533
			c0.695,3.215,2.732,5.504,4.551,5.111c0.101-0.023,0.201-0.056,0.299-0.094c2.543,3.879,7.373,6.824,13.322,8.189L90.1,134.772
			l15.092-37.221l17.063-5.143l20.846,37.363L123.299,81.932z"/>
		<path style="fill:#F9EDDC;" d="M109.289,116.01l-5.229-24.389c0,0,6.424-3.689,8.826-3.893c2.664-0.225,10.363,2.612,10.363,2.612
			l-2.455,24.788L109.289,116.01z"/>
		<path style="fill:#351F10;" d="M122.352,41.346c2.42-3.258,12.436-18.285-6.84-20.433c-19.326-2.153-13.811,15.398-12.68,18.532
			c-21.276,3.719-15.154,26.559-15.154,26.559s15.992,0.31,23.266-14.496c0,0,6.105,15.152,25.369,14.969
			C136.313,66.477,137.963,48.058,122.352,41.346z"/>
		
			<ellipse transform="matrix(0.9978 -0.0665 0.0665 0.9978 -4.1569 6.9456)" style="fill:#351F10;" cx="102.321" cy="65.956" rx="2.138" ry="2.319"/>
		
			<ellipse transform="matrix(0.9978 -0.0664 0.0664 0.9978 -4.1041 8.1514)" style="fill:#351F10;" cx="120.493" cy="65.776" rx="2.139" ry="2.319"/>
		<path style="fill:#F9EDDC;" d="M123.512,40.734c1.09-0.81,4.416-3.916,2.4-5.285c-1.582-1.076-5.281,2.479-4.982,3.76
			c-0.084-1.676-0.918-5.473-3.113-4.024c-1.547,1.018-0.518,5.382,0.602,6.626c-1.281-1.793-5.828-1.286-6.072,0.678
			c-0.422,3.42,4.783,3.204,6.752,1.878c-1.271,1.719-3.164,4.55-1.074,5.835c0.205,0.125,2.211,0.006,2.451-0.145
			c0.623-0.388,1.135-1.425,1.314-2.377c0.293,1.538,1.121,3.271,2.518,3.017c2.842-0.519,1.457-5.866,0.313-7.056
			c1.49,1.189,4.102,0.841,4.375-0.998C129.459,39.498,125.366,39.273,123.512,40.734z"/>
		<path style="fill:#FFF7E9;" d="M74.357,197.19c0,0,6.569-86.747,44.382-82.415c37.814,4.33,54.42,71.146,54.42,71.146
			S136.975,214.393,74.357,197.19z"/>
		<path style="fill:#F9EDDC;" d="M120.795,114.129l-11.506,0.881c0,0-33.189,17.762-32.189,63.762c0,0,39-5,42-46c0,0,19,35,49,32
			C168.1,164.772,150.491,114.486,120.795,114.129z"/>
	</g>
</g>
<g>
</g>
<g>
</g>
<g>
</g>
<g>
</g>
<g>
</g>
<g>
</g>
<g>
</g>
<g>
</g>
<g>
</g>
<g>
</g>
<g>
</g>
<g>
</g>
<g>
</g>
<g>
</g>
<g>
</g>
</svg>
