<?xml version="1.0" encoding="iso-8859-1"?>
<!-- Generator: Adobe Illustrator 18.0.0, SVG Export Plug-In . SVG Version: 6.00 Build 0)  -->
<!DOCTYPE svg PUBLIC "-//W3C//DTD SVG 1.1//EN" "http://www.w3.org/Graphics/SVG/1.1/DTD/svg11.dtd">
<svg version="1.1" id="Capa_1" xmlns="http://www.w3.org/2000/svg" xmlns:xlink="http://www.w3.org/1999/xlink" x="0px" y="0px"
	 viewBox="0 0 440 440" style="enable-background:new 0 0 440 440;" xml:space="preserve">
<g>
	<path style="fill:#E2E4E6;" d="M308,32L308,32l7.145,0c7.97,0,15.357-5.447,16.637-13.314C333.411,8.662,325.717,0,316,0L124.856,0
		c-7.97,0-15.358,5.446-16.637,13.313C106.588,23.337,114.283,32,124,32h8v0c0,16.75-8.675,32.11-22.621,41.387
		C55.51,109.216,20,170.453,20,240c0,72.363,38.435,135.744,96,170.858V424c0,8.837,7.163,16,16,16h176c8.837,0,16-7.163,16-16
		v-13.142c57.565-35.114,96-98.495,96-170.858c0-69.547-35.51-130.784-89.379-166.613C316.675,64.11,308,48.75,308,32z"/>
	<g>
		<path style="fill:#D0D8E0;" d="M395.961,191.867c0.217,11.624-0.479,23.474-2.168,35.488
			c-13.51,96.091-90.325,172.908-186.414,186.434c-35.498,4.997-69.56,1.321-100.608-8.968c3.026,2.083,6.086,4.12,9.229,6.037V424
			c0,8.837,7.163,16,16,16h176c8.837,0,16-7.163,16-16v-13.142c57.565-35.114,96-98.495,96-170.858
			c0-17.522-2.266-34.508-6.513-50.692C410.843,179.232,395.767,181.452,395.961,191.867z"/>
	</g>
	<path style="fill:#4C9BD5;" d="M72.239,160C59.333,183.786,52,211.036,52,240c0,92.784,75.216,168,168,168s168-75.216,168-168
		c0-28.964-7.333-56.214-20.239-80H72.239z"/>
	<path style="fill:#1470B7;" d="M386.966,258.271c-20.992,71.233-77.483,127.713-148.722,148.699
		C316.431,398.52,378.502,336.456,386.966,258.271z"/>
	<path style="fill:#FCCF63;" d="M194.584,241.248c-17.209,1.456-32.551,9.915-45.642,25.179c-1.257,1.466-1.256,3.663,0.001,5.129
		c14.472,16.875,31.654,25.432,51.064,25.432c3.802,0,7.29-0.12,10.555-0.364c1.575-0.118,3.141,0.417,4.324,1.465
		c6.751,5.98,12.374,8.898,17.117,8.898c1.396,0,2.691-0.728,3.416-1.92c0.729-1.193,0.775-2.676,0.137-3.917
		c-1.131-2.19-1.494-5.66-1.057-9.915c4.597-1.984,8.705-4.507,12.409-7.602c1.597-1.335,3.93-1.204,5.4,0.269
		c5.521,5.534,11.733,9.255,17.755,12.586c1.375,0.762,3.07,0.646,4.33-0.297c1.259-0.941,1.855-2.539,1.509-4.07
		c-1.086-4.888-3.904-18.572-3.904-23.13c0-4.558,2.818-18.242,3.904-23.13c0.065-0.288,0.096-0.579,0.096-0.867
		c0-1.244-0.582-2.438-1.605-3.203c-1.26-0.942-2.955-1.058-4.33-0.297c-6.026,3.333-12.242,7.057-17.766,12.597
		c-1.467,1.472-3.797,1.608-5.393,0.276c-5.152-4.299-11.102-7.507-18.008-9.683c-1.18-4.756-1.57-10.317,0.482-13.542
		c0.783-1.228,0.834-2.79,0.131-4.072c-0.701-1.279-2.045-2.075-3.505-2.075c-8.68,0-19.557,7.593-27.935,14.809
		C197.089,240.648,195.873,241.138,194.584,241.248z"/>
	<circle style="fill:#566E7F;" cx="169.998" cy="266.991" r="4"/>
	<circle style="fill:#E2E4E6;" cx="136" cy="244" r="4"/>
	<circle style="fill:#E2E4E6;" cx="148" cy="224" r="8"/>
	<circle style="fill:#E2E4E6;" cx="128" cy="196" r="12"/>
	<path style="fill:#F6B74E;" d="M181.554,294.184c5.899,1.853,12.052,2.803,18.453,2.803c3.802,0,7.29-0.12,10.555-0.364
		c1.575-0.118,3.141,0.417,4.324,1.465c6.751,5.98,12.374,8.898,17.117,8.898c1.396,0,2.691-0.728,3.416-1.92
		c0.729-1.193,0.775-2.676,0.137-3.917c-1.131-2.19-1.494-5.66-1.057-9.915c4.597-1.984,8.705-4.507,12.409-7.602
		c1.597-1.335,3.93-1.204,5.4,0.269c5.521,5.534,11.733,9.255,17.755,12.586c1.375,0.762,3.07,0.646,4.33-0.297
		c1.259-0.941,1.855-2.539,1.509-4.07c-1.086-4.888-3.904-18.572-3.904-23.13h-81.991
		C190.008,278.456,186.839,287.161,181.554,294.184z"/>
	<g>
		<path style="fill:#F6B74E;" d="M228.059,239.729c-8.464-2.103-31.525,1.099-32.414,1.33c0.786-0.029,1.569-0.066,2.363-0.066
			c10.416,0,21.181,1.174,30.889,3.69C228.591,243.325,228.189,241.117,228.059,239.729z"/>
	</g>
	<path style="fill:#D0D8E0;" d="M316,32H124c-8.837,0-16-7.163-16-16v0h224v0C332,24.837,324.837,32,316,32z"/>
	<g>
		<path style="fill:#73AE43;" d="M228,400c-4.418,0-8-3.582-8-8v-40c0-4.418,3.582-8,8-8s8,3.582,8,8v40
			C236,396.418,232.418,400,228,400z"/>
	</g>
	<g>
		<path style="fill:#73AE43;" d="M220,400c-4.418,0-8-3.582-8-8v-24c0-4.418,3.582-8,8-8s8,3.582,8,8v24
			C228,396.418,224.418,400,220,400z"/>
	</g>
	<g>
		<path style="fill:#73AE43;" d="M236,400c-4.418,0-8-3.582-8-8v-24c0-4.418,3.582-8,8-8s8,3.582,8,8v24
			C244,396.418,240.418,400,236,400z"/>
	</g>
	<path style="fill:#7D4B22;" d="M268.352,392.506C266.947,392.193,265.499,392,264,392c-5.122,0-9.744,1.982-13.282,5.148
		C247.912,389.493,240.628,384,232,384c-5.122,0-9.744,1.982-13.282,5.148C215.912,381.493,208.628,376,200,376
		s-15.912,5.493-18.718,13.148C177.744,385.982,173.122,384,168,384c-7.046,0-13.212,3.663-16.775,9.168
		C172.235,402.619,195.469,408,220,408c30.91,0,59.774-8.492,84.653-23.056C301.069,379.558,294.955,376,288,376
		C278.151,376,270.01,383.133,268.352,392.506z"/>
</g>
<g>
</g>
<g>
</g>
<g>
</g>
<g>
</g>
<g>
</g>
<g>
</g>
<g>
</g>
<g>
</g>
<g>
</g>
<g>
</g>
<g>
</g>
<g>
</g>
<g>
</g>
<g>
</g>
<g>
</g>
</svg>
