<?xml version="1.0" encoding="iso-8859-1"?>
<!-- Generator: Adobe Illustrator 18.0.0, SVG Export Plug-In . SVG Version: 6.00 Build 0)  -->
<!DOCTYPE svg PUBLIC "-//W3C//DTD SVG 1.1//EN" "http://www.w3.org/Graphics/SVG/1.1/DTD/svg11.dtd">
<svg version="1.1" id="Capa_1" xmlns="http://www.w3.org/2000/svg" xmlns:xlink="http://www.w3.org/1999/xlink" x="0px" y="0px"
	 viewBox="0 0 60 60" style="enable-background:new 0 0 60 60;" xml:space="preserve">
<polygon style="fill:#556080;" points="15,59 12,59 12,55 17,55 "/>
<polygon style="fill:#556080;" points="45,59 48,59 48,55 43,55 "/>
<line style="fill:none;stroke:#A1C8EC;stroke-width:2;stroke-linecap:round;stroke-linejoin:round;stroke-miterlimit:10;" x1="1" y1="59" x2="59" y2="59"/>
<rect x="3" y="27" style="fill:#AFB6BB;stroke:#AFB6BB;stroke-width:2;stroke-linecap:round;stroke-linejoin:round;stroke-miterlimit:10;" width="4" height="6"/>
<polyline style="fill:none;stroke:#AFB6BB;stroke-width:2;stroke-linecap:round;stroke-linejoin:round;stroke-miterlimit:10;" points="
	3,27 3,22 6,22 "/>
<polyline style="fill:none;stroke:#AFB6BB;stroke-width:2;stroke-linecap:round;stroke-linejoin:round;stroke-miterlimit:10;" points="
	7,27 12,22 13,22 "/>
<rect x="40" y="5" style="fill:#57ABC1;" width="17" height="47"/>
<line style="fill:none;stroke:#556080;stroke-width:2;stroke-linecap:round;stroke-linejoin:round;stroke-miterlimit:10;" x1="38" y1="2" x2="59" y2="2"/>
<line style="fill:none;stroke:#C7CAC7;stroke-width:2;stroke-linecap:round;stroke-linejoin:round;stroke-miterlimit:10;" x1="41" y1="1" x2="41" y2="5"/>
<line style="fill:none;stroke:#C7CAC7;stroke-width:2;stroke-linecap:round;stroke-linejoin:round;stroke-miterlimit:10;" x1="44" y1="1" x2="44" y2="5"/>
<line style="fill:none;stroke:#C7CAC7;stroke-width:2;stroke-linecap:round;stroke-linejoin:round;stroke-miterlimit:10;" x1="47" y1="1" x2="47" y2="5"/>
<line style="fill:none;stroke:#C7CAC7;stroke-width:2;stroke-linecap:round;stroke-linejoin:round;stroke-miterlimit:10;" x1="50" y1="1" x2="50" y2="5"/>
<line style="fill:none;stroke:#C7CAC7;stroke-width:2;stroke-linecap:round;stroke-linejoin:round;stroke-miterlimit:10;" x1="53" y1="1" x2="53" y2="5"/>
<line style="fill:none;stroke:#C7CAC7;stroke-width:2;stroke-linecap:round;stroke-linejoin:round;stroke-miterlimit:10;" x1="56" y1="1" x2="56" y2="5"/>
<g>
	<path style="fill:#EAEBF0;" d="M40,33H3c-1.1,0-2,0.9-2,2s0.9,2,2,2h37V33z"/>
</g>
<g>
	<path style="fill:#D6D9DF;" d="M40,52V37H3l3.722,13.399C7.477,53.118,9.953,55,12.775,55h34.451c2.222,0,4.215-1.177,5.336-3H40z"
		/>
</g>
<circle style="fill:#A1C8EC;" cx="42" cy="8" r="1"/>
<circle style="fill:#A1C8EC;" cx="42" cy="14" r="1"/>
<circle style="fill:#A1C8EC;" cx="45" cy="11" r="1"/>
<circle style="fill:#A1C8EC;" cx="45" cy="17" r="1"/>
<circle style="fill:#A1C8EC;" cx="48" cy="8" r="1"/>
<circle style="fill:#A1C8EC;" cx="54" cy="8" r="1"/>
<circle style="fill:#A1C8EC;" cx="48" cy="14" r="1"/>
<circle style="fill:#A1C8EC;" cx="54" cy="14" r="1"/>
<circle style="fill:#A1C8EC;" cx="51" cy="11" r="1"/>
<circle style="fill:#A1C8EC;" cx="51" cy="17" r="1"/>
<circle style="fill:#A1C8EC;" cx="42" cy="20" r="1"/>
<circle style="fill:#A1C8EC;" cx="42" cy="26" r="1"/>
<circle style="fill:#A1C8EC;" cx="45" cy="23" r="1"/>
<circle style="fill:#A1C8EC;" cx="45" cy="29" r="1"/>
<circle style="fill:#A1C8EC;" cx="48" cy="20" r="1"/>
<circle style="fill:#A1C8EC;" cx="54" cy="20" r="1"/>
<circle style="fill:#A1C8EC;" cx="48" cy="26" r="1"/>
<circle style="fill:#A1C8EC;" cx="54" cy="26" r="1"/>
<circle style="fill:#A1C8EC;" cx="51" cy="23" r="1"/>
<circle style="fill:#A1C8EC;" cx="51" cy="29" r="1"/>
<circle style="fill:#A1C8EC;" cx="42" cy="32" r="1"/>
<circle style="fill:#A1C8EC;" cx="42" cy="38" r="1"/>
<circle style="fill:#A1C8EC;" cx="45" cy="35" r="1"/>
<circle style="fill:#A1C8EC;" cx="45" cy="41" r="1"/>
<circle style="fill:#A1C8EC;" cx="48" cy="32" r="1"/>
<circle style="fill:#A1C8EC;" cx="54" cy="32" r="1"/>
<circle style="fill:#A1C8EC;" cx="48" cy="38" r="1"/>
<circle style="fill:#A1C8EC;" cx="54" cy="38" r="1"/>
<circle style="fill:#A1C8EC;" cx="51" cy="35" r="1"/>
<circle style="fill:#A1C8EC;" cx="51" cy="41" r="1"/>
<circle style="fill:#A1C8EC;" cx="42" cy="44" r="1"/>
<circle style="fill:#A1C8EC;" cx="42" cy="50" r="1"/>
<circle style="fill:#A1C8EC;" cx="45" cy="47" r="1"/>
<circle style="fill:#A1C8EC;" cx="48" cy="44" r="1"/>
<circle style="fill:#A1C8EC;" cx="54" cy="44" r="1"/>
<circle style="fill:#A1C8EC;" cx="48" cy="50" r="1"/>
<circle style="fill:#A1C8EC;" cx="54" cy="50" r="1"/>
<circle style="fill:#A1C8EC;" cx="51" cy="47" r="1"/>
<g>
</g>
<g>
</g>
<g>
</g>
<g>
</g>
<g>
</g>
<g>
</g>
<g>
</g>
<g>
</g>
<g>
</g>
<g>
</g>
<g>
</g>
<g>
</g>
<g>
</g>
<g>
</g>
<g>
</g>
</svg>
