<?xml version="1.0" encoding="iso-8859-1"?>
<!-- Generator: Adobe Illustrator 19.0.0, SVG Export Plug-In . SVG Version: 6.00 Build 0)  -->
<svg xmlns="http://www.w3.org/2000/svg" xmlns:xlink="http://www.w3.org/1999/xlink" version="1.1" id="Layer_1" x="0px" y="0px" viewBox="0 0 424.555 424.555" style="enable-background:new 0 0 424.555 424.555;" xml:space="preserve" width="512" height="512">
<g>
	<rect x="74.6" y="24.227" style="fill:#4CC18E;" width="275.359" height="376.101"/>
	<g>
		<rect x="83.6" style="fill:#4CC18E;" width="11.551" height="35.542"/>
		<rect x="329.408" style="fill:#4CC18E;" width="11.551" height="35.542"/>
		<rect x="302.096" style="fill:#4CC18E;" width="11.551" height="35.542"/>
		<rect x="274.784" style="fill:#4CC18E;" width="11.551" height="35.542"/>
		<rect x="247.472" style="fill:#4CC18E;" width="11.551" height="35.542"/>
		<rect x="220.16" style="fill:#4CC18E;" width="11.551" height="35.542"/>
		<rect x="165.536" style="fill:#4CC18E;" width="11.551" height="35.542"/>
		<rect x="192.848" style="fill:#4CC18E;" width="11.551" height="35.542"/>
		<rect x="138.224" style="fill:#4CC18E;" width="11.551" height="35.542"/>
		<rect x="110.912" style="fill:#4CC18E;" width="11.551" height="35.542"/>
	</g>
	<g>
		<rect x="83.6" y="389.013" style="fill:#4CC18E;" width="11.551" height="35.542"/>
		<rect x="329.408" y="389.013" style="fill:#4CC18E;" width="11.551" height="35.542"/>
		<rect x="302.096" y="389.013" style="fill:#4CC18E;" width="11.551" height="35.542"/>
		<rect x="274.784" y="389.013" style="fill:#4CC18E;" width="11.551" height="35.542"/>
		<rect x="247.472" y="389.013" style="fill:#4CC18E;" width="11.551" height="35.542"/>
		<rect x="220.16" y="389.013" style="fill:#4CC18E;" width="11.551" height="35.542"/>
		<rect x="165.536" y="389.013" style="fill:#4CC18E;" width="11.551" height="35.542"/>
		<rect x="192.848" y="389.013" style="fill:#4CC18E;" width="11.551" height="35.542"/>
		<rect x="138.224" y="389.013" style="fill:#4CC18E;" width="11.551" height="35.542"/>
		<rect x="110.912" y="389.013" style="fill:#4CC18E;" width="11.551" height="35.542"/>
	</g>
	<path style="fill:#F24125;" d="M212.283,265.027c20.261,0,38.978,6.772,53.955,18.179c-14.966,11.418-33.672,18.19-53.955,18.19   c-20.272,0-38.978-6.772-53.955-18.19C173.294,271.799,191.999,265.027,212.283,265.027z"/>
	<path style="fill:#F24125;" d="M141.346,158.325c11.407,14.978,18.179,33.683,18.179,53.955s-6.772,38.978-18.179,53.944   c-11.418-14.966-18.19-33.672-18.19-53.944S129.928,173.303,141.346,158.325z"/>
	<path style="fill:#F24125;" d="M266.238,141.344c-14.978,11.407-33.694,18.179-53.955,18.179c-20.284,0-38.989-6.772-53.955-18.179   c14.978-11.418,33.683-18.19,53.955-18.19C232.566,123.154,251.271,129.926,266.238,141.344z"/>
	<path style="fill:#F24125;" d="M283.219,158.325c11.407,14.978,18.179,33.683,18.179,53.955s-6.772,38.978-18.179,53.944   c-11.418-14.966-18.19-33.672-18.19-53.944S271.801,173.303,283.219,158.325z"/>
	<path style="fill:#F7B239;" d="M349.958,113.348v197.866c-49.22,0-89.127,39.896-89.127,89.116h-97.108   c0-49.22-39.907-89.116-89.127-89.116V113.348c49.22,0,89.127-39.896,89.127-89.116h97.108   C260.831,73.452,300.738,113.348,349.958,113.348z M301.398,212.281c0-20.272-6.772-38.978-18.179-53.955   c-4.869-6.392-10.578-12.112-16.981-16.981c-14.966-11.418-33.672-18.19-53.955-18.19c-20.272,0-38.978,6.772-53.955,18.19   c-6.392,4.869-12.112,10.59-16.981,16.981c-11.418,14.978-18.19,33.683-18.19,53.955s6.772,38.978,18.19,53.944   c4.869,6.403,10.59,12.123,16.981,16.981c14.978,11.418,33.683,18.19,53.955,18.19c20.284,0,38.989-6.772,53.955-18.19   c6.403-4.869,12.112-10.578,16.981-16.981C294.626,251.258,301.398,232.553,301.398,212.281z"/>
	<path style="fill:#F7B239;" d="M260.831,24.232h-97.108c0,49.22-39.907,89.116-89.127,89.116v197.866   c49.22,0,89.127,39.896,89.127,89.116h97.108c0-49.22,39.907-89.116,89.127-89.116V113.348   C300.738,113.348,260.831,73.452,260.831,24.232z M212.283,123.154c20.103,0,38.651,6.659,53.55,17.894   c-15.017,10.985-33.539,17.484-53.55,17.484c-20.034,0-38.545-6.499-53.551-17.483C173.642,129.813,192.19,123.154,212.283,123.154   z M233.541,212.281c0,11.735-9.523,21.258-21.258,21.258c-11.747,0-21.258-9.523-21.258-21.258   c0-11.747,9.511-21.258,21.258-21.258C224.018,191.023,233.541,200.534,233.541,212.281z M123.156,212.281   c0-20.093,6.659-38.64,17.894-53.55c10.985,15.016,17.484,33.528,17.484,53.551c0,20.022-6.499,38.534-17.483,53.54   C129.815,250.921,123.156,232.373,123.156,212.281z M212.283,301.396c-20.093,0-38.641-6.66-53.551-17.895   c15.006-10.985,33.517-17.483,53.551-17.483c20.012,0,38.534,6.499,53.55,17.484C250.934,294.737,232.386,301.396,212.283,301.396z    M283.515,265.821c-10.995-15.006-17.494-33.517-17.494-53.54c0-20.023,6.499-38.535,17.494-53.551   c11.224,14.91,17.883,33.458,17.883,53.551S294.739,250.921,283.515,265.821z"/>
	<path style="fill:#4CC18E;" d="M212.283,191.415c11.519,0,20.866,9.336,20.866,20.866c0,11.519-9.347,20.866-20.866,20.866   c-11.53,0-20.866-9.347-20.866-20.866C191.417,200.751,200.753,191.415,212.283,191.415z"/>
	<g>
		<g>
			<path style="fill:#F7B239;" d="M109.67,64.176c-0.39,0-0.79-0.04-1.18-0.12c-0.38-0.08-0.76-0.19-1.12-0.34s-0.71-0.34-1.03-0.56     c-0.33-0.21-0.64-0.47-0.92-0.74c-0.27-0.28-0.52-0.58-0.74-0.91c-0.22-0.33-0.4-0.68-0.55-1.04c-0.15-0.36-0.27-0.74-0.35-1.12     c-0.07-0.39-0.11-0.78-0.11-1.17s0.04-0.79,0.11-1.18c0.08-0.38,0.2-0.76,0.35-1.12c0.15-0.36,0.33-0.71,0.55-1.03     c0.22-0.33,0.47-0.64,0.74-0.92c0.28-0.27,0.59-0.52,0.92-0.74c0.32-0.22,0.67-0.4,1.03-0.55s0.74-0.27,1.12-0.35     c0.78-0.15,1.58-0.15,2.35,0c0.38,0.08,0.76,0.2,1.12,0.35c0.36,0.15,0.71,0.33,1.04,0.55c0.33,0.22,0.63,0.47,0.91,0.74     c1.12,1.12,1.76,2.67,1.76,4.25c0,1.57-0.64,3.12-1.76,4.24c-0.28,0.27-0.58,0.53-0.91,0.74c-0.33,0.22-0.68,0.41-1.04,0.56     c-0.36,0.15-0.74,0.26-1.12,0.34C110.451,64.136,110.061,64.176,109.67,64.176z"/>
			<path style="fill:#F7B239;" d="M314.891,64.176c-0.39,0-0.78-0.04-1.17-0.12c-0.38-0.08-0.76-0.19-1.12-0.34     c-0.37-0.15-0.72-0.34-1.04-0.56c-0.33-0.21-0.64-0.47-0.91-0.74c-0.28-0.28-0.53-0.59-0.75-0.91c-0.21-0.33-0.4-0.68-0.55-1.04     s-0.26-0.74-0.34-1.12c-0.08-0.39-0.12-0.78-0.12-1.17s0.04-0.79,0.12-1.18c0.08-0.38,0.19-0.76,0.34-1.12     c0.15-0.36,0.34-0.71,0.55-1.04c0.22-0.32,0.47-0.63,0.75-0.91c0.27-0.27,0.58-0.52,0.91-0.74c0.32-0.22,0.67-0.4,1.04-0.55     c0.36-0.15,0.74-0.27,1.12-0.35c1.95-0.39,4.02,0.25,5.41,1.64c0.28,0.28,0.53,0.59,0.75,0.91c0.22,0.33,0.4,0.68,0.55,1.04     c0.15,0.36,0.27,0.74,0.34,1.12c0.08,0.39,0.12,0.79,0.12,1.18s-0.04,0.78-0.12,1.17c-0.07,0.38-0.19,0.76-0.34,1.12     s-0.33,0.71-0.55,1.04c-0.22,0.32-0.47,0.63-0.75,0.91C318.021,63.536,316.471,64.176,314.891,64.176z"/>
		</g>
		<g>
			<path style="fill:#F7B239;" d="M109.67,372.386c-0.39,0-0.79-0.04-1.18-0.12c-0.38-0.08-0.76-0.19-1.12-0.34     s-0.71-0.34-1.03-0.56c-0.33-0.21-0.64-0.47-0.92-0.74c-0.27-0.28-0.52-0.58-0.74-0.91c-0.22-0.33-0.4-0.68-0.55-1.04     c-0.15-0.36-0.27-0.74-0.35-1.12c-0.07-0.39-0.11-0.78-0.11-1.17c0-0.4,0.04-0.79,0.11-1.18c0.08-0.38,0.2-0.76,0.35-1.12     c0.15-0.36,0.33-0.71,0.55-1.04c0.22-0.32,0.47-0.63,0.74-0.91c0.28-0.27,0.59-0.52,0.92-0.74c0.32-0.22,0.67-0.4,1.03-0.56     c0.36-0.15,0.74-0.26,1.12-0.34c0.78-0.15,1.58-0.15,2.35,0c0.38,0.08,0.76,0.19,1.12,0.34c0.36,0.16,0.71,0.34,1.04,0.56     c0.33,0.22,0.63,0.47,0.91,0.74c1.12,1.12,1.76,2.67,1.76,4.25c0,1.57-0.64,3.12-1.76,4.24c-0.28,0.27-0.58,0.53-0.91,0.74     c-0.33,0.22-0.68,0.41-1.04,0.56c-0.36,0.15-0.74,0.26-1.12,0.34C110.451,372.346,110.061,372.386,109.67,372.386z"/>
			<path style="fill:#F7B239;" d="M314.891,372.386c-0.39,0-0.78-0.04-1.17-0.12c-0.38-0.08-0.76-0.19-1.12-0.34     c-0.37-0.15-0.72-0.34-1.04-0.56c-0.33-0.22-0.64-0.47-0.91-0.74c-0.28-0.28-0.53-0.59-0.75-0.91c-0.21-0.33-0.4-0.68-0.55-1.04     s-0.26-0.74-0.34-1.12c-0.08-0.39-0.12-0.78-0.12-1.17s0.04-0.79,0.12-1.18c0.08-0.38,0.19-0.76,0.34-1.12     c0.15-0.36,0.34-0.71,0.55-1.04c0.22-0.32,0.47-0.63,0.75-0.91c0.27-0.27,0.58-0.53,0.91-0.74c0.32-0.22,0.67-0.41,1.04-0.56     c0.36-0.15,0.74-0.26,1.12-0.34c1.95-0.39,4.02,0.25,5.41,1.64c0.28,0.28,0.53,0.59,0.75,0.91c0.22,0.33,0.4,0.68,0.55,1.04     c0.15,0.36,0.27,0.74,0.34,1.12c0.08,0.39,0.12,0.79,0.12,1.18s-0.04,0.78-0.12,1.17c-0.07,0.38-0.19,0.76-0.34,1.12     s-0.33,0.71-0.55,1.04c-0.22,0.32-0.47,0.63-0.75,0.91C318.021,371.736,316.471,372.386,314.891,372.386z"/>
		</g>
	</g>
	<g>
		<g>
			<path style="fill:#4CC18E;" d="M109.67,152.106c-0.39,0-0.79-0.04-1.18-0.11c-0.38-0.08-0.76-0.2-1.12-0.35     c-0.36-0.15-0.71-0.33-1.03-0.55c-0.33-0.22-0.64-0.47-0.92-0.74c-0.27-0.28-0.52-0.59-0.74-0.92c-0.22-0.32-0.4-0.67-0.55-1.03     c-0.15-0.36-0.27-0.74-0.35-1.12c-0.07-0.39-0.11-0.79-0.11-1.18c0-0.39,0.04-0.78,0.11-1.17c0.08-0.38,0.2-0.76,0.35-1.12     c0.15-0.36,0.33-0.71,0.55-1.04c0.22-0.33,0.47-0.63,0.74-0.91c0.28-0.27,0.59-0.53,0.92-0.74c0.32-0.22,0.67-0.41,1.03-0.56     s0.74-0.26,1.12-0.34c0.78-0.15,1.58-0.15,2.35,0c0.38,0.08,0.76,0.19,1.12,0.34c0.36,0.15,0.71,0.34,1.04,0.56     c0.33,0.21,0.63,0.47,0.91,0.74c1.12,1.12,1.76,2.67,1.76,4.24c0,1.58-0.64,3.13-1.76,4.25c-0.28,0.27-0.58,0.52-0.91,0.74     c-0.33,0.22-0.68,0.4-1.04,0.55c-0.36,0.15-0.74,0.27-1.12,0.35C110.451,152.066,110.061,152.106,109.67,152.106z"/>
			<path style="fill:#4CC18E;" d="M314.891,152.106c-0.39,0-0.79-0.03-1.17-0.11c-0.38-0.08-0.76-0.19-1.12-0.34     c-0.37-0.15-0.72-0.34-1.04-0.56c-0.33-0.21-0.64-0.47-0.91-0.74c-1.12-1.12-1.76-2.67-1.76-4.24c0-0.4,0.04-0.79,0.12-1.18     c0.08-0.38,0.19-0.76,0.34-1.12c0.15-0.36,0.34-0.71,0.55-1.04c0.22-0.32,0.47-0.63,0.75-0.91c0.27-0.27,0.58-0.53,0.91-0.74     c0.32-0.22,0.67-0.41,1.04-0.56c0.36-0.15,0.74-0.26,1.12-0.34c1.95-0.39,4.02,0.25,5.41,1.64c0.28,0.28,0.53,0.59,0.75,0.91     c0.22,0.33,0.4,0.68,0.55,1.04c0.15,0.36,0.27,0.74,0.34,1.12c0.08,0.39,0.12,0.78,0.12,1.18c0,1.58-0.64,3.12-1.76,4.24     C318.021,151.466,316.471,152.106,314.891,152.106z"/>
		</g>
		<g>
			<path style="fill:#4CC18E;" d="M109.67,284.446c-0.39,0-0.79-0.04-1.18-0.12c-0.38-0.08-0.76-0.19-1.12-0.34     s-0.71-0.34-1.03-0.55c-0.33-0.22-0.64-0.47-0.92-0.75c-0.27-0.28-0.52-0.58-0.74-0.91c-0.22-0.33-0.4-0.68-0.55-1.04     c-0.15-0.36-0.27-0.74-0.35-1.12c-0.07-0.39-0.11-0.78-0.11-1.17s0.04-0.79,0.11-1.17c0.08-0.39,0.2-0.77,0.35-1.13     c0.15-0.36,0.33-0.71,0.55-1.03c0.22-0.33,0.47-0.64,0.74-0.91c0.28-0.28,0.59-0.53,0.92-0.75c0.32-0.22,0.67-0.4,1.03-0.55     s0.74-0.27,1.12-0.35c0.78-0.15,1.58-0.15,2.35,0c0.38,0.08,0.76,0.2,1.12,0.35c0.36,0.15,0.71,0.33,1.04,0.55     c0.33,0.22,0.63,0.47,0.91,0.75c1.12,1.11,1.76,2.66,1.76,4.24s-0.64,3.12-1.76,4.24c-0.28,0.28-0.58,0.53-0.91,0.75     c-0.33,0.21-0.68,0.4-1.04,0.55c-0.36,0.15-0.74,0.26-1.12,0.34C110.451,284.406,110.061,284.446,109.67,284.446z"/>
			<path style="fill:#4CC18E;" d="M314.891,284.446c-0.39,0-0.78-0.04-1.17-0.12c-0.38-0.08-0.76-0.19-1.12-0.34     c-0.37-0.15-0.72-0.34-1.04-0.55c-0.33-0.22-0.64-0.47-0.91-0.75c-0.28-0.28-0.53-0.58-0.75-0.91c-0.21-0.33-0.4-0.68-0.55-1.04     s-0.26-0.74-0.34-1.12c-0.08-0.39-0.12-0.78-0.12-1.17c0-1.58,0.64-3.13,1.76-4.25c0.27-0.27,0.58-0.52,0.91-0.74     c0.32-0.22,0.67-0.4,1.04-0.55c0.36-0.15,0.74-0.27,1.12-0.35c1.95-0.39,4.02,0.25,5.41,1.64c1.12,1.12,1.76,2.67,1.76,4.25     c0,0.39-0.04,0.78-0.12,1.17c-0.07,0.38-0.19,0.76-0.34,1.12s-0.33,0.71-0.55,1.04c-0.22,0.33-0.47,0.63-0.75,0.91     C318.021,283.806,316.471,284.446,314.891,284.446z"/>
		</g>
	</g>
</g>















</svg>
