<?xml version="1.0" encoding="iso-8859-1"?>
<!-- Generator: Adobe Illustrator 19.0.0, SVG Export Plug-In . SVG Version: 6.00 Build 0)  -->
<svg version="1.1" id="Capa_1" xmlns="http://www.w3.org/2000/svg" xmlns:xlink="http://www.w3.org/1999/xlink" x="0px" y="0px"
	 viewBox="0 0 512 512" style="enable-background:new 0 0 512 512;" xml:space="preserve">
<path style="fill:#E6E9ED;" d="M505.387,7.936H100.666c-3.637,0-6.613,2.976-6.613,6.613v468.207c0,3.637,2.976,6.613,6.613,6.613
	h404.721c3.638,0,6.613-2.976,6.613-6.613V14.549C512,10.912,509.024,7.936,505.387,7.936z"/>
<g>
	<path style="fill:#B1E8FF;" d="M505.387,7.936H353.521L99.281,262L267,429.719l245-244.824V14.549
		C512,10.912,509.024,7.936,505.387,7.936z"/>
	<path style="fill:#B1E8FF;" d="M94.053,316.969v165.787c0,3.637,2.976,6.613,6.613,6.613h106.861l29.463-29.463L94.053,316.969z"/>
</g>
<g>
	<path style="fill:#63C3EA;" d="M240.863,285.25c-1.92,0-3.839-0.732-5.303-2.197c-2.929-2.929-2.929-7.678,0-10.606
		l112.423-112.422c2.929-2.929,7.678-2.93,10.607,0c2.929,2.929,2.929,7.678,0,10.606L246.166,283.053
		C244.702,284.518,242.783,285.25,240.863,285.25z"/>
	<path style="fill:#63C3EA;" d="M299.243,330.197c-2.929-2.93-7.678-2.929-10.606,0L228,390.833l10.607,10.606l60.636-60.636
		C302.172,337.875,302.172,333.126,299.243,330.197z"/>
	<path style="fill:#63C3EA;" d="M126.606,289.628l32.825-32.825c2.929-2.929,2.929-7.678,0-10.606
		c-2.929-2.929-7.678-2.929-10.607,0L116,279.022L126.606,289.628z"/>
</g>
<g style="opacity:0.1;">
	<path style="fill:#231F20;" d="M124.571,482.756v-135.27l-30.518-30.517v165.787c0,3.637,2.976,6.613,6.613,6.613h30.518
		C127.547,489.369,124.571,486.393,124.571,482.756z"/>
	<path style="fill:#231F20;" d="M124.571,284.922V14.549c0-3.638,2.976-6.613,6.613-6.613h-30.518c-3.637,0-6.613,2.976-6.613,6.613
		v239.855L124.571,284.922z"/>
</g>
<path style="fill:#08375E;" d="M252.74,468.341c-2.012,2.012-5.303,2.012-7.315,0L35.724,258.639c-2.012-2.012-2.012-5.303,0-7.315
	l23.966-23.967c2.012-2.012,5.304-2.012,7.315,0l209.702,209.702c2.012,2.012,2.012,5.303,0,7.315L252.74,468.341z"/>
<path style="opacity:0.1;fill:#231F20;enable-background:new    ;" d="M52.637,275.382c-2.012-2.012-2.012-5.303,0-7.315
	L76.603,244.1c1.748-1.748,4.46-1.973,6.462-0.683l-16.06-16.06c-2.012-2.012-5.303-2.012-7.315,0l-23.966,23.967
	c-2.012,2.012-2.012,5.303,0,7.315L52.637,275.382z"/>
<path style="fill:#FFBB4A;" d="M156.94,411.643c-2.012,2.012-5.303,2.012-7.315,0l-57.204-57.204c-2.012-2.012-2.012-5.303,0-7.315
	l25.922-25.921c2.012-2.012,5.303-2.012,7.315,0l57.203,57.203c2.012,2.012,2.012,5.304,0,7.315L156.94,411.643z"/>
<path style="fill:#FB8276;" d="M24.971,502.555c-2.012,2.012-5.304,2.012-7.315,0L1.509,486.409c-2.012-2.012-2.012-5.303,0-7.315
	l115.857-115.857c2.012-2.012,5.303-2.012,7.315,0l16.145,16.146c2.012,2.012,2.012,5.303,0,7.315L24.971,502.555z"/>
<path style="opacity:0.1;fill:#231F20;enable-background:new    ;" d="M10.644,488.23l115.858-115.857
	c2.011-2.011,5.3-2.011,7.313-0.003l-9.133-9.133c-2.012-2.012-5.303-2.012-7.315,0L1.509,479.094c-2.012,2.012-2.012,5.304,0,7.315
	l9.134,9.134C8.633,493.531,8.633,490.241,10.644,488.23z"/>
<g>
	<path style="fill:#FCC96C;" d="M342.018,132.934c-1.852,0-3.492-1.204-4.042-2.975c-6.631-21.3-11.186-25.854-32.487-32.487
		c-1.77-0.55-2.976-2.19-2.976-4.044s1.206-3.49,2.976-4.04c21.301-6.634,25.856-11.189,32.487-32.489
		c0.55-1.77,2.19-2.975,4.042-2.975c1.855,0,3.491,1.205,4.042,2.975c6.634,21.3,11.188,25.855,32.488,32.489
		c1.77,0.55,2.976,2.187,2.976,4.04c0,1.854-1.206,3.493-2.976,4.044c-21.3,6.633-25.854,11.187-32.488,32.487
		C345.509,131.73,343.873,132.934,342.018,132.934z"/>
	<path style="fill:#FCC96C;" d="M30.793,207.651c-1.444,0-2.722-0.939-3.151-2.318c-5.17-16.603-8.719-20.153-25.322-25.323
		C0.941,179.581,0,178.303,0,176.858c0-1.445,0.941-2.72,2.32-3.149c16.603-5.172,20.153-8.721,25.322-25.324
		c0.429-1.379,1.706-2.318,3.151-2.318c1.446,0,2.721,0.939,3.151,2.318c5.171,16.603,8.72,20.152,25.323,25.324
		c1.379,0.429,2.319,1.704,2.319,3.149s-0.939,2.723-2.319,3.152c-16.603,5.17-20.152,8.72-25.323,25.323
		C33.515,206.713,32.24,207.651,30.793,207.651z"/>
	<path style="fill:#FCC96C;" d="M351.927,281.902c-1.153,0-2.173-0.749-2.516-1.851c-4.127-13.256-6.962-16.09-20.218-20.218
		c-1.101-0.343-1.853-1.363-1.853-2.517c0-1.153,0.751-2.171,1.853-2.514c13.256-4.129,16.091-6.963,20.218-20.219
		c0.343-1.102,1.363-1.851,2.516-1.851c1.155,0,2.172,0.749,2.516,1.851c4.129,13.256,6.962,16.09,20.218,20.219
		c1.102,0.343,1.852,1.361,1.852,2.514c0,1.154-0.75,2.174-1.852,2.517c-13.256,4.128-16.089,6.962-20.218,20.218
		C354.1,281.153,353.082,281.902,351.927,281.902z"/>
</g>
<g>
</g>
<g>
</g>
<g>
</g>
<g>
</g>
<g>
</g>
<g>
</g>
<g>
</g>
<g>
</g>
<g>
</g>
<g>
</g>
<g>
</g>
<g>
</g>
<g>
</g>
<g>
</g>
<g>
</g>
</svg>
