<?xml version="1.0" encoding="iso-8859-1"?>
<!-- Generator: Adobe Illustrator 19.0.0, SVG Export Plug-In . SVG Version: 6.00 Build 0)  -->
<svg version="1.1" id="Layer_1" xmlns="http://www.w3.org/2000/svg" xmlns:xlink="http://www.w3.org/1999/xlink" x="0px" y="0px"
	 viewBox="0 0 496 496" style="enable-background:new 0 0 496 496;" xml:space="preserve">
<path style="fill:#759A9E;" d="M424.8,377.2c0,18.4-15.2,33.6-33.6,33.6H104.8c-18.4,0-33.6-15.2-33.6-33.6v-65.6
	c0-18.4,15.2-33.6,33.6-33.6h286.4c18.4,0,33.6,15.2,33.6,33.6L424.8,377.2L424.8,377.2z"/>
<path style="fill:#66888E;" d="M424.8,383.6c0,18.4-15.2,33.6-33.6,33.6H104.8c-18.4,0-33.6-15.2-33.6-33.6V318
	c0-18.4,15.2-33.6,33.6-33.6h286.4c18.4,0,33.6,15.2,33.6,33.6L424.8,383.6L424.8,383.6z"/>
<path style="fill:#7EA4A8;" d="M185.6,241.2H84v-30.4c0-6.4-5.6-12-12-12s-12,5.6-12,12v30.4H39.2l-12,12v58.4c0,6.4,5.6,12,12,12
	s12-5.6,12-12v-47.2h134.4c6.4,0,12-5.6,12-12C196.8,246,192,241.2,185.6,241.2z"/>
<path style="fill:#66888E;" d="M60.8,232.4v8.8v21.6H39.2l-12,12v36.8c0,6.4,5.6,12,12,12s12-5.6,12-12v-26.4v-21.6h134.4
	c1.6,0,3.2,0,4.8-0.8c-1.6-0.8-3.2-0.8-4.8-0.8H84"/>
<path style="fill:#7EA4A8;" d="M310.4,241.2H412v-30.4c0-6.4,5.6-12,12-12s12,5.6,12,12v30.4h21.6l12,12v58.4c0,6.4-5.6,12-12,12
	s-12-5.6-12-12v-47.2H310.4c-6.4,0-12-5.6-12-12C299.2,246,304,241.2,310.4,241.2z"/>
<g>
	<path style="fill:#66888E;" d="M435.2,232.4v8.8v21.6h21.6l12,12v36.8c0,6.4-5.6,12-12,12s-12-5.6-12-12v-26.4v-21.6H310.4
		c-1.6,0-3.2,0-4.8-0.8c1.6-0.8,3.2-0.8,4.8-0.8H412"/>
	<path style="fill:#66888E;" d="M75.2,460.4c0,5.6-4.8,10.4-10.4,10.4h-28c-5.6,0-10.4-4.8-10.4-10.4V430c0-5.6,4.8-10.4,10.4-10.4
		h28c5.6,0,10.4,4.8,10.4,10.4C75.2,430,75.2,460.4,75.2,460.4z"/>
	<path style="fill:#66888E;" d="M468.8,460.4c0,5.6-4.8,10.4-10.4,10.4h-28c-5.6,0-10.4-4.8-10.4-10.4V430c0-5.6,4.8-10.4,10.4-10.4
		h28c5.6,0,10.4,4.8,10.4,10.4V460.4z"/>
</g>
<path style="fill:#03263A;" d="M496,421.2c0,17.6-6.4,32-24,32H24c-17.6,0-24-14.4-24-32v-92c0-17.6,14.4-32,32-32h432
	c17.6,0,32,14.4,32,32V421.2z"/>
<path style="fill:#071823;" d="M0,329.2c0-17.6,14.4-32,32-32h432c17.6,0,32,14.4,32,32v92c0,17.6-6.4,32-24,32"/>
<path style="fill:#CBE8EF;" d="M286.4,369.2c0,20.8-16.8,38.4-38.4,38.4c-20.8,0-38.4-16.8-38.4-38.4s16.8-40.8,38.4-40.8
	C268.8,328.4,286.4,348.4,286.4,369.2z"/>
<path style="fill:#071823;" d="M286.4,369.2c0,20.8-16.8,56-38.4,56c-20.8,0-38.4-34.4-38.4-56s16.8-36,38.4-36
	C268.8,333.2,286.4,348.4,286.4,369.2z"/>
<circle style="fill:#B8D7E0;" cx="248" cy="369.2" r="38.4"/>
<path style="fill:#A7CBD3;" d="M275.2,342c15.2,15.2,15.2,39.2,0,54.4c-15.2,15.2-39.2,15.2-54.4,0"/>
<circle style="fill:#169908;" cx="267.2" cy="350.8" r="3.2"/>
<path style="fill:#FF9100;" d="M251.2,25.2C216,40.4,190.4,88.4,190.4,146s25.6,105.6,60.8,120.8V25.2z"/>
<path style="fill:#FF5B00;" d="M251.2,86.8c26.4,11.2,45.6,47.2,45.6,90.4s-19.2,78.4-45.6,90.4V86.8z"/>
<path style="fill:#FF7F00;" d="M199.2,158c0,50.4,21.6,92.8,52,107.2V50.8C220.8,65.2,199.2,107.6,199.2,158z"/>
<g>
</g>
<g>
</g>
<g>
</g>
<g>
</g>
<g>
</g>
<g>
</g>
<g>
</g>
<g>
</g>
<g>
</g>
<g>
</g>
<g>
</g>
<g>
</g>
<g>
</g>
<g>
</g>
<g>
</g>
</svg>
