<?xml version="1.0" encoding="iso-8859-1"?>
<!-- Generator: Adobe Illustrator 19.0.0, SVG Export Plug-In . SVG Version: 6.00 Build 0)  -->
<svg version="1.1" id="Layer_1" xmlns="http://www.w3.org/2000/svg" xmlns:xlink="http://www.w3.org/1999/xlink" x="0px" y="0px"
	 viewBox="0 0 512 512" style="enable-background:new 0 0 512 512;" xml:space="preserve">
<path style="fill:#464655;" d="M132.414,4.414h-14.919C52.707,4.414,0,57.121,0,121.956c0,31.383,12.22,60.888,34.413,83.078
	l24.966-24.966C43.858,164.547,35.31,143.91,35.31,121.909c0-45.319,36.866-82.185,82.185-82.185h14.919
	c141.16,0,256,114.84,256,256v26.483h35.31v-26.483C423.724,135.095,293.043,4.414,132.414,4.414z"/>
<path style="fill:#707487;" d="M23.402,198.932l29.735,51.895l53.898-53.898l-51.895-29.735c-1.729-0.991-3.906-0.7-5.315,0.708
	L24.11,193.617C22.702,195.026,22.412,197.203,23.402,198.932z"/>
<path style="fill:#FFD764;" d="M176.552,498.759H44.138c-14.626,0-26.483-11.857-26.483-26.483V322.207
	c0-82.881,67.188-150.069,150.069-150.069h44.138c14.626,0,26.483,11.857,26.483,26.483v238.345
	C238.345,471.093,210.679,498.759,176.552,498.759z"/>
<path style="fill:#FFB95A;" d="M52.966,472.276v-79.448h-35.31v79.448c0,14.626,11.857,26.483,26.483,26.483h35.31
	C64.822,498.759,52.966,486.902,52.966,472.276z"/>
<path style="fill:#959CB3;" d="M141.241,481.103H54.588c3.648,10.262,13.347,17.655,24.861,17.655h61.793V481.103z"/>
<path style="fill:#464655;" d="M423.724,454.621h-35.31c-4.875,0-8.828,3.953-8.828,8.828v17.655h52.966v-17.655
	C432.552,458.573,428.599,454.621,423.724,454.621z"/>
<path style="fill:#FFE678;" d="M211.862,172.138h-8.828v229.517h35.31V198.621C238.345,183.994,226.488,172.138,211.862,172.138z"/>
<circle style="fill:#707487;" cx="167.724" cy="428.138" r="79.448"/>
<circle style="fill:#FFB95A;" cx="167.724" cy="428.138" r="52.966"/>
<rect x="388.414" y="313.379" style="fill:#D7DEED;" width="35.31" height="141.241"/>
<path style="fill:#AFB9D2;" d="M63.591,267.444c10.415-21.517,27.853-38.954,49.369-49.369c9.438-4.568,19.622-7.827,30.336-9.451
	c8.852-1.342,15.599-8.562,15.599-17.516v-18.705c-78.77,4.572-141.24,69.888-141.24,149.804v88.276H35.31
	c9.75,0,17.655-7.905,17.655-17.655v-79.448C52.966,296.907,56.854,281.363,63.591,267.444z"/>
<g>
	<path style="fill:#707487;" d="M379.586,472.276h105.931c14.626,0,26.483,11.857,26.483,26.483l0,0
		c0,4.875-3.953,8.828-8.828,8.828H379.586c-4.875,0-8.828-3.953-8.828-8.828v-17.655
		C370.759,476.228,374.711,472.276,379.586,472.276z"/>
	<path style="fill:#707487;" d="M54.588,481.103h-35.31c3.648,10.262,13.347,17.655,24.861,17.655h35.31
		C67.934,498.759,58.236,491.366,54.588,481.103z"/>
</g>
<g>
</g>
<g>
</g>
<g>
</g>
<g>
</g>
<g>
</g>
<g>
</g>
<g>
</g>
<g>
</g>
<g>
</g>
<g>
</g>
<g>
</g>
<g>
</g>
<g>
</g>
<g>
</g>
<g>
</g>
</svg>
