<?xml version="1.0" encoding="iso-8859-1"?>
<!-- Generator: Adobe Illustrator 19.0.0, SVG Export Plug-In . SVG Version: 6.00 Build 0)  -->
<svg version="1.1" id="Capa_1" xmlns="http://www.w3.org/2000/svg" xmlns:xlink="http://www.w3.org/1999/xlink" x="0px" y="0px"
	 viewBox="0 0 512 512" style="enable-background:new 0 0 512 512;" xml:space="preserve">
<path style="fill:#78A7AF;" d="M54.631,478v23.698c0,5.666,4.636,10.302,10.302,10.302h382.134c5.666,0,10.302-4.636,10.302-10.302
	V478H54.631z"/>
<path style="opacity:0.1;fill:#231F20;enable-background:new    ;" d="M88.143,501.698V478H54.631v23.698
	c0,5.666,4.636,10.302,10.302,10.302h33.512C92.779,512,88.143,507.364,88.143,501.698z"/>
<path style="fill:#E6E9ED;" d="M474.302,473.134c0,5.666-4.636,10.302-10.302,10.302H48c-5.666,0-10.302-4.636-10.302-10.302V10.302
	C37.698,4.636,42.334,0,48,0h416c5.666,0,10.302,4.636,10.302,10.302V473.134z"/>
<path style="fill:#08375E;" d="M419.674,181.058H92.327c-6.898,0-12.543,5.603-12.543,12.449V352.17h352.432V193.507
	C432.216,186.66,426.571,181.058,419.674,181.058z"/>
<path style="fill:#ABCCD3;" d="M79.784,352.17v36.355c0,6.847,5.644,12.449,12.543,12.449h327.347
	c6.898,0,12.542-5.603,12.542-12.449V352.17H79.784z"/>
<g>
	<path style="fill:#78A7AF;" d="M419.674,181.058h-12.538v219.917h12.538c6.898,0,12.542-5.603,12.542-12.449V193.507
		C432.216,186.66,426.571,181.058,419.674,181.058z"/>
	<path style="fill:#78A7AF;" d="M104.864,181.058H92.327c-6.898,0-12.543,5.603-12.543,12.449v195.019
		c0,6.847,5.644,12.449,12.543,12.449h12.538V181.058H104.864z"/>
	<path style="fill:#78A7AF;" d="M178.248,99l19.321,31.725c1.784,2.931,6.066,5.328,9.515,5.328h97.831
		c3.449,0,7.733-2.397,9.517-5.328L333.75,99H178.248z"/>
</g>
<rect x="37.698" y="43.766" style="fill:#FFBB4A;" width="436.6" height="60.72"/>
<path style="fill:#FFFFFF;" d="M385.19,81.63c-1.979,0-3.909-0.811-5.31-2.2c-1.39-1.399-2.19-3.33-2.19-5.31
	c0-1.971,0.801-3.9,2.19-5.301c1.4-1.39,3.33-2.189,5.31-2.189c1.971,0,3.91,0.8,5.301,2.189c1.399,1.4,2.199,3.33,2.199,5.301
	c0,1.979-0.8,3.91-2.199,5.31C389.1,80.819,387.16,81.63,385.19,81.63z"/>
<path style="fill:#EF5A50;" d="M409.02,81.63c-1.979,0-3.91-0.811-5.309-2.2c-1.391-1.399-2.191-3.33-2.191-5.31
	c0-1.971,0.8-3.9,2.191-5.301c1.399-1.39,3.33-2.189,5.309-2.189c1.971,0,3.91,0.8,5.3,2.189c1.4,1.4,2.2,3.33,2.2,5.301
	c0,1.979-0.8,3.91-2.2,5.31C412.93,80.819,410.99,81.63,409.02,81.63z"/>
<path style="fill:#FFFFFF;" d="M432.85,81.63c-1.979,0-3.91-0.811-5.31-2.2c-1.391-1.399-2.19-3.33-2.19-5.31
	c0-1.971,0.8-3.9,2.19-5.301c1.4-1.39,3.33-2.189,5.31-2.189c1.97,0,3.91,0.8,5.3,2.189c1.4,1.4,2.2,3.33,2.2,5.301
	c0,1.979-0.8,3.91-2.2,5.31C436.76,80.819,434.819,81.63,432.85,81.63z"/>
<path style="fill:#EF5A50;" d="M111.762,82.199H74.135c-4.142,0-7.5-3.357-7.5-7.5s3.358-7.5,7.5-7.5h37.627
	c4.142,0,7.5,3.357,7.5,7.5C119.262,78.842,115.904,82.199,111.762,82.199z"/>
<path style="fill:#78A7AF;" d="M314.95,449.47H197.051c-4.142,0-7.5-3.357-7.5-7.5s3.358-7.5,7.5-7.5H314.95
	c4.143,0,7.5,3.357,7.5,7.5S319.093,449.47,314.95,449.47z"/>
<path style="fill:#B1E8FF;" d="M139.915,254.643c0-4.143-3.358-7.5-7.5-7.5s-7.5,3.357-7.5,7.5v12c0,4.143,3.358,7.5,7.5,7.5
	s7.5-3.357,7.5-7.5V254.643z"/>
<path style="fill:#3EAF91;" d="M132.415,284.143c-4.142,0-7.5,3.357-7.5,7.5v12c0,4.143,3.358,7.5,7.5,7.5s7.5-3.357,7.5-7.5v-12
	C139.915,287.5,136.558,284.143,132.415,284.143z"/>
<g>
	<path style="fill:#B1E8FF;" d="M124.915,181.058v11.585c0,4.143,3.358,7.5,7.5,7.5c4.142,0,7.5-3.357,7.5-7.5v-11.585H124.915z"/>
	<path style="fill:#B1E8FF;" d="M132.415,347c4.142,0,7.5-3.357,7.5-7.5v-10.857c0-4.143-3.358-7.5-7.5-7.5s-7.5,3.357-7.5,7.5
		V339.5C124.915,343.643,128.273,347,132.415,347z"/>
</g>
<path style="fill:#3EAF91;" d="M139.915,217.643c0-4.143-3.358-7.5-7.5-7.5s-7.5,3.357-7.5,7.5v12c0,4.143,3.358,7.5,7.5,7.5
	s7.5-3.357,7.5-7.5V217.643z"/>
<path style="fill:#B1E8FF;" d="M181.348,237.143c4.142,0,7.5-3.357,7.5-7.5v-12c0-4.143-3.358-7.5-7.5-7.5s-7.5,3.357-7.5,7.5v12
	C173.848,233.785,177.206,237.143,181.348,237.143z"/>
<g>
	<path style="fill:#3EAF91;" d="M173.848,181.058v11.585c0,4.143,3.358,7.5,7.5,7.5s7.5-3.357,7.5-7.5v-11.585H173.848z"/>
	<path style="fill:#3EAF91;" d="M181.348,274.143c4.142,0,7.5-3.357,7.5-7.5v-12c0-4.143-3.358-7.5-7.5-7.5s-7.5,3.357-7.5,7.5v12
		C173.848,270.785,177.206,274.143,181.348,274.143z"/>
	<path style="fill:#3EAF91;" d="M230.28,237.143c4.142,0,7.5-3.357,7.5-7.5v-12c0-4.143-3.358-7.5-7.5-7.5s-7.5,3.357-7.5,7.5v12
		C222.78,233.785,226.138,237.143,230.28,237.143z"/>
</g>
<g>
	<path style="fill:#B1E8FF;" d="M230.28,274.143c4.142,0,7.5-3.357,7.5-7.5v-12c0-4.143-3.358-7.5-7.5-7.5s-7.5,3.357-7.5,7.5v12
		C222.78,270.785,226.138,274.143,230.28,274.143z"/>
	<path style="fill:#B1E8FF;" d="M222.78,181.058v11.585c0,4.143,3.358,7.5,7.5,7.5s7.5-3.357,7.5-7.5v-11.585H222.78z"/>
</g>
<path style="fill:#3EAF91;" d="M279.212,274.143c4.143,0,7.5-3.357,7.5-7.5v-12c0-4.143-3.357-7.5-7.5-7.5s-7.5,3.357-7.5,7.5v12
	C271.712,270.785,275.069,274.143,279.212,274.143z"/>
<path style="fill:#B1E8FF;" d="M279.212,237.143c4.143,0,7.5-3.357,7.5-7.5v-12c0-4.143-3.357-7.5-7.5-7.5s-7.5,3.357-7.5,7.5v12
	C271.712,233.785,275.069,237.143,279.212,237.143z"/>
<path style="fill:#3EAF91;" d="M271.712,181.058v11.585c0,4.143,3.357,7.5,7.5,7.5s7.5-3.357,7.5-7.5v-11.585H271.712z"/>
<path style="fill:#B1E8FF;" d="M320.643,181.058v11.585c0,4.143,3.357,7.5,7.5,7.5s7.5-3.357,7.5-7.5v-11.585H320.643z"/>
<path style="fill:#3EAF91;" d="M328.143,237.143c4.143,0,7.5-3.357,7.5-7.5v-12c0-4.143-3.357-7.5-7.5-7.5s-7.5,3.357-7.5,7.5v12
	C320.643,233.785,324,237.143,328.143,237.143z"/>
<g>
	<path style="fill:#B1E8FF;" d="M328.143,274.143c4.143,0,7.5-3.357,7.5-7.5v-12c0-4.143-3.357-7.5-7.5-7.5s-7.5,3.357-7.5,7.5v12
		C320.643,270.785,324,274.143,328.143,274.143z"/>
	<path style="fill:#B1E8FF;" d="M377.075,284.143c-4.143,0-7.5,3.357-7.5,7.5v12c0,4.143,3.357,7.5,7.5,7.5s7.5-3.357,7.5-7.5v-12
		C384.575,287.5,381.218,284.143,377.075,284.143z"/>
</g>
<g>
	<path style="fill:#3EAF91;" d="M384.575,254.643c0-4.143-3.357-7.5-7.5-7.5s-7.5,3.357-7.5,7.5v12c0,4.143,3.357,7.5,7.5,7.5
		s7.5-3.357,7.5-7.5V254.643z"/>
	<path style="fill:#3EAF91;" d="M377.075,347c4.143,0,7.5-3.357,7.5-7.5v-10.857c0-4.143-3.357-7.5-7.5-7.5s-7.5,3.357-7.5,7.5
		V339.5C369.575,343.643,372.933,347,377.075,347z"/>
	<path style="fill:#3EAF91;" d="M369.575,181.058v11.585c0,4.143,3.357,7.5,7.5,7.5s7.5-3.357,7.5-7.5v-11.585H369.575z"/>
</g>
<path style="fill:#B1E8FF;" d="M384.575,217.643c0-4.143-3.357-7.5-7.5-7.5s-7.5,3.357-7.5,7.5v12c0,4.143,3.357,7.5,7.5,7.5
	s7.5-3.357,7.5-7.5V217.643z"/>
<path style="fill:#FFFFFF;" d="M341.123,293.997c-1.084,2.618-4.288,4.76-7.121,4.76H177.998c-2.833,0-6.037-2.142-7.12-4.76
	l-12.474-30.147c-1.083-2.617,0.349-4.759,3.182-4.759h188.83c2.832,0,4.264,2.142,3.181,4.759L341.123,293.997z"/>
<path style="opacity:0.1;fill:#231F20;enable-background:new    ;" d="M193.451,293.997l-12.473-30.147
	c-1.083-2.617,0.349-4.759,3.182-4.759h-22.574c-2.833,0-4.265,2.142-3.182,4.759l12.474,30.147c1.083,2.618,4.287,4.76,7.12,4.76
	h22.573C197.738,298.757,194.534,296.615,193.451,293.997z"/>
<path style="fill:#E6E9ED;" d="M341.123,318.211c-1.084,2.618-4.288,4.76-7.121,4.76H177.998c-2.833,0-6.037-2.142-7.12-4.76
	l-12.474-30.147c-1.083-2.618,0.349-4.76,3.182-4.76h188.83c2.832,0,4.264,2.142,3.181,4.76L341.123,318.211z"/>
<path style="opacity:0.1;fill:#231F20;enable-background:new    ;" d="M193.451,318.211l-12.473-30.147
	c-1.083-2.618,0.349-4.76,3.182-4.76h-22.574c-2.833,0-4.265,2.142-3.182,4.76l12.474,30.147c1.083,2.618,4.287,4.76,7.12,4.76
	h22.573C197.738,322.971,194.534,320.829,193.451,318.211z"/>
<path style="fill:#FFFFFF;" d="M341.123,347.41c-1.084,2.618-4.288,4.76-7.121,4.76H177.998c-2.833,0-6.037-2.142-7.12-4.76
	l-12.474-30.146c-1.083-2.618,0.349-4.76,3.182-4.76h188.83c2.832,0,4.264,2.142,3.181,4.76L341.123,347.41z"/>
<path style="opacity:0.1;fill:#231F20;enable-background:new    ;" d="M193.451,347.41l-12.473-30.146
	c-1.083-2.618,0.349-4.76,3.182-4.76h-22.574c-2.833,0-4.265,2.142-3.182,4.76l12.474,30.146c1.083,2.618,4.287,4.76,7.12,4.76
	h22.573C197.738,352.17,194.534,350.028,193.451,347.41z"/>
<path style="fill:#3EAF91;" d="M385.809,449.269c0,2.833,2.318,5.151,5.151,5.151h36.105c2.833,0,5.15-2.318,5.15-5.151v-15.843
	c0-2.833-2.317-5.151-5.15-5.151H390.96c-2.833,0-5.151,2.318-5.151,5.151V449.269z"/>
<path style="opacity:0.1;fill:#231F20;enable-background:new    ;" d="M65.61,473.134V10.302C65.61,4.636,70.246,0,75.912,0H48
	c-5.666,0-10.302,4.636-10.302,10.302v462.832c0,5.666,4.636,10.302,10.302,10.302h27.912C70.246,483.435,65.61,478.8,65.61,473.134
	z"/>
<g>
</g>
<g>
</g>
<g>
</g>
<g>
</g>
<g>
</g>
<g>
</g>
<g>
</g>
<g>
</g>
<g>
</g>
<g>
</g>
<g>
</g>
<g>
</g>
<g>
</g>
<g>
</g>
<g>
</g>
</svg>
