<?xml version="1.0" encoding="iso-8859-1"?>
<!-- Generator: Adobe Illustrator 19.0.0, SVG Export Plug-In . SVG Version: 6.00 Build 0)  -->
<svg version="1.1" id="Layer_1" xmlns="http://www.w3.org/2000/svg" xmlns:xlink="http://www.w3.org/1999/xlink" x="0px" y="0px"
	 viewBox="0 0 427 427" style="enable-background:new 0 0 427 427;" xml:space="preserve">
<g>
	<rect x="4" y="103" style="fill:#CCCCCC;" width="419" height="291"/>
	<rect y="33" style="fill:#ED4C58;" width="427" height="86"/>
	<rect x="11" y="141" style="fill:#808080;" width="134" height="217"/>
	<rect x="16" y="146" style="fill:#2D4151;" width="124" height="207"/>
	<rect x="282" y="141" style="fill:#808080;" width="134" height="217"/>
	<rect x="287" y="146" style="fill:#2D4151;" width="124" height="207"/>
	<rect x="157" y="184" style="fill:#808080;" width="113" height="210"/>
	<rect x="162" y="189" style="fill:#2D4151;" width="103" height="188"/>
	<g>
		<path style="fill:#C92D2D;" d="M23.667,39.583c0,4.879-3.955,8.833-8.833,8.833l0,0C9.955,48.417,6,44.462,6,39.583H23.667z"/>
		<path style="fill:#C92D2D;" d="M45.685,39.583c0,4.879-3.955,8.833-8.833,8.833l0,0c-4.879,0-8.833-3.955-8.833-8.833H45.685z"/>
		<path style="fill:#C92D2D;" d="M67.704,39.583c0,4.879-3.955,8.833-8.833,8.833l0,0c-4.879,0-8.833-3.955-8.833-8.833H67.704z"/>
		<path style="fill:#C92D2D;" d="M89.722,39.583c0,4.879-3.955,8.833-8.833,8.833l0,0c-4.879,0-8.833-3.955-8.833-8.833H89.722z"/>
		<path style="fill:#C92D2D;" d="M111.741,39.583c0,4.879-3.955,8.833-8.833,8.833l0,0c-4.879,0-8.833-3.955-8.833-8.833H111.741z"
			/>
		<path style="fill:#C92D2D;" d="M133.759,39.583c0,4.879-3.955,8.833-8.833,8.833l0,0c-4.879,0-8.833-3.955-8.833-8.833H133.759z"
			/>
		<path style="fill:#C92D2D;" d="M155.778,39.583c0,4.879-3.955,8.833-8.833,8.833l0,0c-4.879,0-8.833-3.955-8.833-8.833H155.778z"
			/>
		<path style="fill:#C92D2D;" d="M177.796,39.583c0,4.879-3.955,8.833-8.833,8.833l0,0c-4.879,0-8.833-3.955-8.833-8.833H177.796z"
			/>
		<path style="fill:#C92D2D;" d="M199.815,39.583c0,4.879-3.955,8.833-8.833,8.833l0,0c-4.879,0-8.833-3.955-8.833-8.833H199.815z"
			/>
		<path style="fill:#C92D2D;" d="M221.833,39.583c0,4.879-3.955,8.833-8.833,8.833l0,0c-4.879,0-8.833-3.955-8.833-8.833H221.833z"
			/>
		<path style="fill:#C92D2D;" d="M243.852,39.583c0,4.879-3.955,8.833-8.833,8.833l0,0c-4.879,0-8.833-3.955-8.833-8.833H243.852z"
			/>
		<path style="fill:#C92D2D;" d="M265.87,39.583c0,4.879-3.955,8.833-8.833,8.833l0,0c-4.878,0-8.833-3.955-8.833-8.833H265.87z"/>
		<path style="fill:#C92D2D;" d="M287.889,39.583c0,4.879-3.955,8.833-8.833,8.833l0,0c-4.879,0-8.833-3.955-8.833-8.833H287.889z"
			/>
		<path style="fill:#C92D2D;" d="M309.907,39.583c0,4.879-3.955,8.833-8.833,8.833l0,0c-4.879,0-8.833-3.955-8.833-8.833H309.907z"
			/>
		<path style="fill:#C92D2D;" d="M331.926,39.583c0,4.879-3.955,8.833-8.833,8.833l0,0c-4.879,0-8.833-3.955-8.833-8.833H331.926z"
			/>
		<path style="fill:#C92D2D;" d="M353.944,39.583c0,4.879-3.955,8.833-8.833,8.833l0,0c-4.879,0-8.833-3.955-8.833-8.833H353.944z"
			/>
		<path style="fill:#C92D2D;" d="M375.963,39.583c0,4.879-3.955,8.833-8.833,8.833l0,0c-4.879,0-8.833-3.955-8.833-8.833H375.963z"
			/>
		<path style="fill:#C92D2D;" d="M397.981,39.583c0,4.879-3.955,8.833-8.833,8.833l0,0c-4.879,0-8.833-3.955-8.833-8.833H397.981z"
			/>
		<path style="fill:#C92D2D;" d="M420,39.583c0,4.879-3.955,8.833-8.833,8.833l0,0c-4.879,0-8.833-3.955-8.833-8.833H420z"/>
	</g>
	<g>
		<path style="fill:#C92D2D;" d="M34.676,52c0,4.879-3.955,8.833-8.833,8.833l0,0c-4.879,0-8.833-3.955-8.833-8.833H34.676z"/>
		<path style="fill:#C92D2D;" d="M56.694,52c0,4.879-3.955,8.833-8.833,8.833l0,0c-4.879,0-8.833-3.955-8.833-8.833H56.694z"/>
		<path style="fill:#C92D2D;" d="M78.713,52c0,4.879-3.955,8.833-8.833,8.833l0,0c-4.879,0-8.833-3.955-8.833-8.833H78.713z"/>
		<path style="fill:#C92D2D;" d="M100.731,52c0,4.879-3.955,8.833-8.833,8.833l0,0c-4.879,0-8.833-3.955-8.833-8.833H100.731z"/>
		<path style="fill:#C92D2D;" d="M122.75,52c0,4.879-3.955,8.833-8.833,8.833l0,0c-4.879,0-8.833-3.955-8.833-8.833H122.75z"/>
		<path style="fill:#C92D2D;" d="M144.769,52c0,4.879-3.955,8.833-8.833,8.833l0,0c-4.879,0-8.833-3.955-8.833-8.833H144.769z"/>
		<path style="fill:#C92D2D;" d="M166.787,52c0,4.879-3.955,8.833-8.833,8.833l0,0c-4.879,0-8.833-3.955-8.833-8.833H166.787z"/>
		<path style="fill:#C92D2D;" d="M188.806,52c0,4.879-3.955,8.833-8.833,8.833l0,0c-4.879,0-8.833-3.955-8.833-8.833H188.806z"/>
		<path style="fill:#C92D2D;" d="M210.824,52c0,4.879-3.955,8.833-8.833,8.833l0,0c-4.879,0-8.833-3.955-8.833-8.833H210.824z"/>
		<path style="fill:#C92D2D;" d="M232.843,52c0,4.879-3.955,8.833-8.833,8.833l0,0c-4.879,0-8.833-3.955-8.833-8.833H232.843z"/>
		<path style="fill:#C92D2D;" d="M254.861,52c0,4.879-3.955,8.833-8.833,8.833l0,0c-4.879,0-8.833-3.955-8.833-8.833H254.861z"/>
		<path style="fill:#C92D2D;" d="M276.88,52c0,4.879-3.955,8.833-8.833,8.833l0,0c-4.879,0-8.833-3.955-8.833-8.833H276.88z"/>
		<path style="fill:#C92D2D;" d="M298.898,52c0,4.879-3.955,8.833-8.833,8.833l0,0c-4.879,0-8.833-3.955-8.833-8.833H298.898z"/>
		<path style="fill:#C92D2D;" d="M320.917,52c0,4.879-3.955,8.833-8.833,8.833l0,0c-4.879,0-8.833-3.955-8.833-8.833H320.917z"/>
		<path style="fill:#C92D2D;" d="M342.935,52c0,4.879-3.955,8.833-8.833,8.833l0,0c-4.879,0-8.833-3.955-8.833-8.833H342.935z"/>
		<path style="fill:#C92D2D;" d="M364.954,52c0,4.879-3.955,8.833-8.833,8.833l0,0c-4.879,0-8.833-3.955-8.833-8.833H364.954z"/>
		<path style="fill:#C92D2D;" d="M386.972,52c0,4.879-3.955,8.833-8.833,8.833l0,0c-4.879,0-8.833-3.955-8.833-8.833H386.972z"/>
		<path style="fill:#C92D2D;" d="M408.991,52c0,4.879-3.955,8.833-8.833,8.833l0,0c-4.879,0-8.833-3.955-8.833-8.833H408.991z"/>
	</g>
	<g>
		<path style="fill:#C92D2D;" d="M23.667,65.083c0,4.879-3.955,8.833-8.833,8.833l0,0C9.955,73.917,6,69.962,6,65.083H23.667z"/>
		<path style="fill:#C92D2D;" d="M45.685,65.083c0,4.879-3.955,8.833-8.833,8.833l0,0c-4.879,0-8.833-3.955-8.833-8.833H45.685z"/>
		<path style="fill:#C92D2D;" d="M67.704,65.083c0,4.879-3.955,8.833-8.833,8.833l0,0c-4.879,0-8.833-3.955-8.833-8.833H67.704z"/>
		<path style="fill:#C92D2D;" d="M89.722,65.083c0,4.879-3.955,8.833-8.833,8.833l0,0c-4.879,0-8.833-3.955-8.833-8.833H89.722z"/>
		<path style="fill:#C92D2D;" d="M111.741,65.083c0,4.879-3.955,8.833-8.833,8.833l0,0c-4.879,0-8.833-3.955-8.833-8.833H111.741z"
			/>
		<path style="fill:#C92D2D;" d="M133.759,65.083c0,4.879-3.955,8.833-8.833,8.833l0,0c-4.879,0-8.833-3.955-8.833-8.833H133.759z"
			/>
		<path style="fill:#C92D2D;" d="M155.778,65.083c0,4.879-3.955,8.833-8.833,8.833l0,0c-4.879,0-8.833-3.955-8.833-8.833H155.778z"
			/>
		<path style="fill:#C92D2D;" d="M177.796,65.083c0,4.879-3.955,8.833-8.833,8.833l0,0c-4.879,0-8.833-3.955-8.833-8.833H177.796z"
			/>
		<path style="fill:#C92D2D;" d="M199.815,65.083c0,4.879-3.955,8.833-8.833,8.833l0,0c-4.879,0-8.833-3.955-8.833-8.833H199.815z"
			/>
		<path style="fill:#C92D2D;" d="M221.833,65.083c0,4.879-3.955,8.833-8.833,8.833l0,0c-4.879,0-8.833-3.955-8.833-8.833H221.833z"
			/>
		<path style="fill:#C92D2D;" d="M243.852,65.083c0,4.879-3.955,8.833-8.833,8.833l0,0c-4.879,0-8.833-3.955-8.833-8.833H243.852z"
			/>
		<path style="fill:#C92D2D;" d="M265.87,65.083c0,4.879-3.955,8.833-8.833,8.833l0,0c-4.878,0-8.833-3.955-8.833-8.833H265.87z"/>
		<path style="fill:#C92D2D;" d="M287.889,65.083c0,4.879-3.955,8.833-8.833,8.833l0,0c-4.879,0-8.833-3.955-8.833-8.833H287.889z"
			/>
		<path style="fill:#C92D2D;" d="M309.907,65.083c0,4.879-3.955,8.833-8.833,8.833l0,0c-4.879,0-8.833-3.955-8.833-8.833H309.907z"
			/>
		<path style="fill:#C92D2D;" d="M331.926,65.083c0,4.879-3.955,8.833-8.833,8.833l0,0c-4.879,0-8.833-3.955-8.833-8.833H331.926z"
			/>
		<path style="fill:#C92D2D;" d="M353.944,65.083c0,4.879-3.955,8.833-8.833,8.833l0,0c-4.879,0-8.833-3.955-8.833-8.833H353.944z"
			/>
		<path style="fill:#C92D2D;" d="M375.963,65.083c0,4.879-3.955,8.833-8.833,8.833l0,0c-4.879,0-8.833-3.955-8.833-8.833H375.963z"
			/>
		<path style="fill:#C92D2D;" d="M397.981,65.083c0,4.879-3.955,8.833-8.833,8.833l0,0c-4.879,0-8.833-3.955-8.833-8.833H397.981z"
			/>
		<path style="fill:#C92D2D;" d="M420,65.083c0,4.879-3.955,8.833-8.833,8.833l0,0c-4.879,0-8.833-3.955-8.833-8.833H420z"/>
	</g>
	<g>
		<path style="fill:#C92D2D;" d="M34.676,77.5c0,4.879-3.955,8.833-8.833,8.833l0,0c-4.879,0-8.833-3.955-8.833-8.833H34.676z"/>
		<path style="fill:#C92D2D;" d="M56.694,77.5c0,4.879-3.955,8.833-8.833,8.833l0,0c-4.879,0-8.833-3.955-8.833-8.833H56.694z"/>
		<path style="fill:#C92D2D;" d="M78.713,77.5c0,4.879-3.955,8.833-8.833,8.833l0,0c-4.879,0-8.833-3.955-8.833-8.833H78.713z"/>
		<path style="fill:#C92D2D;" d="M100.731,77.5c0,4.879-3.955,8.833-8.833,8.833l0,0c-4.879,0-8.833-3.955-8.833-8.833H100.731z"/>
		<path style="fill:#C92D2D;" d="M122.75,77.5c0,4.879-3.955,8.833-8.833,8.833l0,0c-4.879,0-8.833-3.955-8.833-8.833H122.75z"/>
		<path style="fill:#C92D2D;" d="M144.769,77.5c0,4.879-3.955,8.833-8.833,8.833l0,0c-4.879,0-8.833-3.955-8.833-8.833H144.769z"/>
		<path style="fill:#C92D2D;" d="M166.787,77.5c0,4.879-3.955,8.833-8.833,8.833l0,0c-4.879,0-8.833-3.955-8.833-8.833H166.787z"/>
		<path style="fill:#C92D2D;" d="M188.806,77.5c0,4.879-3.955,8.833-8.833,8.833l0,0c-4.879,0-8.833-3.955-8.833-8.833H188.806z"/>
		<path style="fill:#C92D2D;" d="M210.824,77.5c0,4.879-3.955,8.833-8.833,8.833l0,0c-4.879,0-8.833-3.955-8.833-8.833H210.824z"/>
		<path style="fill:#C92D2D;" d="M232.843,77.5c0,4.879-3.955,8.833-8.833,8.833l0,0c-4.879,0-8.833-3.955-8.833-8.833H232.843z"/>
		<path style="fill:#C92D2D;" d="M254.861,77.5c0,4.879-3.955,8.833-8.833,8.833l0,0c-4.879,0-8.833-3.955-8.833-8.833H254.861z"/>
		<path style="fill:#C92D2D;" d="M276.88,77.5c0,4.879-3.955,8.833-8.833,8.833l0,0c-4.879,0-8.833-3.955-8.833-8.833H276.88z"/>
		<path style="fill:#C92D2D;" d="M298.898,77.5c0,4.879-3.955,8.833-8.833,8.833l0,0c-4.879,0-8.833-3.955-8.833-8.833H298.898z"/>
		<path style="fill:#C92D2D;" d="M320.917,77.5c0,4.879-3.955,8.833-8.833,8.833l0,0c-4.879,0-8.833-3.955-8.833-8.833H320.917z"/>
		<path style="fill:#C92D2D;" d="M342.935,77.5c0,4.879-3.955,8.833-8.833,8.833l0,0c-4.879,0-8.833-3.955-8.833-8.833H342.935z"/>
		<path style="fill:#C92D2D;" d="M364.954,77.5c0,4.879-3.955,8.833-8.833,8.833l0,0c-4.879,0-8.833-3.955-8.833-8.833H364.954z"/>
		<path style="fill:#C92D2D;" d="M386.972,77.5c0,4.879-3.955,8.833-8.833,8.833l0,0c-4.879,0-8.833-3.955-8.833-8.833H386.972z"/>
		<path style="fill:#C92D2D;" d="M408.991,77.5c0,4.879-3.955,8.833-8.833,8.833l0,0c-4.879,0-8.833-3.955-8.833-8.833H408.991z"/>
	</g>
	<g>
		<path style="fill:#C92D2D;" d="M23.667,90.292c0,4.879-3.955,8.833-8.833,8.833l0,0C9.955,99.125,6,95.17,6,90.292H23.667z"/>
		<path style="fill:#C92D2D;" d="M45.685,90.292c0,4.879-3.955,8.833-8.833,8.833l0,0c-4.879,0-8.833-3.955-8.833-8.833H45.685z"/>
		<path style="fill:#C92D2D;" d="M67.704,90.292c0,4.879-3.955,8.833-8.833,8.833l0,0c-4.879,0-8.833-3.955-8.833-8.833H67.704z"/>
		<path style="fill:#C92D2D;" d="M89.722,90.292c0,4.879-3.955,8.833-8.833,8.833l0,0c-4.879,0-8.833-3.955-8.833-8.833H89.722z"/>
		<path style="fill:#C92D2D;" d="M111.741,90.292c0,4.879-3.955,8.833-8.833,8.833l0,0c-4.879,0-8.833-3.955-8.833-8.833H111.741z"
			/>
		<path style="fill:#C92D2D;" d="M133.759,90.292c0,4.879-3.955,8.833-8.833,8.833l0,0c-4.879,0-8.833-3.955-8.833-8.833H133.759z"
			/>
		<path style="fill:#C92D2D;" d="M155.778,90.292c0,4.879-3.955,8.833-8.833,8.833l0,0c-4.879,0-8.833-3.955-8.833-8.833H155.778z"
			/>
		<path style="fill:#C92D2D;" d="M177.796,90.292c0,4.879-3.955,8.833-8.833,8.833l0,0c-4.879,0-8.833-3.955-8.833-8.833H177.796z"
			/>
		<path style="fill:#C92D2D;" d="M199.815,90.292c0,4.879-3.955,8.833-8.833,8.833l0,0c-4.879,0-8.833-3.955-8.833-8.833H199.815z"
			/>
		<path style="fill:#C92D2D;" d="M221.833,90.292c0,4.879-3.955,8.833-8.833,8.833l0,0c-4.879,0-8.833-3.955-8.833-8.833H221.833z"
			/>
		<path style="fill:#C92D2D;" d="M243.852,90.292c0,4.879-3.955,8.833-8.833,8.833l0,0c-4.879,0-8.833-3.955-8.833-8.833H243.852z"
			/>
		<path style="fill:#C92D2D;" d="M265.87,90.292c0,4.879-3.955,8.833-8.833,8.833l0,0c-4.878,0-8.833-3.955-8.833-8.833H265.87z"/>
		<path style="fill:#C92D2D;" d="M287.889,90.292c0,4.879-3.955,8.833-8.833,8.833l0,0c-4.879,0-8.833-3.955-8.833-8.833H287.889z"
			/>
		<path style="fill:#C92D2D;" d="M309.907,90.292c0,4.879-3.955,8.833-8.833,8.833l0,0c-4.879,0-8.833-3.955-8.833-8.833H309.907z"
			/>
		<path style="fill:#C92D2D;" d="M331.926,90.292c0,4.879-3.955,8.833-8.833,8.833l0,0c-4.879,0-8.833-3.955-8.833-8.833H331.926z"
			/>
		<path style="fill:#C92D2D;" d="M353.944,90.292c0,4.879-3.955,8.833-8.833,8.833l0,0c-4.879,0-8.833-3.955-8.833-8.833H353.944z"
			/>
		<path style="fill:#C92D2D;" d="M375.963,90.292c0,4.879-3.955,8.833-8.833,8.833l0,0c-4.879,0-8.833-3.955-8.833-8.833H375.963z"
			/>
		<path style="fill:#C92D2D;" d="M397.981,90.292c0,4.879-3.955,8.833-8.833,8.833l0,0c-4.879,0-8.833-3.955-8.833-8.833H397.981z"
			/>
		<path style="fill:#C92D2D;" d="M420,90.292c0,4.879-3.955,8.833-8.833,8.833l0,0c-4.879,0-8.833-3.955-8.833-8.833H420z"/>
	</g>
	<g>
		<path style="fill:#C92D2D;" d="M34.676,102.708c0,4.879-3.955,8.833-8.833,8.833l0,0c-4.879,0-8.833-3.955-8.833-8.833H34.676z"/>
		<path style="fill:#C92D2D;" d="M56.694,102.708c0,4.879-3.955,8.833-8.833,8.833l0,0c-4.879,0-8.833-3.955-8.833-8.833H56.694z"/>
		<path style="fill:#C92D2D;" d="M78.713,102.708c0,4.879-3.955,8.833-8.833,8.833l0,0c-4.879,0-8.833-3.955-8.833-8.833H78.713z"/>
		<path style="fill:#C92D2D;" d="M100.731,102.708c0,4.879-3.955,8.833-8.833,8.833l0,0c-4.879,0-8.833-3.955-8.833-8.833H100.731z"
			/>
		<path style="fill:#C92D2D;" d="M122.75,102.708c0,4.879-3.955,8.833-8.833,8.833l0,0c-4.879,0-8.833-3.955-8.833-8.833H122.75z"/>
		<path style="fill:#C92D2D;" d="M144.769,102.708c0,4.879-3.955,8.833-8.833,8.833l0,0c-4.879,0-8.833-3.955-8.833-8.833H144.769z"
			/>
		<path style="fill:#C92D2D;" d="M166.787,102.708c0,4.879-3.955,8.833-8.833,8.833l0,0c-4.879,0-8.833-3.955-8.833-8.833H166.787z"
			/>
		<path style="fill:#C92D2D;" d="M188.806,102.708c0,4.879-3.955,8.833-8.833,8.833l0,0c-4.879,0-8.833-3.955-8.833-8.833H188.806z"
			/>
		<path style="fill:#C92D2D;" d="M210.824,102.708c0,4.879-3.955,8.833-8.833,8.833l0,0c-4.879,0-8.833-3.955-8.833-8.833H210.824z"
			/>
		<path style="fill:#C92D2D;" d="M232.843,102.708c0,4.879-3.955,8.833-8.833,8.833l0,0c-4.879,0-8.833-3.955-8.833-8.833H232.843z"
			/>
		<path style="fill:#C92D2D;" d="M254.861,102.708c0,4.879-3.955,8.833-8.833,8.833l0,0c-4.879,0-8.833-3.955-8.833-8.833H254.861z"
			/>
		<path style="fill:#C92D2D;" d="M276.88,102.708c0,4.879-3.955,8.833-8.833,8.833l0,0c-4.879,0-8.833-3.955-8.833-8.833H276.88z"/>
		<path style="fill:#C92D2D;" d="M298.898,102.708c0,4.879-3.955,8.833-8.833,8.833l0,0c-4.879,0-8.833-3.955-8.833-8.833H298.898z"
			/>
		<path style="fill:#C92D2D;" d="M320.917,102.708c0,4.879-3.955,8.833-8.833,8.833l0,0c-4.879,0-8.833-3.955-8.833-8.833H320.917z"
			/>
		<path style="fill:#C92D2D;" d="M342.935,102.708c0,4.879-3.955,8.833-8.833,8.833l0,0c-4.879,0-8.833-3.955-8.833-8.833H342.935z"
			/>
		<path style="fill:#C92D2D;" d="M364.954,102.708c0,4.879-3.955,8.833-8.833,8.833l0,0c-4.879,0-8.833-3.955-8.833-8.833H364.954z"
			/>
		<path style="fill:#C92D2D;" d="M386.972,102.708c0,4.879-3.955,8.833-8.833,8.833l0,0c-4.879,0-8.833-3.955-8.833-8.833H386.972z"
			/>
		<path style="fill:#C92D2D;" d="M408.991,102.708c0,4.879-3.955,8.833-8.833,8.833l0,0c-4.879,0-8.833-3.955-8.833-8.833H408.991z"
			/>
	</g>
	<g>
		<rect x="31.75" y="269" style="fill:#E6E6E6;" width="92.5" height="84"/>
		<g>
			<path style="fill:#FFFFFF;" d="M115.5,334.5c0,6.73-1.77,13.04-4.88,18.5H45.38c-3.11-5.46-4.88-11.77-4.88-18.5
				c0-20.71,16.79-37.5,37.5-37.5S115.5,313.79,115.5,334.5z"/>
			<path style="fill:#2D4151;" d="M89.74,334.5c0,6.15,2.32,11.76,6.13,16.01c-0.8,0.89-1.66,1.73-2.59,2.49H62.71
				c-5.32-4.4-8.71-11.05-8.71-18.5c0-13.26,10.74-24,24-24c7.11,0,13.49,3.08,17.87,7.99C92.06,322.74,89.74,328.35,89.74,334.5z"
				/>
		</g>
		<rect x="36.25" y="273.5" style="fill:#FFFFFF;" width="82.5" height="16.5"/>
		<circle style="fill:#F93030;" cx="109.25" cy="281.75" r="5.5"/>
		<circle style="fill:#F93030;" cx="95.75" cy="281.75" r="5.5"/>
	</g>
	<path style="opacity:0.2;fill:#FCFAFA;enable-background:new    ;" d="M135.827,158.49v191H26.564
		C26.564,349.489,122.442,318.817,135.827,158.49z"/>
	<g>
		<rect x="301.75" y="269" style="fill:#E6E6E6;" width="92.5" height="84"/>
		<g>
			<path style="fill:#FFFFFF;" d="M385.5,334.5c0,6.73-1.77,13.04-4.88,18.5h-65.24c-3.11-5.46-4.88-11.77-4.88-18.5
				c0-20.71,16.79-37.5,37.5-37.5S385.5,313.79,385.5,334.5z"/>
			<path style="fill:#2D4151;" d="M359.74,334.5c0,6.15,2.32,11.76,6.13,16.01c-0.8,0.89-1.66,1.73-2.59,2.49h-30.57
				c-5.32-4.4-8.71-11.05-8.71-18.5c0-13.26,10.74-24,24-24c7.11,0,13.49,3.08,17.87,7.99C362.06,322.74,359.74,328.35,359.74,334.5
				z"/>
		</g>
		<rect x="306.25" y="273.5" style="fill:#FFFFFF;" width="82.5" height="16.5"/>
		<circle style="fill:#F93030;" cx="379.25" cy="281.75" r="5.5"/>
		<circle style="fill:#F93030;" cx="365.75" cy="281.75" r="5.5"/>
	</g>
	<path style="opacity:0.2;fill:#FCFAFA;enable-background:new    ;" d="M405.827,158.49v191H296.564
		C296.564,349.489,392.442,318.817,405.827,158.49z"/>
	<path style="opacity:0.2;fill:#FCFAFA;enable-background:new    ;" d="M260.479,211.373v159.313h-91.136
		C169.342,370.685,249.314,345.102,260.479,211.373z"/>
	<path style="fill:#ED4C58;" d="M298.5,199h-170v-57.804c0-7.288,5.908-13.196,13.196-13.196h143.607
		c7.288,0,13.196,5.908,13.196,13.196V199H298.5z"/>
	<g>
		<rect x="177.978" y="128" style="fill:#FFFFFF;" width="7.5" height="71"/>
		<rect x="146.207" y="128" style="fill:#FFFFFF;" width="7.5" height="71"/>
		<rect x="209.75" y="128" style="fill:#FFFFFF;" width="7.5" height="71"/>
		<rect x="241.522" y="128" style="fill:#FFFFFF;" width="7.5" height="71"/>
		<rect x="273.293" y="128" style="fill:#FFFFFF;" width="7.5" height="71"/>
	</g>
	<rect x="102.797" y="34.893" style="fill:#E6E6E6;" width="221.405" height="82.213"/>
	<g>
		<circle style="fill:#D8D4D5;" cx="213.219" cy="261.23" r="2.469"/>
		<g>
			<polygon style="fill:#C1B9BC;" points="225.169,270.585 213.26,261.567 201.897,270.364 201.561,269.93 213.257,260.876 
				225.501,270.147 			"/>
		</g>
		<path style="fill:#ED4C58;" d="M230.382,278.126c0,2.201-1.8,4-4,4h-25.763c-2.2,0-4-1.799-4-4v-5.293c0-2.199,1.8-4,4-4h25.763
			c2.2,0,4,1.801,4,4V278.126z"/>
		<g>
			<path style="fill:#FAFCFC;" d="M205.445,271.223c0.601,0,1.112,0.213,1.533,0.636s0.631,0.933,0.631,1.529v4.935
				c0,0.602-0.212,1.112-0.635,1.533c-0.423,0.421-0.933,0.631-1.529,0.631c-0.601,0-1.111-0.211-1.529-0.635
				c-0.418-0.423-0.628-0.933-0.628-1.529v-4.935c0-0.601,0.212-1.112,0.635-1.533C204.346,271.434,204.854,271.223,205.445,271.223
				z M206.189,273.36c0-0.217-0.076-0.4-0.227-0.553c-0.152-0.151-0.335-0.227-0.552-0.227c-0.216,0-0.401,0.075-0.555,0.227
				c-0.154,0.152-0.231,0.336-0.231,0.553v4.949c0,0.216,0.077,0.4,0.231,0.551c0.154,0.152,0.339,0.228,0.555,0.228
				c0.217,0,0.4-0.075,0.552-0.228c0.151-0.15,0.227-0.335,0.227-0.551V273.36z"/>
			<path style="fill:#FAFCFC;" d="M210.964,271.339c0.664,0,1.193,0.209,1.587,0.628c0.365,0.398,0.548,0.908,0.548,1.529v1.313
				c0,0.597-0.208,1.106-0.624,1.529c-0.416,0.424-0.92,0.635-1.512,0.635h-0.786v3.406h-1.364v-9.04L210.964,271.339
				L210.964,271.339z M211.78,273.518c0-0.236-0.071-0.426-0.213-0.57s-0.331-0.217-0.566-0.217h-0.822v2.894h0.822
				c0.217,0,0.4-0.077,0.552-0.231c0.151-0.153,0.227-0.338,0.227-0.555L211.78,273.518L211.78,273.518z"/>
			<path style="fill:#FAFCFC;" d="M214.189,280.38v-9.047h3.881v1.37h-2.518v2.468h1.84v1.371h-1.84v2.467h2.518v1.371H214.189z"/>
			<path style="fill:#FAFCFC;" d="M220.539,271.333l1.81,6.08v-6.08h1.364v9.047h-1.465l-1.875-5.793v5.793h-1.364v-9.047H220.539z"
				/>
		</g>
	</g>
	<rect x="107.797" y="39.893" style="fill:#C92D2D;" width="211.405" height="72.213"/>
	<rect x="248.333" y="287.99" style="fill:#808080;" width="21.667" height="8.667"/>
	<rect x="112.797" y="44.893" style="fill:#E6E6E6;" width="201.405" height="62.213"/>
	<g>
		<path style="fill:#2D4151;" d="M194.265,93.096c-4.767,0.894-11.172-0.497-17.428-3.923c-2.582-1.39-4.916-2.88-7.498-4.121
			c-1.341,1.738-4.221,2.681-6.058,3.178c-8.54,2.383-7.597-8.292,0.943-6.852c1.042,0.199,1.887,0.745,3.178,1.241
			c2.234-5.263,1.887-11.023,2.333-16.733c-6.256-1.539-11.569-6.355-12.562-9.583c-0.049-0.248,3.972-1.589,4.221-0.943
			c0.993,2.681,3.376,7.845,8.391,9.533c1.291-13.456,9.732-18.123,15.342-13.754c4.618,3.674,3.774,13.803-8.689,15.194
			c-0.745,0.099-1.49,0.099-2.185,0.05c0,4.767-1.49,12.86-4.072,17.378c2.781,1.291,5.512,2.532,8.541,3.823
			c5.561,2.284,12.264,2.085,17.478-0.745C196.549,86.641,194.712,92.996,194.265,93.096z M166.708,83.91
			c-1.34-0.596-2.234-1.142-3.029-1.241c-4.469-0.546-3.128,5.412,0.249,4.121C165.219,86.343,165.914,85.251,166.708,83.91z
			 M174.305,65.439c0.496,0,0.993,0,1.489-0.05c8.888-0.894,9.881-10.924,5.909-13.803
			C177.284,48.508,175.249,54.168,174.305,65.439z"/>
		<path style="fill:#2D4151;" d="M195.803,81.725c-0.646,1.738-3.178,3.823-5.213,3.426c-1.837-0.397-2.483-3.128-2.781-6.157
			c-0.844,3.923-1.837,5.909-4.021,6.306c-3.674,0.646-6.207-3.426-5.462-8.441c0.894-5.908,6.355-8.689,9.186-8.689
			c2.681,0,5.114,0.695,4.767,1.639c-0.646,1.638-4.022,0.844-4.568,0.248c0-0.497,0.447-0.993-0.546-0.993
			c-2.333,0-3.575,3.277-4.17,7.646c-0.596,4.32-0.794,7.795,1.241,7.348c2.085-0.447,2.284-5.263,2.929-12.512
			c0.05-0.199,0.447-0.298,0.745-0.348c0.943-0.149,4.27,0.05,4.22,0.348c-0.745,4.667-1.291,11.42-0.298,12.214
			c0.943,0.844,3.128-1.49,3.625-2.582C195.654,80.732,195.952,81.279,195.803,81.725z"/>
		<path style="fill:#2D4151;" d="M210.895,81.924c-0.397,1.043-3.327,4.32-5.412,3.575c-1.44-0.496-2.383-2.631-2.333-6.256
			c-1.291,3.327-2.482,5.164-4.816,5.958c-3.476,1.192-4.717-6.852-3.376-15.988c0.05-0.447,4.767-0.298,4.618,0.099
			c-1.936,8.292-2.482,15.045-0.645,14.548c2.482-0.695,3.773-5.809,4.667-12.264c0.05-0.794,0.149-1.589,0.249-2.383
			c0.049-0.447,4.767-0.298,4.667,0.099c-2.482,8.242-3.327,14.101-1.837,15.094c0.993,0.646,3.376-1.937,3.873-3.029
			C210.746,80.931,211.044,81.477,210.895,81.924z"/>
		<path style="fill:#2D4151;" d="M226.484,82.073c-0.695,1.787-3.327,4.27-5.71,3.476c-1.688-0.646-3.228-3.277-2.632-9.434
			c0.497-5.263,1.043-6.355-0.347-6.008c-2.582,0.695-4.618,7.398-4.816,13.505c0,0.348-0.05,0.745-0.05,1.192
			s-3.277,0.348-3.277-0.099c0-4.717,0.099-9.881,0.05-17.626c0-0.497,4.916-0.397,4.866,0.05c-0.695,3.922-1.092,6.604-1.291,8.888
			c1.39-3.873,2.83-7.1,5.164-7.895c3.078-1.092,4.866,1.092,4.22,7.15c-0.646,6.306-1.142,8.441-0.149,9.086
			c0.993,0.695,3.128-1.788,3.625-2.88C226.335,81.03,226.683,81.576,226.484,82.073z"/>
		<path style="fill:#2D4151;" d="M242.47,81.974c-0.596,1.44-2.681,3.277-4.667,2.979c-1.49-0.347-2.93-3.376-3.277-7.249
			c-0.993,4.419-1.837,7.2-4.021,7.597c-3.674,0.646-6.207-3.426-5.412-8.441c0.844-5.908,5.71-8.689,8.49-8.689h0.695
			c0.149-5.561,0.695-11.37,1.191-15.293c0-0.447,4.667-0.298,4.618,0.149c-1.837,11.321-3.178,29.295-1.489,30.685
			c0.894,0.794,3.029-1.192,3.525-2.284C242.321,80.98,242.619,81.527,242.47,81.974z M234.228,70.951v-1.539
			c-0.149-0.199-0.447-0.348-0.993-0.348c-1.837,0-2.88,3.277-3.525,7.646c-0.546,4.32-0.646,7.795,1.241,7.348
			C232.143,83.761,233.533,79.839,234.228,70.951z"/>
		<path style="fill:#2D4151;" d="M256.321,81.725c-0.348,0.943-2.831,3.575-4.618,3.227c-3.327-0.695-3.923-7.895-3.079-13.356
			c0,0-0.397,0.397-2.333,0.298c-0.199,3.674-2.036,7.448-4.121,10.228c-0.298,0.447-0.794,0.149-0.497-0.248
			c1.937-3.029,2.532-6.604,2.234-10.129c-0.1,0-0.199-0.05-0.298-0.05c-3.029-0.745-2.185-3.327,0.049-4.866
			c2.185-1.49,2.632,1.688,2.632,3.178c1.787,0.298,3.426-0.248,4.618-2.185c0.447-0.745,2.73,1.49,2.681,1.589
			c-0.943,1.539-1.589,4.667-1.738,6.753c-0.298,3.972-0.1,7.1,0.546,7.597c0.894,0.844,3.079-1.49,3.575-2.582
			C256.172,80.732,256.52,81.279,256.321,81.725z"/>
		<path style="fill:#2D4151;" d="M269.676,89.769c-0.248,0.447-0.844,0.447-0.993,0.298c0.497-1.39-0.149-2.383-1.738-2.781
			c-1.34,7.498-3.823,14.002-6.504,14.945c-3.476,1.241-6.405-3.029-5.412-8.193c1.092-5.66,5.462-7.498,8.491-7.845
			c0.199-2.582,0.447-4.419,0.646-6.951c-1.291,3.376-2.483,5.164-4.916,6.008c-3.426,1.191-4.667-6.902-3.327-16.038
			c0.049-0.447,4.717-0.298,4.618,0.099c-1.986,8.292-2.483,15.045-0.695,14.548c2.582-0.695,3.873-6.008,4.767-12.711l0.099-1.937
			c0.05-0.447,4.717-0.298,4.667,0.099c-0.596,4.618-1.291,11.023-2.284,16.931C269.825,86.74,270.074,88.776,269.676,89.769z
			 M263.42,87.088c-2.433,0.199-3.674,2.284-4.518,6.604c-0.794,4.469-0.1,8.093,1.738,7.299
			C262.377,100.246,262.725,94.089,263.42,87.088z"/>
	</g>
	<g>
		<circle style="fill:#ED4C58;" cx="131.996" cy="75.948" r="6"/>
		<circle style="fill:#ED4C58;" cx="295.004" cy="76.052" r="6"/>
	</g>
</g>
<g>
</g>
<g>
</g>
<g>
</g>
<g>
</g>
<g>
</g>
<g>
</g>
<g>
</g>
<g>
</g>
<g>
</g>
<g>
</g>
<g>
</g>
<g>
</g>
<g>
</g>
<g>
</g>
<g>
</g>
</svg>
