<?xml version="1.0" encoding="iso-8859-1"?>
<!-- Generator: Adobe Illustrator 19.0.0, SVG Export Plug-In . SVG Version: 6.00 Build 0)  -->
<svg version="1.1" id="Layer_1" xmlns="http://www.w3.org/2000/svg" xmlns:xlink="http://www.w3.org/1999/xlink" x="0px" y="0px"
	 viewBox="0 0 491.53 491.53" style="enable-background:new 0 0 491.53 491.53;" xml:space="preserve">
<g>
	<rect x="419.845" y="237.312" style="fill:#DC8744;" width="30.577" height="254.218"/>
	<rect x="32.148" y="237.312" style="fill:#DC8744;" width="30.577" height="254.218"/>
</g>
<g>
	<rect x="219.715" y="186.859" style="fill:#64798A;" width="52.096" height="79.191"/>
	
		<rect x="288.51" y="353.378" transform="matrix(0.3368 -0.9416 0.9416 0.3368 -190.4818 555.3743)" style="fill:#64798A;" width="20.946" height="119.04"/>
	
		<rect x="182.057" y="353.38" transform="matrix(-0.3368 -0.9416 0.9416 -0.3368 -131.4065 733.2437)" style="fill:#64798A;" width="20.946" height="119.04"/>
</g>
<g>
	<path style="fill:#E56353;" d="M326.537,206.659c-30.258,26.749-131.288,26.749-161.545,0
		c-35.724-31.582-19.495-157.78,15.57-190.09c23.975-22.092,106.428-22.092,130.403,0
		C346.032,48.879,362.26,175.078,326.537,206.659z"/>
	<path style="fill:#E56353;" d="M373.28,275.402c-45.083-29.318-209.946-29.318-255.029,0c-4.434,2.882-6.965,10.993-7.006,18.279
		h269.04C380.24,286.393,377.71,278.284,373.28,275.402z"/>
</g>
<path style="fill:#64798A;" d="M111.245,293.681c-0.038,6.828,2.108,12.932,7.006,13.311c46.915,3.627,202.788,3.828,255.029,0
	c4.899-0.357,7.046-6.471,7.006-13.311H111.245z"/>
<g>
	<polygon style="fill:#3A556A;" points="142.448,451.364 132.987,451.364 132.987,423.076 142.448,419.694 	"/>
	<path style="fill:#3A556A;" d="M132.825,450.703h-5.931c-1.584,0-2.867,1.113-2.867,2.487v17.663c0,1.373,1.283,2.486,2.867,2.486
		h5.931c1.583,0,2.866-1.114,2.866-2.486V453.19C135.691,451.816,134.407,450.703,132.825,450.703z"/>
	<path style="fill:#3A556A;" d="M148.542,450.703h-5.931c-1.583,0-2.866,1.113-2.866,2.487v17.663c0,1.373,1.283,2.486,2.866,2.486
		h5.931c1.584,0,2.867-1.114,2.867-2.486V453.19C151.408,451.816,150.125,450.703,148.542,450.703z"/>
</g>
<path style="fill:#64798A;" d="M137.717,443.893c-9.772,0-17.799,7.468-18.683,17.01c-0.087,0.937,0.723,1.755,1.661,1.755h34.044
	c0.938,0,1.748-0.819,1.661-1.755C155.517,451.362,147.49,443.893,137.717,443.893z"/>
<g>
	<polygon style="fill:#3A556A;" points="349.108,451.364 358.568,451.364 358.568,423.076 349.108,419.694 	"/>
	<path style="fill:#3A556A;" d="M358.732,450.703h5.93c1.584,0,2.867,1.113,2.867,2.487v17.663c0,1.373-1.283,2.486-2.867,2.486
		h-5.93c-1.584,0-2.867-1.114-2.867-2.486V453.19C355.865,451.816,357.148,450.703,358.732,450.703z"/>
	<path style="fill:#3A556A;" d="M343.014,450.703h5.931c1.584,0,2.867,1.113,2.867,2.487v17.663c0,1.373-1.283,2.486-2.867,2.486
		h-5.931c-1.583,0-2.866-1.114-2.866-2.486V453.19C340.148,451.816,341.431,450.703,343.014,450.703z"/>
</g>
<path style="fill:#64798A;" d="M353.838,443.893c9.772,0,17.799,7.468,18.683,17.01c0.087,0.937-0.722,1.755-1.66,1.755h-34.044
	c-0.938,0-1.748-0.819-1.661-1.755C336.039,451.362,344.066,443.893,353.838,443.893z"/>
<g>
	<polygon style="fill:#3A556A;" points="241.037,451.364 250.496,451.364 250.496,423.076 241.037,419.694 	"/>
	<path style="fill:#3A556A;" d="M250.66,450.703h5.931c1.583,0,2.866,1.113,2.866,2.487v17.663c0,1.373-1.283,2.486-2.866,2.486
		h-5.931c-1.584,0-2.867-1.114-2.867-2.486V453.19C247.793,451.816,249.076,450.703,250.66,450.703z"/>
	<path style="fill:#3A556A;" d="M234.943,450.703h5.93c1.584,0,2.867,1.113,2.867,2.487v17.663c0,1.373-1.283,2.486-2.867,2.486
		h-5.93c-1.584,0-2.867-1.114-2.867-2.486V453.19C232.076,451.816,233.359,450.703,234.943,450.703z"/>
</g>
<path style="fill:#64798A;" d="M245.767,443.893c9.771,0,17.798,7.468,18.683,17.01c0.087,0.937-0.723,1.755-1.661,1.755h-34.044
	c-0.939,0-1.748-0.819-1.662-1.755C227.968,451.362,235.995,443.893,245.767,443.893z"/>
<rect x="235.295" y="350.515" style="fill:#2F4859;" width="20.941" height="87.398"/>
<rect x="224.087" y="301.737" style="fill:#64798A;" width="43.361" height="74.388"/>
<rect x="0.005" y="190.618" style="fill:#FCD462;" width="491.52" height="54.016"/>
<rect x="0.005" y="227.738" style="fill:#F6C358;" width="491.52" height="16.886"/>
<g>
</g>
<g>
</g>
<g>
</g>
<g>
</g>
<g>
</g>
<g>
</g>
<g>
</g>
<g>
</g>
<g>
</g>
<g>
</g>
<g>
</g>
<g>
</g>
<g>
</g>
<g>
</g>
<g>
</g>
</svg>
