<?xml version="1.0" encoding="iso-8859-1"?>
<!-- Generator: Adobe Illustrator 19.0.0, SVG Export Plug-In . SVG Version: 6.00 Build 0)  -->
<svg version="1.1" id="Layer_1" xmlns="http://www.w3.org/2000/svg" xmlns:xlink="http://www.w3.org/1999/xlink" x="0px" y="0px"
	 viewBox="0 0 512 512" style="enable-background:new 0 0 512 512;" xml:space="preserve">
<g>
	<path style="fill:#BDC3C7;" d="M343.104,128.001H168.9c-5.526,0-10.002,4.476-10.002,10.002v32.962
		c0,5.526,4.476,10.002,10.002,10.002h174.204c5.517,0,10.002-4.476,10.002-10.002v-32.962
		C353.105,132.476,348.621,128.001,343.104,128.001"/>
	<polygon style="fill:#ECF0F1;" points="203.034,295.725 308.966,295.725 308.966,180.966 203.034,180.966 	"/>
	<polygon style="fill:#95A5A5;" points="308.966,92.691 291.31,128.001 220.69,128.001 203.034,92.691 	"/>
	<path style="fill:#D25627;" d="M150.069,92.691h211.862c9.71,0,17.655-7.945,17.655-17.655s-7.945-17.655-17.655-17.655H150.069
		c-9.71,0-17.655,7.945-17.655,17.655S140.359,92.691,150.069,92.691"/>
	<g>
		<path style="fill:#ECF0F1;" d="M512,305.725v103.583c0,5.526-4.476,10.002-10.002,10.002h-60.619V295.723h60.619
			C507.524,295.723,512,300.208,512,305.725"/>
		<polygon style="fill:#ECF0F1;" points="123.586,419.311 388.414,419.311 388.414,295.725 123.586,295.725 		"/>
		<path style="fill:#ECF0F1;" d="M70.621,295.725v123.586H10.002C4.476,419.311,0,414.836,0,409.31V305.727
			c0-5.526,4.476-10.002,10.002-10.002H70.621z"/>
	</g>
	<g>
		<path style="fill:#BDC3C7;" d="M123.586,270.415v174.204c0,5.526-4.476,10.002-10.002,10.002H80.622
			c-5.526,0-10.002-4.476-10.002-10.002V270.415c0-5.517,4.476-10.002,10.002-10.002h32.962
			C119.111,260.413,123.586,264.897,123.586,270.415"/>
		<path style="fill:#BDC3C7;" d="M441.379,270.415v174.204c0,5.526-4.476,10.002-10.002,10.002h-32.962
			c-5.526,0-10.002-4.476-10.002-10.002V270.415c0-5.517,4.476-10.002,10.002-10.002h32.962
			C436.904,260.413,441.379,264.897,441.379,270.415"/>
	</g>
</g>
<g>
</g>
<g>
</g>
<g>
</g>
<g>
</g>
<g>
</g>
<g>
</g>
<g>
</g>
<g>
</g>
<g>
</g>
<g>
</g>
<g>
</g>
<g>
</g>
<g>
</g>
<g>
</g>
<g>
</g>
</svg>
