<?xml version="1.0" encoding="iso-8859-1"?>
<!-- Generator: Adobe Illustrator 19.0.0, SVG Export Plug-In . SVG Version: 6.00 Build 0)  -->
<svg version="1.1" id="Capa_1" xmlns="http://www.w3.org/2000/svg" xmlns:xlink="http://www.w3.org/1999/xlink" x="0px" y="0px"
	 viewBox="0 0 512 512" style="enable-background:new 0 0 512 512;" xml:space="preserve">
<path style="fill:#B28964;" d="M211.699,76.621c-4.463,0-8.879-1.98-11.84-5.77l-34.26-43.857
	c-5.104-6.534-3.945-15.967,2.588-21.07c6.534-5.105,15.967-3.945,21.07,2.589l34.26,43.857c5.104,6.533,3.945,15.967-2.589,21.07
	C218.187,75.582,214.93,76.621,211.699,76.621z"/>
<path style="fill:#9F7953;" d="M302.205,76.621c-3.231,0-6.487-1.039-9.231-3.182c-6.534-5.104-7.693-14.537-2.589-21.07
	l34.259-43.857c5.105-6.533,14.538-7.693,21.07-2.589c6.534,5.104,7.693,14.537,2.589,21.07L314.044,70.85
	C311.084,74.639,306.667,76.621,302.205,76.621z"/>
<g>
	<path style="fill:#FFCD00;" d="M349.956,139.67c0,28.771-9.427,55.941-26.539,76.496c-17.783,21.356-41.65,33.114-67.229,33.114
		s-49.446-11.759-67.229-33.114c-17.112-20.555-26.539-47.725-26.539-76.496s9.427-55.941,26.539-76.496
		c17.783-21.356,41.65-33.124,67.229-33.124s49.446,11.769,67.229,33.124C340.529,83.729,349.956,110.899,349.956,139.67z"/>
	<path style="fill:#FFCD00;" d="M334.354,418.383c0,50.117-35.066,90.876-78.167,90.876s-78.167-40.76-78.167-90.876
		c0-50.107,35.066-90.866,78.167-90.866S334.354,368.276,334.354,418.383z"/>
</g>
<g>
	<path style="fill:#FFA81F;" d="M334.354,418.383c0,50.117-35.066,90.876-78.167,90.876V327.517
		C299.289,327.517,334.354,368.276,334.354,418.383z"/>
	<path style="fill:#FFA81F;" d="M256.187,249.28V30.05c25.579,0,49.446,11.769,67.229,33.124
		c17.112,20.555,26.539,47.725,26.539,76.496s-9.427,55.941-26.539,76.496C305.633,237.521,281.766,249.28,256.187,249.28z"/>
</g>
<g>
	<path style="fill:#FFEB95;" d="M207.087,269.046c2.162,1.085,4.459,1.599,6.724,1.599c5.497,0,10.793-3.031,13.427-8.279
		c3.72-7.409,0.73-16.431-6.68-20.151l-95.02-47.706c-0.075-0.038-0.153-0.064-0.228-0.1c-0.283-0.136-0.57-0.261-0.862-0.379
		c-0.175-0.071-0.349-0.143-0.525-0.207c-0.279-0.102-0.562-0.19-0.849-0.275c-0.195-0.058-0.39-0.118-0.586-0.168
		c-0.264-0.067-0.532-0.121-0.802-0.174c-0.221-0.043-0.442-0.088-0.664-0.121c-0.246-0.037-0.494-0.061-0.744-0.085
		c-0.248-0.024-0.496-0.049-0.745-0.061c-0.226-0.011-0.453-0.011-0.681-0.011c-0.274-0.001-0.547,0.001-0.82,0.016
		c-0.21,0.011-0.421,0.031-0.632,0.051c-0.289,0.027-0.576,0.06-0.863,0.104c-0.093,0.014-0.186,0.018-0.279,0.034L12.469,210.981
		c-8.17,1.405-13.655,9.168-12.249,17.339c1.257,7.309,7.603,12.469,14.776,12.469c0.845,0,1.701-0.072,2.562-0.219l98.922-17.012
		L207.087,269.046z"/>
	<path style="fill:#FFEB95;" d="M202.617,303.409c8.29,0,15.011-6.721,15.011-15.011s-6.721-15.011-15.011-15.011H140.37
		c-0.128,0-0.252,0.016-0.38,0.019c-0.317,0.008-0.633,0.02-0.952,0.048c-0.204,0.018-0.404,0.046-0.606,0.072
		c-0.279,0.036-0.557,0.075-0.837,0.128c-0.242,0.045-0.478,0.101-0.717,0.158c-0.23,0.055-0.459,0.11-0.688,0.177
		c-0.28,0.081-0.554,0.175-0.828,0.271c-0.184,0.065-0.367,0.128-0.549,0.201c-0.304,0.121-0.6,0.257-0.895,0.397
		c-0.11,0.052-0.222,0.092-0.331,0.147l-98.301,49.769c-7.396,3.745-10.357,12.776-6.612,20.173
		c2.645,5.224,7.924,8.234,13.404,8.234c2.28,0,4.595-0.521,6.769-1.622l95.102-48.151L202.617,303.409L202.617,303.409z"/>
	<path style="fill:#FFEB95;" d="M239.852,327.438c-2.769-7.816-11.348-11.905-19.161-9.138l-85.333,30.227
		c-0.08,0.028-0.153,0.066-0.232,0.096c-0.254,0.095-0.503,0.201-0.753,0.31c-0.213,0.093-0.426,0.183-0.632,0.285
		c-0.221,0.109-0.435,0.229-0.65,0.348c-0.219,0.121-0.438,0.24-0.649,0.371c-0.196,0.122-0.383,0.255-0.574,0.386
		c-0.211,0.145-0.425,0.288-0.627,0.443c-0.188,0.144-0.366,0.3-0.547,0.453c-0.188,0.159-0.378,0.314-0.557,0.48
		c-0.185,0.173-0.359,0.358-0.536,0.541c-0.159,0.164-0.321,0.325-0.472,0.496c-0.173,0.196-0.334,0.404-0.498,0.61
		c-0.14,0.176-0.282,0.349-0.414,0.531c-0.148,0.205-0.284,0.419-0.422,0.633c-0.131,0.203-0.264,0.404-0.386,0.613
		c-0.117,0.201-0.224,0.41-0.332,0.619c-0.124,0.238-0.246,0.477-0.358,0.722c-0.035,0.077-0.078,0.148-0.112,0.227l-42.669,98.214
		c-3.303,7.604,0.183,16.446,7.787,19.749c1.948,0.847,3.977,1.247,5.974,1.247c5.796,0,11.318-3.377,13.775-9.034l40.067-92.225
		l79.179-28.046C238.529,343.831,242.62,335.252,239.852,327.438z"/>
</g>
<g>
	<path style="fill:#FFDE46;" d="M499.555,210.762l-102.788-17.849c-0.098-0.017-0.195-0.021-0.293-0.036
		c-0.284-0.044-0.57-0.077-0.858-0.104c-0.21-0.02-0.419-0.04-0.628-0.051c-0.279-0.015-0.559-0.018-0.841-0.017
		c-0.217,0.001-0.434,0.001-0.65,0.011c-0.266,0.012-0.531,0.037-0.798,0.064c-0.227,0.023-0.454,0.045-0.679,0.078
		c-0.25,0.037-0.498,0.086-0.748,0.135c-0.238,0.047-0.475,0.095-0.711,0.154c-0.231,0.058-0.46,0.127-0.69,0.196
		c-0.248,0.075-0.494,0.152-0.738,0.239c-0.214,0.077-0.425,0.163-0.637,0.25c-0.251,0.104-0.5,0.211-0.745,0.328
		c-0.095,0.045-0.193,0.079-0.288,0.127l-95.019,47.705c-7.408,3.72-10.4,12.741-6.68,20.151c2.635,5.248,7.929,8.279,13.427,8.279
		c2.264,0,4.562-0.514,6.724-1.599l90.594-45.483l97.909,17.001c0.87,0.151,1.733,0.224,2.586,0.224
		c7.163,0,13.505-5.146,14.772-12.445C513.195,219.951,507.723,212.181,499.555,210.762z"/>
	<path style="fill:#FFDE46;" d="M477.71,324.553l-98.301-49.769c-0.11-0.056-0.223-0.095-0.333-0.148
		c-0.292-0.139-0.586-0.274-0.89-0.395c-0.186-0.074-0.373-0.139-0.561-0.205c-0.268-0.095-0.537-0.187-0.813-0.267
		c-0.235-0.069-0.471-0.125-0.708-0.182c-0.23-0.055-0.459-0.109-0.693-0.153c-0.288-0.054-0.575-0.095-0.865-0.132
		c-0.192-0.025-0.383-0.051-0.577-0.068c-0.328-0.029-0.656-0.042-0.984-0.05c-0.12-0.003-0.236-0.018-0.357-0.018h-62.247
		c-8.29,0-15.011,6.721-15.011,15.011c0,8.29,6.721,15.011,15.011,15.011h58.664l95.102,48.151c2.174,1.101,4.488,1.622,6.769,1.622
		c5.479,0,10.76-3.011,13.404-8.234C488.066,337.329,485.106,328.296,477.71,324.553z"/>
	<path style="fill:#FFDE46;" d="M386.397,356.472c-0.034-0.078-0.077-0.149-0.112-0.227c-0.111-0.245-0.234-0.483-0.358-0.723
		c-0.108-0.208-0.215-0.417-0.332-0.618c-0.122-0.21-0.255-0.412-0.387-0.616c-0.138-0.213-0.273-0.427-0.42-0.63
		c-0.132-0.183-0.276-0.357-0.416-0.535c-0.163-0.205-0.323-0.412-0.495-0.607c-0.152-0.173-0.316-0.335-0.477-0.501
		c-0.175-0.181-0.348-0.364-0.531-0.535c-0.181-0.169-0.374-0.326-0.563-0.486c-0.179-0.151-0.355-0.305-0.54-0.447
		c-0.204-0.156-0.419-0.3-0.631-0.446c-0.189-0.13-0.376-0.263-0.57-0.383c-0.212-0.132-0.433-0.251-0.652-0.373
		c-0.214-0.119-0.427-0.238-0.646-0.346c-0.207-0.102-0.422-0.193-0.635-0.286c-0.248-0.108-0.496-0.214-0.75-0.309
		c-0.079-0.029-0.152-0.067-0.232-0.096l-85.332-30.227c-7.814-2.768-16.394,1.322-19.161,9.138
		c-2.768,7.815,1.323,16.393,9.138,19.161l79.178,28.046l40.067,92.225c2.458,5.656,7.979,9.034,13.775,9.034
		c1.996,0,4.026-0.4,5.974-1.247c7.604-3.303,11.09-12.146,7.787-19.749L386.397,356.472z"/>
</g>
<path style="fill:#B28964;" d="M324.767,288.398c0,37.818-30.762,68.58-68.58,68.58s-68.58-30.762-68.58-68.58
	s30.762-68.58,68.58-68.58S324.767,250.581,324.767,288.398z"/>
<path style="fill:#9F7953;" d="M324.767,288.398c0,37.818-30.762,68.58-68.58,68.58v-137.16
	C294.005,219.818,324.767,250.581,324.767,288.398z"/>
<g>
</g>
<g>
</g>
<g>
</g>
<g>
</g>
<g>
</g>
<g>
</g>
<g>
</g>
<g>
</g>
<g>
</g>
<g>
</g>
<g>
</g>
<g>
</g>
<g>
</g>
<g>
</g>
<g>
</g>
</svg>
