<?xml version="1.0" encoding="iso-8859-1"?>
<!-- Generator: Adobe Illustrator 19.0.0, SVG Export Plug-In . SVG Version: 6.00 Build 0)  -->
<svg version="1.1" id="Layer_1" xmlns="http://www.w3.org/2000/svg" xmlns:xlink="http://www.w3.org/1999/xlink" x="0px" y="0px"
	 viewBox="0 0 512.001 512.001" style="enable-background:new 0 0 512.001 512.001;" xml:space="preserve">
<path style="fill:#36495E;" d="M337.719,127.368H174.28c-11.556,0-20.361-10.379-18.482-21.777l3.753-22.773
	c7.817-47.43,48.379-81.855,96.45-81.855c48.069,0,88.632,34.425,96.448,81.855l3.753,22.773
	C358.08,116.993,349.273,127.368,337.719,127.368z M196.352,89.904h119.296l-0.164-0.995C310.663,59.656,285.646,38.426,256,38.426
	c-29.647,0-54.663,21.232-59.484,50.484L196.352,89.904z"/>
<path style="fill:#2C3E50;" d="M356.202,105.59l-3.753-22.773c-7.817-47.43-48.38-81.855-96.45-81.855v37.463
	c29.646,0,54.663,21.232,59.484,50.484l0.164,0.995H256v37.463h81.719C349.273,127.368,358.08,116.993,356.202,105.59z"/>
<path style="fill:#20B8AE;" d="M463.952,511.039H48.048C21.554,511.039,0,489.485,0,462.991V137.952
	c0-26.494,21.554-48.048,48.048-48.048h415.905c26.493,0,48.048,21.554,48.048,48.048v325.039
	C512,489.485,490.446,511.039,463.952,511.039z"/>
<path style="fill:#1DA49C;" d="M463.952,89.904H256v421.135h207.952c26.493,0,48.048-21.555,48.048-48.049V137.952
	C512,111.458,490.446,89.904,463.952,89.904z"/>
<path style="fill:#65C6BB;" d="M424.739,442.51H87.261c-10.345,0-18.732-8.387-18.732-18.732V177.165
	c0-10.345,8.387-18.732,18.732-18.732h337.478c10.345,0,18.732,8.387,18.732,18.732v246.612
	C443.471,434.123,435.084,442.51,424.739,442.51z"/>
<g>
	<path style="fill:#20B8AE;" d="M424.739,158.433H256v284.075h168.739c10.345,0,18.732-8.387,18.732-18.732V177.165
		C443.471,166.82,435.084,158.433,424.739,158.433z"/>
	<path style="fill:#20B8AE;" d="M250.683,369.683c-23.2-0.773-42.145-12.76-42.145-25.133c0-6.574,5.799-16.24,13.146-16.24
		c8.12,0,14.693,11.408,28.999,13.92V310.91c-17.786-6.766-38.666-15.079-38.666-39.826c0-24.552,18.172-36.346,38.666-39.247
		v-5.413c0-2.706,3.093-5.22,7.347-5.22c3.673,0,7.347,2.514,7.347,5.22v4.834c11.987,0.387,34.606,3.479,34.606,16.82
		c0,5.22-3.48,15.852-11.987,15.852c-6.38,0-10.053-6.186-22.619-7.152v28.225c17.593,6.574,38.087,15.66,38.087,41.759
		c0,23.973-15.466,38.474-38.087,42.146v5.606c0,2.707-3.673,5.221-7.347,5.221c-4.253,0-7.347-2.514-7.347-5.221L250.683,369.683
		L250.683,369.683z M252.617,280.366v-23.008c-8.7,1.74-12.373,6.186-12.373,10.827
		C240.243,273.791,245.269,277.271,252.617,280.366z M263.443,316.131v25.906c6.574-1.546,11.793-5.22,11.793-12.179
		C275.236,323.477,270.403,319.417,263.443,316.131z"/>
</g>
<path style="fill:#1DA49C;" d="M265.376,285.004v-28.225c12.566,0.965,16.239,7.152,22.619,7.152
	c8.507,0,11.987-10.633,11.987-15.852c0-13.341-22.619-16.433-34.606-16.82v-4.834c0-2.706-3.673-5.22-7.347-5.22
	c-0.713,0-1.391,0.076-2.031,0.206V379.53c0.639,0.13,1.316,0.206,2.031,0.206c3.673,0,7.347-2.514,7.347-5.221v-5.606
	c22.619-3.673,38.087-18.174,38.087-42.146C303.462,300.665,282.97,291.577,265.376,285.004z M263.443,342.037v-25.906
	c6.961,3.287,11.793,7.347,11.793,13.727C275.236,336.818,270.016,340.491,263.443,342.037z"/>
<g>
</g>
<g>
</g>
<g>
</g>
<g>
</g>
<g>
</g>
<g>
</g>
<g>
</g>
<g>
</g>
<g>
</g>
<g>
</g>
<g>
</g>
<g>
</g>
<g>
</g>
<g>
</g>
<g>
</g>
</svg>
