<?xml version="1.0" encoding="iso-8859-1"?>
<!-- Generator: Adobe Illustrator 19.0.0, SVG Export Plug-In . SVG Version: 6.00 Build 0)  -->
<svg version="1.1" id="Layer_1" xmlns="http://www.w3.org/2000/svg" xmlns:xlink="http://www.w3.org/1999/xlink" x="0px" y="0px"
	 viewBox="0 0 496.158 496.158" style="enable-background:new 0 0 496.158 496.158;" xml:space="preserve">
<path style="fill:#29C183;" d="M248.083,0.003C111.07,0.003,0,111.063,0,248.085c0,137.001,111.07,248.07,248.083,248.07
	c137.006,0,248.075-111.069,248.075-248.07C496.158,111.062,385.089,0.003,248.083,0.003z"/>
<path style="fill:#DDDDCE;" d="M361.501,94.355H123.727c-8.885,0-16.079,7.193-16.079,16.07v275.299
	c0,8.881,7.194,16.078,16.079,16.078H361.5c8.879,0,16.072-7.197,16.072-16.078V110.426
	C377.573,101.549,370.38,94.355,361.501,94.355z"/>
<path style="fill:#E7E7D6;" d="M357.123,98.521H128.106c-8.641,0-15.639,7.002-15.639,15.638v267.833
	c0,8.631,6.998,15.64,15.639,15.64h229.017c8.634,0,15.639-7.009,15.639-15.64V114.159
	C372.762,105.523,365.757,98.521,357.123,98.521z"/>
<path style="fill:#EDC92C;" d="M353.501,156.611c0,0-23.729-9.146-50.963-17.1v23.04c27.205,7.948,50.963,17.059,50.963,17.059
	l-11.721-15.894L353.501,156.611z"/>
<polygon style="fill:#D7B129;" points="302.538,139.512 302.538,162.552 323.62,158.189 "/>
<path style="fill:#EDC92C;" d="M131.614,156.611l11.721,7.105l-11.721,15.894c0,0,23.75-9.11,50.962-17.059v-23.04
	C155.343,147.465,131.614,156.611,131.614,156.611z"/>
<polygon style="fill:#D7B129;" points="161.485,158.189 182.576,162.552 182.576,139.512 "/>
<path style="fill:#EDC92C;" d="M242.672,123.606c-36.538,0-81.407,11.499-81.407,11.499v23.005c0,0,45.213-11.504,81.407-11.504
	c36.188,0,80.948,11.504,80.948,11.504v-23.005C323.62,135.105,279.202,123.606,242.672,123.606z"/>
<path style="fill:#BFC1A9;" d="M327.548,220.782H155.393c-2.511,0-4.543,2.041-4.543,4.544c0,2.518,2.032,4.552,4.543,4.552h172.155
	c2.503,0,4.549-2.034,4.549-4.552C332.097,222.823,330.051,220.782,327.548,220.782z"/>
<path style="fill:#AFAFA3;" d="M304.198,191.23H178.751c-3.211,0-5.814,2.609-5.814,5.814c0,3.218,2.604,5.818,5.814,5.818h125.447
	c3.203,0,5.807-2.601,5.807-5.818C310.005,193.84,307.401,191.23,304.198,191.23z"/>
<g>
	<path style="fill:#BFC1A9;" d="M327.548,246.75H155.393c-2.511,0-4.543,2.038-4.543,4.548c0,2.511,2.032,4.545,4.543,4.545h172.155
		c2.503,0,4.549-2.034,4.549-4.545C332.097,248.788,330.051,246.75,327.548,246.75z"/>
	<path style="fill:#BFC1A9;" d="M328.549,352.045H226.36c-2.512,0-4.542,2.031-4.542,4.545s2.03,4.552,4.542,4.552h102.188
		c2.496,0,4.542-2.038,4.542-4.552S331.045,352.045,328.549,352.045z"/>
</g>
<path style="fill:#70706E;" d="M284.714,342.46c-0.111-1.099-1.094-1.898-2.191-1.788c-2.188,0.221-4.678,0.369-6.557-0.684
	c-0.922-0.517-1.938-1.258-3.014-2.043c-2.784-2.033-5.939-4.334-9.127-3.676c-1.708,0.355-3.139,1.496-4.252,3.391
	c-1.362,2.318-5.416,3.671-6.701,3.035c-0.504-0.363-1.563-2.311-2.336-3.731c-2.283-4.196-5.121-9.432-9.637-8.932
	c-4.349,0.47-5.234,4.328-5.945,7.429c-0.783,3.411-1.442,5.541-3.996,6.352c-0.581,0.186-1.061,0.148-1.557-0.121
	c-1.671-0.906-2.838-3.978-3.116-4.984c-0.29-1.064-1.388-1.697-2.453-1.404c-1.065,0.289-1.696,1.387-1.407,2.453
	c0.153,0.563,1.592,5.556,5.059,7.445c0.883,0.482,1.83,0.725,2.8,0.725c0.622,0,1.255-0.1,1.886-0.301
	c4.915-1.561,5.938-6.016,6.684-9.27c0.744-3.24,1.159-4.204,2.477-4.347c1.83-0.19,4.255,4.224,5.693,6.866
	c1.461,2.684,2.516,4.623,4.01,5.369c3.43,1.713,9.707-0.674,11.99-4.557c0.518-0.881,1.061-1.386,1.615-1.501
	c1.457-0.294,3.949,1.524,5.956,2.989c1.124,0.82,2.285,1.668,3.418,2.303c2.759,1.545,5.915,1.477,8.913,1.172
	C284.024,344.54,284.825,343.558,284.714,342.46z"/>
<polygon style="fill:#E6BE20;" points="203.454,329.317 203.561,321.767 196.761,317.716 192.799,310.851 185.247,310.851 
	178.766,306.989 171.851,310.851 163.928,310.851 160.157,317.388 153.571,321.074 153.458,328.994 149.495,335.853 153.271,342.39 
	153.171,349.938 159.973,353.99 163.928,360.851 171.479,360.851 177.966,364.717 184.882,360.851 192.799,360.851 196.575,354.318 
	203.161,350.631 203.275,342.709 207.231,335.853 "/>
<g>
	<polygon style="fill:#EDC92C;" points="200.001,330.219 200.093,323.714 194.229,320.217 190.809,314.303 184.296,314.303 
		178.71,310.965 172.753,314.303 165.923,314.303 162.669,319.933 156.983,323.109 156.891,329.939 153.478,335.853 
		156.733,341.488 156.64,347.996 162.513,351.49 165.923,357.407 172.431,357.407 178.023,360.742 183.987,357.407 190.809,357.407 
		194.063,351.772 199.743,348.598 199.843,341.767 203.255,335.853 	"/>
	<path style="fill:#EDC92C;" d="M335.938,358.199c-0.251-0.375-2.035-1.977-2.52-1.977l-49.66-14.718
		c-0.854,0.079-1.689,0.917-1.689,1.691l14.719,49.657c0,0.484,1.603,2.267,1.979,2.52c0.25,0.374,31.014,13.966,31.014,13.966
		c0.772,0,19.951-19.181,19.951-19.952C349.731,389.387,336.313,358.45,335.938,358.199z"/>
</g>
<path style="fill:#F1D250;" d="M282.623,342.06c-0.251,0.253-0.515,0.709-0.554,1.136l14.719,49.657c0,0.484,1.603,2.267,1.979,2.52
	c0.25,0.374,31.014,13.966,31.014,13.966c0.375,0,5.551-4.983,10.318-9.743L282.623,342.06z"/>
<path style="fill:#9B7842;" d="M353.806,391.699c-0.648-0.648-1.699-0.648-2.346-0.002l-9.631,9.631l49.387,49.387
	c4.201-2.973,8.299-6.082,12.301-9.305L353.806,391.699z"/>
<path style="fill:#AE8A50;" d="M341.829,401.328l-9.651,9.653c-0.648,0.646-0.648,1.695,0,2.343l46.003,46.003
	c4.438-2.739,8.788-5.606,13.035-8.612L341.829,401.328z"/>
<g>
	<path style="fill:#DBBD40;" d="M325.318,381.543l-42.108-40.174c-0.261-0.26-0.752-0.191-1.098,0.154
		c-0.343,0.344-0.412,0.834-0.153,1.096l40.177,42.111c0.259,0.258,1.717-0.778,2.059-1.125
		C324.541,383.261,325.579,381.807,325.318,381.543z"/>
	
		<ellipse transform="matrix(-0.7072 -0.707 0.707 -0.7072 282.3948 884.2744)" style="fill:#DBBD40;" cx="324.3" cy="383.663" rx="5.148" ry="4.228"/>
</g>
<g>
	
		<ellipse transform="matrix(-0.707 -0.7072 0.7072 -0.707 282.2396 884.2863)" style="fill:#F0D359;" cx="324.298" cy="383.678" rx="4.101" ry="3.365"/>
	<path style="fill:#F0D359;" d="M324.499,382.265l-41.936-41.008c0,0-0.252,0.069-0.451,0.267c-0.196,0.195-0.264,0.449-0.264,0.449
		l41.008,41.936c0.261,0.262,1.094-0.154,1.291-0.352C324.347,383.36,324.76,382.525,324.499,382.265z"/>
</g>
<path style="fill:#F8DE71;" d="M282.112,341.523c-0.196,0.195-0.264,0.449-0.264,0.449l38.916,39.795
	c-0.496,1.316-0.082,3.023,1.162,4.269c1.602,1.601,3.967,1.835,5.277,0.521L282.112,341.523z"/>
<path style="fill:#3D969F;" d="M353.444,389.306l-1.426-1.423c-0.707-0.711-1.857-0.711-2.565,0l-21.094,21.092
	c-0.707,0.709-0.707,1.857,0,2.566l1.427,1.423c0.707,0.712,1.855,0.712,2.566,0.001l21.093-21.094
	C354.153,391.163,354.153,390.015,353.444,389.306z"/>
<path style="fill:#4AA0A5;" d="M338.917,398.417l-10.558,10.558c-0.707,0.709-0.707,1.857,0,2.566l1.427,1.423
	c0.707,0.712,1.855,0.712,2.566,0.001l10.557-10.557L338.917,398.417z"/>
<g>
</g>
<g>
</g>
<g>
</g>
<g>
</g>
<g>
</g>
<g>
</g>
<g>
</g>
<g>
</g>
<g>
</g>
<g>
</g>
<g>
</g>
<g>
</g>
<g>
</g>
<g>
</g>
<g>
</g>
</svg>
