<?xml version="1.0" encoding="iso-8859-1"?>
<!-- Generator: Adobe Illustrator 19.0.0, SVG Export Plug-In . SVG Version: 6.00 Build 0)  -->
<svg version="1.1" id="Layer_1" xmlns="http://www.w3.org/2000/svg" xmlns:xlink="http://www.w3.org/1999/xlink" x="0px" y="0px"
	 viewBox="0 0 512 512" style="enable-background:new 0 0 512 512;" xml:space="preserve">
<circle style="fill:#FFC61B;" cx="256" cy="256" r="256"/>
<path style="fill:#EAA22F;" d="M316.182,504.866c93.448-22.518,166.912-96.285,188.983-189.907L393.237,204.393l-10.866,17.079
	l-46.385-45.883l-148.08,97.363l0.288,8.045l-70.551,25.329L316.182,504.866z"/>
<path style="fill:#386895;" d="M131.303,312.889h192.503c9.68,0,17.527-7.847,17.527-17.527v-107.17
	c0-9.678-7.847-17.525-17.527-17.525H131.303c-9.678,0-17.525,7.847-17.525,17.525v107.17
	C113.778,305.042,121.625,312.889,131.303,312.889z"/>
<path style="fill:#273B7A;" d="M323.806,170.667h-95.965v142.222h95.965c9.68,0,17.527-7.847,17.527-17.527v-107.17
	C341.333,178.514,333.486,170.667,323.806,170.667z"/>
<path style="fill:#FFFFFF;" d="M188.192,341.333h192.503c9.68,0,17.527-7.847,17.527-17.527v-107.17
	c0-9.68-7.847-17.525-17.527-17.525H188.192c-9.68,0-17.527,7.847-17.527,17.525v107.17
	C170.667,333.486,178.514,341.333,188.192,341.333z"/>
<path style="fill:#DDDDDD;" d="M380.695,199.111h-95.103v142.222h95.103c9.68,0,17.527-7.847,17.527-17.527v-107.17
	C398.222,206.958,390.375,199.111,380.695,199.111z"/>
<g>
	<rect x="199.111" y="252.552" style="fill:#273B7A;" width="56.889" height="6.896"/>
	<rect x="199.111" y="280.997" style="fill:#273B7A;" width="85.333" height="6.896"/>
	<rect x="199.111" y="309.441" style="fill:#273B7A;" width="170.667" height="6.896"/>
	<circle style="fill:#273B7A;" cx="341.333" cy="256" r="28.444"/>
</g>
<g>
</g>
<g>
</g>
<g>
</g>
<g>
</g>
<g>
</g>
<g>
</g>
<g>
</g>
<g>
</g>
<g>
</g>
<g>
</g>
<g>
</g>
<g>
</g>
<g>
</g>
<g>
</g>
<g>
</g>
</svg>
