<?xml version="1.0" encoding="iso-8859-1"?>
<!-- Generator: Adobe Illustrator 19.0.0, SVG Export Plug-In . SVG Version: 6.00 Build 0)  -->
<svg version="1.1" id="Layer_1" xmlns="http://www.w3.org/2000/svg" xmlns:xlink="http://www.w3.org/1999/xlink" x="0px" y="0px"
	 viewBox="0 0 473.654 473.654" style="enable-background:new 0 0 473.654 473.654;" xml:space="preserve">
<circle style="fill:#4ABC96;" cx="236.827" cy="236.827" r="236.827"/>
<path style="fill:#357180;" d="M394.203,327.893c0,12.636-6.436,17.797-19.072,17.797H227.033V122.587h148.102
	c12.636,0,19.072,5.796,19.072,18.432v186.874H394.203z"/>
<path style="fill:#FFFFFF;" d="M244.52,337.104h124.262c11.664,0,14.476-1.365,14.476-13.025V146.101
	c0-11.66-2.812-14.932-14.476-14.932H244.52V337.104z"/>
<path style="fill:#357180;" d="M83.389,140.541c0-12.636,6.436-17.797,19.072-17.797h136.02v223.099H102.457
	c-12.636,0-19.072-5.796-19.072-18.432v-186.87H83.389z"/>
<g>
	<path style="fill:#90B9C0;" d="M370.584,222.355c0,3.597-2.906,6.511-6.507,6.511h-46.917c-3.594,0-6.507-2.913-6.507-6.511
		v-58.091c0-3.601,2.913-6.511,6.507-6.511h46.913c3.601,0,6.507,2.909,6.507,6.511v58.091H370.584z"/>
</g>
<g>
	<path style="fill:#FFFFFF;" d="M345.428,208.156v-3.841c5.639-2.442,9.401-8.829,10.086-16.671
		c1.013-0.445,1.784-1.967,1.784-3.863c0-2.169-0.987-3.908-2.236-4.02c-1.724-7.64-7.217-11.581-14.711-11.581
		c-7.487,0-13.051,3.942-14.805,11.581c-1.234,0.105-2.236,1.847-2.236,4.02c0,1.896,0.767,3.414,1.791,3.863
		c0.681,7.797,4.461,14.162,10.071,16.63v3.885c-17.333,0.254-20.613,2.24-20.613,14.913v9.499h51.688v-9.499
		C366.25,210.347,362.877,208.399,345.428,208.156z"/>
</g>
<g>
	<path style="fill:#78A4A4;" d="M370.839,251.636c0,2.449-1.986,4.443-4.446,4.443H256.905c-2.453,0-4.446-1.993-4.446-4.443
		c0-2.457,1.993-4.443,4.446-4.443h109.483C368.853,247.19,370.839,249.179,370.839,251.636"/>
	<path style="fill:#78A4A4;" d="M370.839,270.285c0,2.453-1.986,4.443-4.446,4.443H256.905c-2.453,0-4.446-1.989-4.446-4.443
		c0-2.453,1.993-4.443,4.446-4.443h109.483C368.853,265.843,370.839,267.832,370.839,270.285"/>
	<path style="fill:#78A4A4;" d="M370.839,289.996c0,2.449-1.986,4.443-4.446,4.443H256.905c-2.453,0-4.446-1.989-4.446-4.443
		c0-2.457,1.993-4.443,4.446-4.443h109.483C368.853,285.55,370.839,287.54,370.839,289.996"/>
</g>
<polygon style="fill:#1C5A64;" points="238.757,122.744 240.698,122.744 240.698,345.843 238.757,345.806 "/>
<path style="opacity:0.15;fill:#FFFFFF;enable-background:new    ;" d="M161.568,122.744h76.908v223.099h-76.908
	C148.932,345.843,148.932,122.744,161.568,122.744z"/>
<g>
	<path style="fill:#DAC425;" d="M172.948,176.788c-2.169-6.32-5.404-12.154-9.487-17.281c-4.308,5.247-7.7,11.271-9.947,17.819
		c2.726,0.464,5.523,0.718,8.377,0.718C165.689,178.045,169.384,177.6,172.948,176.788z"/>
	<path style="fill:#DAC425;" d="M168.602,155.095c-0.329-0.049-0.658-0.09-0.987-0.127c-0.744,0.733-1.477,1.481-2.184,2.259
		c4.514,5.55,8.055,11.907,10.392,18.814c2.083-0.606,4.114-1.346,6.077-2.214C178.789,166.684,174.234,160.319,168.602,155.095z"/>
	<path style="fill:#DAC425;" d="M161.531,157.215c-0.714-0.808-1.447-1.601-2.206-2.367c-0.759,0.064-1.503,0.142-2.244,0.247
		c-5.823,5.385-10.49,11.989-13.601,19.401c2.292,0.916,4.66,1.668,7.105,2.24C153.016,169.534,156.755,162.926,161.531,157.215z"/>
	<path style="fill:#DAC425;" d="M176.497,157.01c-0.92-0.325-1.862-0.617-2.82-0.875c4.469,4.809,8.145,10.362,10.804,16.458
		c1.316-0.673,2.592-1.395,3.833-2.18C185.21,165.263,181.194,160.727,176.497,157.01z"/>
	<path style="fill:#DAC425;" d="M127.736,190.157c0.707-6.368,2.558-12.393,5.348-17.875c-0.912-0.598-1.802-1.212-2.674-1.862
		c-3.373,4.267-5.916,9.211-7.401,14.599C124.464,186.844,126.05,188.561,127.736,190.157z"/>
	<path style="fill:#DAC425;" d="M151.999,156.131c-0.95,0.262-1.892,0.55-2.82,0.875c-4.944,3.923-9.136,8.766-12.307,14.263
		c1.294,0.755,2.621,1.455,3.986,2.094C143.551,166.964,147.339,161.146,151.999,156.131z"/>
	<path style="fill:#DAC425;" d="M185.034,161.168c2.105,2.371,4.001,4.925,5.654,7.651c0.651-0.467,1.294-0.946,1.922-1.443
		C190.344,165.02,187.805,162.93,185.034,161.168z"/>
	<path style="fill:#DAC425;" d="M173.808,179.526c-3.833,0.89-7.823,1.38-11.922,1.38c-3.156,0-6.245-0.292-9.248-0.83
		c-1.462,5.063-2.259,10.4-2.259,15.923c0,2.206,0.131,4.379,0.381,6.518c3.579,0.823,7.296,1.271,11.125,1.271
		c4.798,0,9.435-0.699,13.833-1.971c0.228-2.072,0.352-4.166,0.352-6.294C176.074,189.974,175.278,184.612,173.808,179.526z"/>
	<path style="fill:#DAC425;" d="M189.709,172.91c-1.343,0.845-2.726,1.623-4.14,2.341c2.397,6.305,3.725,13.118,3.792,20.231
		c2.046-1.357,3.979-2.865,5.8-4.502C194.51,184.514,192.611,178.415,189.709,172.91z"/>
	<path style="fill:#DAC425;" d="M155.776,226.618c-2.921-0.34-5.77-0.92-8.515-1.72c2.704,4.446,6.017,8.489,9.824,12.008
		c0.445,0.064,0.898,0.12,1.343,0.168c0.927-0.894,1.832-1.814,2.704-2.775C159.149,231.891,157.361,229.318,155.776,226.618z"/>
	<path style="fill:#DAC425;" d="M170.697,226.233c-1.679,2.85-3.564,5.557-5.662,8.089c0.826,0.931,1.687,1.832,2.577,2.711
		c0.329-0.041,0.658-0.079,0.987-0.127c4.001-3.71,7.464-8.003,10.246-12.741C176.212,225.063,173.494,225.762,170.697,226.233z"/>
	<path style="fill:#DAC425;" d="M151.191,205.553c1.103,6.567,3.317,12.759,6.451,18.38c1.395,0.12,2.82,0.194,4.252,0.194
		c2.33,0,4.622-0.176,6.873-0.486c3.194-5.722,5.441-12.038,6.537-18.732c-4.282,1.133-8.781,1.739-13.41,1.739
		C158.221,206.649,154.643,206.267,151.191,205.553z"/>
	<path style="fill:#DAC425;" d="M140.649,161.161c-3.104,1.982-5.931,4.353-8.399,7.068c0.722,0.535,1.455,1.04,2.199,1.537
		C136.233,166.684,138.304,163.805,140.649,161.161z"/>
	<path style="fill:#DAC425;" d="M136.311,195.999c0-7.004,1.234-13.732,3.5-19.966c-1.47-0.684-2.898-1.436-4.286-2.247
		c-2.865,5.71-4.652,12.041-5.119,18.732c1.862,1.533,3.848,2.928,5.923,4.177C136.319,196.462,136.311,196.234,136.311,195.999z"/>
	<path style="fill:#DAC425;" d="M140.649,230.84c-3.463-3.904-6.346-8.321-8.53-13.122c-2.752-1.896-5.318-4.046-7.655-6.417
		C127.691,219.39,133.398,226.214,140.649,230.84z"/>
	<path style="fill:#DAC425;" d="M143.2,223.544c-2.199-0.845-4.338-1.814-6.391-2.932c3.179,5.55,7.393,10.433,12.374,14.382
		c0.927,0.322,1.87,0.613,2.82,0.875C148.558,232.171,145.6,228.032,143.2,223.544z"/>
	<path style="fill:#DAC425;" d="M203.837,201.062c0.198-1.657,0.314-3.347,0.314-5.063c0-3.197-0.374-6.312-1.066-9.308
		c-1.526,1.926-3.186,3.74-4.966,5.434c0.093,1.283,0.153,2.573,0.153,3.874c0,4.94-0.696,9.715-1.971,14.252
		C199.155,207.501,201.686,204.42,203.837,201.062z"/>
	<path style="fill:#DAC425;" d="M189.783,218.952c-2.169,1.357-4.435,2.565-6.791,3.601c-2.483,4.869-5.624,9.345-9.312,13.313
		c0.957-0.254,1.9-0.546,2.82-0.871C181.975,230.653,186.519,225.19,189.783,218.952z"/>
	<path style="fill:#DAC425;" d="M202.412,207.883c-2.367,2.861-5.048,5.456-7.954,7.76c-2.262,5.609-5.471,10.736-9.424,15.194
		C193.287,225.567,199.532,217.46,202.412,207.883z"/>
	<path style="fill:#DAC425;" d="M195.415,195.999c0-0.479-0.022-0.95-0.037-1.425c-1.922,1.589-3.953,3.04-6.084,4.345
		c-0.337,6.896-1.877,13.477-4.405,19.547c2.535-1.324,4.936-2.865,7.195-4.588C194.222,208.324,195.415,202.303,195.415,195.999z"
		/>
	<path style="fill:#DAC425;" d="M148.08,204.798c-2.988-0.815-5.871-1.881-8.627-3.19c0.703,7.012,2.719,13.634,5.785,19.644
		c2.835,1.01,5.785,1.773,8.829,2.255C151.109,217.737,149.048,211.447,148.08,204.798z"/>
	<path style="fill:#DAC425;" d="M130.111,212.617c-1.746-5.228-2.704-10.815-2.704-16.619c0-0.744,0.022-1.488,0.052-2.236
		c-1.87-1.623-3.624-3.373-5.243-5.239c-0.445,2.423-0.696,4.921-0.696,7.475c0,2.958,0.322,5.841,0.905,8.623
		C124.692,207.565,127.261,210.25,130.111,212.617z"/>
	<path style="fill:#DAC425;" d="M194.529,169.504c-0.789,0.628-1.601,1.23-2.423,1.814c2.805,5.254,4.749,11.039,5.624,17.161
		c1.586-1.645,3.051-3.399,4.405-5.254C200.482,178.15,197.876,173.505,194.529,169.504z"/>
	<path style="fill:#DAC425;" d="M178.449,203.964c-0.942,6.757-3.003,13.16-5.983,19.019c2.921-0.636,5.748-1.522,8.444-2.648
		c2.951-6.043,4.82-12.7,5.396-19.719C183.793,201.933,181.164,203.059,178.449,203.964z"/>
	<path style="fill:#DAC425;" d="M186.481,197.255c0.007-0.419,0.03-0.834,0.03-1.256c0-6.866-1.257-13.44-3.534-19.521
		c-2.038,0.89-4.132,1.657-6.297,2.292c1.526,5.329,2.367,10.942,2.367,16.75c0,1.791-0.093,3.549-0.247,5.299
		C181.47,199.85,184.036,198.65,186.481,197.255z"/>
	<path style="fill:#DAC425;" d="M161.89,226.985c-0.834,0-1.642-0.022-2.461-0.064c1.126,1.765,2.345,3.467,3.654,5.09
		c1.372-1.679,2.636-3.444,3.818-5.273C165.248,226.899,163.576,226.985,161.89,226.985z"/>
	<path style="fill:#DAC425;" d="M136.465,200.078c-2.161-1.2-4.237-2.547-6.193-4.028c0,7.019,1.477,13.702,4.121,19.76
		c2.191,1.458,4.506,2.737,6.918,3.837C138.626,213.593,136.947,206.997,136.465,200.078z"/>
	<path style="fill:#DAC425;" d="M147.429,195.999c0-5.725,0.819-11.267,2.315-16.525c-2.506-0.591-4.944-1.365-7.296-2.307
		c-2.117,5.89-3.28,12.228-3.28,18.832c0,0.774,0.03,1.541,0.06,2.304c2.696,1.387,5.531,2.535,8.481,3.414
		C147.53,199.835,147.429,197.932,147.429,195.999z"/>
</g>
<g>
	<path style="fill:#78A4A4;" d="M303.466,162.649c0,2.453-1.993,4.446-4.446,4.446h-42.115c-2.453,0-4.443-1.993-4.443-4.446
		s1.986-4.443,4.443-4.443h42.115C301.473,158.206,303.466,160.196,303.466,162.649"/>
	<path style="fill:#78A4A4;" d="M303.466,181.302c0,2.453-1.993,4.443-4.446,4.443h-42.115c-2.453,0-4.443-1.989-4.443-4.443
		c0-2.457,1.986-4.446,4.443-4.446h42.115C301.473,176.856,303.466,178.845,303.466,181.302"/>
	<path style="fill:#78A4A4;" d="M303.466,201.01c0,2.453-1.993,4.443-4.446,4.443h-42.115c-2.453,0-4.443-1.989-4.443-4.443
		c0-2.457,1.986-4.443,4.443-4.443h42.115C301.473,196.563,303.466,198.553,303.466,201.01"/>
</g>
<path style="fill:#786E57;" d="M327.781,297.977c1.638,3.74-0.075,8.096-3.814,9.734l-209.255,91.328
	c-3.747,1.634-8.107-0.079-9.742-3.818l-41.031-94.043c-1.638-3.743,0.075-8.1,3.814-9.738l209.255-91.328
	c3.747-1.638,8.107,0.075,9.742,3.818L327.781,297.977z"/>
<path style="fill:#EDDAAB;" d="M325.567,296.862c1.638,3.74-0.079,8.1-3.818,9.734l-209.255,91.328
	c-3.747,1.634-8.1-0.079-9.738-3.818L61.71,300.067c-1.63-3.747,0.079-8.104,3.818-9.738l209.263-91.328
	c3.74-1.634,8.1,0.079,9.738,3.818L325.567,296.862z"/>
<path style="fill:#786E57;" d="M166.03,289.372c-6.178-5.172-14.738,3.65-16.75,6.054c0,0-0.52,0.658-1.425,1.829
	c-11.454-2.053-35.32-5.796-41.434-2.618c-1.197,0.621-4.315,4.02-3.171,4.409c9.087,3.104,25.687,8.575,34.43,11.451
	c-8.889,11.686-20.34,27.082-24.681,34.4c-5.273-0.845-12.621-1.739-14.79-0.61c-0.52,0.262-1.855,1.728-1.365,1.896
	c3.661,1.249,10.131,3.381,14.038,4.667c-0.183,1.156-0.131,2.528,0.935,3.055c0.98,0.497,2.214,0.419,3.205,0.228
	c1.922,3.564,5.318,9.843,7.251,13.328c0.247,0.456,1.455-1.122,1.63-1.675c0.729-2.348-1.481-9.491-3.25-14.547
	c6.604-5.576,20.085-19.633,30.156-30.358c4.17,7.722,13.059,24.176,17.931,32.972c0.583,1.047,3.381-2.614,3.784-3.904
	c2.117-6.795-6.376-30.941-10.276-41.371c0.767-0.834,1.197-1.298,1.197-1.298C165.469,304.872,172.211,294.54,166.03,289.372z"/>
<g>
	<path style="fill:#D8BF8A;" d="M228.552,247.478c1.156,2.655-0.06,5.744-2.711,6.903l-27.089,11.821
		c-2.651,1.163-5.748-0.056-6.903-2.707l0,0c-1.163-2.655,0.052-5.744,2.704-6.907l27.097-11.821
		C224.3,243.607,227.392,244.822,228.552,247.478L228.552,247.478z"/>
	<path style="fill:#D8BF8A;" d="M273.987,227.643c1.156,2.655-0.06,5.748-2.711,6.907l-27.089,11.821
		c-2.651,1.159-5.748-0.056-6.903-2.711l0,0c-1.163-2.651,0.052-5.744,2.711-6.903l27.089-11.821
		C269.739,223.78,272.828,224.991,273.987,227.643L273.987,227.643z"/>
	<path style="fill:#D8BF8A;" d="M254.803,307.625c1.156,2.655-0.06,5.748-2.711,6.903l-27.089,11.821
		c-2.651,1.163-5.74-0.052-6.903-2.707l0,0c-1.163-2.655,0.052-5.744,2.711-6.907l27.082-11.821
		C250.551,303.754,253.64,304.97,254.803,307.625L254.803,307.625z"/>
	<path style="fill:#D8BF8A;" d="M300.239,287.79c1.163,2.659-0.06,5.748-2.711,6.907l-27.089,11.825
		c-2.651,1.159-5.748-0.056-6.903-2.715l0,0c-1.156-2.651,0.06-5.74,2.711-6.9l27.089-11.825
		C295.987,283.927,299.076,285.139,300.239,287.79L300.239,287.79z"/>
	<path style="fill:#D8BF8A;" d="M207.961,286.111l72.088-31.465c2.651-1.159,3.863-4.248,2.711-6.903
		c-1.163-2.655-4.252-3.867-6.903-2.711l-72.095,31.461c-2.651,1.159-3.863,4.252-2.704,6.907
		C202.214,286.055,205.303,287.267,207.961,286.111z"/>
	<path style="fill:#D8BF8A;" d="M284.376,264.549l-72.088,31.461c-2.659,1.163-3.87,4.252-2.711,6.907
		c1.156,2.655,4.244,3.863,6.903,2.707l72.088-31.461c2.659-1.159,3.863-4.252,2.711-6.903
		C290.116,264.605,287.027,263.389,284.376,264.549z"/>
</g>
<path style="fill:#258B90;" d="M381.033,200.804l-0.965-2.199c7.259-3.19,11.174-7.999,11.174-11.035
	c0-3.298-4.66-6.058-6.451-6.855l0.957-2.199c0.322,0.138,7.894,3.508,7.894,9.046C393.654,191.754,389.469,197.105,381.033,200.804
	z"/>
<path style="fill:#31A3A8;" d="M373.367,176.96c0,0-19.289,31.009-16.544,38.701l20.291,56.808
	c2.737,7.685,8.522,10.037,16.207,7.285l30.145-10.762c7.692-2.745,10.205-8.055,7.457-15.736l-20.283-56.815
	C407.89,188.755,373.367,176.96,373.367,176.96z M383.912,203.369c-2.995,1.066-6.283-0.49-7.348-3.478
	c-1.066-2.992,0.49-6.275,3.485-7.348c2.988-1.062,6.275,0.494,7.341,3.478C388.456,199.013,386.9,202.3,383.912,203.369z"/>
<path style="fill:#4EA5AE;" d="M372.634,178.176c0,0-18.604,30.089-15.923,37.59l19.794,55.454
	c2.681,7.505,7.861,9.958,15.366,7.277l29.427-10.508c7.494-2.681,9.947-7.857,7.266-15.362l-19.801-55.454
	C406.088,189.679,372.634,178.176,372.634,178.176z M382.686,203.938c-2.921,1.036-6.129-0.479-7.173-3.396
	c-1.036-2.917,0.482-6.133,3.403-7.173c2.913-1.036,6.122,0.486,7.165,3.403C387.117,199.686,385.599,202.894,382.686,203.938z"/>
<path style="fill:#258B90;" d="M381.033,200.804c-0.123,0.045-0.254,0.075-0.4,0.071c-0.673,0-1.204-0.538-1.204-1.204
	c0-0.901,0.206-22.265,15.871-34.591c10.875-8.564,26.413-10.497,46.169-5.744c0.651,0.15,1.043,0.808,0.89,1.455
	c-0.153,0.647-0.804,1.036-1.455,0.883c-19.005-4.573-33.854-2.79-44.123,5.295c-14.753,11.608-14.951,32.497-14.951,32.703
	C381.829,200.194,381.5,200.639,381.033,200.804z"/>
<path style="fill:#FFFFFF;" d="M369.814,223.885c-1.417-3.953,0.408-8.212,4.076-9.521l21.824-7.793
	c3.661-1.309,7.771,0.838,9.181,4.783l14.259,39.935c1.417,3.956-0.408,8.212-4.069,9.525l-21.824,7.79
	c-3.665,1.313-7.778-0.834-9.188-4.779L369.814,223.885z"/>
<g>
	<path style="fill:#94D6E2;" d="M375.053,218.784c-1.156,0.411-1.761,1.694-1.35,2.853l14.667,41.072
		c0.415,1.156,1.694,1.761,2.857,1.346c1.163-0.419,1.769-1.69,1.35-2.853l-14.667-41.064
		C377.491,218.978,376.212,218.365,375.053,218.784z"/>
	<path style="fill:#94D6E2;" d="M384.11,215.549c-1.163,0.419-1.761,1.694-1.35,2.861l14.667,41.061
		c0.415,1.163,1.694,1.765,2.857,1.346c1.156-0.411,1.769-1.679,1.35-2.846l-14.667-41.072
		C386.549,215.74,385.27,215.134,384.11,215.549z"/>
	<path style="fill:#94D6E2;" d="M393.168,212.314c-1.163,0.415-1.761,1.69-1.35,2.853l14.667,41.068
		c0.415,1.163,1.687,1.765,2.857,1.346c1.156-0.411,1.761-1.69,1.342-2.853l-14.659-41.064
		C395.606,212.505,394.327,211.903,393.168,212.314z"/>
</g>
<g>
</g>
<g>
</g>
<g>
</g>
<g>
</g>
<g>
</g>
<g>
</g>
<g>
</g>
<g>
</g>
<g>
</g>
<g>
</g>
<g>
</g>
<g>
</g>
<g>
</g>
<g>
</g>
<g>
</g>
</svg>
