<?xml version="1.0" encoding="iso-8859-1"?>
<!-- Generator: Adobe Illustrator 19.0.0, SVG Export Plug-In . SVG Version: 6.00 Build 0)  -->
<svg version="1.1" id="Capa_1" xmlns="http://www.w3.org/2000/svg" xmlns:xlink="http://www.w3.org/1999/xlink" x="0px" y="0px"
	 viewBox="0 0 512 512" style="enable-background:new 0 0 512 512;" xml:space="preserve">
<g>
	<path style="fill:#D4E1F4;" d="M230.4,358.4H256v97.164c0,2.892-2.344,5.236-5.236,5.236h-15.128c-2.892,0-5.236-2.344-5.236-5.236
		V358.4z"/>
	<path style="fill:#A4C2F7;" d="M256,358.4h25.6v97.164c0,2.892-2.344,5.236-5.236,5.236h-15.128c-1.389,0-2.72-0.552-3.702-1.534
		c-0.982-0.982-1.534-2.314-1.534-3.702V358.4L256,358.4z"/>
	<path style="fill:#D4E1F4;" d="M275.2,427.287v26.108c0,4.09-2.486,7.405-5.554,7.405h-27.293c-3.067,0-5.554-3.315-5.554-7.405
		v-26.108c-47.367,2.998-83.2,16.852-83.2,33.513c0,18.851,45.846,34.133,102.4,34.133s102.4-15.282,102.4-34.133
		C358.4,444.139,322.567,430.285,275.2,427.287z"/>
	<path style="fill:#FFFFFF;" d="M153.6,460.8c0-15.899,32.657-29.216,76.8-33.009v-0.503
		c-63.156,2.998-110.933,16.851-110.933,33.513c0,18.851,61.128,34.133,136.533,34.133C199.446,494.933,153.6,479.651,153.6,460.8z"
		/>
	<g>
		<path style="fill:#A4C2F7;" d="M281.6,427.287v0.504c44.143,3.793,76.8,17.11,76.8,33.009c0,18.851-45.846,34.133-102.4,34.133
			c75.405,0,136.533-15.282,136.533-34.133C392.533,444.139,344.756,430.285,281.6,427.287z"/>
		<rect x="486.4" y="17.067" style="fill:#A4C2F7;" width="17.067" height="341.333"/>
	</g>
	<rect x="8.533" y="17.067" style="fill:#FFFFFF;" width="17.067" height="341.333"/>
	<rect x="25.6" y="17.067" style="fill:#D4E1F4;" width="460.8" height="341.333"/>
	
		<linearGradient id="SVGID_1_" gradientUnits="userSpaceOnUse" x1="-48.6082" y1="652.202" x2="-47.3738" y2="653.0424" gradientTransform="matrix(0 273.0667 401.0667 0 -261501.8125 13292.4678)">
		<stop  offset="0" style="stop-color:#D3DFF2"/>
		<stop  offset="0.1717" style="stop-color:#D3DFF2"/>
		<stop  offset="0.2" style="stop-color:#D3DFF2"/>
		<stop  offset="0.2002" style="stop-color:#DAE2F2"/>
		<stop  offset="0.2007" style="stop-color:#EBEAF2"/>
		<stop  offset="0.2014" style="stop-color:#F6EFF2"/>
		<stop  offset="0.2023" style="stop-color:#FDF2F2"/>
		<stop  offset="0.205" style="stop-color:#FFF3F2"/>
		<stop  offset="0.2522" style="stop-color:#FFF3F2"/>
		<stop  offset="0.26" style="stop-color:#FFF3F2"/>
		<stop  offset="0.26" style="stop-color:#D3DFF2"/>
		<stop  offset="0.3974" style="stop-color:#D3DFF2"/>
		<stop  offset="0.42" style="stop-color:#D3DFF2"/>
		<stop  offset="0.4202" style="stop-color:#DAE2F2"/>
		<stop  offset="0.4207" style="stop-color:#EBEAF2"/>
		<stop  offset="0.4214" style="stop-color:#F6EFF2"/>
		<stop  offset="0.4223" style="stop-color:#FDF2F2"/>
		<stop  offset="0.425" style="stop-color:#FFF3F2"/>
		<stop  offset="0.4894" style="stop-color:#FFF3F2"/>
		<stop  offset="0.5" style="stop-color:#FFF3F2"/>
		<stop  offset="0.5" style="stop-color:#F8F0F2"/>
		<stop  offset="0.5001" style="stop-color:#E7E8F2"/>
		<stop  offset="0.5003" style="stop-color:#DCE3F2"/>
		<stop  offset="0.5005" style="stop-color:#D5E0F2"/>
		<stop  offset="0.501" style="stop-color:#D3DFF2"/>
		<stop  offset="0.7062" style="stop-color:#D3DFF2"/>
		<stop  offset="0.74" style="stop-color:#D3DFF2"/>
		<stop  offset="0.741" style="stop-color:#FFF3F2"/>
		<stop  offset="0.8346" style="stop-color:#FFF3F2"/>
		<stop  offset="0.85" style="stop-color:#FFF3F2"/>
		<stop  offset="0.851" style="stop-color:#D3DFF2"/>
	</linearGradient>
	<rect x="42.667" y="51.2" style="fill:url(#SVGID_1_);" width="401.067" height="273.067"/>
	<rect x="443.733" y="51.2" style="fill:#A4C2F7;" width="25.6" height="273.067"/>
	<g>
		<path style="fill:#428DFF;" d="M85.333,136.533c-3.451-0.001-6.562-2.08-7.882-5.268c-1.32-3.188-0.591-6.858,1.849-9.298
			l34.133-34.133c3.341-3.281,8.701-3.256,12.012,0.054s3.335,8.671,0.054,12.012l-34.133,34.133
			C89.768,135.636,87.597,136.536,85.333,136.533z"/>
		<path style="fill:#428DFF;" d="M85.333,179.2c-3.451-0.001-6.562-2.08-7.882-5.268c-1.32-3.188-0.591-6.858,1.849-9.298
			l17.067-17.067c3.341-3.281,8.701-3.256,12.012,0.054c3.311,3.311,3.335,8.671,0.054,12.012L91.366,176.7
			C89.768,178.303,87.597,179.203,85.333,179.2z"/>
		<path style="fill:#428DFF;" d="M119.467,145.067c-4.024-0.039-7.462-2.911-8.218-6.863c-0.756-3.953,1.38-7.89,5.105-9.412
			c3.726-1.522,8.007-0.205,10.235,3.146c2.227,3.352,1.783,7.809-1.063,10.654C123.889,144.15,121.726,145.033,119.467,145.067z"/>
		<path style="fill:#428DFF;" d="M136.533,128c-3.451-0.001-6.562-2.08-7.882-5.268c-1.32-3.188-0.591-6.858,1.849-9.298l25.6-25.6
			c3.341-3.281,8.701-3.256,12.012,0.054c3.311,3.311,3.335,8.671,0.054,12.012l-25.6,25.6
			C140.968,127.103,138.797,128.003,136.533,128z"/>
		<path style="fill:#428DFF;" d="M85.333,221.867c-3.451-0.001-6.562-2.08-7.882-5.268c-1.32-3.188-0.591-6.858,1.849-9.298
			l76.8-76.8c3.341-3.281,8.701-3.256,12.012,0.054c3.311,3.311,3.335,8.671,0.054,12.012l-76.8,76.8
			C89.768,220.969,87.597,221.869,85.333,221.867z"/>
		<path style="fill:#428DFF;" d="M179.2,128c-4.024-0.039-7.462-2.911-8.218-6.863c-0.756-3.953,1.38-7.89,5.105-9.412
			c3.726-1.522,8.007-0.205,10.235,3.146c2.227,3.352,1.783,7.809-1.063,10.654C183.622,127.083,181.459,127.967,179.2,128z"/>
		<path style="fill:#428DFF;" d="M196.267,110.933c-3.451-0.001-6.562-2.08-7.882-5.268c-1.32-3.188-0.591-6.858,1.849-9.298
			l8.533-8.533c3.341-3.281,8.701-3.256,12.012,0.054c3.311,3.311,3.335,8.671,0.054,12.012l-8.533,8.533
			C200.702,110.036,198.53,110.936,196.267,110.933L196.267,110.933z"/>
		<path style="fill:#428DFF;" d="M274.196,469.333h-36.392c-8.798-0.01-15.927-7.14-15.938-15.938V349.867h68.267v103.529
			C290.123,462.194,282.994,469.323,274.196,469.333L274.196,469.333z M238.933,452.267h34.133v-85.333h-34.133V452.267z"/>
		<path style="fill:#428DFF;" d="M512,366.933H0V128.004c0-4.713,3.821-8.533,8.533-8.533s8.533,3.821,8.533,8.533v221.863h477.867
			V307.2c0-4.713,3.821-8.533,8.533-8.533c4.713,0,8.533,3.82,8.533,8.533V366.933z"/>
		<path style="fill:#428DFF;" d="M503.467,238.933c-4.713,0-8.533-3.821-8.533-8.533V25.6H17.067v34.138
			c0,4.713-3.821,8.533-8.533,8.533S0,64.45,0,59.738V8.533h512V230.4C512,235.113,508.18,238.933,503.467,238.933z"/>
		<circle style="fill:#428DFF;" cx="8.533" cy="93.867" r="8.533"/>
		<path style="fill:#428DFF;" d="M503.467,281.6c-4.713,0-8.533-3.82-8.533-8.533v-8.533c0-4.713,3.821-8.533,8.533-8.533
			c4.713,0,8.533,3.821,8.533,8.533v8.533C512,277.78,508.18,281.6,503.467,281.6z"/>
		<path style="fill:#428DFF;" d="M477.867,332.8H34.133V42.667h443.733V332.8z M51.2,315.733h409.6v-256H51.2V315.733z"/>
		<path style="fill:#428DFF;" d="M256,503.467c-50.175,0-145.067-8.917-145.067-42.667c0-34.633,99.179-41.092,119.063-42.038
			l8.937-0.421v33.925h34.133v-33.925l8.937,0.421c19.883,0.946,119.063,7.404,119.063,42.038
			C401.067,494.55,306.175,503.467,256,503.467z M221.867,436.313C156.054,440.558,128,455.316,128,460.8
			c0,7.429,44.854,25.6,128,25.6s128-18.171,128-25.6c0-5.483-28.054-20.242-93.867-24.487v17.084
			c-0.01,8.798-7.14,15.927-15.938,15.937h-36.392c-8.798-0.01-15.927-7.14-15.938-15.938V436.313z"/>
	</g>
</g>
<g>
</g>
<g>
</g>
<g>
</g>
<g>
</g>
<g>
</g>
<g>
</g>
<g>
</g>
<g>
</g>
<g>
</g>
<g>
</g>
<g>
</g>
<g>
</g>
<g>
</g>
<g>
</g>
<g>
</g>
</svg>
