<?xml version="1.0" encoding="iso-8859-1"?>
<!-- Generator: Adobe Illustrator 19.0.0, SVG Export Plug-In . SVG Version: 6.00 Build 0)  -->
<svg version="1.1" id="Layer_1" xmlns="http://www.w3.org/2000/svg" xmlns:xlink="http://www.w3.org/1999/xlink" x="0px" y="0px"
	 viewBox="0 0 512.002 512.002" style="enable-background:new 0 0 512.002 512.002;" xml:space="preserve">
<rect x="66.681" y="194.67" style="fill:#ED5564;" width="275.33" height="306"/>
<path style="fill:#FFCE54;" d="M297.915,330.672c0,52.609-42.641,95.25-95.25,95.25s-95.25-42.641-95.25-95.25
	s42.641-95.25,95.25-95.25S297.915,278.063,297.915,330.672z"/>
<g>
	<rect x="385.341" y="248.67" style="fill:#656D78;" width="62.67" height="57.34"/>
	<rect x="171.321" y="146.67" style="fill:#656D78;" width="62.67" height="43.34"/>
</g>
<g>
	<path style="fill:#E6E9ED;" d="M229.353,329.984c0,15.891-12.875,28.766-28.75,28.766c-15.891,0-28.766-12.875-28.766-28.766
		c0-15.875,12.875-28.75,28.766-28.75C216.478,301.234,229.353,314.109,229.353,329.984z"/>
	<rect x="396.021" y="316" style="fill:#E6E9ED;" width="40" height="36"/>
</g>
<path d="M202.665,437.344c58.906,0,106.672-47.766,106.672-106.688C309.337,271.75,261.571,224,202.665,224
	S95.993,271.75,95.993,330.656C95.993,389.578,143.759,437.344,202.665,437.344z M142.321,270.328
	c16.125-16.109,37.547-24.984,60.344-24.984s44.219,8.875,60.344,24.984c16.109,16.109,25,37.547,25,60.328
	c0,22.813-8.891,44.234-25,60.344c-16.125,16.125-37.547,25-60.344,25s-44.219-8.875-60.344-25
	c-16.109-16.109-24.984-37.531-24.984-60.344C117.337,307.875,126.212,286.438,142.321,270.328z"/>
<path d="M160.009,330.656c0,23.578,19.094,42.688,42.656,42.688s42.672-19.109,42.672-42.688c0-23.563-19.109-42.656-42.672-42.656
	S160.009,307.094,160.009,330.656z M224.009,330.656c0,11.781-9.578,21.344-21.344,21.344s-21.328-9.563-21.328-21.344
	c0-11.75,9.563-21.313,21.328-21.313S224.009,318.906,224.009,330.656z"/>
<path d="M192.009,330.656c0,5.906,4.766,10.688,10.656,10.688s10.672-4.781,10.672-10.688c0-5.875-4.781-10.656-10.672-10.656
	S192.009,324.781,192.009,330.656z"/>
<path d="M149.337,330.656c0-29.406,23.922-53.313,53.328-53.313l0,0c5.891,0,10.672-4.781,10.672-10.688
	c0-5.875-4.781-10.656-10.672-10.656h-0.016c-41.234,0-74.656,33.438-74.656,74.656c0,5.906,4.781,10.688,10.672,10.688
	S149.337,336.563,149.337,330.656z"/>
<path d="M458.665,245.344c0-5.906-4.781-10.688-10.656-10.688h-21.344V117.344C426.665,52.531,374.134,0,309.337,0
	S192.009,52.531,192.009,117.344v21.313h-21.344c-5.891,0-10.656,4.781-10.656,10.688v32H74.665
	c-11.781,0-21.328,9.531-21.328,21.313v288c0,11.781,9.547,21.344,21.328,21.344h256c11.781,0,21.344-9.563,21.344-21.344v-288
	c0-11.781-9.563-21.313-21.344-21.313h-85.328v-32c0-5.906-4.781-10.688-10.672-10.688h-21.328v-21.313
	c0-25.656,9.984-49.75,28.109-67.891c18.141-18.141,42.25-28.109,67.891-28.109s49.75,9.969,67.875,28.109
	c18.141,18.141,28.125,42.234,28.125,67.891v117.313h-21.328c-5.906,0-10.672,4.781-10.672,10.688V320h10.672v42.656h64V320h10.656
	V245.344z M330.665,490.656h-32v-21.313c0-5.906-4.781-10.688-10.656-10.688c-5.906,0-10.672,4.781-10.672,10.688v21.313h-21.328
	v-21.313c0-5.906-4.781-10.688-10.672-10.688s-10.672,4.781-10.672,10.688v21.313h-21.328v-21.313
	c0-5.906-4.781-10.688-10.672-10.688s-10.656,4.781-10.656,10.688v21.313h-21.344v-21.313c0-5.906-4.781-10.688-10.656-10.688
	c-5.906,0-10.672,4.781-10.672,10.688v21.313h-21.344v-21.313c0-5.906-4.766-10.688-10.656-10.688s-10.672,4.781-10.672,10.688
	v21.313h-32v-288h256V490.656z M224.009,181.344h-42.672V160h42.672V181.344z M394.665,256h42.672v42.656h-42.672V256z
	 M426.665,341.344h-21.328V320h21.328V341.344z"/>
<path d="M202.681,384c-0.016,0-0.016,0-0.016,0c-5.891,0-10.656,4.781-10.656,10.656c0,5.906,4.766,10.688,10.656,10.688l0,0
	c41.234,0,74.672-33.438,74.672-74.688l0,0c0-5.875-4.781-10.656-10.672-10.656s-10.656,4.781-10.656,10.656l0,0
	C256.009,360.063,232.087,384,202.681,384z"/>
<g>
</g>
<g>
</g>
<g>
</g>
<g>
</g>
<g>
</g>
<g>
</g>
<g>
</g>
<g>
</g>
<g>
</g>
<g>
</g>
<g>
</g>
<g>
</g>
<g>
</g>
<g>
</g>
<g>
</g>
</svg>
