<?xml version="1.0" encoding="iso-8859-1"?>
<!-- Generator: Adobe Illustrator 19.0.0, SVG Export Plug-In . SVG Version: 6.00 Build 0)  -->
<svg version="1.1" id="Capa_1" xmlns="http://www.w3.org/2000/svg" xmlns:xlink="http://www.w3.org/1999/xlink" x="0px" y="0px"
	 viewBox="0 0 512 512" style="enable-background:new 0 0 512 512;" xml:space="preserve">
<g>
	<path style="fill:#D1D4D1;" d="M512,450.207v17.655c-0.009,24.373-19.765,44.129-44.138,44.138H44.138
		C19.765,511.991,0.009,492.235,0,467.862v-17.655c0.027-2.992,0.323-5.976,0.883-8.916l19.509-99.663L72.651,74.417l7.504-38.488
		h0.088C84.164,15.083,102.376-0.013,123.586,0h264.828c21.21-0.013,39.422,15.083,43.343,35.928h0.177l7.593,38.753l52.348,267.299
		l19.42,99.31h-0.176C511.677,444.231,511.973,447.215,512,450.207z"/>
	<path style="fill:#A5A5A4;" d="M512,450.207v17.655c-0.009,24.373-19.765,44.129-44.138,44.138H44.138
		C19.765,511.991,0.009,492.235,0,467.862v-17.655c0.027-2.992,0.323-5.976,0.883-8.916c4.263-20.5,22.317-35.201,43.255-35.222
		h423.724c20.938,0.021,38.992,14.722,43.255,35.222C511.677,444.231,511.973,447.215,512,450.207z"/>
	<path style="fill:#285680;" d="M491.873,341.981c-13.191-10.228-29.479-15.646-46.168-15.36H66.119
		c-16.5-0.307-32.617,4.983-45.726,15.007L72.651,74.417c9.615-8.278,21.918-12.766,34.604-12.623h297.314
		c12.837-0.124,25.273,4.461,34.957,12.888L491.873,341.981z"/>
	<circle style="fill:#B0D3F0;" cx="70.621" cy="459.034" r="17.655"/>
	<g>
		<path style="fill:#5E5F62;" d="M326.621,459.034V512h-17.655v-52.966c0-4.875,3.952-8.828,8.828-8.828
			C322.668,450.207,326.621,454.159,326.621,459.034z"/>
		<path style="fill:#5E5F62;" d="M361.931,459.034V512h-17.655v-52.966c0-4.875,3.952-8.828,8.828-8.828
			S361.931,454.159,361.931,459.034z"/>
		<path style="fill:#5E5F62;" d="M397.241,459.034V512h-17.655v-52.966c0-4.875,3.952-8.828,8.828-8.828
			S397.241,454.159,397.241,459.034z"/>
		<path style="fill:#5E5F62;" d="M432.552,459.034V512h-17.655v-52.966c0-4.875,3.952-8.828,8.828-8.828
			S432.552,454.159,432.552,459.034z"/>
	</g>
	<ellipse style="fill:#4482C3;" cx="256" cy="194.207" rx="123.586" ry="97.103"/>
	<g>
		<path style="fill:#E6E7E8;" d="M251.586,229.517c-23.923,0-44.138-14.616-44.138-31.914c0.505-9.219,5.439-17.624,13.241-22.56
			v12.375c0,4.875,3.952,8.828,8.828,8.828s8.828-3.952,8.828-8.828v-26.85c0-0.228-0.112-0.419-0.129-0.643
			c-0.019-0.275,0.055-0.537,0.009-0.814c-0.106-0.381-0.24-0.755-0.399-1.117c-0.263-1.079-0.794-2.074-1.543-2.893
			c-0.241-0.339-0.507-0.659-0.794-0.958c-0.545-0.475-1.147-0.881-1.792-1.208c-0.287-0.195-0.586-0.372-0.894-0.531
			c-1.018-0.421-2.106-0.646-3.207-0.663l-35.31-0.315h-0.078c-4.875-0.021-8.845,3.913-8.866,8.789
			c-0.021,4.875,3.913,8.845,8.789,8.866l6.836,0.06c-7.068,7.809-11.041,17.93-11.172,28.461c0,27.332,27.724,49.569,61.793,49.569
			c4.875,0,8.828-3.952,8.828-8.828S256.462,229.517,251.586,229.517z"/>
		<path style="fill:#E6E7E8;" d="M317.871,219.332l-6.836-0.06c7.068-7.809,11.041-17.93,11.172-28.461
			c0-27.332-27.724-49.569-61.793-49.569c-4.875,0-8.828,3.952-8.828,8.828s3.952,8.828,8.828,8.828
			c23.923,0,44.138,14.616,44.138,31.914c-0.505,9.219-5.439,17.624-13.241,22.56v-12.375c0-4.875-3.952-8.828-8.828-8.828
			s-8.828,3.952-8.828,8.828v26.849c0,0.228,0.113,0.419,0.129,0.643c0.02,0.275-0.055,0.538-0.009,0.814
			c0.106,0.382,0.24,0.757,0.399,1.12c0.511,1.428,1.306,2.737,2.337,3.849c0.546,0.476,1.149,0.883,1.795,1.211
			c0.286,0.194,0.584,0.37,0.891,0.528c1.018,0.421,2.106,0.646,3.207,0.663l35.31,0.315h0.078c4.875,0.021,8.845-3.913,8.866-8.789
			C326.681,223.323,322.746,219.353,317.871,219.332L317.871,219.332z"/>
	</g>
</g>
<g>
</g>
<g>
</g>
<g>
</g>
<g>
</g>
<g>
</g>
<g>
</g>
<g>
</g>
<g>
</g>
<g>
</g>
<g>
</g>
<g>
</g>
<g>
</g>
<g>
</g>
<g>
</g>
<g>
</g>
</svg>
