<?xml version="1.0" encoding="iso-8859-1"?>
<!-- Generator: Adobe Illustrator 18.0.0, SVG Export Plug-In . SVG Version: 6.00 Build 0)  -->
<!DOCTYPE svg PUBLIC "-//W3C//DTD SVG 1.1//EN" "http://www.w3.org/Graphics/SVG/1.1/DTD/svg11.dtd">
<svg version="1.1" id="Capa_1" xmlns="http://www.w3.org/2000/svg" xmlns:xlink="http://www.w3.org/1999/xlink" x="0px" y="0px"
	 viewBox="0 0 50.446 50.446" style="enable-background:new 0 0 50.446 50.446;" xml:space="preserve">
<g>
	<path style="fill:#FBD490;" d="M0.631,7.673c-0.906,2.652-1.095,6.044,1.813,8.953c0,0,4.359,3.906,8.915,3.562
		c0.176-0.013,0.349,0.045,0.474,0.17l4.012,4.012l4.243-4.243l4.243-4.243l-4.012-4.012c-0.125-0.125-0.183-0.298-0.17-0.474
		c0.344-4.556-3.562-8.915-3.562-8.915c-2.934-2.978-6.301-2.81-8.935-1.897C4.36,1.727,1.756,4.376,0.631,7.673z"/>
	<path style="fill:#FF5364;" d="M29.987,15.884L15.845,30.026c-0.778,0.778-2.051,0.778-2.828,0l0,0
		c-0.778-0.778-0.778-2.051,0-2.828l14.142-14.142c0.778-0.778,2.051-0.778,2.828,0l0,0C30.765,13.834,30.765,15.106,29.987,15.884z
		"/>
	<path style="fill:#FB7B76;" d="M37.765,19.42L19.381,37.805c-1.556,1.556-4.101,1.556-5.657,0l0,0
		c-1.556-1.556-1.556-4.101,0-5.657l18.385-18.385c1.556-1.556,4.101-1.556,5.657,0l0,0C39.321,15.319,39.321,17.864,37.765,19.42z"
		/>
	<path style="fill:#F3D55B;" d="M46.604,24.723c-2.769-2.769-6.541-4.004-10.375-3.767l-7.656,7.656
		c4.491-4.491,11.298-4.966,15.203-1.061c3.905,3.905,3.43,10.712-1.061,15.203s-11.298,4.966-15.203,1.061
		c-3.905-3.905-3.43-10.712,1.061-15.203l-7.656,7.656c-0.237,3.834,0.998,7.606,3.767,10.375c5.459,5.459,14.816,4.983,20.86-1.061
		C51.587,39.539,52.063,30.182,46.604,24.723z"/>
	<path style="fill:#F9E4C2;" d="M10.039,16c-3.86,0-7-3.141-7-7c0-0.553,0.448-1,1-1s1,0.447,1,1c0,2.757,2.243,5,5,5
		c0.552,0,1,0.447,1,1S10.591,16,10.039,16z"/>
</g>
<g>
</g>
<g>
</g>
<g>
</g>
<g>
</g>
<g>
</g>
<g>
</g>
<g>
</g>
<g>
</g>
<g>
</g>
<g>
</g>
<g>
</g>
<g>
</g>
<g>
</g>
<g>
</g>
<g>
</g>
</svg>
