<?xml version="1.0" encoding="iso-8859-1"?>
<!-- Generator: Adobe Illustrator 19.0.0, SVG Export Plug-In . SVG Version: 6.00 Build 0)  -->
<svg version="1.1" id="Capa_1" xmlns="http://www.w3.org/2000/svg" xmlns:xlink="http://www.w3.org/1999/xlink" x="0px" y="0px"
	 viewBox="0 0 512 512" style="enable-background:new 0 0 512 512;" xml:space="preserve">
<path style="fill:#994C0F;" d="M346,90h-90c-8.401,0-15,6.599-15,15v60c0,8.399,6.599,15,15,15h90c8.401,0,15-6.601,15-15v-60
	C361,96.599,354.401,90,346,90z"/>
<path style="fill:#713708;" d="M361,105v60c0,8.399-6.599,15-15,15h-45V90h45C354.401,90,361,96.599,361,105z"/>
<path style="fill:#994C0F;" d="M135,210H75c-8.291,0-15-6.709-15-15v-30c0-24.814,20.186-45,45-45s45,20.186,45,45v30
	C150,203.291,143.291,210,135,210z"/>
<path style="fill:#FEA832;" d="M512,227v240c0,24.899-21.099,45-46,45H45c-24.901,0-45-20.101-45-45v-15l45-30V272L0,242v-15
	c0-24.901,20.099-46,45-46h144.699l25.801-25.501C218.2,152.5,222.1,151,226,151h150c3.9,0,7.8,1.5,10.499,4.499L412.301,181H466
	C490.901,181,512,202.099,512,227z"/>
<path style="fill:#FE9923;" d="M512,227v240c0,24.899-21.099,45-46,45H301V151h75c3.9,0,7.8,1.5,10.499,4.499L412.301,181H466
	C490.901,181,512,202.099,512,227z"/>
<path style="fill:#994C0F;" d="M150,406V286c0-24.814-20.186-45-45-45H0v210h105C129.814,451,150,430.814,150,406z"/>
<path style="fill:#713708;" d="M75,391c-8.291,0-15-6.709-15-15v-60c0-8.291,6.709-15,15-15s15,6.709,15,15v60
	C90,384.291,83.291,391,75,391z"/>
<circle style="fill:#CAE8F9;" cx="436" cy="256" r="15"/>
<path style="fill:#C85F03;" d="M400.901,18.6C392.199,6.899,378.999,0,364.3,0H237.7c-14.7,0-27.9,6.899-36.601,18.6
	c-8.399,11.999-10.8,26.7-6.299,40.499l10.199,30C211,107.699,228.1,120,247.599,120h106.802C373.9,120,391,107.699,397,89.099
	l10.199-30C411.7,45.3,409.3,30.599,400.901,18.6z"/>
<path style="fill:#994C0F;" d="M407.199,59.099l-10.199,30c-6,18.6-23.1,30.901-42.599,30.901H301V0h63.3
	c14.7,0,27.9,6.899,36.601,18.6C409.3,30.599,411.7,45.3,407.199,59.099z"/>
<path style="fill:#1DE8F1;" d="M247.592,90c-6.563,0-12.07-3.97-14.063-10.122l-10.313-30.439
	c-1.846-5.64,0.293-10.547,2.461-13.623c1.7-2.286,5.655-5.816,12.012-5.816H364.31c6.357,0,10.313,3.53,12.51,6.504
	c1.67,2.388,3.809,7.295,1.875,13.271l-10.107,29.663C366.479,86.03,360.971,90,354.408,90H247.592z"/>
<path style="fill:#1BD9DE;" d="M364.311,30H301v60h53.408c6.563,0,12.07-3.97,14.18-10.562l10.107-29.663
	c1.934-5.977-0.205-10.884-1.875-13.271C374.623,33.53,370.668,30,364.311,30z"/>
<path style="fill:#994C0F;" d="M301,210c-66.301,0-120,54.699-120,121c0,66.299,53.699,120,120,120s120-53.701,120-120
	C421,264.699,367.301,210,301,210z"/>
<path style="fill:#713708;" d="M421,331c0,66.299-53.699,120-120,120V210C367.301,210,421,264.699,421,331z"/>
<path style="fill:#1DE8F1;" d="M301,241c-49.501,0-90,40.499-90,90c0,49.499,40.499,90,90,90s90-40.501,90-90
	C391,281.499,350.501,241,301,241z"/>
<g>
	<path style="fill:#1BD9DE;" d="M391,331c0,49.499-40.499,90-90,90V241C350.501,241,391,281.499,391,331z"/>
	<path style="fill:#1BD9DE;" d="M301,271c-32.999,0-60,26.999-60,60c0,32.999,27.001,60,60,60s60-27.001,60-60
		C361,297.999,333.999,271,301,271z"/>
</g>
<path style="fill:#14B7BF;" d="M361,331c0,32.999-27.001,60-60,60V271C333.999,271,361,297.999,361,331z"/>
<path style="fill:#CAE8F9;" d="M301,331c-8.262,0-15-6.724-15-15s6.738-15,15-15s15,6.724,15,15S309.262,331,301,331z"/>
<g>
</g>
<g>
</g>
<g>
</g>
<g>
</g>
<g>
</g>
<g>
</g>
<g>
</g>
<g>
</g>
<g>
</g>
<g>
</g>
<g>
</g>
<g>
</g>
<g>
</g>
<g>
</g>
<g>
</g>
</svg>
