<?xml version="1.0" encoding="iso-8859-1"?>
<!-- Generator: Adobe Illustrator 19.0.0, SVG Export Plug-In . SVG Version: 6.00 Build 0)  -->
<svg version="1.1" id="Layer_1" xmlns="http://www.w3.org/2000/svg" xmlns:xlink="http://www.w3.org/1999/xlink" x="0px" y="0px"
	 viewBox="0 0 512 512" style="enable-background:new 0 0 512 512;" xml:space="preserve">
<g>
	<path style="fill:#666666;" d="M118.131,417.875l-8.421-16.638l218.372-110.526l4.196,8.29l6.864,6.358
		c-0.751,0.808-1.655,1.494-2.638,1.992L118.131,417.875z"/>
	<path style="fill:#666666;" d="M326.154,416.798L108.574,307.36c-0.992-0.499-1.887-1.171-2.643-1.985l6.848-6.374l4.175-8.3
		l217.58,109.438L326.154,416.798z"/>
	<rect x="125.501" y="408.814" style="fill:#666666;" width="192.659" height="18.648"/>
</g>
<g>
	<path style="fill:#808080;" d="M293.124,418.138c3.357-7.695,8.118-14.632,13.961-20.5c12.134-12.183,28.929-19.717,47.49-19.717
		c37.035,0,67.046,30.011,67.046,67.033c0,37.035-30.011,67.046-67.046,67.046c-37.023,0-67.046-30.011-67.046-67.046
		C287.53,435.419,289.519,426.343,293.124,418.138z"/>
	<path style="fill:#808080;" d="M150.542,418.138c3.605,8.205,5.594,17.28,5.594,26.816c0,37.035-30.023,67.046-67.046,67.046
		c-37.035,0-67.046-30.011-67.046-67.046c0-37.023,30.011-67.033,67.046-67.033c18.959,0,36.078,7.869,48.261,20.513
		C142.846,404.127,147.347,410.791,150.542,418.138z"/>
</g>
<path style="fill:#666666;" d="M387.154,201.013c-1.928,0-3.874-0.596-5.542-1.832c-4.139-3.064-5.008-8.904-1.943-13.042
	l62.683-84.63c1.759-2.375,4.538-3.774,7.493-3.774h30.787c5.149,0,9.324,4.175,9.324,9.324s-4.175,9.324-9.324,9.324h-26.089
	l-59.889,80.855C392.824,199.708,390.007,201.013,387.154,201.013z"/>
<g>
	<path style="fill:#F7B239;" d="M354.576,408.678c20.04,0,36.277,16.249,36.277,36.277c0,20.04-16.236,36.277-36.277,36.277
		c-20.028,0-36.277-16.236-36.277-36.277C318.299,424.926,334.548,408.678,354.576,408.678z"/>
	<path style="fill:#F7B239;" d="M89.09,408.678c20.028,0,36.277,16.249,36.277,36.277c0,20.04-16.249,36.277-36.277,36.277
		c-20.04,0-36.277-16.236-36.277-36.277C52.814,424.926,69.05,408.678,89.09,408.678z"/>
</g>
<g>
	<path style="fill:#E09B2D;" d="M89.09,408.678c-5.321,0-10.37,1.155-14.921,3.212c12.59,5.691,21.361,18.353,21.361,33.064
		c0,14.72-8.771,27.377-21.361,33.065c4.553,2.056,9.6,3.211,14.921,3.211c20.028,0,36.277-16.236,36.277-36.277
		C125.367,424.926,109.118,408.678,89.09,408.678z"/>
	<path style="fill:#E09B2D;" d="M354.576,408.678c-5.321,0-10.37,1.155-14.921,3.212c12.59,5.691,21.361,18.353,21.361,33.064
		c0,14.72-8.771,27.377-21.361,33.065c4.553,2.056,9.6,3.211,14.921,3.211c20.028,0,36.277-16.236,36.277-36.277
		C390.853,424.926,374.604,408.678,354.576,408.678z"/>
</g>
<path style="fill:#F95428;" d="M213.1,162.039L270.1,0H213.1h-52.973C85.348,0,24.73,60.618,24.73,135.397v26.642v19.332
	c0,67.406,48.012,123.587,111.702,136.218l0.012,0.012c8.789,1.753,17.877,2.66,27.176,2.66h117.818
	c9.299,0,18.387-0.908,27.176-2.66l0.012-0.012c56.106-11.127,100.053-56.068,109.712-112.696
	c1.305-7.646,1.989-15.503,1.989-23.521v-19.332H213.1z"/>
<g>
	<polygon style="fill:#F7B239;" points="270.1,0 213.1,162.039 213.1,0 	"/>
	<path style="fill:#F7B239;" d="M420.329,162.039v19.332c0,8.019-0.684,15.876-1.989,23.521H241.594
		c-15.739,0-28.494-12.755-28.494-28.482v-14.371H420.329z"/>
</g>
<path style="fill:#D33924;" d="M214.749,317.588c-63.689-12.631-111.702-68.811-111.702-136.218v-19.332v-26.642
	c0-66.115,47.39-121.151,110.052-133.019V0h-52.973C85.348,0,24.73,60.618,24.73,135.397v26.642v19.332
	c0,67.406,48.012,123.587,111.702,136.218l0.012,0.012c8.789,1.753,17.877,2.66,27.176,2.66h78.318
	c-9.299,0-18.387-0.908-27.176-2.66L214.749,317.588z"/>
<g>
</g>
<g>
</g>
<g>
</g>
<g>
</g>
<g>
</g>
<g>
</g>
<g>
</g>
<g>
</g>
<g>
</g>
<g>
</g>
<g>
</g>
<g>
</g>
<g>
</g>
<g>
</g>
<g>
</g>
</svg>
