<?xml version="1.0" encoding="iso-8859-1"?>
<!-- Generator: Adobe Illustrator 19.0.0, SVG Export Plug-In . SVG Version: 6.00 Build 0)  -->
<svg version="1.1" id="Layer_1" xmlns="http://www.w3.org/2000/svg" xmlns:xlink="http://www.w3.org/1999/xlink" x="0px" y="0px"
	 viewBox="0 0 512 512" style="enable-background:new 0 0 512 512;" xml:space="preserve">
<rect style="fill:#C8C6CD;" width="512" height="512"/>
<rect x="256.01" style="fill:#AEADB3;" width="255.99" height="512"/>
<rect x="53.603" y="53.603" style="fill:#00D9DF;" width="404.793" height="404.793"/>
<rect x="256.01" y="53.603" style="fill:#00B7BF;" width="202.386" height="404.793"/>
<rect x="168.344" y="293.554" style="fill:#59422C;" width="130.497" height="90.969"/>
<path style="fill:#FF4F18;" d="M405.243,415.535v55.714H106.757v-55.714c0-25.37,20.647-46.017,46.017-46.017h206.451
	C384.596,369.518,405.243,390.165,405.243,415.535z"/>
<g>
	<path style="fill:#8A6746;" d="M366.916,216.545v184.32h-89.255V247.662c0-16.812-8.61-31.65-21.65-40.333
		c-7.68-5.12-16.886-8.098-26.781-8.098c-26.708,0-48.431,21.723-48.431,48.431h-31.347v-31.117
		c0-59.225,47.595-107.551,106.559-108.711c0.721-0.01,1.442-0.021,2.173-0.021C318.14,107.813,366.916,156.588,366.916,216.545z"/>
	<path style="fill:#8A6746;" d="M180.8,399.848h-31.347V247.665c0-43.991,35.789-79.78,79.779-79.78
		c43.991,0,79.78,35.789,79.78,79.78v101.92h-31.347v-101.92c0-26.707-21.728-48.433-48.433-48.433s-48.433,21.728-48.433,48.433
		v152.183H180.8z"/>
</g>
<path style="fill:#FF3100;" d="M405.243,415.535v55.714H256.01V369.518h103.215C384.596,369.518,405.243,390.165,405.243,415.535z"
	/>
<path style="fill:#FFFFFF;" d="M512,25.401V0h-18.745l-40.479,37.93H60.092L22.173,0H0v22.173l37.93,37.919v389.904L0,488.5V512
	h20.867l37.345-37.93h394.867L490.099,512H512v-22.434l-37.93-38.86V60.928L512,25.401z M442.723,439.244l-3.563,3.479H72.307
	l-3.03-2.988V70.05l0.773-0.773h371.43l1.243,1.327V439.244z"/>
<polygon style="fill:#E1E1E4;" points="474.07,60.928 474.07,450.706 512,489.566 512,512 490.099,512 453.078,474.07 
	256.01,474.07 256.01,442.723 439.16,442.723 442.723,439.244 442.723,70.604 441.48,69.277 256.01,69.277 256.01,37.93 
	452.775,37.93 493.255,0 512,0 512,25.401 "/>
<path style="fill:#654B33;" d="M366.916,216.545v184.32h-89.255V247.662c0-16.812-8.61-31.65-21.65-40.333v-99.495
	c0.721-0.01,1.442-0.021,2.173-0.021C318.14,107.813,366.916,156.588,366.916,216.545z"/>
<path style="fill:#FFDBA8;" d="M277.943,193.985v142.367h-50.145c-34.607,0-62.673-28.056-62.673-62.673v-79.694H277.943z"/>
<rect x="256.01" y="193.985" style="fill:#FFC473;" width="21.932" height="142.367"/>
<g>
</g>
<g>
</g>
<g>
</g>
<g>
</g>
<g>
</g>
<g>
</g>
<g>
</g>
<g>
</g>
<g>
</g>
<g>
</g>
<g>
</g>
<g>
</g>
<g>
</g>
<g>
</g>
<g>
</g>
</svg>
