<?xml version="1.0" encoding="iso-8859-1"?>
<!-- Generator: Adobe Illustrator 19.0.0, SVG Export Plug-In . SVG Version: 6.00 Build 0)  -->
<svg version="1.1" id="Capa_1" xmlns="http://www.w3.org/2000/svg" xmlns:xlink="http://www.w3.org/1999/xlink" x="0px" y="0px"
	 viewBox="0 0 512.54 512.54" style="enable-background:new 0 0 512.54 512.54;" xml:space="preserve">
<path style="fill:#E8EAE9;" d="M397.07,37.603L14.136,160.27c-10.667,3.2-17.067,14.933-12.8,25.6L89.87,462.136
	c3.2,10.667,14.933,17.067,25.6,12.8L498.403,352.27c10.667-3.2,17.067-14.933,12.8-25.6L422.67,50.403
	C419.47,39.736,407.736,33.336,397.07,37.603z"/>
<rect x="61.07" y="116.536" style="fill:#8AD7F8;" width="391.467" height="279.467"/>
<path style="fill:#F3F3F3;" d="M297.87,321.336l9.6,73.6h-89.6h-65.067h-89.6l9.6-73.6c2.133-13.867,12.8-25.6,26.667-28.8
	l85.333-18.133l85.333,18.133C285.07,295.736,295.736,307.47,297.87,321.336z"/>
<g>
	<path style="fill:#F3705A;" d="M175.203,344.803l-10.667-10.667c0,0,13.867-21.333,21.333-21.333s21.333,21.333,21.333,21.333
		l-10.667,10.667H175.203z"/>
	<polygon style="fill:#F3705A;" points="162.403,396.003 175.203,344.803 196.536,344.803 208.27,396.003 	"/>
</g>
<path style="fill:#F7B64C;" d="M220.003,238.136c-6.4-22.4-20.267-36.267-34.133-45.867c-13.867,9.6-28.8,23.467-34.133,45.867v35.2
	c6.4,22.4,20.267,29.867,34.133,40.533c13.867-9.6,28.8-17.067,34.133-40.533V238.136z"/>
<g>
	
		<ellipse transform="matrix(0.1604 0.9871 -0.9871 0.1604 331.9167 47.8724)" style="fill:#FFD15C;" cx="137.819" cy="219.039" rx="14.934" ry="8.534"/>
	
		<ellipse transform="matrix(0.1604 -0.9871 0.9871 0.1604 -20.5748 413.5841)" style="fill:#FFD15C;" cx="232.82" cy="218.886" rx="14.934" ry="8.534"/>
</g>
<path style="fill:#344A5E;" d="M146.403,253.07c-8.533-18.133-12.8-50.133-12.8-64c0-34.133,17.067-52.267,52.267-52.267
	s52.267,17.067,52.267,52.267c0,12.8-5.333,45.867-12.8,64H146.403z"/>
<path style="fill:#FFD15C;" d="M137.87,216.803c0,37.333,21.333,67.2,48,67.2s48-19.2,48-56.533c0-17.067-5.333-43.733-12.8-55.467
	c-9.6,8.533-21.333,12.8-35.2,12.8c-13.867,0-25.6-5.333-35.2-13.867C142.136,182.67,137.87,198.67,137.87,216.803z"/>
<g>
	<path style="fill:#FFFFFF;" d="M151.736,273.336l-11.733,12.8l10.667,56.533c7.467-8.533,23.467-24.533,35.2-28.8
		C172.003,304.27,157.07,292.536,151.736,273.336z"/>
	<path style="fill:#FFFFFF;" d="M220.003,273.336l11.733,12.8L221.07,342.67c-7.467-8.533-23.467-24.533-35.2-28.8
		C199.736,304.27,213.603,292.536,220.003,273.336z"/>
</g>
<path style="fill:#F7B64C;" d="M214.67,396.003l7.467-39.467c2.133-13.867,13.867-24.533,27.733-25.6l43.733-4.267l5.333-70.4
	l58.667,3.2l-2.133,51.2l21.333,8.533l39.467,8.533c11.733,3.2,21.333,11.733,23.467,23.467l9.6,43.733H214.67V396.003z"/>
<path style="fill:#344A5E;" d="M417.336,396.003H249.87c17.067-21.333,3.2-66.133,3.2-66.133l30.933-3.2
	c53.333,54.4,99.2,6.4,99.2,5.333l12.8-9.6l11.733,4.267C398.136,339.47,414.136,384.27,417.336,396.003z"/>
<path style="fill:#FFD15C;" d="M370.403,254.136c0,0-19.2,25.6-21.333,28.8c-3.2,3.2-13.867,13.867-27.733,7.467
	c-13.867-6.4-19.2-14.933-19.2-14.933s-23.467-26.667-16-48s8.533-39.467,23.467-45.867c14.933-5.333,35.2-12.8,42.667-9.6
	c7.467,3.2,17.067,29.867,17.067,37.333C368.27,217.87,370.403,254.136,370.403,254.136z"/>
<g>
	<path style="fill:#F3705A;" d="M344.803,382.136c-1.067,0-1.067,0-2.133,0C343.736,382.136,344.803,382.136,344.803,382.136z"/>
	<path style="fill:#F3705A;" d="M234.936,341.603c0,0-1.067,10.667,7.467,19.2c8.533,7.467,4.267,17.067,4.267,18.133
		c1.067,0,5.333-2.133,4.267-8.533c0,0,8.533,11.733,5.333,18.133c-2.133,4.267,1.067,7.467,3.2,9.6h1.067
		c-1.067-2.133-3.2-5.333-2.133-10.667c1.067-3.2,1.067-6.4,1.067-8.533c1.067,2.133,2.133,4.267,5.333,5.333
		c5.333,2.133,8.533,6.4,9.6,9.6c-1.067-3.2-5.333-11.733-7.467-12.8c0,0,9.6-6.4,12.8-11.733c-1.067,3.2-3.2,8.533-6.4,10.667
		c0,0,24.533-4.267,29.867-20.267l0,0c1.067-2.133,1.067-4.267,1.067-7.467c0,0,0-21.333-2.133-25.6c0,0,13.867,18.133,1.067,33.067
		c4.267-5.333,13.867-18.133,0-35.2c0,0,0-2.133,1.067-5.333c4.267-4.267,10.667-14.933,4.267-27.733
		c-2.133-4.267-4.267-9.6-5.333-14.933c-1.067-2.133-2.133-4.267-3.2-6.4c-5.333-6.4-8.533-26.667-4.267-35.2
		c4.267-9.6,19.2-23.467,23.467-34.133c3.2-9.6,19.2-16,22.4-12.8c0,0,19.2-2.133,22.4,12.8c0,1.067,0,2.133,1.067,3.2
		c3.2,18.133,3.2,37.333-1.067,55.467c-1.067,3.2-2.133,7.467-2.133,10.667c-2.133,12.8-14.933,28.8-14.933,28.8
		s-9.6,24.533,3.2,40.533c0,0-8.533,17.067-12.8,21.333c-4.267,4.267-3.2,22.4,10.667,22.4c-2.133,0-5.333-1.067-7.467-5.333
		c1.067,1.067,5.333,4.267,10.667,3.2c2.133,2.133,5.333,4.267,8.533,4.267c0,0-2.133-1.067-4.267-7.467
		c0,0,7.467,1.067,11.733,5.333c-1.067-1.067-3.2-5.333-5.333-6.4c0,0,3.2-1.067,7.467,4.267c0,0,1.067-6.4-14.933-11.733
		c0,0-5.333-10.667,3.2-20.267c0,0-2.133,21.333,27.733,20.267c0,0-21.333-1.067-20.267-11.733c0-10.667,5.333-11.733,5.333-11.733
		s21.333,18.133,13.867,35.2c1.067-2.133,11.733-16-12.8-37.333c1.067,1.067,13.867,8.533,19.2,22.4
		c4.267,13.867,11.733,16,13.867,16c-1.067-1.067-4.267-3.2-7.467-7.467c1.067,0,3.2,2.133,5.333,3.2c0,0-2.133-5.333-4.267-6.4
		c-3.2-2.133,0-9.6,0-9.6s0,4.267,2.133,7.467c2.133,3.2,9.6,3.2,10.667,7.467c0-1.067-1.067-6.4-6.4-10.667
		c0,0,11.733-1.067,13.867,7.467c0,0,16-37.333-8.533-43.733c0,0-6.4-3.2-4.267-12.8c2.133-9.6-10.667-13.867-10.667-18.133
		c0-5.333,3.2-26.667-4.267-40.533c0,0-6.4-24.533-6.4-37.333s-7.467-64-45.867-59.733c0,0-4.267,1.067-4.267,0
		c-1.067-2.133-33.067-2.133-43.733,21.333c-11.733,23.467-13.867,42.667-13.867,42.667s2.133,23.467-2.133,32
		c-3.2,8.533-21.333,36.267-23.467,48c1.067-2.133,7.467-18.133,11.733-23.467c-2.133,3.2-9.6,17.067-8.533,26.667
		c1.067,9.6-2.133,13.867-3.2,14.933c1.067-1.067,2.133-2.133,3.2-4.267c-2.133,5.333-6.4,13.867-12.8,19.2
		C236.003,340.536,236.003,340.536,234.936,341.603z M344.803,380.003c-3.2,0-7.467,0-9.6-5.333c0,0-3.2-7.467,5.333-16
		C340.536,358.67,338.403,372.536,344.803,380.003z M302.136,285.07c0,0,0,0,1.067,1.067c3.2,4.267,10.667,18.133,1.067,30.933
		c1.067-8.533,2.133-24.533-1.067-30.933C302.136,286.136,302.136,286.136,302.136,285.07z"/>
	<path style="fill:#F3705A;" d="M231.736,364.003c-1.067-3.2-3.2-14.933,3.2-22.4C227.47,349.07,230.67,360.803,231.736,364.003z"/>
</g>
<path style="fill:#F3F3F3;" d="M457.87,90.936H55.736c-11.733,0-20.267,9.6-20.267,20.267V400.27c0,11.733,9.6,20.267,20.267,20.267
	H457.87c11.733,0,20.267-9.6,20.267-20.267V111.203C478.136,100.536,468.536,90.936,457.87,90.936z M447.203,390.67H65.336v-268.8
	h380.8v268.8H447.203z"/>
<g>
</g>
<g>
</g>
<g>
</g>
<g>
</g>
<g>
</g>
<g>
</g>
<g>
</g>
<g>
</g>
<g>
</g>
<g>
</g>
<g>
</g>
<g>
</g>
<g>
</g>
<g>
</g>
<g>
</g>
</svg>
