<?xml version="1.0" encoding="iso-8859-1"?>
<!-- Generator: Adobe Illustrator 19.0.0, SVG Export Plug-In . SVG Version: 6.00 Build 0)  -->
<svg version="1.1" id="Layer_1" xmlns="http://www.w3.org/2000/svg" xmlns:xlink="http://www.w3.org/1999/xlink" x="0px" y="0px"
	 viewBox="0 0 460 460" style="enable-background:new 0 0 460 460;" xml:space="preserve">
<polygon style="fill:#ABCB57;" points="230.004,44.477 0,202.274 460,202.274 "/>
<polygon style="opacity:0.3;fill:#5B5B5F;enable-background:new    ;" points="112.883,167.274 230.003,86.922 347.12,167.274 "/>
<rect x="20.972" y="370.522" style="fill:#ABCB57;" width="418.058" height="45.001"/>
<rect x="61.803" y="202.274" style="fill:#ABCB57;" width="73.842" height="168.247"/>
<rect x="193.083" y="202.274" style="fill:#ABCB57;" width="73.842" height="168.247"/>
<rect x="324.347" y="202.274" style="fill:#ABCB57;" width="73.842" height="168.247"/>
<rect x="20.972" y="202.274" style="fill:#ABCB57;" width="418.058" height="11.726"/>
<rect x="20.972" y="370.521" style="fill:#ABCB57;" width="418.058" height="22.501"/>
<path style="opacity:0.3;fill:#5B5B5F;enable-background:new    ;" d="M20.972,202.274V214h77.752v156.521H20.972v22.501H439.03
	v-22.501h-40.84V214h40.84v-11.726H20.972z M135.645,214H230v156.521h-94.355L135.645,214L135.645,214z M361.268,370.521h-94.343
	V214h94.343V370.521z"/>
<g>
</g>
<g>
</g>
<g>
</g>
<g>
</g>
<g>
</g>
<g>
</g>
<g>
</g>
<g>
</g>
<g>
</g>
<g>
</g>
<g>
</g>
<g>
</g>
<g>
</g>
<g>
</g>
<g>
</g>
</svg>
