<?xml version="1.0" encoding="iso-8859-1"?>
<!-- Generator: Adobe Illustrator 19.0.0, SVG Export Plug-In . SVG Version: 6.00 Build 0)  -->
<svg version="1.1" id="Layer_1" xmlns="http://www.w3.org/2000/svg" xmlns:xlink="http://www.w3.org/1999/xlink" x="0px" y="0px"
	 viewBox="0 0 496.162 496.162" style="enable-background:new 0 0 496.162 496.162;" xml:space="preserve">
<path style="fill:#29C183;" d="M248.077,0C111.072,0,0.002,111.062,0.002,248.083c0,137.005,111.07,248.079,248.075,248.079
	c137.013,0,248.083-111.074,248.083-248.079C496.16,111.062,385.09,0,248.077,0z"/>
<path style="fill:#EFE1A8;" d="M242.388,201.887V153.5c0-5.865-4.755-10.618-10.618-10.618H84.876
	c-5.862,0-10.618,4.753-10.618,10.618v189.161c0,5.865,4.756,10.618,10.618,10.618h324.699c5.863,0,10.618-4.753,10.618-10.618
	V201.889L242.388,201.887z"/>
<g>
	<path style="fill:#E5C438;" d="M233.508,286.925H84.876c-5.862,0-10.618,4.754-10.618,10.617v45.119
		c0,5.865,4.756,10.618,10.618,10.618h148.632c5.863,0,10.615-4.753,10.615-10.618v-45.119
		C244.123,291.679,239.371,286.925,233.508,286.925z"/>
	<path style="fill:#E5C438;" d="M409.575,286.925H260.943c-5.862,0-10.615,4.754-10.615,10.617v45.119
		c0,5.865,4.753,10.618,10.615,10.618h148.632c5.863,0,10.618-4.753,10.618-10.618v-45.119
		C420.193,291.679,415.438,286.925,409.575,286.925z"/>
	<path style="fill:#E5C438;" d="M233.508,142.883H84.876c-5.862,0-10.618,4.753-10.618,10.618v45.119
		c0,5.863,4.756,10.617,10.618,10.617h148.632c5.863,0,10.615-4.754,10.615-10.617v-45.119
		C244.123,147.636,239.371,142.883,233.508,142.883z"/>
	<path style="fill:#E5C438;" d="M321.985,214.67H173.352c-5.861,0-10.617,4.753-10.617,10.617v45.12
		c0,5.863,4.756,10.617,10.617,10.617h148.634c5.862,0,10.615-4.754,10.615-10.617v-45.12
		C332.601,219.423,327.848,214.67,321.985,214.67z"/>
	<path style="fill:#E5C438;" d="M349.421,214.67c-5.863,0-10.618,4.753-10.618,10.617v45.12c0,5.863,4.755,10.617,10.618,10.617
		h70.772V214.67L349.421,214.67L349.421,214.67z"/>
	<path style="fill:#E5C438;" d="M146.133,214.67H74.258v66.354h71.875c5.862,0,10.615-4.754,10.615-10.617v-45.12
		C156.748,219.423,151.995,214.67,146.133,214.67z"/>
</g>
<path style="fill:#FFFFFF;" d="M318.532,142.587l-0.163,0.176c-11.144,12.815-7.569,32.535-7.42,33.32
	c0.977,5.535,0.778,7.783,0.691,8.356l-0.107,0.213l-0.097,0.611c-0.954,6.044-8.832,11.088-11.787,12.521l1.738,3.603l1.731,3.606
	c0.581-0.279,14.116-6.894,16.157-18.112c0.706-2.324,0.554-6.505-0.458-12.237c-0.031-0.166-3.021-16.613,5.513-26.545
	C325.98,146.419,319.576,141.523,318.532,142.587z"/>
<path style="fill:#334D5C;" d="M371.888,85.388c-34,18.5-50.814,43.02-54.25,50.75l16.75,11.75c17.75-5.5,51-41.75,52.5-50
	C389.885,81.407,371.888,85.388,371.888,85.388z"/>
<path style="fill:#FFFFFF;" d="M327.888,136.138c-4.25-2.75-10.25,0-10.25,0c-2,4.5-1,17.25,16.75,11.75
	C334.388,147.888,332.138,138.888,327.888,136.138z"/>
<path style="fill:#898886;" d="M250.888,175.888c0,0-50,63.75-59,76.5s9.5,25.75,30.5,20s146.5-43.5,146.5-43.5L250.888,175.888z"/>
<g>
</g>
<g>
</g>
<g>
</g>
<g>
</g>
<g>
</g>
<g>
</g>
<g>
</g>
<g>
</g>
<g>
</g>
<g>
</g>
<g>
</g>
<g>
</g>
<g>
</g>
<g>
</g>
<g>
</g>
</svg>
