<?xml version="1.0" encoding="iso-8859-1"?>
<!-- Generator: Adobe Illustrator 19.0.0, SVG Export Plug-In . SVG Version: 6.00 Build 0)  -->
<svg version="1.1" id="Layer_1" xmlns="http://www.w3.org/2000/svg" xmlns:xlink="http://www.w3.org/1999/xlink" x="0px" y="0px"
	 viewBox="0 0 512.001 512.001" style="enable-background:new 0 0 512.001 512.001;" xml:space="preserve">
<g>
	<rect x="247.223" y="439.758" style="fill:#BAC6CC;" width="17.554" height="72.243"/>
	<path style="fill:#BAC6CC;" d="M354.012,359.278h65.261c9.039,0,16.366-7.327,16.366-16.366V16.366
		C435.639,7.327,428.312,0,419.273,0H92.728c-9.039,0-16.366,7.327-16.366,16.366v326.546c0,9.039,7.327,16.366,16.366,16.366
		h65.261"/>
</g>
<circle style="fill:#CFDCE5;" cx="256.001" cy="179.639" r="131.657"/>
<path style="fill:#AFBBBF;" d="M256.001,320.073c-77.435,0-140.434-62.999-140.434-140.434S178.565,39.205,256.001,39.205
	s140.434,62.999,140.434,140.434S333.436,320.073,256.001,320.073z M256.001,56.759c-67.756,0-122.88,55.124-122.88,122.88
	s55.124,122.88,122.88,122.88s122.88-55.124,122.88-122.88S323.757,56.759,256.001,56.759z"/>
<path style="fill:#FF6F52;" d="M287.265,467.529h-62.528c-36.864,0-66.747-29.884-66.747-66.747v-90.656h196.023v90.656
	C354.012,437.645,324.128,467.529,287.265,467.529z"/>
<path style="fill:#E25749;" d="M183.466,400.782v-90.656h-25.477v90.656c0,36.864,29.883,66.747,66.747,66.747h25.477
	C213.351,467.529,183.466,437.645,183.466,400.782z"/>
<g>
	<path style="fill:#FCD577;" d="M195.146,209.796L195.146,209.796c-7.668,0-13.883,6.215-13.883,13.883v86.447h27.767v-86.447
		C209.029,216.011,202.813,209.796,195.146,209.796z"/>
	<path style="fill:#FCD577;" d="M316.855,209.796L316.855,209.796c-7.668,0-13.883,6.215-13.883,13.883v86.447h27.767v-86.447
		C330.739,216.011,324.523,209.796,316.855,209.796z"/>
</g>
<g>
	<path style="fill:#EAC36E;" d="M323.292,211.384c-1.925-1.01-4.112-1.588-6.437-1.588c-7.668,0-13.883,6.215-13.883,13.883v86.447
		h12.873v-86.447C315.845,218.337,318.867,213.706,323.292,211.384z"/>
	<path style="fill:#EAC36E;" d="M201.582,211.384c-1.925-1.01-4.112-1.588-6.437-1.588c-7.668,0-13.883,6.215-13.883,13.883v86.447
		h12.873v-86.447C194.136,218.337,197.157,213.706,201.582,211.384z"/>
</g>
<g>
	<circle style="fill:#415E72;" cx="256.001" cy="396.434" r="18.432"/>
	<circle style="fill:#415E72;" cx="195.146" cy="179.639" r="21.065"/>
	<circle style="fill:#415E72;" cx="316.855" cy="179.639" r="21.065"/>
</g>
<rect x="157.989" y="312.782" style="fill:#E25749;" width="195.73" height="28.087"/>
<path style="fill:#FF6F52;" d="M363.008,318.903H148.992c-4.847,0-8.777-3.93-8.777-8.777s3.93-8.777,8.777-8.777h214.016
	c4.847,0,8.777,3.93,8.777,8.777S367.856,318.903,363.008,318.903z"/>
<g>
</g>
<g>
</g>
<g>
</g>
<g>
</g>
<g>
</g>
<g>
</g>
<g>
</g>
<g>
</g>
<g>
</g>
<g>
</g>
<g>
</g>
<g>
</g>
<g>
</g>
<g>
</g>
<g>
</g>
</svg>
