<?xml version="1.0" encoding="iso-8859-1"?>
<!-- Generator: Adobe Illustrator 19.0.0, SVG Export Plug-In . SVG Version: 6.00 Build 0)  -->
<svg version="1.1" id="Layer_1" xmlns="http://www.w3.org/2000/svg" xmlns:xlink="http://www.w3.org/1999/xlink" x="0px" y="0px"
	 viewBox="0 0 512 512" style="enable-background:new 0 0 512 512;" xml:space="preserve">
<path style="fill:#CFDCE5;" d="M162.002,85.666V69.391c0-17.077,13.843-30.92,30.92-30.92l0,0c17.077,0,30.92,13.843,30.92,30.92
	v16.523v61.416v62.684l-61.842-0.053V147.56V85.666H162.002z"/>
<path style="fill:#BAC6CC;" d="M185.56,209.962V147.56V85.665V69.391c0-12.906,7.909-23.96,19.142-28.593
	c-3.63-1.498-7.607-2.329-11.78-2.329c-17.077,0-30.92,13.843-30.92,30.921v16.275v61.895v62.402l61.842,0.053v-0.02L185.56,209.962
	z"/>
<path style="fill:#FF6F52;" d="M333.588,58.345c-9.852-0.655-19.223,1.135-27.567,4.822
	c-34.505,15.247-71.435,24.264-109.159,24.264h-5.69c-37.723,0-74.654-9.016-109.159-24.264c-8.344-3.688-17.714-5.477-27.567-4.822
	c-29.795,1.98-53.595,26.794-54.423,56.642c-0.917,33.033,25.588,60.101,58.415,60.101c9.011,0,17.544-2.042,25.162-5.685
	c33.986-16.257,71.577-23.533,109.252-23.533h2.329c37.675,0,75.265,7.277,109.252,23.533c7.619,3.645,16.151,5.685,25.162,5.685
	c32.826,0,59.332-27.067,58.415-60.101C387.183,85.139,363.382,60.325,333.588,58.345z"/>
<path style="fill:#E25749;" d="M50.736,114.982c-0.663,23.9,13.016,44.666,33.054,54.327c-0.065,0.026-0.13,0.065-0.195,0.091
	c-7.62,3.641-16.15,5.682-25.161,5.682c-32.82,0-59.333-27.06-58.41-60.101C0.856,85.139,24.651,60.329,54.442,58.34
	c9.856-0.65,19.232,1.144,27.567,4.824c0.624,0.273,1.248,0.546,1.872,0.819C64.753,73.267,51.347,92.72,50.736,114.982z"/>
<path style="fill:#CFDCE5;" d="M512,413.04v60.491H387.196V413.04c0-22.547-18.347-40.895-40.895-40.895h-62.597
	c-19.479,29.374-52.832,48.736-90.71,48.736c-37.891,0-71.231-19.362-90.723-48.736H7.361V247.341h98.187
	c19.817-26.734,51.609-44.068,87.446-44.068s67.616,17.333,87.446,44.068h65.861C437.661,247.341,512,321.667,512,413.04z"/>
<g>
	<path style="fill:#BAC6CC;" d="M420.835,436.302v37.228h-33.639V413.04c0-22.547-18.347-40.895-40.895-40.895
		C385.544,366.241,420.835,396.63,420.835,436.302z"/>
	<path style="fill:#BAC6CC;" d="M136.013,312.082c0-51.158,35.315-94.047,82.891-105.674c-8.308-2.031-16.981-3.13-25.914-3.13
		c-60.091,0-108.805,48.714-108.805,108.805c0,8.07,0.905,15.925,2.572,23.494h-79.4v36.566h94.915
		c19.484,29.37,52.832,48.745,90.718,48.745c8.933,0,17.606-1.1,25.914-3.13C171.329,406.128,136.013,363.24,136.013,312.082z"/>
</g>
<g>
</g>
<g>
</g>
<g>
</g>
<g>
</g>
<g>
</g>
<g>
</g>
<g>
</g>
<g>
</g>
<g>
</g>
<g>
</g>
<g>
</g>
<g>
</g>
<g>
</g>
<g>
</g>
<g>
</g>
</svg>
