<?xml version="1.0" encoding="iso-8859-1"?>
<!-- Generator: Adobe Illustrator 19.0.0, SVG Export Plug-In . SVG Version: 6.00 Build 0)  -->
<svg version="1.1" id="Capa_1" xmlns="http://www.w3.org/2000/svg" xmlns:xlink="http://www.w3.org/1999/xlink" x="0px" y="0px"
	 viewBox="0 0 512 512" style="enable-background:new 0 0 512 512;" xml:space="preserve">
<path style="fill:#7FC4EC;" d="M296.609,98.852c0-51.918-42.238-94.155-94.155-94.155c-21.456,0-42.449,7.41-59.114,20.863
	c-12.061,9.738-21.529,22.35-27.554,36.474c-4.813-1.046-9.746-1.573-14.77-1.573c-36.831,0-67.051,28.849-69.246,65.138
	C12.613,135.655,0,155.812,0,178.015c0,32.622,26.539,59.161,59.161,59.161h106.17v-15l0,0L280.44,112.443l14.779,2.563
	C296.142,109.684,296.609,104.249,296.609,98.852z"/>
<rect x="182.453" y="318.484" transform="matrix(-0.9476 -0.3194 0.3194 -0.9476 275.3295 729.1208)" style="fill:#1D80C8;" width="29.998" height="46.999"/>
<rect x="159.154" y="387.61" transform="matrix(-0.9476 -0.3194 0.3194 -0.9476 207.8733 856.3096)" style="fill:#00A8E6;" width="29.999" height="46.999"/>
<rect x="135.854" y="456.745" transform="matrix(-0.9476 -0.3194 0.3194 -0.9476 140.4122 983.5169)" style="fill:#7FC4EC;" width="29.998" height="46.999"/>
<rect x="258.612" y="318.48" transform="matrix(-0.9476 -0.3194 0.3194 -0.9476 423.66 753.4378)" style="fill:#1D80C8;" width="29.998" height="46.999"/>
<rect x="235.303" y="387.612" transform="matrix(-0.9476 -0.3194 0.3194 -0.9476 356.1832 880.6368)" style="fill:#00A8E6;" width="29.999" height="46.999"/>
<rect x="212.004" y="456.738" transform="matrix(-0.9476 -0.3194 0.3194 -0.9476 288.7253 1007.8246)" style="fill:#7FC4EC;" width="29.998" height="46.999"/>
<rect x="334.762" y="318.472" transform="matrix(-0.9476 -0.3194 0.3194 -0.9476 571.9731 777.7455)" style="fill:#1D80C8;" width="29.998" height="46.999"/>
<rect x="311.463" y="387.608" transform="matrix(-0.9476 -0.3194 0.3194 -0.9476 504.5137 904.9538)" style="fill:#00A8E6;" width="29.999" height="46.999"/>
<rect x="288.163" y="456.743" transform="matrix(-0.9476 -0.3194 0.3194 -0.9476 437.0525 1032.1611)" style="fill:#7FC4EC;" width="29.998" height="46.999"/>
<rect x="410.921" y="318.478" transform="matrix(-0.9476 -0.3194 0.3194 -0.9476 720.3013 802.0825)" style="fill:#1D80C8;" width="29.999" height="46.999"/>
<rect x="387.612" y="387.6" transform="matrix(-0.9476 -0.3194 0.3194 -0.9476 652.8259 929.261)" style="fill:#00A8E6;" width="29.998" height="46.999"/>
<rect x="364.313" y="456.735" transform="matrix(-0.9476 -0.3194 0.3194 -0.9476 585.3656 1056.4688)" style="fill:#7FC4EC;" width="29.998" height="46.999"/>
<path style="fill:#00A8E6;" d="M202.454,4.696c-18.565,0-36.778,5.557-52.146,15.768v216.712h15.023v-15l0,0L280.44,112.443
	l14.779,2.563c0.923-5.322,1.391-10.756,1.391-16.154C296.609,46.934,254.371,4.696,202.454,4.696z"/>
<path style="fill:#7FC4EC;" d="M446.891,146.895c0.017-0.732,0.025-1.464,0.025-2.197c0-51.921-42.24-94.162-94.161-94.162
	c-21.455,0-42.449,7.411-59.114,20.866c-12.06,9.738-21.527,22.349-27.552,36.472c-4.81-1.045-9.741-1.571-14.767-1.571
	c-36.831,0-67.05,28.847-69.245,65.135c-19.157,10.058-31.77,30.217-31.77,52.421c0,32.618,26.537,59.155,59.156,59.155h234.444
	c37.546,0,68.092-30.546,68.092-68.092C512,178.375,483.059,148.461,446.891,146.895z"/>
<path style="fill:#00A8E6;" d="M446.891,146.895c0.017-0.732,0.025-1.464,0.025-2.197c0-51.921-42.24-94.162-94.161-94.162
	c-7.306,0-14.554,0.88-21.601,2.544v229.934h112.754c37.546,0,68.092-30.546,68.092-68.092
	C512,178.375,483.059,148.461,446.891,146.895z"/>
<g>
</g>
<g>
</g>
<g>
</g>
<g>
</g>
<g>
</g>
<g>
</g>
<g>
</g>
<g>
</g>
<g>
</g>
<g>
</g>
<g>
</g>
<g>
</g>
<g>
</g>
<g>
</g>
<g>
</g>
</svg>
