<?xml version="1.0" encoding="iso-8859-1"?>
<!-- Generator: Adobe Illustrator 19.0.0, SVG Export Plug-In . SVG Version: 6.00 Build 0)  -->
<svg version="1.1" id="Capa_1" xmlns="http://www.w3.org/2000/svg" xmlns:xlink="http://www.w3.org/1999/xlink" x="0px" y="0px"
	 viewBox="0 0 512 512" style="enable-background:new 0 0 512 512;" xml:space="preserve">
<path style="fill:#8A90A7;" d="M120,353.584v32.36c0,2.793-2.239,5.056-5,5.056H65c-2.761,0-5-2.264-5-5.056v-32.36
	c0-2.792,2.239-5.056,5-5.056h50C117.761,348.528,120,350.792,120,353.584z M445,348.528h-50c-2.761,0-5,2.264-5,5.056v32.36
	c0,2.793,2.239,5.056,5,5.056h50c2.761,0,5-2.264,5-5.056v-32.36C450,350.792,447.761,348.528,445,348.528z"/>
<path style="fill:#52A5D8;" d="M466,141.225v111.236c0,5.585-4.477,10.112-10,10.112H266c-5.523,0-10-4.527-10-10.112
	c0,5.585-4.477,10.112-10,10.112H56c-5.523,0-10-4.527-10-10.112V141.225C46,130.055,54.954,121,66,121h170
	c11.046,0,20,9.055,20,20.225c0-11.17,8.954-20.225,20-20.225h170C457.046,121,466,130.055,466,141.225z"/>
<path style="fill:#4893C0;" d="M466,141.225v111.236c0,4.146-2.469,7.704-6,9.265V280H271v0.27h-30V280H50v-19.463
	c-2.425-1.845-4-4.771-4-8.076v-14.41h105.75c44.183,0,80-36.22,80-80.899V121H236c11.046,0,20,9.055,20,20.225v76.601
	c0,11.17,8.954,20.225,20,20.225h85.75c44.183,0,80-36.22,80-80.899V121H446C457.046,121,466,130.055,466,141.225z"/>
<path style="fill:#A2DAF9;" d="M512,217.067v131.461c0,5.585-4.477,10.112-10,10.112h-25h-15H50H35H10c-5.523,0-10-4.527-10-10.112
	V217.067c0-5.585,4.477-10.112,10-10.112h40c5.523,0,10,4.527,10,10.112v70.281h392v-70.281c0-5.585,4.477-10.112,10-10.112h40
	C507.523,206.955,512,211.482,512,217.067z"/>
<path style="fill:#84C5FA;" d="M512,217.067v131.461c0,5.585-4.477,10.112-10,10.112h-22c5.523,0,10-4.527,10-10.112V217.067
	c0-5.585-4.477-10.112-10-10.112h22C507.523,206.955,512,211.482,512,217.067z"/>
<path style="fill:#52A5D8;" d="M466,272.685v30.337c0,5.585-4.477,10.112-10,10.112H266c-5.523,0-10-4.527-10-10.112
	c0,5.585-4.477,10.112-10,10.112H56c-5.523,0-10-4.527-10-10.112v-30.337c0-5.585,4.477-10.112,10-10.112h190
	c5.523,0,10,4.527,10,10.112c0-5.585,4.477-10.112,10-10.112h190C461.523,262.573,466,267.1,466,272.685z"/>
<path style="fill:#70B5E8;" d="M230,272.685v30.337c0,5.585-4.477,10.112-10,10.112H56c-5.523,0-10-4.527-10-10.112v-30.337
	c0-5.585,4.477-10.112,10-10.112h164C225.523,262.573,230,267.1,230,272.685z M430,262.573H266c-5.523,0-10,4.527-10,10.112v30.337
	c0,5.585,4.477,10.112,10,10.112h164c5.523,0,10-4.527,10-10.112v-30.337C440,267.1,435.523,262.573,430,262.573z"/>
<g>
</g>
<g>
</g>
<g>
</g>
<g>
</g>
<g>
</g>
<g>
</g>
<g>
</g>
<g>
</g>
<g>
</g>
<g>
</g>
<g>
</g>
<g>
</g>
<g>
</g>
<g>
</g>
<g>
</g>
</svg>
