<?xml version="1.0" encoding="iso-8859-1"?>
<!-- Generator: Adobe Illustrator 18.0.0, SVG Export Plug-In . SVG Version: 6.00 Build 0)  -->
<!DOCTYPE svg PUBLIC "-//W3C//DTD SVG 1.1//EN" "http://www.w3.org/Graphics/SVG/1.1/DTD/svg11.dtd">
<svg xmlns="http://www.w3.org/2000/svg" xmlns:xlink="http://www.w3.org/1999/xlink" version="1.1" id="Capa_1" x="0px" y="0px" viewBox="0 0 362.666 362.666" style="enable-background:new 0 0 362.666 362.666;" xml:space="preserve" width="512px" height="512px">
<g>
	<path d="M339.106,205.998c-1.586-39.295-18.655-75.978-48.109-103.354c-29.585-27.498-68.534-42.642-109.674-42.642   s-80.09,15.144-109.675,42.642c-29.619,27.531-46.715,64.473-48.135,104.02c-0.192,5.339,3.847,9.886,9.171,10.325   c5.32,0.436,10.054-3.384,10.739-8.682c2.2-16.992,19.023-29.805,39.132-29.805c21.715,0,39.383,15.028,39.383,33.5   c0,5.523,4.478,10,10,10c5.523,0,10-4.477,10-10c0-15.534,12.496-28.629,29.385-32.403v140.268   c0,12.571-10.229,22.799-22.801,22.799c-12.57,0-22.797-10.228-22.797-22.799c0-5.523-4.478-10-10-10c-5.522,0-10,4.477-10,10   c0,23.599,19.198,42.799,42.797,42.799c23.601,0,42.801-19.2,42.801-42.799V179.6c16.889,3.774,29.384,16.869,29.384,32.402   c0,5.523,4.477,10,10,10s10-4.477,10-10c0-18.472,17.668-33.5,39.384-33.5c20.109,0,36.932,12.813,39.131,29.805   c0.65,5.021,4.932,8.716,9.908,8.716c0.058,0,0.115,0,0.173-0.001c5.456-0.077,9.856-4.524,9.856-9.999   C339.159,206.677,339.142,206.335,339.106,205.998z" fill="#3e57f7"/>
	<path d="M44.075,32.809c1.845,1.475,4.051,2.192,6.241,2.192c2.934,0,5.841-1.285,7.815-3.753l12-15   c3.45-4.313,2.751-10.605-1.562-14.056c-4.312-3.45-10.605-2.75-14.056,1.561l-12,15C39.064,23.065,39.764,29.358,44.075,32.809z" fill="#3e57f7"/>
	<path d="M94.075,32.809c1.845,1.475,4.051,2.192,6.241,2.192c2.934,0,5.841-1.285,7.815-3.753l12-15   c3.45-4.313,2.751-10.605-1.562-14.056c-4.313-3.45-10.606-2.75-14.056,1.561l-12,15C89.064,23.065,89.764,29.358,94.075,32.809z" fill="#3e57f7"/>
	<path d="M144.075,32.809c1.845,1.475,4.051,2.192,6.241,2.192c2.934,0,5.841-1.285,7.815-3.753l12-15   c3.45-4.313,2.751-10.605-1.562-14.056c-4.313-3.45-10.606-2.75-14.056,1.561l-12,15C139.064,23.065,139.764,29.358,144.075,32.809   z" fill="#3e57f7"/>
	<path d="M194.075,32.809c1.845,1.475,4.051,2.192,6.241,2.192c2.934,0,5.841-1.285,7.815-3.753l12-15   c3.45-4.313,2.751-10.605-1.562-14.056c-4.313-3.45-10.606-2.75-14.056,1.561l-12,15C189.064,23.065,189.764,29.358,194.075,32.809   z" fill="#3e57f7"/>
	<path d="M244.075,32.809c1.845,1.475,4.051,2.192,6.241,2.192c2.934,0,5.841-1.285,7.815-3.753l12-15   c3.45-4.313,2.751-10.605-1.561-14.056c-4.314-3.45-10.605-2.75-14.056,1.561l-12,15C239.064,23.065,239.764,29.358,244.075,32.809   z" fill="#3e57f7"/>
	<path d="M294.075,32.809c1.845,1.475,4.051,2.192,6.241,2.192c2.934,0,5.841-1.285,7.815-3.753l12-15   c3.45-4.313,2.751-10.605-1.561-14.056c-4.312-3.45-10.605-2.75-14.056,1.561l-12,15C289.064,23.065,289.764,29.358,294.075,32.809   z" fill="#3e57f7"/>
</g>
<g>
</g>
<g>
</g>
<g>
</g>
<g>
</g>
<g>
</g>
<g>
</g>
<g>
</g>
<g>
</g>
<g>
</g>
<g>
</g>
<g>
</g>
<g>
</g>
<g>
</g>
<g>
</g>
<g>
</g>
</svg>
