<?xml version="1.0" encoding="iso-8859-1"?>
<!-- Generator: Adobe Illustrator 19.0.0, SVG Export Plug-In . SVG Version: 6.00 Build 0)  -->
<svg version="1.1" id="Layer_1" xmlns="http://www.w3.org/2000/svg" xmlns:xlink="http://www.w3.org/1999/xlink" x="0px" y="0px"
	 viewBox="0 0 511.98 511.98" style="enable-background:new 0 0 511.98 511.98;" xml:space="preserve">
<path style="fill:#ED5564;" d="M250.647,277.333c-5.89,0-10.671-4.766-10.671-10.656v-21.343c0-5.891,4.781-10.656,10.671-10.656
	c5.891,0,10.672,4.766,10.672,10.656v21.343C261.319,272.567,256.538,277.333,250.647,277.333z"/>
<g>
	<path style="fill:#434A54;" d="M157.323,511.98c-36.28,0-85.075-14.516-145.932-43.483c-5.312-2.531-7.578-8.891-5.047-14.218
		c2.531-5.312,8.891-7.578,14.218-5.047c48.436,23.062,88.81,36.64,119.996,40.39c23.078,2.765,40.623,0.156,52.139-7.75
		c16.968-11.656,15.609-31.921,15.546-32.78l0.016,0.078l21.233-1.938c0.125,1.344,2.703,33.108-24.374,51.982
		C192.915,507.73,176.947,511.98,157.323,511.98z"/>
	<path style="fill:#434A54;" d="M218.633,234.678c-5.89,0-10.671-4.781-10.671-10.67V85.34c0-4.906,3.328-9.172,8.078-10.359
		l85.356-21.327c5.719-1.422,11.5,2.047,12.937,7.765c1.422,5.719-2.046,11.5-7.765,12.937L229.29,93.668v130.339
		C229.289,229.897,224.524,234.678,218.633,234.678z"/>
</g>
<path style="fill:#656D78;" d="M229.32,362.86h-21.108c-5.891,0-10.672,4.781-10.672,10.672v74.669
	c0,5.891,4.781,10.672,10.672,10.672h21.108c5.89,0,10.656-4.781,10.656-10.672v-74.669
	C239.976,367.641,235.21,362.86,229.32,362.86z"/>
<g>
	<path style="fill:#434A54;" d="M229.32,437.529c0,5.891,4.765,10.672,10.656,10.672v-21.343
		C234.085,426.858,229.32,431.638,229.32,437.529z"/>
	<path style="fill:#434A54;" d="M208.212,437.529c0-5.891-4.781-10.671-10.672-10.671v21.343
		C203.43,448.201,208.212,443.42,208.212,437.529z"/>
</g>
<g>
	<path style="fill:#FFCE54;" d="M240.21,213.335h-42.67c-5.89,0-10.671,4.781-10.671,10.672v181.524
		c0,5.891,4.781,10.672,10.671,10.672h42.67c5.891,0,10.671-4.781,10.671-10.672V224.007
		C250.882,218.116,246.101,213.335,240.21,213.335z"/>
	<path style="fill:#FFCE54;" d="M366.252,67.794c-17.171,4.187-33.342-1.703-36.139-13.155
		c-2.781-11.438,8.875-24.109,26.046-28.296c17.171-4.188,136.995-23.546,139.775-12.109
		C498.731,25.686,383.424,63.606,366.252,67.794z"/>
</g>
<path style="fill:#F6BB42;" d="M355.284,79.809c-17.952,0-32.233-9.094-35.53-22.639c-4.25-17.438,10.641-35.53,33.874-41.187
	C366.315,12.889,443.108,0,479.076,0c9.109,0,24.374,0,27.218,11.718c1.453,5.953-1.281,11.516-8.109,16.531
	c-3.344,2.453-7.999,5.125-14.233,8.171c-10.03,4.922-24.03,10.734-41.64,17.312c-30.154,11.265-64.216,22.155-73.528,24.42
	C364.283,79.246,359.753,79.809,355.284,79.809z M464.546,21.889c-36.484,2.422-94.372,12.015-105.855,14.812
	c-12.656,3.094-19.233,11.188-18.202,15.422c0.75,3.125,6.499,6.359,14.796,6.359c2.766,0,5.609-0.359,8.452-1.047
	c7.703-1.875,36.531-11.047,64.138-21.109C444.139,30.389,455.968,25.639,464.546,21.889z"/>
<g>
</g>
<g>
</g>
<g>
</g>
<g>
</g>
<g>
</g>
<g>
</g>
<g>
</g>
<g>
</g>
<g>
</g>
<g>
</g>
<g>
</g>
<g>
</g>
<g>
</g>
<g>
</g>
<g>
</g>
</svg>
