<?xml version="1.0" encoding="iso-8859-1"?>
<!-- Generator: Adobe Illustrator 19.0.0, SVG Export Plug-In . SVG Version: 6.00 Build 0)  -->
<svg version="1.1" id="Layer_1" xmlns="http://www.w3.org/2000/svg" xmlns:xlink="http://www.w3.org/1999/xlink" x="0px" y="0px"
	 viewBox="0 0 464 464" style="enable-background:new 0 0 464 464;" xml:space="preserve">
<g>
	<path style="fill:#9D9396;" d="M418.824,160H398.25c-7.359,0-13.742,4.98-15.523,12.117L372.756,212h16.492l9.002-36h20.574
		L418.824,160L418.824,160z"/>
	<g>
		<g>
			<path style="fill:#5F505A;" d="M440,176h-24c-4.418,0-8-3.582-8-8l0,0c0-4.418,3.582-8,8-8h24c4.418,0,8,3.582,8,8l0,0
				C448,172.418,444.418,176,440,176z"/>
		</g>
	</g>
	<g>
		<g>
			<g>
				<path style="fill:#ABA2A5;" d="M96.008,440c-2.781,0-5.477-1.445-6.953-4.031c-2.195-3.836-0.859-8.723,2.977-10.914l224-128
					c3.828-2.203,8.719-0.863,10.914,2.977c2.195,3.836,0.859,8.723-2.977,10.914l-224,128C98.719,439.66,97.352,440,96.008,440z"/>
			</g>
		</g>
	</g>
	<g>
		<g>
			<g>
				<path style="fill:#9D9396;" d="M319.992,440c-1.344,0-2.711-0.34-3.961-1.055l-224-128c-3.836-2.191-5.172-7.078-2.977-10.914
					c2.188-3.84,7.07-5.18,10.914-2.977l224,128c3.836,2.191,5.172,7.078,2.977,10.914C325.469,438.555,322.773,440,319.992,440z"/>
			</g>
		</g>
	</g>
	<g>
		<g>
			<path style="fill:#FF6472;" d="M124.046,31.869c-0.021,0.012-0.041,0.023-0.061,0.035c-17.453,52.415-75.658,75.91-76.08,76.08
				c-0.012,0.02-0.022,0.04-0.034,0.06C56.481,169.02,20,212,20,212h208V4C211.506,18.995,167.531,35.486,124.046,31.869z"/>
		</g>
	</g>
	<g>
		<g>
			<path style="fill:#DC5869;" d="M228,212V4c-9.658,8.78-28.769,18.042-51.657,23.512L228,212z"/>
		</g>
	</g>
	<g>
		<g>
			<path style="fill:#DC5869;" d="M123.973,31.935c-6.321,18.96-17.983,34.083-30.301,45.737L228,212L124.046,31.869L123.973,31.935
				z"/>
		</g>
	</g>
	<g>
		<g>
			<path style="fill:#DC5869;" d="M44.284,162.538L228,212L47.871,108.043C50.773,128.597,48.504,147.031,44.284,162.538z"/>
		</g>
	</g>
	<g>
		<g>
			<circle style="fill:#5F505A;" cx="96" cy="432" r="32"/>
		</g>
	</g>
	<g>
		<g>
			<circle style="fill:#503C46;" cx="96" cy="432" r="12"/>
		</g>
	</g>
	<g>
		<g>
			<circle style="fill:#5F505A;" cx="320" cy="432" r="32"/>
		</g>
	</g>
	<g>
		<g>
			<circle style="fill:#503C46;" cx="320" cy="432" r="12"/>
		</g>
	</g>
	<g>
		<g>
			<path style="fill:#FF6472;" d="M392,216H24l19.455,77.821C46.126,304.505,55.726,312,66.739,312h282.523
				c11.013,0,20.612-7.495,23.283-18.179L392,216z"/>
		</g>
	</g>
	<g>
		<g>
			<polygon style="fill:#DC5869;" points="382,256 392,216 24,216 34,256 			"/>
		</g>
	</g>
	<path style="fill:#C95264;" d="M396,208H232V4c0-2.211-1.789-4-4-4s-4,1.789-4,4v193.077l-96.539-167.21
		c-1.102-1.922-3.555-2.563-5.461-1.465c-1.914,1.105-2.57,3.551-1.461,5.465l96.537,167.206L49.867,104.535
		c-1.906-1.09-4.359-0.449-5.461,1.465c-1.109,1.914-0.453,4.359,1.461,5.465L213.071,208H20c-2.209,0-4,1.791-4,4l0,0
		c0,2.209,1.791,4,4,4h376c2.209,0,4-1.791,4-4l0,0C400,209.791,398.209,208,396,208z"/>
</g>
<g>
</g>
<g>
</g>
<g>
</g>
<g>
</g>
<g>
</g>
<g>
</g>
<g>
</g>
<g>
</g>
<g>
</g>
<g>
</g>
<g>
</g>
<g>
</g>
<g>
</g>
<g>
</g>
<g>
</g>
</svg>
