<?xml version="1.0" encoding="iso-8859-1"?>
<!-- Generator: Adobe Illustrator 19.0.0, SVG Export Plug-In . SVG Version: 6.00 Build 0)  -->
<svg version="1.1" id="Capa_1" xmlns="http://www.w3.org/2000/svg" xmlns:xlink="http://www.w3.org/1999/xlink" x="0px" y="0px"
	 viewBox="0 0 512.001 512.001" style="enable-background:new 0 0 512.001 512.001;" xml:space="preserve">
<path style="fill:#DD2E44;" d="M165.347,102.362c-1.593,1.593-2.802,3.513-3.812,5.618l-0.114-0.114L1.905,467.188l0.157,0.157
	c-2.958,5.732,1.991,17.394,12.132,27.548c10.126,10.126,21.788,15.076,27.52,12.117l0.142,0.142l359.351-159.501l-0.114-0.128
	c2.105-0.996,4.01-2.204,5.618-3.812c22.215-22.215-13.81-94.25-80.454-160.895C259.61,116.157,187.562,80.146,165.347,102.362"/>
<path style="fill:#EA596E;" d="M184.888,166.528L5.917,458.168l-4.01,9.031l0.157,0.142c-2.958,5.745,1.991,17.394,12.132,27.548
	c3.299,3.299,6.713,5.803,10.083,7.922l217.499-265.172L184.888,166.528z"/>
<path style="fill:#A0041E;" d="M327.276,181.687c66.417,66.446,103.296,137.272,82.332,158.207
	c-20.949,20.963-91.776-15.901-158.236-82.318c-66.432-66.446-103.296-137.287-82.346-158.236
	C189.99,78.377,260.816,115.255,327.276,181.687"/>
<path style="fill:#AA8DD8;" d="M264.389,189.415c-2.83,2.29-6.528,3.484-10.439,3.058c-12.345-1.336-22.713-5.632-29.994-12.416
	c-7.695-7.182-11.492-16.81-10.453-26.481c1.821-16.953,18.83-32.512,47.829-29.383c11.278,1.209,16.313-2.403,16.469-4.139
	c0.199-1.721-3.939-6.344-15.203-7.566c-12.359-1.336-22.727-5.632-30.009-12.416c-7.695-7.182-11.505-16.825-10.453-26.481
	c1.849-16.967,18.844-32.512,47.815-29.383c8.221,0.896,12.544-0.81,14.379-1.905c1.479-0.896,2.062-1.75,2.119-2.247
	c0.157-1.707-3.926-6.329-15.232-7.552c-7.794-0.853-13.455-7.865-12.601-15.673c0.839-7.808,7.837-13.455,15.659-12.601
	c28.97,3.114,42.283,21.93,40.447,38.898c-1.834,16.953-18.83,32.498-47.829,29.369c-8.221-0.896-12.515,0.81-14.364,1.905
	c-1.465,0.896-2.062,1.763-2.119,2.233c-0.185,1.735,3.939,6.357,15.232,7.566c28.97,3.129,42.283,21.945,40.447,38.912
	c-1.834,16.953-18.844,32.512-47.815,29.369c-8.221-0.882-12.544,0.81-14.393,1.905c-1.465,0.896-2.034,1.763-2.09,2.247
	c-0.185,1.721,3.926,6.343,15.218,7.552c7.794,0.853,13.468,7.865,12.601,15.673C269.196,183.769,267.22,187.126,264.389,189.415"/>
<path style="fill:#77B255;" d="M436.07,320.943c28.061-7.922,47.416,4.594,52.025,21.021c4.608,16.412-5.376,37.191-33.407,45.07
	c-10.951,3.072-14.237,8.305-13.795,9.984c0.483,1.678,6.044,4.437,16.967,1.336c28.046-7.879,47.403,4.637,52.01,21.049
	c4.65,16.427-5.362,37.176-33.422,45.084c-10.936,3.072-14.237,8.32-13.753,9.984c0.47,1.664,6.016,4.409,16.953,1.351
	c7.552-2.133,15.416,2.276,17.55,9.828c2.105,7.566-2.29,15.416-9.87,17.55c-28.018,7.893-47.403-4.594-52.038-21.034
	c-4.608-16.412,5.39-37.163,33.465-45.07c10.936-3.086,14.237-8.305,13.753-9.984c-0.47-1.664-6.002-4.437-16.939-1.366
	c-28.061,7.908-47.416-4.579-52.038-21.021c-4.622-16.427,5.376-37.176,33.45-45.084c10.908-3.058,14.208-8.32,13.739-9.97
	c-0.483-1.692-6.002-4.452-16.953-1.366c-7.566,2.133-15.403-2.276-17.536-9.842C424.095,330.914,428.504,323.063,436.07,320.943"/>
<path style="fill:#AA8DD8;" d="M327.124,282.583c-4.181,0-8.305-1.834-11.122-5.333c-4.907-6.144-3.911-15.09,2.219-19.997
	c3.101-2.489,77.056-60.572,181.574-45.625c7.779,1.11,13.17,8.305,12.061,16.086c-1.11,7.766-8.249,13.227-16.099,12.061
	c-92.345-13.113-159.103,39.167-159.758,39.694C333.367,281.573,330.238,282.583,327.124,282.583"/>
<path style="fill:#77B255;" d="M81.839,223.416c-1.351,0-2.73-0.199-4.096-0.597c-7.523-2.261-11.79-10.197-9.529-17.721
	C84.328,151.438,98.935,65.82,80.986,43.492c-2.019-2.532-5.034-5.021-11.975-4.495c-13.354,1.01-12.074,29.17-12.061,29.454
	c0.597,7.837-5.29,14.663-13.113,15.246c-7.95,0.483-14.677-5.29-15.246-13.127c-1.479-19.612,4.637-57.386,38.272-59.932
	c15.018-1.138,27.491,4.083,36.308,15.034c33.721,41.97-0.512,163.641-7.723,187.618C93.602,219.449,87.955,223.416,81.839,223.416"
	/>
<path style="fill:#5C913B;" d="M383.998,130.972c0,11.776-9.557,21.333-21.333,21.333c-11.776,0-21.333-9.557-21.333-21.333
	c0-11.776,9.557-21.333,21.333-21.333C374.441,109.639,383.998,119.196,383.998,130.972"/>
<path style="fill:#9266CC;" d="M56.889,251.861c0,15.701-12.743,28.444-28.444,28.444S0,267.562,0,251.861
	c0-15.715,12.743-28.444,28.444-28.444S56.889,236.145,56.889,251.861"/>
<g>
	<path style="fill:#5C913B;" d="M483.553,273.194c0,11.776-9.557,21.333-21.333,21.333c-11.776,0-21.333-9.557-21.333-21.333
		c0-11.776,9.557-21.333,21.333-21.333C473.996,251.861,483.553,261.418,483.553,273.194"/>
	<path style="fill:#5C913B;" d="M355.554,443.856c0,11.776-9.557,21.333-21.333,21.333c-11.776,0-21.333-9.557-21.333-21.333
		c0-11.776,9.557-21.333,21.333-21.333C345.997,422.522,355.554,432.079,355.554,443.856"/>
</g>
<g>
	<path style="fill:#FFCC4D;" d="M426.665,52.751c0,15.701-12.729,28.444-28.444,28.444c-15.701,0-28.444-12.743-28.444-28.444
		c0-15.715,12.743-28.444,28.444-28.444C413.936,24.306,426.665,37.035,426.665,52.751"/>
	<path style="fill:#FFCC4D;" d="M483.553,116.75c0,11.776-9.557,21.333-21.333,21.333c-11.776,0-21.333-9.557-21.333-21.333
		s9.557-21.333,21.333-21.333C473.996,95.417,483.553,104.974,483.553,116.75"/>
	<path style="fill:#FFCC4D;" d="M440.887,173.639c0,11.776-9.557,21.333-21.333,21.333c-11.776,0-21.333-9.557-21.333-21.333
		s9.557-21.333,21.333-21.333C431.33,152.306,440.887,161.863,440.887,173.639"/>
	<path style="fill:#FFCC4D;" d="M127.999,330.083c0,11.776-9.557,21.333-21.333,21.333s-21.333-9.557-21.333-21.333
		c0-11.776,9.557-21.333,21.333-21.333S127.999,318.306,127.999,330.083"/>
</g>
<g>
</g>
<g>
</g>
<g>
</g>
<g>
</g>
<g>
</g>
<g>
</g>
<g>
</g>
<g>
</g>
<g>
</g>
<g>
</g>
<g>
</g>
<g>
</g>
<g>
</g>
<g>
</g>
<g>
</g>
</svg>
