<?xml version="1.0" encoding="iso-8859-1"?>
<!-- Generator: Adobe Illustrator 19.0.0, SVG Export Plug-In . SVG Version: 6.00 Build 0)  -->
<svg version="1.1" id="Capa_1" xmlns="http://www.w3.org/2000/svg" xmlns:xlink="http://www.w3.org/1999/xlink" x="0px" y="0px"
	 viewBox="0 0 512.001 512.001" style="enable-background:new 0 0 512.001 512.001;" xml:space="preserve">
<path style="fill:#C43D3D;" d="M421.089,17.641H90.911c-35.799,0-64.82,29.021-64.82,64.82v272.201H485.91V82.461
	C485.909,46.662,456.888,17.641,421.089,17.641z"/>
<path style="fill:#AD3434;" d="M421.089,17.641h-55.036c35.799,0,64.82,29.021,64.82,64.82v272.201h55.036V82.461
	C485.909,46.662,456.888,17.641,421.089,17.641z"/>
<path style="fill:#F2EBDA;" d="M457.042,354.661v-272.2c0-19.824-16.128-35.953-35.953-35.953H90.911
	c-19.824,0-35.953,16.128-35.953,35.953v272.201L457.042,354.661L457.042,354.661z"/>
<path style="fill:#DDD5C5;" d="M421.089,46.508h-54.23c19.824,0,35.953,16.128,35.953,35.953v272.201h54.23V82.461
	C457.042,62.636,440.914,46.508,421.089,46.508z"/>
<path style="fill:#F0CB4D;" d="M256,153.693c-71.69,0-129.805,58.116-129.805,129.805c0,71.69,58.116,129.806,129.805,129.806
	s129.805-58.116,129.805-129.806C385.805,211.809,327.69,153.693,256,153.693z M256,376.343c-51.277,0-92.844-41.568-92.844-92.844
	s41.568-92.844,92.844-92.844s92.844,41.568,92.844,92.844S307.277,376.343,256,376.343z"/>
<path style="fill:#F5B350;" d="M256,173.672c-60.656,0-109.827,49.171-109.827,109.827S195.344,393.326,256,393.326
	s109.827-49.171,109.827-109.827S316.656,173.672,256,173.672z M256,376.343c-51.277,0-92.844-41.568-92.844-92.844
	s41.568-92.844,92.844-92.844s92.844,41.568,92.844,92.844S307.277,376.343,256,376.343z"/>
<polygon style="fill:#53E7D3;" points="256,190.654 184.264,123.975 211.665,83.169 300.335,83.169 327.736,123.975 "/>
<g>
	<polygon style="fill:#1BCCC7;" points="256,83.169 256,190.654 327.736,123.975 300.335,83.169 	"/>
	<polygon style="fill:#1BCCC7;" points="327.694,123.913 300.335,83.169 211.665,83.169 184.306,123.913 	"/>
</g>
<polygon style="fill:#53E7D3;" points="327.694,123.913 300.335,83.169 256,83.169 256,123.913 "/>
<path style="fill:#927266;" d="M463.126,414.02H48.874v-52.177c0-43.268,35.076-78.344,78.344-78.344h257.564
	c43.268,0,78.344,35.076,78.344,78.344L463.126,414.02L463.126,414.02z"/>
<path style="fill:#82635A;" d="M384.782,283.499h-56.806c43.268,0,78.344,35.076,78.344,78.344v52.177h56.806v-52.177
	C463.126,318.574,428.05,283.499,384.782,283.499z"/>
<path style="fill:#FF4C4C;" d="M418.558,494.359H93.442C41.835,494.359,0,452.524,0,400.918v-35.37
	c0-12.086,9.798-21.884,21.884-21.884h468.233c12.086,0,21.884,9.798,21.884,21.884v35.37
	C512,452.524,470.165,494.359,418.558,494.359z"/>
<path style="fill:#F33A3A;" d="M490.116,343.664h-54.958c12.086,0,21.883,9.798,21.883,21.884v35.37
	c0,7.888-1.009,15.174-2.7,21.847c-7.889,31.129-36.33,52.648-68.443,52.648H93.442C41.835,475.412,0,433.577,0,381.97v18.947
	c0,51.607,41.835,93.442,93.442,93.442H363.6h54.958c51.607,0,93.442-41.835,93.442-93.442V381.97v-16.422
	C512,353.462,502.202,343.664,490.116,343.664z"/>
<path style="fill:#F0CB4D;" d="M290.36,385.56h-68.72c-6.267,0-11.347-5.08-11.347-11.347v-30.549h91.414v30.549
	C301.707,380.48,296.627,385.56,290.36,385.56z"/>
<path style="fill:#E0B744;" d="M256,385.56h34.36c6.267,0,11.347-5.08,11.347-11.347v-30.549H256V385.56z"/>
<g>
</g>
<g>
</g>
<g>
</g>
<g>
</g>
<g>
</g>
<g>
</g>
<g>
</g>
<g>
</g>
<g>
</g>
<g>
</g>
<g>
</g>
<g>
</g>
<g>
</g>
<g>
</g>
<g>
</g>
</svg>
