<?xml version="1.0" encoding="iso-8859-1"?>
<!-- Generator: Adobe Illustrator 19.0.0, SVG Export Plug-In . SVG Version: 6.00 Build 0)  -->
<svg version="1.1" id="Layer_1" xmlns="http://www.w3.org/2000/svg" xmlns:xlink="http://www.w3.org/1999/xlink" x="0px" y="0px"
	 viewBox="0 0 418.961 418.961" style="enable-background:new 0 0 418.961 418.961;" xml:space="preserve">
<g>
	<g>
		<path style="fill:#57C3FF;" d="M209.48,6.24v215.99c-45.56,0-82.49-87.94-82.49-133.5S163.92,6.24,209.48,6.24z"/>
		<path style="fill:#DD4545;" d="M209.48,6.24v215.99c-45.56,0-82.49-87.94-82.49-133.5S163.92,6.24,209.48,6.24z"/>
	</g>
	<g>
		<path style="fill:#F75959;" d="M209.48,222.229c-14.08,43.33-109.12,51.28-152.45,37.2s-67.05-60.62-52.97-103.95
			s60.62-67.04,103.96-52.96C151.35,116.589,223.56,178.889,209.48,222.229z"/>
		<path style="fill:#DD4545;" d="M209.48,222.229c-14.08,43.33-109.12,51.28-152.45,37.2s-67.05-60.62-52.97-103.95L209.48,222.229z
			"/>
	</g>
	<g>
		<path style="fill:#F75959;" d="M197.76,378.709c-26.78,36.86-78.37,45.03-115.23,18.25s-45.03-78.37-18.25-115.23
			s108.34-86.28,145.2-59.5S224.54,341.849,197.76,378.709z"/>
		<path style="fill:#DD4545;" d="M197.76,378.709c-26.78,36.86-78.37,45.03-115.23,18.25l126.95-174.73
			C246.34,249.009,224.54,341.849,197.76,378.709z"/>
	</g>
	<g>
		<path style="fill:#F75959;" d="M336.44,396.959c-36.86,26.78-88.45,18.61-115.23-18.25s-48.59-129.7-11.73-156.48
			s118.43,22.64,145.21,59.5S373.3,370.18,336.44,396.959z"/>
		<path style="fill:#DD4545;" d="M336.44,396.959l-126.96-174.73c36.86-26.78,118.43,22.64,145.21,59.5S373.3,370.18,336.44,396.959
			z"/>
	</g>
	<g>
		<path style="fill:#F75959;" d="M361.93,259.43c-43.33,14.08-138.37,6.13-152.45-37.2c-1.905-5.863-2.23-12.073-1.261-18.463
			c0.159-1.047,2.288-1.961,2.515-3.017c0.262-1.219-1.367-2.581-1.018-3.81c11.153-39.239,65.835-82.925,101.235-94.42
			c43.33-14.08,89.87,9.63,103.95,52.96S405.27,245.349,361.93,259.43z"/>
		<path style="fill:#DD4545;" d="M414.9,155.479l-205.42,66.75c-1.381-4.252-1.932-8.687-1.761-13.241
			c0.098-2.616,2.46-5.556,3.014-8.239s-0.699-5.108,0.27-7.833c13.567-38.154,65.752-79.293,99.946-90.396
			C354.28,88.439,400.82,112.149,414.9,155.479z"/>
	</g>
	<path style="fill:#F75959;" d="M291.98,88.729c0,45.56-36.94,133.5-82.5,133.5V6.24C255.04,6.24,291.98,43.169,291.98,88.729z"/>
	<circle style="fill:#FFDE55;" cx="209.48" cy="222.229" r="19.529"/>
</g>
<g>
</g>
<g>
</g>
<g>
</g>
<g>
</g>
<g>
</g>
<g>
</g>
<g>
</g>
<g>
</g>
<g>
</g>
<g>
</g>
<g>
</g>
<g>
</g>
<g>
</g>
<g>
</g>
<g>
</g>
</svg>
