<?xml version="1.0" encoding="iso-8859-1"?>
<!-- Generator: Adobe Illustrator 19.0.0, SVG Export Plug-In . SVG Version: 6.00 Build 0)  -->
<svg version="1.1" id="Capa_1" xmlns="http://www.w3.org/2000/svg" xmlns:xlink="http://www.w3.org/1999/xlink" x="0px" y="0px"
	 viewBox="0 0 512 512" style="enable-background:new 0 0 512 512;" xml:space="preserve">
<path style="fill:#FF8546;" d="M169.914,235.488c-34.479,0-62.533-28.053-62.533-62.534c0-10.078,2.45-20.039,7.103-28.939
	c0.272-0.654,0.588-1.295,0.948-1.919l39.846-69.017c2.99-5.178,8.514-8.367,14.492-8.367s11.505,3.19,14.492,8.367l37.418,64.813
	c7.044,10.379,10.762,22.485,10.762,35.063C232.444,207.436,204.393,235.488,169.914,235.488z"/>
<path style="fill:#E03905;" d="M221.681,137.893L184.263,73.08c-2.989-5.178-8.514-8.367-14.492-8.367
	c-0.209,0-0.414,0.012-0.62,0.021v170.736c0.255,0.003,0.508,0.019,0.763,0.019c34.479,0,62.53-28.053,62.53-62.534
	C232.444,160.378,228.726,148.271,221.681,137.893z"/>
<path style="fill:#F5CDB3;" d="M169.912,285.722c-9.242,0-16.735-7.492-16.735-16.735v-86.36c0-9.242,7.493-16.735,16.735-16.735
	s16.735,7.493,16.735,16.735v86.36C186.647,278.23,179.155,285.722,169.912,285.722z"/>
<path style="fill:#707070;" d="M275.441,398.868H64.384c-4.293,0-8.421-1.649-11.531-4.608C18.77,361.855,0,318.118,0,271.108
	c0-9.242,7.493-16.735,16.735-16.735H323.09c9.242,0,16.735,7.493,16.735,16.735c0,47.01-18.77,90.747-52.852,123.152
	C283.862,397.218,279.733,398.868,275.441,398.868z"/>
<path style="fill:#575757;" d="M323.09,254.373H169.15v144.494h106.291c4.293,0,8.421-1.65,11.531-4.608
	c34.082-32.405,52.852-76.141,52.852-123.152C339.825,261.866,332.332,254.373,323.09,254.373z"/>
<path style="fill:#707070;" d="M323.09,254.373h-66.427v144.494h18.779c4.293,0,8.421-1.649,11.531-4.608
	c34.082-32.405,52.852-76.141,52.852-123.152C339.825,261.866,332.332,254.373,323.09,254.373z"/>
<path style="fill:#575757;" d="M283.598,327.232c-2.584,0-5.182-0.648-7.54-1.972c-5.632-3.161-8.695-9.499-7.674-15.875
	c1.071-6.687,27.412-163.777,130.636-163.777c32.676,0,68.848,16.543,107.507,49.169c4.467,3.769,6.416,9.74,5.035,15.42
	c-1.381,5.679-5.856,10.087-11.555,11.383c-1.18,0.269-119.749,27.992-206.401,101.962
	C290.751,325.981,287.188,327.232,283.598,327.232z"/>
<path style="fill:#06ABA4;" d="M294.533,318.621c-5.935,0-11.406-3.428-13.957-8.89c-2.158-4.618-52.318-113.974-7.588-190.731
	c23.582-40.466,68.241-63.555,132.738-68.627c6-0.466,11.745,2.603,14.675,7.874c2.931,5.269,2.519,11.763-1.053,16.621
	c-0.8,1.088-80.581,110.626-109.83,231.953c-1.534,6.365-6.924,11.066-13.439,11.721
	C295.562,318.594,295.045,318.621,294.533,318.621z"/>
<path style="fill:#FF8546;" d="M309.36,461.674c-20.282,0-37.566-13.199-43.699-31.459c-3.077,0.644-6.22,0.972-9.379,0.972
	c-16.375,0-31.653-8.788-39.874-22.936l-3.663-6.306c-6.182-10.639-7.852-23.054-4.698-34.954
	c1.868-7.049,5.296-13.417,9.993-18.723c-12.845-14.395-15.729-35.98-5.625-53.617l3.619-6.321
	c8.192-14.303,23.526-23.187,40.018-23.187c3.148,0,6.284,0.327,9.355,0.967c6.026-18.44,23.392-31.8,43.817-31.8h7.288
	c20.335,0,37.634,13.237,43.736,31.549c3.046-0.629,6.158-0.953,9.283-0.953c16.414,0,31.71,8.822,39.92,23.022l3.647,6.303
	c10.177,17.6,7.383,39.195-5.403,53.644c4.718,5.285,8.173,11.641,10.071,18.682c3.202,11.885,1.585,24.307-4.554,34.976l-3.64,6.32
	c-8.196,14.245-23.511,23.097-39.963,23.097h-0.001c-3.088,0-6.161-0.315-9.173-0.929c-2.213,6.732-5.986,12.904-11.133,18.071
	c-8.687,8.722-20.249,13.54-32.559,13.564l-7.285,0.016C309.448,461.674,309.372,461.674,309.36,461.674z"/>
<path style="fill:#4CD6D5;" d="M312.835,390.577c-23.482,0-42.586-19.103-42.586-42.586c0-23.482,19.103-42.587,42.586-42.587
	c23.484,0,42.588,19.105,42.588,42.587C355.423,371.474,336.318,390.577,312.835,390.577z"/>
<path style="fill:#E03905;" d="M417.767,366.558c-1.898-7.042-5.353-13.397-10.071-18.682c12.787-14.449,15.58-36.045,5.403-53.644
	l-3.647-6.303c-8.21-14.2-23.507-23.022-39.921-23.022c-3.126,0-6.238,0.322-9.283,0.953c-6.102-18.311-23.402-31.549-43.736-31.549
	h-2.108v227.353l2.341-0.004c12.309-0.025,23.872-4.842,32.559-13.564c5.147-5.168,8.919-11.34,11.133-18.071
	c3.011,0.615,6.085,0.929,9.173,0.929h0.001c16.452,0,31.768-8.854,39.963-23.097l3.64-6.32
	C419.352,390.865,420.969,378.443,417.767,366.558z"/>
<path style="fill:#06ABA4;" d="M314.404,305.447v85.089c22.758-0.83,41.019-19.588,41.019-42.543
	C355.423,325.037,337.162,306.276,314.404,305.447z"/>
<g>
</g>
<g>
</g>
<g>
</g>
<g>
</g>
<g>
</g>
<g>
</g>
<g>
</g>
<g>
</g>
<g>
</g>
<g>
</g>
<g>
</g>
<g>
</g>
<g>
</g>
<g>
</g>
<g>
</g>
</svg>
