<?xml version="1.0" encoding="iso-8859-1"?>
<!-- Generator: Adobe Illustrator 19.0.0, SVG Export Plug-In . SVG Version: 6.00 Build 0)  -->
<svg version="1.1" id="Capa_1" xmlns="http://www.w3.org/2000/svg" xmlns:xlink="http://www.w3.org/1999/xlink" x="0px" y="0px"
	 viewBox="0 0 57 57" style="enable-background:new 0 0 57 57;" xml:space="preserve">
<path style="fill:#8697CB;" d="M9.342,19.582c2.022-2.311,5.909-3.755,9.653-0.917c1.009,0.765,1.789,1.819,2.171,3.026
	c1.255,3.963-0.847,7.835-4.236,8.918c-1.162,0.371-1.926,1.483-1.926,2.702v0.077c0,1.414,1.039,2.573,2.428,2.833
	c4.38,0.82,7.477,3.838,7.477,7.618c0,4.448-6.031,8.16-9.906,8.16C8.858,52,1.755,39.256,1.054,38.086
	c-0.027,0.011-0.026,0.01-0.053,0.021C0.797,49.093,7.556,57,14.72,57c8.427,0,15.283-5.904,15.283-13.16
	c0-1.145-0.156-2.236-0.455-3.264c3.152-1.092,10.344-4.213,14.218-11.319c0.374-0.686,1.045-1.105,1.745-1.105
	c0.058,0,0.116,0.002,0.174,0.008c2.279,0.23,3.805,1.864,4.666,4.993c1.074,3.903,0.593,8.197-1.321,11.781
	c-1.403,2.627-3.001,3.96-4.798,3.961c0,0,0,0-0.001,0c-0.058,0-2.361-0.032-3.787-1.432c-0.451-0.443-4.726-3.969-6.184-4.416
	c-0.135-0.041-0.271,0.052-0.283,0.192c-0.086,0.977-0.191,4.769,2.899,7.858c2.779,2.779,6.622,2.891,7.323,2.891
	c0.035,0,0.061-0.001,0.08-0.001c2.597,0,6.309-1.155,9.245-6.656c2.521-4.722,3.155-10.383,1.739-15.531
	c-1.919-6.975-6.503-8.451-9.066-8.71c-0.23-0.023-0.46-0.034-0.689-0.034c-2.552,0-4.939,1.424-6.214,3.761
	c-3.267,5.992-9.824,8.503-12.28,9.266c-1.01-1.121-2.248-2.099-3.689-2.908c-0.16-0.09-0.189-0.298-0.058-0.426
	c2.933-2.894,4.143-7.641,2.871-12.248c-1.438-5.208-6.394-8.612-11.795-8.497c-3.171,0.068-6.034,0.899-8.11,2.781
	c-0.134,0.122-0.161,0.327-0.068,0.482l2.562,4.271C8.861,19.763,9.17,19.778,9.342,19.582z"/>
<path style="fill:#8697CB;" d="M35.863,18.353c-0.559,0-1.116-0.034-1.676-0.102c-6.965-0.841-9.62-8.209-10.176-10.04
	c-0.044-0.146,0.112-0.266,0.241-0.186c1.361,0.839,6.366,3.768,10.684,4.272c0.293,0.034,0.589,0.052,0.886,0.052
	c2.596,0,5.329-1.307,8.146-3.897c0.463-0.425,1.184-0.395,1.628,0.049l2.562,2.562c0.471,0.471,0.472,1.246-0.016,1.699
	C44.143,16.479,40.023,18.353,35.863,18.353z"/>
<path style="fill:#8697CB;" d="M40.615,5.09l-4.273,4.273c-0.187,0.187-0.49,0.187-0.677,0L31.392,5.09
	c-0.187-0.187-0.187-0.49,0-0.677l4.273-4.273c0.187-0.187,0.49-0.187,0.677,0l4.273,4.273C40.802,4.6,40.802,4.903,40.615,5.09z"/>
<g>
</g>
<g>
</g>
<g>
</g>
<g>
</g>
<g>
</g>
<g>
</g>
<g>
</g>
<g>
</g>
<g>
</g>
<g>
</g>
<g>
</g>
<g>
</g>
<g>
</g>
<g>
</g>
<g>
</g>
</svg>
