<?xml version="1.0" encoding="iso-8859-1"?>
<!-- Generator: Adobe Illustrator 19.0.0, SVG Export Plug-In . SVG Version: 6.00 Build 0)  -->
<svg version="1.1" id="Layer_1" xmlns="http://www.w3.org/2000/svg" xmlns:xlink="http://www.w3.org/1999/xlink" x="0px" y="0px"
	 viewBox="0 0 512.004 512.004" style="enable-background:new 0 0 512.004 512.004;" xml:space="preserve">
<g>
	<circle style="fill:#F1709F;" cx="251.703" cy="255.996" r="165.283"/>
	<circle style="fill:#F1709F;" cx="253.215" cy="255.908" r="110.268"/>
</g>
<circle style="fill:#42A555;" cx="253.215" cy="77.506" r="68.135"/>
<circle style="fill:#FFDB6C;" cx="379.788" cy="129.347" r="68.506"/>
<circle style="fill:#42A555;" cx="431.63" cy="255.908" r="68.135"/>
<circle style="fill:#FFDB6C;" cx="126.679" cy="129.347" r="68.506"/>
<circle style="fill:#42A555;" cx="253.252" cy="434.498" r="68.135"/>
<g>
	<circle style="fill:#FFDB6C;" cx="126.679" cy="382.656" r="68.506"/>
	<circle style="fill:#FFDB6C;" cx="379.788" cy="382.656" r="68.506"/>
</g>
<circle style="fill:#42A555;" cx="74.849" cy="255.908" r="68.135"/>
<path style="fill:#FFDB6C;" d="M93.572,191.874L93.572,191.874c1.085-1.586,3.565-0.778,3.512,1.143l0,0
	c-0.444,16.066,15.36,27.568,30.479,22.18l0,0c1.808-0.645,3.341,1.469,2.17,2.993l0,0c-9.787,12.736-3.751,31.346,11.642,35.888
	l0,0c1.842,0.544,1.842,3.156,0,3.699l0,0c-15.392,4.542-21.429,23.151-11.642,35.888l0,0c1.171,1.523-0.362,3.637-2.17,2.993l0,0
	c-15.118-5.388-30.922,6.114-30.479,22.18l0,0c0.052,1.922-2.428,2.729-3.512,1.143l0,0c-9.069-13.26-28.605-13.26-37.673,0l0,0
	c-1.085,1.586-3.565,0.778-3.512-1.143l0,0c0.444-16.066-15.36-27.568-30.479-22.18l0,0c-1.808,0.645-3.341-1.469-2.17-2.993l0,0
	c9.787-12.736,3.751-31.346-11.642-35.888l0,0c-1.842-0.544-1.842-3.156,0-3.698l0,0c15.392-4.542,21.429-23.152,11.642-35.888l0,0
	c-1.171-1.523,0.362-3.637,2.17-2.993l0,0c15.118,5.388,30.922-6.114,30.479-22.18l0,0c-0.052-1.922,2.428-2.729,3.512-1.143l0,0
	C64.968,205.134,84.502,205.134,93.572,191.874z"/>
<g>
	<ellipse style="fill:#F1709F;" cx="40.102" cy="230.369" rx="4.646" ry="4.653"/>
	<ellipse style="fill:#F1709F;" cx="61.194" cy="214.038" rx="4.646" ry="4.653"/>
	<ellipse style="fill:#F1709F;" cx="88.22" cy="213.475" rx="4.646" ry="4.653"/>
	<ellipse style="fill:#F1709F;" cx="110.66" cy="229.506" rx="4.646" ry="4.653"/>
	<ellipse style="fill:#F1709F;" cx="109.648" cy="282.422" rx="4.646" ry="4.653"/>
	<ellipse style="fill:#F1709F;" cx="88.22" cy="297.891" rx="4.646" ry="4.653"/>
	<ellipse style="fill:#F1709F;" cx="61.194" cy="298.453" rx="4.646" ry="4.653"/>
	<ellipse style="fill:#F1709F;" cx="40.102" cy="282.422" rx="4.646" ry="4.653"/>
	<ellipse style="fill:#F1709F;" cx="118.945" cy="255.921" rx="4.646" ry="4.653"/>
	<ellipse style="fill:#F1709F;" cx="30.832" cy="255.921" rx="4.646" ry="4.653"/>
	<ellipse style="fill:#F1709F;" cx="74.35" cy="256.258" rx="27.049" ry="27.093"/>
</g>
<ellipse style="fill:#FFFFFF;" cx="74.35" cy="256.258" rx="11.472" ry="11.489"/>
<path style="fill:#FFDB6C;" d="M272.073,13.453L272.073,13.453c1.085-1.586,3.565-0.778,3.512,1.143l0,0
	c-0.444,16.066,15.36,27.568,30.479,22.18l0,0c1.808-0.645,3.341,1.469,2.17,2.993l0,0c-9.787,12.736-3.751,31.346,11.642,35.888
	l0,0c1.842,0.544,1.842,3.156,0,3.698l0,0c-15.392,4.542-21.429,23.151-11.642,35.888l0,0c1.171,1.523-0.362,3.637-2.17,2.993l0,0
	c-15.118-5.388-30.922,6.114-30.479,22.18l0,0c0.052,1.922-2.428,2.729-3.512,1.143l0,0c-9.069-13.26-28.605-13.26-37.673,0l0,0
	c-1.085,1.586-3.565,0.778-3.512-1.143l0,0c0.444-16.066-15.36-27.568-30.479-22.18l0,0c-1.808,0.645-3.341-1.469-2.17-2.993l0,0
	c9.787-12.736,3.751-31.346-11.642-35.888l0,0c-1.842-0.544-1.842-3.156,0-3.698l0,0c15.392-4.542,21.429-23.151,11.642-35.888l0,0
	c-1.171-1.523,0.362-3.637,2.17-2.993l0,0c15.118,5.388,30.922-6.114,30.479-22.18l0,0c-0.052-1.922,2.428-2.729,3.512-1.143l0,0
	C243.469,26.712,263.003,26.712,272.073,13.453z"/>
<g>
	<ellipse style="fill:#F1709F;" cx="218.604" cy="51.948" rx="4.646" ry="4.653"/>
	<ellipse style="fill:#F1709F;" cx="239.695" cy="35.612" rx="4.646" ry="4.653"/>
	<ellipse style="fill:#F1709F;" cx="266.722" cy="35.048" rx="4.646" ry="4.653"/>
	<ellipse style="fill:#F1709F;" cx="289.163" cy="51.083" rx="4.646" ry="4.653"/>
	<ellipse style="fill:#F1709F;" cx="288.151" cy="103.995" rx="4.646" ry="4.653"/>
	<ellipse style="fill:#F1709F;" cx="266.722" cy="119.476" rx="4.646" ry="4.653"/>
	<ellipse style="fill:#F1709F;" cx="239.695" cy="120.039" rx="4.646" ry="4.653"/>
	<ellipse style="fill:#F1709F;" cx="218.604" cy="103.995" rx="4.646" ry="4.653"/>
	<ellipse style="fill:#F1709F;" cx="297.447" cy="77.506" rx="4.646" ry="4.653"/>
	<ellipse style="fill:#F1709F;" cx="209.333" cy="77.506" rx="4.646" ry="4.653"/>
	<ellipse style="fill:#F1709F;" cx="252.853" cy="77.831" rx="27.049" ry="27.093"/>
</g>
<ellipse style="fill:#FFFFFF;" cx="252.853" cy="77.831" rx="11.472" ry="11.489"/>
<path style="fill:#FFDB6C;" d="M450.347,191.941L450.347,191.941c1.085-1.586,3.565-0.778,3.512,1.143l0,0
	c-0.444,16.066,15.36,27.568,30.479,22.18l0,0c1.808-0.645,3.341,1.469,2.17,2.993l0,0c-9.787,12.736-3.751,31.346,11.642,35.888
	l0,0c1.842,0.544,1.842,3.156,0,3.699l0,0c-15.392,4.542-21.429,23.151-11.642,35.888l0,0c1.171,1.523-0.362,3.637-2.17,2.993l0,0
	c-15.118-5.388-30.922,6.114-30.479,22.18l0,0c0.054,1.922-2.428,2.729-3.512,1.143l0,0c-9.069-13.26-28.605-13.26-37.673,0l0,0
	c-1.085,1.586-3.565,0.778-3.512-1.143l0,0c0.444-16.066-15.36-27.568-30.479-22.18l0,0c-1.808,0.645-3.341-1.469-2.17-2.993l0,0
	c9.787-12.736,3.751-31.346-11.641-35.888l0,0c-1.842-0.544-1.842-3.156,0-3.699l0,0c15.392-4.542,21.429-23.151,11.641-35.888l0,0
	c-1.171-1.523,0.362-3.637,2.17-2.993l0,0c15.118,5.388,30.922-6.114,30.479-22.18l0,0c-0.054-1.922,2.428-2.729,3.512-1.143l0,0
	C421.744,205.2,441.278,205.2,450.347,191.941z"/>
<g>
	<ellipse style="fill:#F1709F;" cx="396.869" cy="230.431" rx="4.646" ry="4.653"/>
	<ellipse style="fill:#F1709F;" cx="417.973" cy="214.1" rx="4.646" ry="4.653"/>
	<ellipse style="fill:#F1709F;" cx="444.987" cy="213.538" rx="4.646" ry="4.653"/>
	<ellipse style="fill:#F1709F;" cx="467.44" cy="229.569" rx="4.646" ry="4.653"/>
	<ellipse style="fill:#F1709F;" cx="466.428" cy="282.485" rx="4.646" ry="4.653"/>
	<ellipse style="fill:#F1709F;" cx="444.987" cy="297.966" rx="4.646" ry="4.653"/>
	<ellipse style="fill:#F1709F;" cx="417.973" cy="298.516" rx="4.646" ry="4.653"/>
	<ellipse style="fill:#F1709F;" cx="396.869" cy="282.485" rx="4.646" ry="4.653"/>
	<ellipse style="fill:#F1709F;" cx="475.724" cy="255.996" rx="4.646" ry="4.653"/>
	<ellipse style="fill:#F1709F;" cx="387.61" cy="255.996" rx="4.646" ry="4.653"/>
	<ellipse style="fill:#F1709F;" cx="431.117" cy="256.32" rx="27.049" ry="27.093"/>
</g>
<ellipse style="fill:#FFFFFF;" cx="431.117" cy="256.32" rx="11.472" ry="11.489"/>
<path style="fill:#FFDB6C;" d="M272.092,370.441L272.092,370.441c1.085-1.586,3.565-0.778,3.512,1.143l0,0
	c-0.444,16.066,15.36,27.568,30.479,22.18l0,0c1.808-0.645,3.341,1.469,2.17,2.993l0,0c-9.787,12.737-3.751,31.346,11.642,35.888
	l0,0c1.842,0.544,1.842,3.156,0,3.698l0,0c-15.392,4.542-21.429,23.151-11.642,35.888l0,0c1.171,1.523-0.362,3.637-2.17,2.993l0,0
	c-15.118-5.388-30.922,6.114-30.479,22.18l0,0c0.052,1.922-2.428,2.729-3.512,1.143l0,0c-9.069-13.26-28.605-13.26-37.673,0l0,0
	c-1.085,1.586-3.565,0.778-3.512-1.143l0,0c0.444-16.066-15.36-27.568-30.479-22.18l0,0c-1.808,0.645-3.341-1.469-2.17-2.993l0,0
	c9.787-12.737,3.751-31.346-11.642-35.888l0,0c-1.842-0.544-1.842-3.156,0-3.698l0,0c15.392-4.542,21.429-23.151,11.642-35.888l0,0
	c-1.171-1.523,0.362-3.637,2.17-2.993l0,0c15.118,5.388,30.922-6.114,30.479-22.18l0,0c-0.052-1.922,2.428-2.729,3.512-1.143l0,0
	C243.488,383.701,263.022,383.701,272.092,370.441z"/>
<g>
	<ellipse style="fill:#F1709F;" cx="218.617" cy="408.933" rx="4.646" ry="4.653"/>
	<ellipse style="fill:#F1709F;" cx="239.708" cy="392.602" rx="4.646" ry="4.653"/>
	<ellipse style="fill:#F1709F;" cx="266.734" cy="392.04" rx="4.646" ry="4.653"/>
	<ellipse style="fill:#F1709F;" cx="289.175" cy="408.071" rx="4.646" ry="4.653"/>
	<ellipse style="fill:#F1709F;" cx="288.176" cy="460.987" rx="4.646" ry="4.653"/>
	<ellipse style="fill:#F1709F;" cx="266.734" cy="476.456" rx="4.646" ry="4.653"/>
	<ellipse style="fill:#F1709F;" cx="239.708" cy="477.018" rx="4.646" ry="4.653"/>
	<ellipse style="fill:#F1709F;" cx="218.617" cy="460.987" rx="4.646" ry="4.653"/>
	<ellipse style="fill:#F1709F;" cx="297.459" cy="434.498" rx="4.646" ry="4.653"/>
	<ellipse style="fill:#F1709F;" cx="209.345" cy="434.498" rx="4.646" ry="4.653"/>
	<ellipse style="fill:#F1709F;" cx="252.865" cy="434.823" rx="27.049" ry="27.093"/>
</g>
<ellipse style="fill:#FFFFFF;" cx="252.865" cy="434.823" rx="11.472" ry="11.489"/>
<path style="fill:#42A555;" d="M145.651,64.916L145.651,64.916c1.092-1.598,3.591-0.785,3.537,1.151l0,0
	c-0.447,16.181,15.47,27.764,30.695,22.338l0,0c1.822-0.648,3.365,1.479,2.187,3.014l0,0c-9.857,12.827-3.777,31.57,11.725,36.144
	l0,0c1.854,0.547,1.854,3.179,0,3.726l0,0c-15.502,4.574-21.581,23.315-11.725,36.144l0,0c1.18,1.534-0.365,3.664-2.187,3.014l0,0
	c-15.226-5.427-31.142,6.157-30.695,22.338l0,0c0.054,1.935-2.445,2.749-3.537,1.151l0,0c-9.134-13.353-28.808-13.353-37.942,0l0,0
	c-1.092,1.597-3.591,0.785-3.537-1.151l0,0c0.447-16.181-15.47-27.764-30.695-22.338l0,0c-1.822,0.648-3.365-1.479-2.187-3.014l0,0
	c9.857-12.827,3.777-31.57-11.725-36.144l0,0c-1.854-0.547-1.854-3.179,0-3.726l0,0c15.502-4.574,21.581-23.315,11.725-36.144l0,0
	c-1.18-1.534,0.365-3.664,2.187-3.014l0,0c15.226,5.427,31.142-6.157,30.695-22.338l0,0c-0.054-1.935,2.445-2.749,3.537-1.151l0,0
	C116.843,78.271,136.517,78.271,145.651,64.916z"/>
<g>
	<ellipse style="fill:#FFDB6C;" cx="91.793" cy="103.685" rx="4.679" ry="4.687"/>
	<ellipse style="fill:#FFDB6C;" cx="113.047" cy="87.233" rx="4.679" ry="4.687"/>
	<ellipse style="fill:#FFDB6C;" cx="140.261" cy="86.665" rx="4.679" ry="4.687"/>
	<ellipse style="fill:#FFDB6C;" cx="162.864" cy="102.808" rx="4.679" ry="4.687"/>
	<ellipse style="fill:#FFDB6C;" cx="161.852" cy="156.111" rx="4.679" ry="4.687"/>
	<ellipse style="fill:#FFDB6C;" cx="140.261" cy="171.693" rx="4.679" ry="4.687"/>
	<ellipse style="fill:#FFDB6C;" cx="113.047" cy="172.255" rx="4.679" ry="4.687"/>
	<ellipse style="fill:#FFDB6C;" cx="91.793" cy="156.111" rx="4.679" ry="4.687"/>
	<ellipse style="fill:#FFDB6C;" cx="171.198" cy="129.422" rx="4.679" ry="4.687"/>
	<ellipse style="fill:#FFDB6C;" cx="82.463" cy="129.422" rx="4.679" ry="4.687"/>
	<ellipse style="fill:#FFDB6C;" cx="126.292" cy="129.76" rx="27.241" ry="27.286"/>
</g>
<ellipse style="fill:#FFFFFF;" cx="126.292" cy="129.76" rx="11.553" ry="11.572"/>
<path style="fill:#42A555;" d="M398.763,64.916L398.763,64.916c1.092-1.597,3.591-0.785,3.537,1.151l0,0
	c-0.447,16.181,15.47,27.764,30.695,22.338l0,0c1.822-0.648,3.365,1.479,2.187,3.014l0,0c-9.857,12.827-3.777,31.57,11.725,36.144
	l0,0c1.854,0.547,1.854,3.179,0,3.726l0,0c-15.502,4.574-21.581,23.315-11.725,36.144l0,0c1.18,1.534-0.365,3.664-2.187,3.014l0,0
	c-15.226-5.427-31.142,6.157-30.695,22.338l0,0c0.054,1.935-2.445,2.749-3.537,1.151l0,0c-9.134-13.353-28.808-13.353-37.942,0l0,0
	c-1.092,1.597-3.591,0.785-3.537-1.151l0,0c0.447-16.181-15.47-27.764-30.695-22.338l0,0c-1.822,0.648-3.365-1.479-2.187-3.014l0,0
	c9.857-12.827,3.777-31.57-11.725-36.144l0,0c-1.854-0.547-1.854-3.179,0-3.726l0,0c15.502-4.574,21.581-23.315,11.725-36.144l0,0
	c-1.18-1.534,0.365-3.664,2.187-3.014l0,0c15.226,5.427,31.142-6.157,30.695-22.338l0,0c-0.054-1.935,2.445-2.749,3.537-1.151l0,0
	C369.956,78.271,389.629,78.271,398.763,64.916z"/>
<g>
	<ellipse style="fill:#FFDB6C;" cx="344.915" cy="103.685" rx="4.679" ry="4.687"/>
	<ellipse style="fill:#FFDB6C;" cx="366.156" cy="87.233" rx="4.679" ry="4.687"/>
	<ellipse style="fill:#FFDB6C;" cx="393.37" cy="86.665" rx="4.679" ry="4.687"/>
	<ellipse style="fill:#FFDB6C;" cx="415.974" cy="102.808" rx="4.679" ry="4.687"/>
	<ellipse style="fill:#FFDB6C;" cx="414.961" cy="156.111" rx="4.679" ry="4.687"/>
	<ellipse style="fill:#FFDB6C;" cx="393.37" cy="171.693" rx="4.679" ry="4.687"/>
	<ellipse style="fill:#FFDB6C;" cx="366.156" cy="172.255" rx="4.679" ry="4.687"/>
	<ellipse style="fill:#FFDB6C;" cx="344.915" cy="156.111" rx="4.679" ry="4.687"/>
	<ellipse style="fill:#FFDB6C;" cx="424.32" cy="129.422" rx="4.679" ry="4.687"/>
	<ellipse style="fill:#FFDB6C;" cx="335.581" cy="129.422" rx="4.679" ry="4.687"/>
	<ellipse style="fill:#FFDB6C;" cx="379.401" cy="129.76" rx="27.241" ry="27.286"/>
</g>
<ellipse style="fill:#FFFFFF;" cx="379.401" cy="129.76" rx="11.553" ry="11.572"/>
<path style="fill:#42A555;" d="M145.651,318.14L145.651,318.14c1.092-1.598,3.591-0.785,3.537,1.151l0,0
	c-0.447,16.181,15.47,27.764,30.695,22.338l0,0c1.822-0.65,3.365,1.479,2.187,3.014l0,0c-9.857,12.827-3.777,31.57,11.725,36.144
	l0,0c1.854,0.547,1.854,3.179,0,3.726l0,0c-15.502,4.574-21.581,23.315-11.725,36.144l0,0c1.18,1.534-0.365,3.664-2.187,3.014l0,0
	c-15.226-5.427-31.142,6.158-30.695,22.338l0,0c0.054,1.935-2.445,2.749-3.537,1.151l0,0c-9.134-13.353-28.808-13.353-37.942,0l0,0
	c-1.092,1.597-3.591,0.785-3.537-1.151l0,0c0.447-16.181-15.47-27.764-30.695-22.338l0,0c-1.822,0.648-3.365-1.479-2.187-3.014l0,0
	c9.857-12.827,3.777-31.57-11.725-36.144l0,0c-1.854-0.547-1.854-3.179,0-3.726l0,0c15.502-4.574,21.581-23.315,11.725-36.144l0,0
	c-1.18-1.534,0.365-3.664,2.187-3.014l0,0c15.226,5.427,31.142-6.158,30.695-22.338l0,0c-0.054-1.935,2.445-2.749,3.537-1.151l0,0
	C116.843,331.495,136.517,331.495,145.651,318.14z"/>
<g>
	<ellipse style="fill:#FFDB6C;" cx="91.793" cy="356.905" rx="4.679" ry="4.687"/>
	<ellipse style="fill:#FFDB6C;" cx="113.047" cy="340.461" rx="4.679" ry="4.687"/>
	<ellipse style="fill:#FFDB6C;" cx="140.261" cy="339.886" rx="4.679" ry="4.687"/>
	<ellipse style="fill:#FFDB6C;" cx="162.864" cy="356.042" rx="4.679" ry="4.687"/>
	<ellipse style="fill:#FFDB6C;" cx="161.852" cy="409.333" rx="4.679" ry="4.687"/>
	<ellipse style="fill:#FFDB6C;" cx="140.261" cy="424.914" rx="4.679" ry="4.687"/>
	<ellipse style="fill:#FFDB6C;" cx="113.047" cy="425.477" rx="4.679" ry="4.687"/>
	<ellipse style="fill:#FFDB6C;" cx="91.793" cy="409.333" rx="4.679" ry="4.687"/>
	<ellipse style="fill:#FFDB6C;" cx="171.198" cy="382.656" rx="4.679" ry="4.687"/>
	<ellipse style="fill:#FFDB6C;" cx="82.463" cy="382.656" rx="4.679" ry="4.687"/>
	<ellipse style="fill:#FFDB6C;" cx="126.292" cy="382.981" rx="27.241" ry="27.286"/>
</g>
<ellipse style="fill:#FFFFFF;" cx="126.292" cy="382.981" rx="11.553" ry="11.572"/>
<path style="fill:#42A555;" d="M398.763,318.14L398.763,318.14c1.092-1.598,3.591-0.785,3.537,1.151l0,0
	c-0.447,16.181,15.47,27.764,30.695,22.338l0,0c1.822-0.65,3.365,1.479,2.187,3.014l0,0c-9.857,12.827-3.777,31.57,11.725,36.144
	l0,0c1.854,0.547,1.854,3.179,0,3.726l0,0c-15.502,4.574-21.581,23.315-11.725,36.144l0,0c1.18,1.534-0.365,3.664-2.187,3.014l0,0
	c-15.226-5.427-31.142,6.158-30.695,22.338l0,0c0.054,1.935-2.445,2.749-3.537,1.151l0,0c-9.134-13.353-28.808-13.353-37.942,0l0,0
	c-1.092,1.597-3.591,0.785-3.537-1.151l0,0c0.447-16.181-15.47-27.764-30.695-22.338l0,0c-1.822,0.648-3.365-1.479-2.187-3.014l0,0
	c9.857-12.827,3.777-31.57-11.725-36.144l0,0c-1.854-0.547-1.854-3.179,0-3.726l0,0c15.502-4.574,21.581-23.315,11.725-36.144l0,0
	c-1.18-1.534,0.365-3.664,2.187-3.014l0,0c15.226,5.427,31.142-6.158,30.695-22.338l0,0c-0.054-1.935,2.445-2.749,3.537-1.151l0,0
	C369.956,331.495,389.629,331.495,398.763,318.14z"/>
<g>
	<ellipse style="fill:#FFDB6C;" cx="344.915" cy="356.905" rx="4.679" ry="4.687"/>
	<ellipse style="fill:#FFDB6C;" cx="366.156" cy="340.461" rx="4.679" ry="4.687"/>
	<ellipse style="fill:#FFDB6C;" cx="393.37" cy="339.886" rx="4.679" ry="4.687"/>
	<ellipse style="fill:#FFDB6C;" cx="415.974" cy="356.042" rx="4.679" ry="4.687"/>
	<ellipse style="fill:#FFDB6C;" cx="414.961" cy="409.333" rx="4.679" ry="4.687"/>
	<ellipse style="fill:#FFDB6C;" cx="393.37" cy="424.914" rx="4.679" ry="4.687"/>
	<ellipse style="fill:#FFDB6C;" cx="366.156" cy="425.477" rx="4.679" ry="4.687"/>
	<ellipse style="fill:#FFDB6C;" cx="344.915" cy="409.333" rx="4.679" ry="4.687"/>
	<ellipse style="fill:#FFDB6C;" cx="424.32" cy="382.656" rx="4.679" ry="4.687"/>
	<ellipse style="fill:#FFDB6C;" cx="335.581" cy="382.656" rx="4.679" ry="4.687"/>
	<ellipse style="fill:#FFDB6C;" cx="379.401" cy="382.981" rx="27.241" ry="27.286"/>
</g>
<ellipse style="fill:#FFFFFF;" cx="379.401" cy="382.981" rx="11.553" ry="11.572"/>
<g>
	<circle style="fill:#634E9B;" cx="148.458" cy="9.371" r="9.371"/>
	<circle style="fill:#634E9B;" cx="357.06" cy="9.371" r="9.371"/>
	<circle style="fill:#634E9B;" cx="492.492" cy="156.974" r="9.371"/>
	<circle style="fill:#634E9B;" cx="12.814" cy="156.974" r="9.371"/>
	<circle style="fill:#634E9B;" cx="499.19" cy="357.467" r="9.371"/>
	<circle style="fill:#634E9B;" cx="12.814" cy="357.467" r="9.371"/>
	<circle style="fill:#634E9B;" cx="354.773" cy="502.633" r="9.371"/>
	<circle style="fill:#634E9B;" cx="153.718" cy="502.633" r="9.371"/>
	<path style="fill:#634E9B;" d="M281.36,159.944L281.36,159.944c1.619-2.364,5.323-1.161,5.244,1.704l0,0
		c-0.662,23.949,22.933,41.092,45.505,33.062l0,0c2.7-0.961,4.989,2.189,3.241,4.461l0,0c-14.613,18.985-5.6,46.725,17.382,53.494
		l0,0c2.749,0.81,2.749,4.704,0,5.514l0,0c-22.982,6.77-31.994,34.51-17.382,53.494l0,0c1.748,2.272-0.541,5.422-3.241,4.461l0,0
		c-22.572-8.03-46.167,9.113-45.505,33.062l0,0c0.079,2.865-3.624,4.068-5.244,1.704l0,0c-13.541-19.764-42.708-19.764-56.247,0l0,0
		c-1.619,2.364-5.323,1.161-5.244-1.704l0,0c0.662-23.949-22.933-41.092-45.505-33.062l0,0c-2.7,0.961-4.989-2.189-3.241-4.461l0,0
		c14.613-18.985,5.6-46.725-17.382-53.494l0,0c-2.749-0.81-2.749-4.704,0-5.514l0,0c22.982-6.77,31.994-34.51,17.382-53.494l0,0
		c-1.748-2.272,0.541-5.422,3.241-4.461l0,0c22.572,8.03,46.167-9.113,45.505-33.062l0,0c-0.079-2.865,3.624-4.068,5.244-1.704l0,0
		C238.653,179.708,267.82,179.708,281.36,159.944z"/>
</g>
<g>
	<circle style="fill:#F1709F;" cx="201.523" cy="217.324" r="6.937"/>
	<circle style="fill:#F1709F;" cx="233.023" cy="192.971" r="6.937"/>
	<circle style="fill:#F1709F;" cx="273.369" cy="192.134" r="6.937"/>
	<circle style="fill:#F1709F;" cx="306.868" cy="216.037" r="6.937"/>
	<circle style="fill:#F1709F;" cx="305.369" cy="294.917" r="6.937"/>
	<circle style="fill:#F1709F;" cx="273.369" cy="317.983" r="6.937"/>
	<circle style="fill:#F1709F;" cx="233.023" cy="318.82" r="6.937"/>
	<circle style="fill:#F1709F;" cx="201.523" cy="294.917" r="6.937"/>
	<circle style="fill:#F1709F;" cx="319.238" cy="255.421" r="6.937"/>
	<circle style="fill:#F1709F;" cx="187.692" cy="255.421" r="6.937"/>
</g>
<circle style="fill:#FFDB6C;" cx="252.653" cy="255.908" r="40.384"/>
<circle style="fill:#FFFFFF;" cx="252.653" cy="255.908" r="17.127"/>
<g>
</g>
<g>
</g>
<g>
</g>
<g>
</g>
<g>
</g>
<g>
</g>
<g>
</g>
<g>
</g>
<g>
</g>
<g>
</g>
<g>
</g>
<g>
</g>
<g>
</g>
<g>
</g>
<g>
</g>
</svg>
