<?xml version="1.0" encoding="iso-8859-1"?>
<!-- Generator: Adobe Illustrator 19.0.0, SVG Export Plug-In . SVG Version: 6.00 Build 0)  -->
<svg version="1.1" id="Layer_1" xmlns="http://www.w3.org/2000/svg" xmlns:xlink="http://www.w3.org/1999/xlink" x="0px" y="0px"
	 viewBox="0 0 512.002 512.002" style="enable-background:new 0 0 512.002 512.002;" xml:space="preserve">
<polygon style="fill:#FFB42B;" points="470.84,458.957 470.84,347.602 404.453,347.602 404.453,421.332 371.055,421.332 
	371.055,314.205 504.237,314.205 504.237,458.957 "/>
<g>
	<polygon style="fill:#FF7C18;" points="470.84,458.957 470.84,347.602 437.647,347.602 437.647,314.205 504.237,314.205 
		504.237,458.957 	"/>
	<path style="fill:#FF7C18;" d="M358.398,462.031c-10.056,0-19.467-3.188-26.5-8.978c-8.604-7.08-13.209-17.84-12.315-28.779
		c0.874-10.715,6.894-20.959,16.518-28.106c8.421-6.252,18.875-9.695,29.44-9.695c10.054,0,19.465,3.187,26.5,8.976
		c7.861,6.468,12.385,15.886,12.412,25.84c0.053,20.193-16.717,34.255-32.32,38.774
		C367.619,461.368,362.998,462.031,358.398,462.031z"/>
</g>
<path style="fill:#FF5200;" d="M458.182,499.655c-10.055,0-19.465-3.187-26.498-8.976c-8.607-7.086-13.21-17.844-12.316-28.782
	c0.875-10.715,6.895-20.96,16.518-28.106c8.422-6.252,18.877-9.694,29.44-9.694c10.056,0,19.466,3.187,26.501,8.976
	c7.86,6.467,12.385,15.885,12.411,25.839c0.053,20.193-16.717,34.254-32.321,38.774C467.399,498.993,462.78,499.655,458.182,499.655
	z"/>
<path style="fill:#FFB42B;" d="M102.198,146.781V12.347l24.419,12.732c5.384,2.807,52.597,28.48,52.597,65.121h-33.398
	c0-4.762-3.659-10.986-10.221-17.572v74.153L102.198,146.781L102.198,146.781z"/>
<path style="fill:#FF7C18;" d="M89.54,187.48c-10.055,0-19.465-3.187-26.498-8.976c-8.605-7.083-13.21-17.842-12.316-28.782
	c0.875-10.715,6.895-20.96,16.518-28.106c8.422-6.252,18.877-9.694,29.44-9.694c10.056,0,19.469,3.188,26.502,8.977
	c7.858,6.466,12.384,15.884,12.409,25.838c0.053,20.193-16.717,34.254-32.321,38.774C98.756,186.817,94.137,187.48,89.54,187.48z"/>
<path style="fill:#444142;" d="M23.611,488.993c25.329-25.32,36.71-27.896,49.887-30.877c15.031-3.402,32.067-7.257,60.606-35.784
	l-23.611-23.62c-21.712,21.704-31.709,23.966-44.367,26.831C50.203,429.146,32.155,433.229,0,465.373L23.611,488.993z"/>
<path style="fill:#8D8688;" d="M275.654,142.369c0-31.223,12.251-61.065,34.628-83.45c22.324-22.334,52.007-34.632,83.58-34.632
	s61.255,12.299,83.58,34.632c46.081,46.099,46.081,121.106,0,167.205l0,0c-25.544,25.554-60.806,37.91-96.744,33.901l-5.819-0.649
	l-97.833-97.868l-0.649-5.817C275.899,151.237,275.654,146.788,275.654,142.369z"/>
<g>
	<path style="fill:#6F696B;" d="M477.44,58.92L325.949,210.413l48.93,48.964l5.819,0.649c35.938,4.009,71.2-8.348,96.744-33.901
		C523.52,180.026,523.52,105.019,477.44,58.92z"/>
	<path style="fill:#6F696B;" d="M477.44,226.125c4.011-4.012,7.665-8.248,10.978-12.661L322.9,47.947
		c-4.418,3.332-8.638,6.989-12.619,10.972c-3.99,3.991-7.651,8.224-10.984,12.654l165.525,165.525
		C469.241,233.77,473.458,230.108,477.44,226.125z"/>
</g>
<path style="fill:#444142;" d="M477.44,226.125c4.011-4.012,7.665-8.248,10.978-12.661l-82.768-82.768l-23.609,23.622l82.78,82.78
	C469.241,233.77,473.458,230.108,477.44,226.125z"/>
<path style="fill:#D4083B;" d="M63.861,375.681l211.926-227.855l112.78,112.809L160.792,472.65L63.861,375.681z"/>
<path style="fill:#B3002E;" d="M112.263,424.083l219.89-219.89l56.413,56.442L160.792,472.65L112.263,424.083z"/>
<g>
	
		<rect x="263.846" y="235.767" transform="matrix(0.7072 -0.707 0.707 0.7072 -98.7777 273.2716)" style="fill:#8A041E;" width="33.397" height="40.255"/>
	
		<rect x="216.234" y="283.396" transform="matrix(0.7072 -0.707 0.707 0.7072 -146.3921 253.5548)" style="fill:#8A041E;" width="33.397" height="40.255"/>
</g>
<g>
	<polygon style="fill:#600333;" points="268.703,267.644 292.322,244.033 306.587,258.308 282.967,281.919 	"/>
	<polygon style="fill:#600333;" points="221.086,315.279 244.705,291.668 258.97,305.943 235.35,329.554 	"/>
</g>
<g>
</g>
<g>
</g>
<g>
</g>
<g>
</g>
<g>
</g>
<g>
</g>
<g>
</g>
<g>
</g>
<g>
</g>
<g>
</g>
<g>
</g>
<g>
</g>
<g>
</g>
<g>
</g>
<g>
</g>
</svg>
