<?xml version="1.0" encoding="iso-8859-1"?>
<!-- Generator: Adobe Illustrator 19.0.0, SVG Export Plug-In . SVG Version: 6.00 Build 0)  -->
<svg version="1.1" id="Layer_1" xmlns="http://www.w3.org/2000/svg" xmlns:xlink="http://www.w3.org/1999/xlink" x="0px" y="0px"
	 viewBox="0 0 512 512" style="enable-background:new 0 0 512 512;" xml:space="preserve">
<path style="fill:#E5BC53;" d="M354.079,487.362c-87.078,0-157.921-70.843-157.921-157.921S267,171.521,354.079,171.521
	S512,242.363,512,329.441S441.158,487.362,354.079,487.362z M354.079,204.912c-68.665,0-124.53,55.864-124.53,124.528
	c0,68.666,55.864,124.53,124.53,124.53s124.53-55.864,124.53-124.53C478.609,260.776,422.745,204.912,354.079,204.912z"/>
<path style="fill:#F6C958;" d="M157.921,487.362C70.842,487.362,0,416.519,0,329.441s70.842-157.92,157.921-157.92
	s157.921,70.842,157.921,157.92S244.999,487.362,157.921,487.362z M157.921,204.912c-68.666,0-124.53,55.864-124.53,124.528
	c0,68.666,55.864,124.53,124.53,124.53s124.53-55.864,124.53-124.53C282.45,260.776,226.586,204.912,157.921,204.912z"/>
<path style="fill:#D02D7F;" d="M286.737,24.638c-13.195,0-24.691,7.728-30.737,19.162c-6.046-11.434-17.54-19.162-30.737-19.162
	c-23.159,0-38.504,16.823-38.504,37.574c0,20.75,11.698,33.309,38.504,52.246C248.686,131.009,256,142.621,256,142.621
	s7.315-11.612,30.737-28.161c26.804-18.938,38.502-31.496,38.502-52.246C325.239,41.461,309.896,24.638,286.737,24.638z"/>
<path style="fill:#C42C78;" d="M286.737,24.638c-13.195,0-24.691,7.728-30.737,19.162c0,19.899,0,98.82,0,98.82
	s7.315-11.612,30.737-28.161c26.804-18.938,38.502-31.496,38.502-52.246C325.239,41.461,309.896,24.638,286.737,24.638z"/>
<g>
</g>
<g>
</g>
<g>
</g>
<g>
</g>
<g>
</g>
<g>
</g>
<g>
</g>
<g>
</g>
<g>
</g>
<g>
</g>
<g>
</g>
<g>
</g>
<g>
</g>
<g>
</g>
<g>
</g>
</svg>
