<?xml version="1.0" encoding="iso-8859-1"?>
<!-- Generator: Adobe Illustrator 19.0.0, SVG Export Plug-In . SVG Version: 6.00 Build 0)  -->
<svg version="1.1" id="Layer_1" xmlns="http://www.w3.org/2000/svg" xmlns:xlink="http://www.w3.org/1999/xlink" x="0px" y="0px"
	 viewBox="0 0 486.4 486.4" style="enable-background:new 0 0 486.4 486.4;" xml:space="preserve">
<ellipse style="fill:#889E9C;" cx="243.2" cy="436.395" rx="189.6" ry="11.2"/>
<path style="fill:#237EB5;" d="M299.2,261.995c0,8.8-7.2,16-16,16H204c-8.8,0-16-7.2-16-16l0,0c0-8.8,7.2-16,16-16h79.2
	C292,245.195,299.2,252.395,299.2,261.995L299.2,261.995z"/>
<path style="fill:#339DD1;" d="M164,315.595c0,5.6-4.8,10.4-10.4,10.4H144c-5.6,0-10.4-4.8-10.4-10.4l0,0c0-5.6,4.8-10.4,10.4-10.4
	h9.6C159.2,305.195,164,309.995,164,315.595L164,315.595z"/>
<path style="fill:#237EB5;" d="M164,315.595L164,315.595c0,5.6-4.8,10.4-10.4,10.4H144c-5.6,0-10.4-4.8-10.4-10.4l0,0"/>
<path style="fill:#339DD1;" d="M322.4,315.595c0,5.6,4.8,10.4,10.4,10.4h9.6c5.6,0,10.4-4.8,10.4-10.4l0,0c0-5.6-4.8-10.4-10.4-10.4
	h-9.6C327.2,305.195,322.4,309.995,322.4,315.595L322.4,315.595z"/>
<path style="fill:#237EB5;" d="M322.4,315.595L322.4,315.595c0,5.6,4.8,10.4,10.4,10.4h9.6c5.6,0,10.4-4.8,10.4-10.4l0,0"/>
<polygon style="fill:#13709E;" points="336.8,345.995 149.6,345.995 183.2,265.195 303.2,265.195 "/>
<polygon style="fill:#A4E6F7;" points="327.2,345.995 159.2,345.995 189.6,265.195 296.8,265.195 "/>
<polygon style="fill:#7DCEEA;" points="327.2,345.995 159.2,345.995 206.4,278.795 296.8,265.195 "/>
<polyline style="fill:#58ADC4;" points="296.8,265.195 327.2,345.995 159.2,345.995 "/>
<path style="fill:#13709E;" d="M290.4,321.195c0,6.4-5.6,12-12,12H208c-6.4,0-12-5.6-12-12v-12c0-6.4,5.6-12,12-12h70.4
	c6.4,0,12,5.6,12,12V321.195z"/>
<path style="fill:#768689;" d="M282.4,322.795c0,5.6-4.8,9.6-9.6,9.6h-58.4c-5.6,0-9.6-4.8-9.6-9.6v-10.4c0-5.6,4.8-9.6,9.6-9.6
	h58.4c5.6,0,9.6,4.8,9.6,9.6V322.795z"/>
<path style="fill:#8BA1A5;" d="M282.4,327.595c0,5.6-4.8,9.6-9.6,9.6h-58.4c-5.6,0-9.6-4.8-9.6-9.6v-10.4c0-5.6,4.8-9.6,9.6-9.6
	h58.4c5.6,0,9.6,4.8,9.6,9.6V327.595z"/>
<path style="fill:#516768;" d="M292,401.195c0,4.8-4,8.8-8.8,8.8h-80c-4.8,0-8.8-4-8.8-8.8l0,0c0-4.8,4-8.8,8.8-8.8h80
	C288,392.395,292,396.395,292,401.195L292,401.195z"/>
<g>
	<path style="fill:#6B7D7F;" d="M193.6,407.595c0,6.4-4.8,11.2-11.2,11.2l0,0c-6.4,0-11.2-4.8-11.2-11.2v-15.2
		c0-6.4,4.8-11.2,11.2-11.2l0,0c6.4,0,11.2,4.8,11.2,11.2V407.595z"/>
	<path style="fill:#6B7D7F;" d="M204.8,402.795c0,6.4-4.8,11.2-11.2,11.2l0,0c-6.4,0-11.2-4.8-11.2-11.2v-15.2
		c0-6.4,4.8-11.2,11.2-11.2l0,0c6.4,0,11.2,4.8,11.2,11.2V402.795z"/>
	<path style="fill:#6B7D7F;" d="M292.8,407.595c0,6.4,4.8,11.2,11.2,11.2l0,0c6.4,0,11.2-4.8,11.2-11.2v-15.2
		c0-6.4-4.8-11.2-11.2-11.2l0,0c-6.4,0-11.2,4.8-11.2,11.2V407.595z"/>
	<path style="fill:#6B7D7F;" d="M281.6,402.795c0,6.4,4.8,11.2,11.2,11.2l0,0c6.4,0,11.2-4.8,11.2-11.2v-15.2
		c0-6.4-4.8-11.2-11.2-11.2l0,0c-6.4,0-11.2,4.8-11.2,11.2V402.795z"/>
</g>
<path style="fill:#333232;" d="M176.8,435.595c0,12.8-10.4,12-23.2,12l0,0c-12.8,0-23.2-10.4-23.2-23.2v-47.2
	c0-12.8,10.4-23.2,23.2-23.2l0,0c12.8,0,23.2,10.4,23.2,23.2V435.595z"/>
<path style="fill:#0A0A0A;" d="M154.4,354.795L154.4,354.795c12.8,0,23.2,10.4,23.2,23.2v57.6c0,12.8-10.4,12-23.2,12l0,0"/>
<path style="fill:#333232;" d="M309.6,435.595c0,12.8,10.4,12,23.2,12l0,0c12.8,0,23.2-10.4,23.2-23.2v-47.2
	c0-12.8-10.4-23.2-23.2-23.2l0,0c-12.8,0-23.2,10.4-23.2,23.2V435.595z"/>
<path style="fill:#0A0A0A;" d="M332,354.795L332,354.795c-12.8,0-23.2,10.4-23.2,23.2v57.6c0,12.8,10.4,12,23.2,12l0,0"/>
<path style="fill:#339DD1;" d="M144,345.195c-9.6,0.8-17.6,8.8-17.6,19.2v40.8H144V345.195z"/>
<polyline style="fill:#13709E;" points="126.4,405.195 144,405.195 144,345.195 "/>
<path style="fill:#339DD1;" d="M342.4,345.195c9.6,0.8,17.6,8.8,17.6,19.2v40.8h-17.6V345.195z"/>
<polyline style="fill:#13709E;" points="360,405.195 342.4,405.195 342.4,345.195 "/>
<g>
	<circle style="fill:#768689;" cx="212.8" cy="320.395" r="1.6"/>
	<circle style="fill:#768689;" cx="221.6" cy="320.395" r="1.6"/>
	<circle style="fill:#768689;" cx="230.4" cy="320.395" r="1.6"/>
	<circle style="fill:#768689;" cx="239.2" cy="320.395" r="1.6"/>
	<circle style="fill:#768689;" cx="247.2" cy="320.395" r="1.6"/>
	<circle style="fill:#768689;" cx="256" cy="320.395" r="1.6"/>
	<circle style="fill:#768689;" cx="264.8" cy="320.395" r="1.6"/>
	<circle style="fill:#768689;" cx="273.6" cy="320.395" r="1.6"/>
</g>
<path style="fill:#237EB5;" d="M346.4,385.195v-31.2c0-18.4-14.4-32.8-32.8-32.8H172.8c-18.4,0-32.8,14.4-32.8,32.8v31.2H346.4z"/>
<polyline style="fill:#13709E;" points="140,353.995 140,385.195 346.4,385.195 346.4,353.995 "/>
<path style="fill:#768689;" d="M340.8,357.195c0,11.2,0.8,20.8-10.4,20.8H160c-11.2,0-14.4-9.6-14.4-20.8l0,0
	c0-11.2,9.6-20.8,20.8-20.8H320C331.2,336.395,340.8,345.995,340.8,357.195L340.8,357.195z"/>
<path style="fill:#ACC1C6;" d="M320,341.195H166.4c-11.2,0-20,8.8-20.8,19.2c0.8,9.6,3.2,17.6,13.6,17.6h169.6
	c9.6,0,10.4-6.4,10.4-16l0,0C340.8,349.995,331.2,341.195,320,341.195z"/>
<path style="fill:#8BA1A5;" d="M145.6,360.395c0.8,9.6,3.2,17.6,13.6,17.6h169.6c9.6,0,10.4-6.4,10.4-16l0,0"/>
<path style="fill:#768689;" d="M184,357.195c0,8-6.4,19.2-14.4,19.2s-14.4-11.2-14.4-19.2s6.4-14.4,14.4-14.4
	S184,349.195,184,357.195z"/>
<circle style="fill:#E9F4F2;" cx="169.6" cy="357.195" r="14.4"/>
<path style="fill:#D0EAE5;" d="M169.6,342.795c8,0,14.4,6.4,14.4,14.4s-6.4,14.4-14.4,14.4"/>
<g>
	
		<ellipse transform="matrix(-0.7334 -0.6798 0.6798 -0.7334 44.4934 718.4973)" style="fill:#FFFFFF;" cx="163.136" cy="350.524" rx="2.4" ry="7.2"/>
	<circle style="fill:#FFFFFF;" cx="160" cy="360.395" r="1.6"/>
	<circle style="fill:#FFFFFF;" cx="161.6" cy="365.195" r="0.8"/>
</g>
<path style="fill:#768689;" d="M331.2,357.195c0,8-6.4,19.2-14.4,19.2s-14.4-11.2-14.4-19.2s6.4-14.4,14.4-14.4
	S331.2,349.195,331.2,357.195z"/>
<circle style="fill:#E9F4F2;" cx="316.8" cy="357.195" r="14.4"/>
<path style="fill:#D0EAE5;" d="M316.8,342.795c8,0,14.4,6.4,14.4,14.4s-6.4,14.4-14.4,14.4"/>
<g>
	
		<ellipse transform="matrix(-0.7331 -0.6801 0.6801 -0.7331 299.472 818.4582)" style="fill:#FFFFFF;" cx="310.326" cy="350.469" rx="2.4" ry="7.2"/>
	<circle style="fill:#FFFFFF;" cx="307.2" cy="360.395" r="1.6"/>
	<circle style="fill:#FFFFFF;" cx="308.8" cy="365.195" r="0.8"/>
</g>
<g>
	<path style="fill:#768689;" d="M194.4,374.795c0,0.8-0.8,1.6-1.6,1.6l0,0c-0.8,0-1.6-0.8-1.6-1.6v-31.2c0-0.8,0.8-1.6,1.6-1.6l0,0
		c0.8,0,1.6,0.8,1.6,1.6V374.795z"/>
	<path style="fill:#768689;" d="M203.2,374.795c0,0.8-0.8,1.6-1.6,1.6l0,0c-0.8,0-1.6-0.8-1.6-1.6v-31.2c0-0.8,0.8-1.6,1.6-1.6l0,0
		c0.8,0,1.6,0.8,1.6,1.6V374.795z"/>
	<path style="fill:#768689;" d="M212,374.795c0,0.8-0.8,1.6-1.6,1.6l0,0c-0.8,0-1.6-0.8-1.6-1.6v-31.2c0-0.8,0.8-1.6,1.6-1.6l0,0
		c0.8,0,1.6,0.8,1.6,1.6V374.795z"/>
	<path style="fill:#768689;" d="M220,374.795c0,0.8-0.8,1.6-1.6,1.6l0,0c-0.8,0-1.6-0.8-1.6-1.6v-31.2c0-0.8,0.8-1.6,1.6-1.6l0,0
		c0.8,0,1.6,0.8,1.6,1.6V374.795z"/>
	<path style="fill:#768689;" d="M268.8,374.795c0,0.8-0.8,1.6-1.6,1.6l0,0c-0.8,0-1.6-0.8-1.6-1.6v-31.2c0-0.8,0.8-1.6,1.6-1.6l0,0
		c0.8,0,1.6,0.8,1.6,1.6V374.795z"/>
	<path style="fill:#768689;" d="M277.6,374.795c0,0.8-0.8,1.6-1.6,1.6l0,0c-0.8,0-1.6-0.8-1.6-1.6v-31.2c0-0.8,0.8-1.6,1.6-1.6l0,0
		c0.8,0,1.6,0.8,1.6,1.6V374.795z"/>
	<path style="fill:#768689;" d="M286.4,374.795c0,0.8-0.8,1.6-1.6,1.6l0,0c-0.8,0-1.6-0.8-1.6-1.6v-31.2c0-0.8,0.8-1.6,1.6-1.6l0,0
		c0.8,0,1.6,0.8,1.6,1.6V374.795z"/>
	<path style="fill:#768689;" d="M295.2,374.795c0,0.8-0.8,1.6-1.6,1.6l0,0c-0.8,0-1.6-0.8-1.6-1.6v-31.2c0-0.8,0.8-1.6,1.6-1.6l0,0
		c0.8,0,1.6,0.8,1.6,1.6V374.795z"/>
</g>
<polygon style="fill:#E9F4F2;" points="255.2,360.395 243.2,372.395 231.2,360.395 243.2,342.795 "/>
<polygon style="fill:#8BA1A5;" points="250.4,359.595 243.2,366.795 236,359.595 243.2,349.195 "/>
<polygon style="fill:#ACC1C6;" points="250.4,359.595 243.2,358.795 236,359.595 243.2,352.395 "/>
<path style="fill:#339DD1;" d="M348.8,387.595c0,6.4-1.6,11.2-8,11.2H145.6c-6.4,0-8-4.8-8-11.2l0,0c0-6.4,4.8-11.2,11.2-11.2h188
	C344,376.395,348.8,381.195,348.8,387.595L348.8,387.595z"/>
<path style="fill:#237EB5;" d="M348.8,387.595L348.8,387.595c0,6.4-1.6,11.2-8,11.2H145.6c-6.4,0-8-4.8-8-11.2l0,0"/>
<g>
	<circle style="fill:#768689;" cx="212.8" cy="309.195" r="1.6"/>
	<circle style="fill:#768689;" cx="221.6" cy="309.195" r="1.6"/>
	<circle style="fill:#768689;" cx="230.4" cy="309.195" r="1.6"/>
	<circle style="fill:#768689;" cx="239.2" cy="309.195" r="1.6"/>
	<circle style="fill:#768689;" cx="247.2" cy="309.195" r="1.6"/>
	<circle style="fill:#768689;" cx="256" cy="309.195" r="1.6"/>
	<circle style="fill:#768689;" cx="264.8" cy="309.195" r="1.6"/>
	<circle style="fill:#768689;" cx="273.6" cy="309.195" r="1.6"/>
	<circle style="fill:#768689;" cx="212.8" cy="314.795" r="1.6"/>
	<circle style="fill:#768689;" cx="221.6" cy="314.795" r="1.6"/>
	<circle style="fill:#768689;" cx="230.4" cy="314.795" r="1.6"/>
	<circle style="fill:#768689;" cx="239.2" cy="314.795" r="1.6"/>
	<circle style="fill:#768689;" cx="247.2" cy="314.795" r="1.6"/>
	<circle style="fill:#768689;" cx="256" cy="314.795" r="1.6"/>
	<circle style="fill:#768689;" cx="264.8" cy="314.795" r="1.6"/>
	<circle style="fill:#768689;" cx="273.6" cy="314.795" r="1.6"/>
</g>
<path style="fill:#339DD1;" d="M304.8,261.195c0,3.2-3.2,6.4-6.4,6.4H188c-3.2,0-6.4-3.2-6.4-6.4l0,0c0-3.2,2.4-6.4,6.4-6.4h111.2
	C302.4,254.795,304.8,257.995,304.8,261.195L304.8,261.195z"/>
<path style="fill:#237EB5;" d="M304.8,261.195L304.8,261.195c0,3.2-3.2,6.4-6.4,6.4H188c-3.2,0-6.4-3.2-6.4-6.4l0,0"/>
<g>
	<rect x="185.6" y="57.995" style="fill:#070707;" width="116" height="32"/>
	<path style="fill:#070707;" d="M68.8,227.595c0,3.2-2.4,5.6-5.6,5.6l0,0c-3.2,0-5.6-2.4-5.6-5.6v-128c0-3.2,2.4-5.6,5.6-5.6l0,0
		c3.2,0,5.6,2.4,5.6,5.6V227.595z"/>
</g>
<path style="fill:#4D4F4B;" d="M84.8,95.595c0,12-9.6,22.4-22.4,22.4l0,0c-12,0-22.4-9.6-22.4-22.4v-25.6c0-12,9.6-22.4,22.4-22.4
	l0,0c12,0,22.4,9.6,22.4,22.4V95.595z"/>
<g>
	<path style="fill:#070707;" d="M63.2,47.595L63.2,47.595c12,0,22.4,9.6,22.4,22.4v25.6c0,12-9.6,22.4-22.4,22.4l0,0"/>
	<ellipse style="fill:#070707;" cx="63.2" cy="237.195" rx="12.8" ry="8"/>
</g>
<ellipse style="fill:#68B212;" cx="63.2" cy="233.995" rx="63.2" ry="4.8"/>
<path style="fill:#2E8C06;" d="M63.2,229.195c35.2,0,63.2,2.4,63.2,4.8s-28.8,4.8-63.2,4.8"/>
<ellipse style="fill:#070707;" cx="63.2" cy="249.995" rx="12.8" ry="8"/>
<ellipse style="fill:#68B212;" cx="63.2" cy="246.795" rx="63.2" ry="4.8"/>
<path style="fill:#2E8C06;" d="M63.2,241.995c35.2,0,63.2,2.4,63.2,4.8s-28,4.8-63.2,4.8"/>
<ellipse style="fill:#070707;" cx="63.2" cy="263.595" rx="12.8" ry="8"/>
<ellipse style="fill:#68B212;" cx="63.2" cy="259.595" rx="63.2" ry="4.8"/>
<path style="fill:#2E8C06;" d="M63.2,255.595c35.2,0,63.2,2.4,63.2,4.8s-28.8,4.8-63.2,4.8"/>
<ellipse style="fill:#070707;" cx="63.2" cy="276.395" rx="12.8" ry="8"/>
<ellipse style="fill:#68B212;" cx="63.2" cy="272.395" rx="63.2" ry="4.8"/>
<path style="fill:#2E8C06;" d="M63.2,268.395c35.2,0,63.2,2.4,63.2,4.8s-28.8,4.8-63.2,4.8"/>
<ellipse style="fill:#070707;" cx="63.2" cy="289.195" rx="12.8" ry="8"/>
<ellipse style="fill:#68B212;" cx="63.2" cy="285.995" rx="63.2" ry="4.8"/>
<path style="fill:#2E8C06;" d="M63.2,281.195c35.2,0,63.2,2.4,63.2,4.8s-28.8,4.8-63.2,4.8"/>
<ellipse style="fill:#070707;" cx="63.2" cy="301.995" rx="12.8" ry="8"/>
<ellipse style="fill:#68B212;" cx="63.2" cy="298.795" rx="63.2" ry="4.8"/>
<path style="fill:#2E8C06;" d="M63.2,293.995c35.2,0,63.2,2.4,63.2,4.8s-28.8,4.8-63.2,4.8"/>
<ellipse style="fill:#070707;" cx="63.2" cy="315.595" rx="12.8" ry="8"/>
<ellipse style="fill:#68B212;" cx="63.2" cy="311.595" rx="63.2" ry="4.8"/>
<path style="fill:#2E8C06;" d="M63.2,307.595c35.2,0,63.2,2.4,63.2,4.8s-28.8,4.8-63.2,4.8"/>
<ellipse style="fill:#070707;" cx="63.2" cy="328.395" rx="12.8" ry="8"/>
<ellipse style="fill:#68B212;" cx="63.2" cy="324.395" rx="63.2" ry="4.8"/>
<path style="fill:#2E8C06;" d="M63.2,320.395c35.2,0,63.2,2.4,63.2,4.8s-28.8,4.8-63.2,4.8"/>
<ellipse style="fill:#070707;" cx="63.2" cy="341.195" rx="12.8" ry="8"/>
<ellipse style="fill:#68B212;" cx="63.2" cy="337.995" rx="63.2" ry="4.8"/>
<path style="fill:#2E8C06;" d="M63.2,333.195c35.2,0,63.2,2.4,63.2,4.8s-28.8,4.8-63.2,4.8"/>
<ellipse style="fill:#070707;" cx="63.2" cy="353.995" rx="12.8" ry="8"/>
<ellipse style="fill:#68B212;" cx="63.2" cy="350.795" rx="63.2" ry="4.8"/>
<path style="fill:#2E8C06;" d="M63.2,345.995c35.2,0,63.2,2.4,63.2,4.8s-28,4.8-63.2,4.8"/>
<ellipse style="fill:#070707;" cx="63.2" cy="367.595" rx="12.8" ry="8"/>
<ellipse style="fill:#68B212;" cx="63.2" cy="363.595" rx="63.2" ry="4.8"/>
<path style="fill:#2E8C06;" d="M63.2,359.595c35.2,0,63.2,2.4,63.2,4.8s-28.8,4.8-63.2,4.8"/>
<ellipse style="fill:#070707;" cx="63.2" cy="380.395" rx="12.8" ry="8"/>
<ellipse style="fill:#68B212;" cx="63.2" cy="376.395" rx="63.2" ry="4.8"/>
<path style="fill:#2E8C06;" d="M63.2,372.395c35.2,0,63.2,2.4,63.2,4.8s-28.8,4.8-63.2,4.8"/>
<ellipse style="fill:#070707;" cx="63.2" cy="393.195" rx="12.8" ry="8"/>
<ellipse style="fill:#68B212;" cx="63.2" cy="389.995" rx="63.2" ry="4.8"/>
<path style="fill:#2E8C06;" d="M63.2,385.195c35.2,0,63.2,2.4,63.2,4.8s-28.8,4.8-63.2,4.8"/>
<ellipse style="fill:#070707;" cx="63.2" cy="405.995" rx="12.8" ry="8"/>
<ellipse style="fill:#68B212;" cx="63.2" cy="402.795" rx="63.2" ry="4.8"/>
<path style="fill:#2E8C06;" d="M63.2,397.995c35.2,0,63.2,2.4,63.2,4.8s-28.8,4.8-63.2,4.8"/>
<ellipse style="fill:#070707;" cx="63.2" cy="419.595" rx="12.8" ry="8"/>
<ellipse style="fill:#68B212;" cx="63.2" cy="415.595" rx="63.2" ry="4.8"/>
<path style="fill:#2E8C06;" d="M63.2,411.595c35.2,0,63.2,2.4,63.2,4.8s-28.8,4.8-63.2,4.8"/>
<ellipse style="fill:#070707;" cx="63.2" cy="432.395" rx="12.8" ry="8"/>
<ellipse style="fill:#68B212;" cx="63.2" cy="428.395" rx="63.2" ry="4.8"/>
<path style="fill:#2E8C06;" d="M63.2,424.395c35.2,0,63.2,2.4,63.2,4.8s-28.8,4.8-63.2,4.8"/>
<path style="fill:#070707;" d="M428.8,227.595c0,3.2-2.4,5.6-5.6,5.6l0,0c-3.2,0-5.6-2.4-5.6-5.6v-128c0-3.2,2.4-5.6,5.6-5.6l0,0
	c3.2,0,5.6,2.4,5.6,5.6V227.595z"/>
<path style="fill:#4D4F4B;" d="M444.8,95.595c0,12-9.6,22.4-22.4,22.4l0,0c-12,0-22.4-9.6-22.4-22.4v-25.6c0-12,9.6-22.4,22.4-22.4
	l0,0c12,0,22.4,9.6,22.4,22.4V95.595z"/>
<g>
	<path style="fill:#070707;" d="M423.2,47.595L423.2,47.595c12,0,22.4,9.6,22.4,22.4v25.6c0,12-9.6,22.4-22.4,22.4l0,0"/>
	<ellipse style="fill:#070707;" cx="423.2" cy="237.195" rx="12.8" ry="8"/>
</g>
<ellipse style="fill:#68B212;" cx="423.2" cy="233.995" rx="63.2" ry="4.8"/>
<path style="fill:#2E8C06;" d="M423.2,229.195c35.2,0,63.2,2.4,63.2,4.8s-28.8,4.8-63.2,4.8"/>
<ellipse style="fill:#070707;" cx="423.2" cy="249.995" rx="12.8" ry="8"/>
<ellipse style="fill:#68B212;" cx="423.2" cy="246.795" rx="63.2" ry="4.8"/>
<path style="fill:#2E8C06;" d="M423.2,241.995c35.2,0,63.2,2.4,63.2,4.8s-28,4.8-63.2,4.8"/>
<ellipse style="fill:#070707;" cx="423.2" cy="263.595" rx="12.8" ry="8"/>
<ellipse style="fill:#68B212;" cx="423.2" cy="259.595" rx="63.2" ry="4.8"/>
<path style="fill:#2E8C06;" d="M423.2,255.595c35.2,0,63.2,2.4,63.2,4.8s-28.8,4.8-63.2,4.8"/>
<ellipse style="fill:#070707;" cx="423.2" cy="276.395" rx="12.8" ry="8"/>
<ellipse style="fill:#68B212;" cx="423.2" cy="272.395" rx="63.2" ry="4.8"/>
<path style="fill:#2E8C06;" d="M423.2,268.395c35.2,0,63.2,2.4,63.2,4.8s-28.8,4.8-63.2,4.8"/>
<ellipse style="fill:#070707;" cx="423.2" cy="289.195" rx="12.8" ry="8"/>
<ellipse style="fill:#68B212;" cx="423.2" cy="285.995" rx="63.2" ry="4.8"/>
<path style="fill:#2E8C06;" d="M423.2,281.195c35.2,0,63.2,2.4,63.2,4.8s-28.8,4.8-63.2,4.8"/>
<ellipse style="fill:#070707;" cx="423.2" cy="301.995" rx="12.8" ry="8"/>
<ellipse style="fill:#68B212;" cx="423.2" cy="298.795" rx="63.2" ry="4.8"/>
<path style="fill:#2E8C06;" d="M423.2,293.995c35.2,0,63.2,2.4,63.2,4.8s-28.8,4.8-63.2,4.8"/>
<ellipse style="fill:#070707;" cx="423.2" cy="315.595" rx="12.8" ry="8"/>
<ellipse style="fill:#68B212;" cx="423.2" cy="311.595" rx="63.2" ry="4.8"/>
<path style="fill:#2E8C06;" d="M423.2,307.595c35.2,0,63.2,2.4,63.2,4.8s-28.8,4.8-63.2,4.8"/>
<ellipse style="fill:#070707;" cx="423.2" cy="328.395" rx="12.8" ry="8"/>
<ellipse style="fill:#68B212;" cx="423.2" cy="324.395" rx="63.2" ry="4.8"/>
<path style="fill:#2E8C06;" d="M423.2,320.395c35.2,0,63.2,2.4,63.2,4.8s-28.8,4.8-63.2,4.8"/>
<ellipse style="fill:#070707;" cx="423.2" cy="341.195" rx="12.8" ry="8"/>
<ellipse style="fill:#68B212;" cx="423.2" cy="337.995" rx="63.2" ry="4.8"/>
<path style="fill:#2E8C06;" d="M423.2,333.195c35.2,0,63.2,2.4,63.2,4.8s-28.8,4.8-63.2,4.8"/>
<ellipse style="fill:#070707;" cx="423.2" cy="353.995" rx="12.8" ry="8"/>
<ellipse style="fill:#68B212;" cx="423.2" cy="350.795" rx="63.2" ry="4.8"/>
<path style="fill:#2E8C06;" d="M423.2,345.995c35.2,0,63.2,2.4,63.2,4.8s-28,4.8-63.2,4.8"/>
<ellipse style="fill:#070707;" cx="423.2" cy="367.595" rx="12.8" ry="8"/>
<ellipse style="fill:#68B212;" cx="423.2" cy="363.595" rx="63.2" ry="4.8"/>
<path style="fill:#2E8C06;" d="M423.2,359.595c35.2,0,63.2,2.4,63.2,4.8s-28.8,4.8-63.2,4.8"/>
<ellipse style="fill:#070707;" cx="423.2" cy="380.395" rx="12.8" ry="8"/>
<ellipse style="fill:#68B212;" cx="423.2" cy="376.395" rx="63.2" ry="4.8"/>
<path style="fill:#2E8C06;" d="M423.2,372.395c35.2,0,63.2,2.4,63.2,4.8s-28.8,4.8-63.2,4.8"/>
<ellipse style="fill:#070707;" cx="423.2" cy="393.195" rx="12.8" ry="8"/>
<ellipse style="fill:#68B212;" cx="423.2" cy="389.995" rx="63.2" ry="4.8"/>
<path style="fill:#2E8C06;" d="M423.2,385.195c35.2,0,63.2,2.4,63.2,4.8s-28.8,4.8-63.2,4.8"/>
<ellipse style="fill:#070707;" cx="423.2" cy="405.995" rx="12.8" ry="8"/>
<ellipse style="fill:#68B212;" cx="423.2" cy="402.795" rx="63.2" ry="4.8"/>
<path style="fill:#2E8C06;" d="M423.2,397.995c35.2,0,63.2,2.4,63.2,4.8s-28.8,4.8-63.2,4.8"/>
<ellipse style="fill:#070707;" cx="423.2" cy="419.595" rx="12.8" ry="8"/>
<ellipse style="fill:#68B212;" cx="423.2" cy="415.595" rx="63.2" ry="4.8"/>
<path style="fill:#2E8C06;" d="M423.2,411.595c35.2,0,63.2,2.4,63.2,4.8s-28.8,4.8-63.2,4.8"/>
<ellipse style="fill:#070707;" cx="423.2" cy="432.395" rx="12.8" ry="8"/>
<ellipse style="fill:#68B212;" cx="423.2" cy="428.395" rx="63.2" ry="4.8"/>
<path style="fill:#2E8C06;" d="M423.2,424.395c35.2,0,63.2,2.4,63.2,4.8s-28.8,4.8-63.2,4.8"/>
<path style="fill:#1B9CCE;" d="M457.6,53.995c0,8-6.4,15.2-15.2,15.2H44c-8,0-15.2-6.4-15.2-15.2l0,0c0-8,6.4-15.2,15.2-15.2h398.4
	C450.4,39.595,457.6,45.995,457.6,53.995L457.6,53.995z"/>
<g>
	<path style="fill:#237EB5;" d="M457.6,53.995L457.6,53.995c0,8-6.4,15.2-15.2,15.2H44c-8,0-15.2-6.4-15.2-15.2l0,0"/>
	<path style="fill:#237EB5;" d="M368,96.395c0,8.8-7.2,15.2-15.2,15.2H133.6c-8.8,0-15.2-7.2-15.2-15.2l0,0
		c0-8.8,7.2-15.2,15.2-15.2h219.2C361.6,81.195,368,88.395,368,96.395L368,96.395z"/>
</g>
<g>
	<circle style="fill:#6BCBE8;" cx="144" cy="121.995" r="4.8"/>
	<circle style="fill:#6BCBE8;" cx="144" cy="144.395" r="4.8"/>
	<circle style="fill:#6BCBE8;" cx="144" cy="165.995" r="4.8"/>
	<circle style="fill:#6BCBE8;" cx="144" cy="188.395" r="4.8"/>
	<circle style="fill:#6BCBE8;" cx="144" cy="209.995" r="4.8"/>
	<circle style="fill:#6BCBE8;" cx="162.4" cy="141.995" r="4.8"/>
	<circle style="fill:#6BCBE8;" cx="162.4" cy="164.395" r="4.8"/>
	<circle style="fill:#6BCBE8;" cx="162.4" cy="185.995" r="4.8"/>
	<circle style="fill:#6BCBE8;" cx="162.4" cy="208.395" r="4.8"/>
	<circle style="fill:#6BCBE8;" cx="162.4" cy="229.995" r="4.8"/>
	<circle style="fill:#6BCBE8;" cx="180" cy="121.995" r="4.8"/>
	<circle style="fill:#6BCBE8;" cx="180" cy="144.395" r="4.8"/>
	<circle style="fill:#6BCBE8;" cx="180" cy="165.995" r="4.8"/>
	<circle style="fill:#6BCBE8;" cx="180" cy="188.395" r="4.8"/>
	<circle style="fill:#6BCBE8;" cx="180" cy="209.995" r="4.8"/>
	<circle style="fill:#6BCBE8;" cx="198.4" cy="141.995" r="4.8"/>
	<circle style="fill:#6BCBE8;" cx="198.4" cy="164.395" r="4.8"/>
	<circle style="fill:#6BCBE8;" cx="198.4" cy="185.995" r="4.8"/>
	<circle style="fill:#6BCBE8;" cx="198.4" cy="208.395" r="4.8"/>
	<circle style="fill:#6BCBE8;" cx="198.4" cy="229.995" r="4.8"/>
	<circle style="fill:#6BCBE8;" cx="216" cy="121.995" r="4.8"/>
	<circle style="fill:#6BCBE8;" cx="216" cy="144.395" r="4.8"/>
	<circle style="fill:#6BCBE8;" cx="216" cy="165.995" r="4.8"/>
	<circle style="fill:#6BCBE8;" cx="216" cy="188.395" r="4.8"/>
	<circle style="fill:#6BCBE8;" cx="216" cy="209.995" r="4.8"/>
	<circle style="fill:#6BCBE8;" cx="234.4" cy="141.995" r="4.8"/>
	<circle style="fill:#6BCBE8;" cx="234.4" cy="164.395" r="4.8"/>
	<circle style="fill:#6BCBE8;" cx="234.4" cy="185.995" r="4.8"/>
	<circle style="fill:#6BCBE8;" cx="234.4" cy="208.395" r="4.8"/>
	<circle style="fill:#6BCBE8;" cx="234.4" cy="229.995" r="4.8"/>
	<circle style="fill:#6BCBE8;" cx="252" cy="121.995" r="4.8"/>
	<circle style="fill:#6BCBE8;" cx="252" cy="144.395" r="4.8"/>
	<circle style="fill:#6BCBE8;" cx="252" cy="165.995" r="4.8"/>
	<circle style="fill:#6BCBE8;" cx="252" cy="188.395" r="4.8"/>
	<circle style="fill:#6BCBE8;" cx="252" cy="209.995" r="4.8"/>
	<circle style="fill:#6BCBE8;" cx="270.4" cy="141.995" r="4.8"/>
	<circle style="fill:#6BCBE8;" cx="270.4" cy="164.395" r="4.8"/>
	<circle style="fill:#6BCBE8;" cx="270.4" cy="185.995" r="4.8"/>
	<circle style="fill:#6BCBE8;" cx="270.4" cy="208.395" r="4.8"/>
	<circle style="fill:#6BCBE8;" cx="270.4" cy="229.995" r="4.8"/>
	<circle style="fill:#6BCBE8;" cx="288" cy="121.995" r="4.8"/>
	<circle style="fill:#6BCBE8;" cx="288" cy="144.395" r="4.8"/>
	<circle style="fill:#6BCBE8;" cx="288" cy="165.995" r="4.8"/>
	<circle style="fill:#6BCBE8;" cx="288" cy="188.395" r="4.8"/>
	<circle style="fill:#6BCBE8;" cx="288" cy="209.995" r="4.8"/>
	<circle style="fill:#6BCBE8;" cx="306.4" cy="141.995" r="4.8"/>
	<circle style="fill:#6BCBE8;" cx="306.4" cy="164.395" r="4.8"/>
	<circle style="fill:#6BCBE8;" cx="306.4" cy="185.995" r="4.8"/>
	<circle style="fill:#6BCBE8;" cx="306.4" cy="208.395" r="4.8"/>
	<circle style="fill:#6BCBE8;" cx="306.4" cy="229.995" r="4.8"/>
	<circle style="fill:#6BCBE8;" cx="324" cy="121.995" r="4.8"/>
	<circle style="fill:#6BCBE8;" cx="324" cy="144.395" r="4.8"/>
	<circle style="fill:#6BCBE8;" cx="324" cy="165.995" r="4.8"/>
	<circle style="fill:#6BCBE8;" cx="324" cy="188.395" r="4.8"/>
	<circle style="fill:#6BCBE8;" cx="324" cy="209.995" r="4.8"/>
	<circle style="fill:#6BCBE8;" cx="342.4" cy="141.995" r="4.8"/>
	<circle style="fill:#6BCBE8;" cx="342.4" cy="164.395" r="4.8"/>
	<circle style="fill:#6BCBE8;" cx="342.4" cy="185.995" r="4.8"/>
	<circle style="fill:#6BCBE8;" cx="342.4" cy="208.395" r="4.8"/>
	<circle style="fill:#6BCBE8;" cx="342.4" cy="229.995" r="4.8"/>
</g>
<g>
</g>
<g>
</g>
<g>
</g>
<g>
</g>
<g>
</g>
<g>
</g>
<g>
</g>
<g>
</g>
<g>
</g>
<g>
</g>
<g>
</g>
<g>
</g>
<g>
</g>
<g>
</g>
<g>
</g>
</svg>
