<?xml version="1.0" encoding="iso-8859-1"?>
<!-- Generator: Adobe Illustrator 19.0.0, SVG Export Plug-In . SVG Version: 6.00 Build 0)  -->
<svg version="1.1" id="Capa_1" xmlns="http://www.w3.org/2000/svg" xmlns:xlink="http://www.w3.org/1999/xlink" x="0px" y="0px"
	 viewBox="0 0 512 512" style="enable-background:new 0 0 512 512;" xml:space="preserve">
<path style="fill:#FE318F;" d="M512,106v45l-30,30H30L0,151v-45c0-24.901,21.099-45,46-45h421C491.901,61,512,81.099,512,106z"/>
<path style="fill:#FD0F7F;" d="M512,106v45l-30,30H256V61h211C491.901,61,512,81.099,512,106z"/>
<path style="fill:#FEDBAB;" d="M512,152v315c0,24.901-20.099,45-45,45H46c-24.901,0-46-20.099-46-45V152H512z"/>
<path style="fill:#FEC478;" d="M512,152v315c0,24.901-20.099,45-45,45H256V152H512z"/>
<path style="fill:#FE318F;" d="M286,332c-12.9,0-22.8,4.799-30,11.4c-7.2-6.601-17.1-11.4-30-11.4c-25.201,0-45,18.9-45,43.2
	c0,31.8,39.901,54.6,66,73.801c2.699,2.098,5.7,2.999,9,2.999c3.3,0,6.301-0.901,9-2.999c26.1-19.2,66-42.001,66-73.801
	C331,350.9,311.201,332,286,332z"/>
<path style="fill:#1BD9DE;" d="M136,452H76c-8.291,0-15-6.709-15-15v-60c0-8.291,6.709-15,15-15h60c8.291,0,15,6.709,15,15v60
	C151,445.291,144.291,452,136,452z"/>
<path style="fill:#14B7BF;" d="M437,452h-60c-8.291,0-15-6.709-15-15v-60c0-8.291,6.709-15,15-15h60c8.291,0,15,6.709,15,15v60
	C452,445.291,445.291,452,437,452z"/>
<g>
	<path style="fill:#1BD9DE;" d="M136,301H76c-8.291,0-15-6.709-15-15v-60c0-8.291,6.709-15,15-15h60c8.291,0,15,6.709,15,15v60
		C151,294.291,144.291,301,136,301z"/>
	<path style="fill:#1BD9DE;" d="M286,211h-60c-8.401,0-15,6.599-15,15v60c0,8.401,6.599,15,15,15h60c8.401,0,15-6.599,15-15v-60
		C301,217.599,294.401,211,286,211z"/>
</g>
<path style="fill:#14B7BF;" d="M437,301h-60c-8.291,0-15-6.709-15-15v-60c0-8.291,6.709-15,15-15h60c8.291,0,15,6.709,15,15v60
	C452,294.291,445.291,301,437,301z"/>
<g>
	<path style="fill:#CAE8F9;" d="M136,30v61c0,16.5-13.5,30-30,30s-30-13.5-30-30V30c0-16.5,13.5-30,30-30S136,13.5,136,30z"/>
	<path style="fill:#CAE8F9;" d="M286,30v61c0,16.5-13.5,30-30,30s-30-13.5-30-30V30c0-16.5,13.5-30,30-30S286,13.5,286,30z"/>
</g>
<g>
	<path style="fill:#B7E0F6;" d="M286,30v61c0,16.5-13.5,30-30,30V0C272.5,0,286,13.5,286,30z"/>
	<path style="fill:#B7E0F6;" d="M437,30v61c0,16.5-13.5,30-30,30s-30-13.5-30-30V30c0-16.5,13.5-30,30-30S437,13.5,437,30z"/>
</g>
<path style="fill:#FD0F7F;" d="M331,375.2c0,31.8-39.901,54.6-66,73.801c-2.699,2.098-5.7,2.999-9,2.999V343.4
	c7.2-6.601,17.1-11.4,30-11.4C311.201,332,331,350.9,331,375.2z"/>
<path style="fill:#14B7BF;" d="M301,226v60c0,8.401-6.599,15-15,15h-30v-90h30C294.401,211,301,217.599,301,226z"/>
<g>
</g>
<g>
</g>
<g>
</g>
<g>
</g>
<g>
</g>
<g>
</g>
<g>
</g>
<g>
</g>
<g>
</g>
<g>
</g>
<g>
</g>
<g>
</g>
<g>
</g>
<g>
</g>
<g>
</g>
</svg>
