<?xml version="1.0" encoding="iso-8859-1"?>
<!-- Generator: Adobe Illustrator 19.0.0, SVG Export Plug-In . SVG Version: 6.00 Build 0)  -->
<svg version="1.1" id="Layer_1" xmlns="http://www.w3.org/2000/svg" xmlns:xlink="http://www.w3.org/1999/xlink" x="0px" y="0px"
	 viewBox="0 0 504 504" style="enable-background:new 0 0 504 504;" xml:space="preserve">
<circle style="fill:#FD8469;" cx="252" cy="252" r="252"/>
<path style="fill:#E6E9EE;" d="M395.2,399.5H108.8c-2.4,0-4.3-1.9-4.3-4.3V108.8c0-2.4,1.9-4.3,4.3-4.3h286.4c2.4,0,4.3,1.9,4.3,4.3
	v286.4C399.5,397.6,397.6,399.5,395.2,399.5z"/>
<rect x="124.2" y="124.2" style="fill:#54C0EB;" width="255.7" height="255.7"/>
<rect x="124.2" y="332.7" style="fill:#84DBFF;" width="255.7" height="47.1"/>
<polygon style="fill:#2B3B4E;" points="306.4,333.2 221.4,207.5 124.2,333.2 "/>
<polygon style="fill:#324A5E;" points="379.8,333.2 294.8,239.8 197.6,333.2 "/>
<circle style="fill:#FFD05B;" cx="269.9" cy="194.4" r="17.9"/>
<path style="fill:#FF7058;" d="M329.1,367c0.2-0.7,0.3-1.4,0.5-2c0.8-3.4,1.7-6.8,2.5-10.3c0.6-3.5,1.2-7.1,1.8-10.7
	c1.4-7.1,1.9-14.4,2.6-21.7c0.9-7.2,0.8-14.5,1.1-21.6c0-3.6,0.3-7.1,0.1-10.6c-0.1-3.5-0.2-6.9-0.4-10.3
	c-0.3-6.7-0.3-13.2-1.1-19.4c-0.4-4.7-0.9-9.1-1.3-13.4h-5.2c-0.2,4.3-0.3,8.7-0.5,13.4c-0.1,6.1-0.9,12.4-1.5,19
	c-0.3,3.3-0.6,6.6-1,10c-0.2,3.4-1,6.7-1.5,10.1c-1.2,6.8-2,13.7-3.7,20.4c-1.6,6.8-3,13.5-5.2,19.9c-1,3.2-2,6.4-3,9.6
	c-1.2,3-2.4,6.1-3.5,9c-0.6,1.5-1.1,2.9-1.7,4.4c-0.6,1.4-1.3,2.7-1.9,4.1h22.9V367z"/>
<path style="fill:#FFFFFF;" d="M375.5,258.5c1.4,0.1,2.8,0.3,4.1,0.4v-13.7c-0.3-0.1-0.6-0.2-0.9-0.3c-4.2-1.3-8.6-2.8-13.3-3.6
	c-4.6-0.9-9.4-1.9-14.3-2.2c-1.3-0.1-2.7-0.2-4-0.3l0,0c1.1-1.3,2.2-2.6,3.2-3.8c2.1-2.4,4.3-4.7,6.4-6.8c1.1-1,2.1-2.1,3.1-3
	c1-1,2-1.9,3-2.7c1.9-1.7,3.7-3.3,5.3-4.7c1.7-1.3,3-2.6,4.2-3.6c1.2-0.9,2.1-1.8,2.8-2.3c0.6-0.6,1-0.8,1-0.8s-0.5,0.1-1.5,0.2
	c-0.9,0.2-2.4,0.4-4.1,0.8c-1.8,0.4-3.8,0.9-6.2,1.6c-2.3,0.8-5,1.7-7.7,2.9c-1.4,0.6-2.8,1.3-4.3,2c-1.4,0.8-2.9,1.6-4.4,2.4
	c-3,1.8-6,3.8-9,6.1c-2.9,2.3-5.8,4.9-8.5,7.6c-0.5-0.2-1-0.5-1.4-0.7c-1.5-0.7-3-1.6-4.5-2.2c-3.1-1.2-6-2.4-8.9-3.2
	c-1.5-0.4-2.8-0.8-4.2-1.2c-1.4-0.3-2.7-0.6-4-0.9c-5.1-1-9.6-1.3-12.7-1.3c-1.5-0.1-2.8,0-3.7,0.1c-0.8,0-1.3,0.1-1.3,0.1
	s4.9,3.3,12.6,8.3c1.9,1.2,4,2.6,6.1,4.1c1.4,0.9,2.7,1.8,4.1,2.8c-1.4,0.2-2.9,0.5-4.3,0.8c-4.5,1-8.8,2-12.8,3.3
	c-2,0.7-4,1.3-5.9,1.9c-1.9,0.7-3.7,1.4-5.4,2.1c-3.5,1.4-6.6,2.9-9.4,4.3c-2.8,1.5-5.1,2.8-7.1,4c-3.9,2.4-6,4.1-6,4.1
	s2.5-0.2,6.8-0.7c2.1-0.2,4.6-0.5,7.5-0.8c2.9-0.2,6.1-0.6,9.6-0.9c3.5-0.4,7.2-0.6,11.2-1c3.9-0.4,8.1-0.5,12.3-0.9
	c1.8,0,3.7-0.1,5.6-0.2c-1.6,3.2-3.1,6.4-4.4,9.6c-3.1,7.9-5,15.8-5.9,22.9c-1,7.3-1,13.7-0.7,18.2c0.3,4.6,0.9,7.2,0.9,7.2
	s0.3-0.6,0.9-1.8c0.5-1.2,1.4-2.9,2.3-5c1.9-4.1,4.6-9.8,7.8-16.4c3-6.3,6.5-13.2,10.3-20.2c0.9-1.7,1.9-3.4,2.8-5.1
	c1-1.7,2-3.3,2.9-5c0.8-1.2,1.5-2.5,2.3-3.7c1,1,2,1.9,3,2.9c1.1,1.2,2.5,2.2,3.6,3.4c1.1,1.2,2.2,2.4,3.3,3.6
	c1.1,1.2,2.4,2.3,3.4,3.5s2,2.5,3.1,3.7s2.1,2.4,3.2,3.5c0.9,1.2,1.8,2.4,2.7,3.6c1.8,2.4,3.7,4.5,5.2,6.6c1.4,2.1,2.8,4,4,5.6
	c1.1,1.6,2.2,2.9,2.9,3.7c0.7,0.9,1.1,1.4,1.1,1.4s0-0.6,0.1-1.6c0-1,0.1-2.6-0.1-4.5c-0.1-1.9-0.2-4.3-0.5-6.9
	c-0.4-2.6-1.2-5.4-2.1-8.4c-0.4-1.5-0.9-3.1-1.4-4.7c-0.7-1.5-1.4-3.1-2.2-4.6c-0.7-1.6-1.6-3.1-2.4-4.7s-2-3-3-4.6
	c-0.4-0.6-0.9-1.2-1.3-1.8c2.1,0.2,4.2,0.3,6.3,0.4C367.1,257.4,371.4,258.1,375.5,258.5z"/>
<path style="fill:#FFD05B;" d="M364.7,378.9C354.3,364.5,337.3,355,318,355c-19.2,0-36.2,9.4-46.7,23.9H364.7z"/>
<g>
</g>
<g>
</g>
<g>
</g>
<g>
</g>
<g>
</g>
<g>
</g>
<g>
</g>
<g>
</g>
<g>
</g>
<g>
</g>
<g>
</g>
<g>
</g>
<g>
</g>
<g>
</g>
<g>
</g>
</svg>
