<?xml version="1.0" encoding="iso-8859-1"?>
<!-- Generator: Adobe Illustrator 19.0.0, SVG Export Plug-In . SVG Version: 6.00 Build 0)  -->
<svg version="1.1" id="Capa_1" xmlns="http://www.w3.org/2000/svg" xmlns:xlink="http://www.w3.org/1999/xlink" x="0px" y="0px"
	 viewBox="0 0 512 512" style="enable-background:new 0 0 512 512;" xml:space="preserve">
<path style="fill:#3EAF91;" d="M69.278,474.297v-45.468c-2.443-0.908-5.083-1.412-7.843-1.412
	c-12.463,0-22.568,10.104-22.568,22.567v0.09c-4.109-4.298-9.885-6.986-16.299-6.986C10.104,443.089,0,453.194,0,465.658v13.791
	h74.429C71.596,479.448,69.278,477.13,69.278,474.297z"/>
<path style="fill:#FCC96C;" d="M172.981,193.992L67.8,299.172c-2.003,2.003-3.642,5.96-3.642,8.793v166.331
	c0,2.833,2.318,5.151,5.151,5.151h416.13c2.833,0,5.151-2.318,5.151-5.151V302.815L172.981,193.992z"/>
<g>
	<path style="fill:#34A1D7;" d="M389.095,408.658c0,1.838-1.504,3.342-3.342,3.342h-28.316c-1.838,0-3.342-1.504-3.342-3.342
		v-75.581c0-1.838,1.504-3.342,3.342-3.342h28.316c1.838,0,3.342,1.504,3.342,3.342V408.658z"/>
	<path style="fill:#34A1D7;" d="M458.573,408.658c0,1.838-1.504,3.342-3.342,3.342h-28.316c-1.838,0-3.342-1.504-3.342-3.342
		v-75.581c0-1.838,1.504-3.342,3.342-3.342h28.316c1.838,0,3.342,1.504,3.342,3.342V408.658z"/>
</g>
<path style="fill:#86D5B5;" d="M67.8,299.172l64.2-44.172l40.949-60.977l-0.003-0.015l-16.028-16.088
	c-0.304-0.002-0.503-0.003-0.568-0.004c-2.546-0.011-6.273,1.615-8.282,3.612L29.721,299.165c-2.009,1.998-1.335,3.631,1.498,3.631
	H65.44C66.079,301.382,66.897,300.076,67.8,299.172z"/>
<path style="fill:#FFBB4A;" d="M312.606,302.815L172.981,193.992L67.8,299.172c-2.003,2.003-3.642,5.96-3.642,8.793v166.331
	c0,2.833,2.318,5.151,5.151,5.151H313.88V307.966C313.88,306.415,313.379,304.534,312.606,302.815z"/>
<path style="opacity:0.1;fill:#231F20;enable-background:new    ;" d="M172.981,193.992L67.8,299.172
	c-2.003,2.003-3.642,5.96-3.642,8.793v166.331c0,2.833,2.318,5.151,5.151,5.151h22.892V313.218c0-2.833,1.639-6.79,3.642-8.793
	l93.75-93.75L172.981,193.992z"/>
<path style="fill:#CB7C52;" d="M202.105,327.342h-61.121c-2.833,0-5.151,2.318-5.151,5.151v146.955h71.423V332.493
	C207.255,329.66,204.938,327.342,202.105,327.342z"/>
<path style="opacity:0.1;fill:#231F20;enable-background:new    ;" d="M163.284,327.342h-22.3c-2.833,0-5.151,2.318-5.151,5.151
	v146.955h22.3V332.493C158.133,329.66,160.451,327.342,163.284,327.342z"/>
<path style="fill:#3EAF91;" d="M507.832,299.184L389.485,181.548c-2.009-1.998-5.971-3.631-8.804-3.63c0,0-223.101,0.006-223.767,0
	l120.793,121.249c1.999,2.007,5.953,3.65,8.786,3.65h219.841C509.168,302.815,509.841,301.181,507.832,299.184z"/>
<g>
	<polygon style="fill:#86D5B5;" points="408.001,199.952 178.917,199.952 193.852,214.952 423.092,214.952 	"/>
	<polygon style="fill:#86D5B5;" points="438.607,230.374 209.21,230.374 224.145,245.374 453.698,245.374 	"/>
	<polygon style="fill:#86D5B5;" points="469.213,260.796 239.502,260.796 254.438,275.796 484.303,275.796 	"/>
</g>
<path style="fill:#EF5A50;" d="M79.212,385.694c-1.469,0-2.767-0.954-3.205-2.358c-5.255-16.88-8.865-20.49-25.745-25.746
	c-1.404-0.438-2.359-1.735-2.359-3.205c0-1.469,0.955-2.767,2.359-3.203c16.88-5.257,20.49-8.867,25.745-25.747
	c0.438-1.402,1.735-2.358,3.205-2.358c1.469,0,2.767,0.956,3.203,2.358c5.257,16.879,8.866,20.49,25.748,25.747
	c1.402,0.437,2.357,1.734,2.357,3.203c0,1.47-0.955,2.768-2.357,3.205c-16.881,5.256-20.49,8.865-25.748,25.746
	C81.979,384.74,80.681,385.694,79.212,385.694z"/>
<path style="fill:#FF9F3D;" d="M67.157,194.298c-1.468,0-2.767-0.955-3.203-2.358c-5.256-16.88-8.865-20.49-25.747-25.747
	c-1.402-0.436-2.358-1.735-2.358-3.204s0.956-2.766,2.358-3.202c16.881-5.258,20.491-8.867,25.747-25.747
	c0.436-1.402,1.735-2.357,3.203-2.357c1.47,0,2.767,0.954,3.204,2.357c5.257,16.88,8.866,20.49,25.746,25.747
	c1.403,0.437,2.358,1.733,2.358,3.202s-0.955,2.768-2.358,3.204c-16.88,5.257-20.489,8.866-25.746,25.747
	C69.924,193.342,68.627,194.298,67.157,194.298z"/>
<path style="fill:#EF5A50;" d="M268.481,448.759c-1.214,0-2.286-0.79-2.648-1.949c-4.344-13.951-7.327-16.934-21.277-21.278
	c-1.159-0.36-1.949-1.433-1.949-2.647s0.79-2.288,1.949-2.647c13.951-4.345,16.933-7.328,21.277-21.279
	c0.362-1.159,1.434-1.947,2.648-1.947c1.215,0,2.288,0.789,2.648,1.947c4.344,13.951,7.327,16.934,21.277,21.279
	c1.16,0.359,1.949,1.433,1.949,2.647s-0.79,2.287-1.949,2.647c-13.951,4.345-16.933,7.328-21.277,21.278
	C270.769,447.97,269.696,448.759,268.481,448.759z"/>
<path style="fill:#FF9F3D;" d="M476.125,215.29c-1.214,0-2.287-0.79-2.647-1.949c-4.344-13.951-7.327-16.934-21.277-21.278
	c-1.16-0.361-1.949-1.434-1.949-2.647c0-1.214,0.789-2.288,1.949-2.648c13.951-4.345,16.934-7.328,21.277-21.279
	c0.361-1.158,1.434-1.948,2.647-1.948c1.214,0,2.288,0.79,2.647,1.948c4.345,13.951,7.328,16.934,21.278,21.279
	c1.16,0.36,1.949,1.434,1.949,2.648c0,1.213-0.79,2.286-1.949,2.647c-13.951,4.345-16.933,7.328-21.278,21.278
	C478.413,214.501,477.339,215.29,476.125,215.29z"/>
<path style="fill:#3EAF91;" d="M512,479.448v-10.72c0-9.688-7.854-17.543-17.543-17.543c-4.986,0-9.475,2.09-12.669,5.431v-0.07
	c0-9.688-7.854-17.542-17.543-17.542c-4.191,0-8.036,1.474-11.053,3.928c-1.577-8.07-8.679-14.161-17.209-14.161
	c-9.689,0-17.543,7.854-17.543,17.543v5.627c-2.966-2.299-6.678-3.678-10.72-3.678c-4.499,0-8.59,1.707-11.696,4.492v-7.415
	c0-9.689-7.853-17.543-17.541-17.543s-17.543,7.854-17.543,17.543v34.109H512V479.448z"/>
<path style="fill:#AB5436;" d="M192,411.751c-4.142,0-7.5-3.358-7.5-7.5v-10.867c0-4.142,3.358-7.5,7.5-7.5s7.5,3.358,7.5,7.5
	v10.867C199.5,408.395,196.142,411.751,192,411.751z"/>
<path style="fill:#FFFFFF;" d="M249.909,337.125h-19.573c-1.7,0-3.091,1.391-3.091,3.09v23.694c0,1.7,1.391,3.09,3.091,3.09h19.573
	c1.7,0,3.091-1.39,3.091-3.09v-23.694C253,338.516,251.609,337.125,249.909,337.125z"/>
<circle style="fill:#FFBB4A;" cx="393.01" cy="77.88" r="45.33"/>
<path style="opacity:0.1;fill:#231F20;enable-background:new    ;" d="M368.29,77.88c0-21.489,14.958-39.472,35.026-44.138
	c-3.311-0.77-6.756-1.19-10.302-1.19c-25.034,0-45.328,20.294-45.328,45.328s20.294,45.328,45.328,45.328
	c3.545,0,6.991-0.42,10.302-1.19C383.248,117.352,368.29,99.37,368.29,77.88z"/>
<g>
</g>
<g>
</g>
<g>
</g>
<g>
</g>
<g>
</g>
<g>
</g>
<g>
</g>
<g>
</g>
<g>
</g>
<g>
</g>
<g>
</g>
<g>
</g>
<g>
</g>
<g>
</g>
<g>
</g>
</svg>
