<?xml version="1.0" encoding="iso-8859-1"?>
<!-- Generator: Adobe Illustrator 19.1.0, SVG Export Plug-In . SVG Version: 6.00 Build 0)  -->
<svg version="1.1" id="Capa_1" xmlns="http://www.w3.org/2000/svg" xmlns:xlink="http://www.w3.org/1999/xlink" x="0px" y="0px"
	 viewBox="0 0 216.291 216.291" style="enable-background:new 0 0 216.291 216.291;" xml:space="preserve">
<g>
	<g id="group-19svg">
		<path id="path-1_79_" style="fill:#0CB04A;" d="M161.468,197.507h14.288c2.755,0,4.988,1.401,4.988,3.131
			c0,1.728-2.233,3.13-4.988,3.13h-0.665c-2.755,0-4.988,1.402-4.988,3.13c0,1.73,2.233,3.132,4.988,3.132h30.715
			c2.755,0,4.988,1.401,4.988,3.131c0,1.729-2.233,3.13-4.988,3.13h-36.912h-40.57c-2.755,0-4.988-1.401-4.988-3.13
			c0-1.73,2.233-3.131,4.988-3.131h8.524c2.756,0,4.989-1.402,4.989-3.132c0-1.728-2.233-3.13-4.989-3.13h-40.57
			c-2.754,0-4.987-1.402-4.987-3.13c0-1.73,2.233-3.131,4.987-3.131h9.589H161.468z"/>
		<path id="path-2_79_" style="fill:#0CB04A;" d="M35.907,202.737c4.132,0,7.482-2.104,7.482-4.697c0-2.594-3.35-4.696-7.482-4.696
			H12.978c-4.133,0-7.482,2.102-7.482,4.696c0,2.593,3.349,4.697,7.482,4.697H35.907z"/>
		<path id="path-3_79_" style="fill:#0CB04A;" d="M30.292,48.531c4.301,4.26,4.301,11.168,0,15.429s-11.275,4.261-15.576,0
			s-4.301-11.169,0-15.429C19.017,44.269,25.991,44.269,30.292,48.531z"/>
		<path id="path-4_79_" style="fill:#0CB04A;" d="M65.949,2.068c2.783,2.756,2.783,7.226,0,9.983c-2.782,2.755-7.294,2.755-10.076,0
			c-2.783-2.757-2.783-7.227,0-9.983C58.655-0.689,63.167-0.689,65.949,2.068z"/>
		<path id="path-5_79_" style="fill:#FBB713;" d="M116.936,198.994H83.778c-18.836,0-34.106-15.27-34.106-34.106v-47.562
			c0-22.242,18.031-40.272,40.272-40.272h20.826c22.242,0,40.273,18.03,40.273,40.272v47.562
			C151.043,183.724,135.773,198.994,116.936,198.994z"/>
		<path id="path-6_78_" style="fill:#FF3A2F;" d="M117.425,77.054H83.29V60.657h34.135V77.054z"/>
		<path id="path-7_78_" style="fill:#142A3B;" d="M172.04,25.817H81.222c-3.714,0-6.724,2.982-6.724,6.661l0,0
			c0,3.679,3.01,6.66,6.724,6.66h3.879c3.712,0,6.723,2.982,6.723,6.661v14.858h17.067V45.799c0-3.679,3.011-6.661,6.724-6.661
			h56.425c3.713,0,6.724-2.981,6.724-6.66l0,0C178.764,28.799,175.753,25.817,172.04,25.817z"/>
		<path id="path-8_75_" style="opacity:0.35;enable-background:new    ;" d="M91.824,50.267v10.39h17.067v-10.39H91.824z"/>
		<path id="path-9_72_" style="fill:#142A3B;" d="M117.425,107.3H83.291v-7.209h34.134V107.3z"/>
		<path id="path-10_66_" style="fill:#142A3B;" d="M117.425,124.208H83.291v-7.21h34.134V124.208z"/>
		<path id="path-11_57_" style="fill:#142A3B;" d="M117.425,141.116H83.291v-7.21h34.134V141.116z"/>
		<path id="path-12_48_" style="fill:#0CB04A;" d="M161.711,93.963c0-5.966,10.905-19.456,10.905-19.456s10.904,13.49,10.904,19.456
			c0,5.966-4.882,10.803-10.904,10.803C166.593,104.766,161.711,99.929,161.711,93.963z"/>
		<path id="path-13_39_" style="fill:#2476FF;" d="M151.043,159.031L49.672,159.6v19.767c0,10.84,8.87,19.627,19.813,19.627h61.746
			c10.941,0,19.812-8.787,19.812-19.627V159.6l0,0"/>
		<path id="path-14_33_" style="opacity:0.25;enable-background:new    ;" d="M127.051,80.883
			c8.278,7.495,13.503,18.244,13.503,30.228v61.329c0,10.839-8.871,19.627-19.812,19.627H58.996c-1.79,0-3.514-0.256-5.163-0.697
			c3.624,4.631,9.279,7.624,15.652,7.624h61.746c10.941,0,19.812-8.787,19.812-19.627v-61.329
			C151.043,101.561,141.205,87.394,127.051,80.883z"/>
		<path id="path-15_30_" style="fill:#FFFFFF;" d="M68.037,188.627c-2.01,0-3.639-1.614-3.639-3.604v-71.188
			c0-1.991,1.629-3.605,3.639-3.605c2.009,0,3.639,1.614,3.639,3.605v71.188C71.676,187.013,70.046,188.627,68.037,188.627z"/>
	</g>
</g>
<g>
</g>
<g>
</g>
<g>
</g>
<g>
</g>
<g>
</g>
<g>
</g>
<g>
</g>
<g>
</g>
<g>
</g>
<g>
</g>
<g>
</g>
<g>
</g>
<g>
</g>
<g>
</g>
<g>
</g>
</svg>
