<?xml version="1.0" encoding="iso-8859-1"?>
<!-- Generator: Adobe Illustrator 16.0.0, SVG Export Plug-In . SVG Version: 6.00 Build 0)  -->
<!DOCTYPE svg PUBLIC "-//W3C//DTD SVG 1.1//EN" "http://www.w3.org/Graphics/SVG/1.1/DTD/svg11.dtd">
<svg xmlns="http://www.w3.org/2000/svg" xmlns:xlink="http://www.w3.org/1999/xlink" version="1.1" id="Capa_1" x="0px" y="0px" width="512px" height="512px" viewBox="0 0 487.804 487.804" style="enable-background:new 0 0 487.804 487.804;" xml:space="preserve">
<g>
	<g id="icons">
		<g>
			<path d="M202.602,82.606c22.812,0,41.301-18.493,41.301-41.3C243.902,18.493,225.414,0,202.602,0     c-22.808,0-41.302,18.493-41.302,41.306C161.299,64.113,179.794,82.606,202.602,82.606z" fill="#91DC5A"/>
			<path d="M454.582,360.371l-53.555-46.035c-0.357-0.306-0.724-0.587-1.1-0.844c-13.039-10.174-29.252-14.941-45.778-13.441     c-13.48,1.225-26.004,6.526-36.133,15.155l-56.849-48.862c1.502-2.416,2.671-5.213,3.379-8.392     c13.131-58.942,31.139-134.713-25.521-156.989c-27.323-10.743-61.955-9.255-82.003,6.846     c-15.971,12.824-23.501,18.832-42.246,32.706l-32.201-27.678c-1.19-3.675-2.433-7.261-3.776-10.551     c-3.38-8.272-13.766-13.594-22.457-11.997L43.459,79.215c-1.538-1.324-3.859-1.149-5.183,0.388l-8.431,9.813     c-1.324,1.54-1.147,3.859,0.39,5.182l11.406,9.804c-1.13,6.141-0.306,15.321,3.744,29.681     c5.621,19.931,33.348,79.91,62.561,63.796c8.215-4.531,16.315-9.911,24.191-15.692l20.271,17.424     c-0.313,67.47-1.336,210.295-3.607,265.405c-1.264,30.447,45.959,30.32,47.201,0c2.209-53.666,2.757-107.365,2.895-161.067     c2.232,0.127,4.481,0.11,6.713-0.031c0.129,53.709,0.68,107.388,2.894,161.099c1.248,30.32,48.452,30.447,47.205,0     c-1.508-36.4-2.245-112.295-2.604-178.854l51.688,44.427c-7.01,11.312-10.369,24.488-9.555,38     c0.998,16.562,8.148,31.878,20.164,43.237c0.31,0.334,0.644,0.654,1,0.961l53.556,46.033c5.13,4.41,12.863,3.824,17.271-1.305     l68.656-79.877C460.297,372.51,459.711,364.778,454.582,360.371z" fill="#91DC5A"/>
		</g>
	</g>
</g>
<g>
</g>
<g>
</g>
<g>
</g>
<g>
</g>
<g>
</g>
<g>
</g>
<g>
</g>
<g>
</g>
<g>
</g>
<g>
</g>
<g>
</g>
<g>
</g>
<g>
</g>
<g>
</g>
<g>
</g>
</svg>
