<?xml version="1.0" encoding="iso-8859-1"?>
<!-- Generator: Adobe Illustrator 19.0.0, SVG Export Plug-In . SVG Version: 6.00 Build 0)  -->
<svg version="1.1" id="Layer_1" xmlns="http://www.w3.org/2000/svg" xmlns:xlink="http://www.w3.org/1999/xlink" x="0px" y="0px"
	 viewBox="0 0 512 512" style="enable-background:new 0 0 512 512;" xml:space="preserve">
<g>
	<rect x="70.621" y="80.55" style="fill:#5CB0FF;" width="52.966" height="17.655"/>
	<rect x="185.379" y="80.55" style="fill:#5CB0FF;" width="52.966" height="17.655"/>
</g>
<g>
	<rect x="308.966" y="221.794" style="fill:#D0E8FF;" width="105.931" height="97.103"/>
	<path style="fill:#D0E8FF;" d="M36.192,433.102c0.488-2.714,1.186-5.348,2.072-7.902c0.152-0.439,0.314-0.868,0.477-1.302
		c0.958-2.546,2.08-5.007,3.402-7.351c0.177-0.314,0.376-0.61,0.559-0.92c1.433-2.421,3.008-4.748,4.795-6.903
		c0.032-0.039,0.069-0.072,0.101-0.11c1.795-2.152,3.783-4.132,5.893-5.976c0.225-0.196,0.432-0.407,0.659-0.6
		c2.059-1.74,4.268-3.294,6.578-4.708c0.382-0.234,0.757-0.471,1.145-0.696c2.301-1.33,4.706-2.485,7.208-3.463
		c0.435-0.17,0.871-0.323,1.311-0.481c2.566-0.924,5.207-1.684,7.939-2.205c0.348-0.066,0.704-0.101,1.055-0.161
		c2.897-0.492,5.854-0.807,8.89-0.807s5.993,0.315,8.89,0.807c0.351,0.06,0.707,0.095,1.055,0.161
		c2.732,0.521,5.372,1.281,7.939,2.205c0.44,0.158,0.877,0.311,1.311,0.481c2.502,0.977,4.907,2.133,7.208,3.463
		c0.388,0.225,0.762,0.462,1.145,0.696c2.309,1.414,4.519,2.968,6.578,4.708c0.228,0.193,0.435,0.404,0.659,0.6
		c2.11,1.844,4.098,3.823,5.893,5.976c0.032,0.038,0.068,0.072,0.101,0.11c1.787,2.155,3.362,4.482,4.795,6.903
		c0.183,0.31,0.382,0.606,0.559,0.92c1.322,2.343,2.444,4.805,3.402,7.351c0.163,0.434,0.324,0.863,0.477,1.302
		c0.886,2.554,1.584,5.189,2.072,7.902c0.034,0.19,0.113,0.363,0.145,0.553H291.31V327.723V212.965v-52.966
		c0-24.336-19.78-44.138-44.095-44.138h-0.043h-70.621h-44.138H61.793H61.75c-24.315,0-44.095,19.802-44.095,44.138v8.828h45.224
		v17.655H17.655v26.483h45.224v17.655H17.655v26.483h45.224v17.655H17.655v26.483h45.224v17.655H17.655v114.759h18.392
		C36.08,433.464,36.158,433.291,36.192,433.102z"/>
	<path style="fill:#D0E8FF;" d="M476.69,318.896v-48.552c0-10.155-16.991-33.466-30.396-48.552h-13.741v97.103H476.69z"/>
</g>
<path style="fill:#5CB0FF;" d="M432.552,336.551v0.336h-17.655v-0.336H308.966v97.103h44.875c0.032-0.19,0.111-0.363,0.145-0.553
	c0.487-2.714,1.186-5.348,2.072-7.902c0.152-0.439,0.314-0.868,0.477-1.302c0.958-2.546,2.08-5.007,3.402-7.351
	c0.177-0.314,0.376-0.61,0.559-0.92c1.433-2.421,3.008-4.748,4.795-6.903c0.032-0.039,0.069-0.072,0.101-0.11
	c1.795-2.152,3.783-4.132,5.893-5.976c0.225-0.196,0.432-0.407,0.659-0.6c2.059-1.74,4.268-3.294,6.578-4.708
	c0.382-0.234,0.757-0.471,1.145-0.696c2.301-1.33,4.706-2.485,7.208-3.463c0.435-0.17,0.871-0.323,1.311-0.481
	c2.566-0.924,5.207-1.684,7.939-2.205c0.348-0.066,0.704-0.101,1.055-0.161c2.897-0.492,5.854-0.807,8.89-0.807
	c3.036,0,5.993,0.315,8.89,0.807c0.351,0.06,0.707,0.095,1.055,0.161c2.732,0.521,5.372,1.281,7.939,2.205
	c0.44,0.158,0.877,0.311,1.311,0.481c2.501,0.977,4.907,2.133,7.208,3.463c0.388,0.225,0.763,0.462,1.145,0.696
	c2.309,1.414,4.519,2.968,6.578,4.708c0.228,0.193,0.435,0.404,0.659,0.6c2.11,1.844,4.098,3.823,5.893,5.976
	c0.032,0.038,0.068,0.072,0.101,0.11c1.787,2.155,3.362,4.482,4.795,6.903c0.183,0.31,0.382,0.606,0.559,0.92
	c1.322,2.343,2.444,4.805,3.402,7.351c0.163,0.434,0.324,0.863,0.477,1.302c0.886,2.554,1.584,5.189,2.072,7.902
	c0.034,0.19,0.113,0.363,0.145,0.553h36.047v-97.103h-8.828H432.552z M414.897,363.034h-35.31v-17.655h35.31V363.034z"/>
<g>
	<path style="fill:#D0E8FF;" d="M88.276,407.172c-19.47,0-35.31,15.836-35.31,35.31c0,19.474,15.84,35.31,35.31,35.31
		s35.31-15.836,35.31-35.31C123.586,423.008,107.746,407.172,88.276,407.172z"/>
	<path style="fill:#D0E8FF;" d="M406.069,407.172c-19.47,0-35.31,15.836-35.31,35.31c0,19.474,15.84,35.31,35.31,35.31
		c19.47,0,35.31-15.836,35.31-35.31C441.379,423.008,425.539,407.172,406.069,407.172z"/>
</g>
<g>
	<path style="fill:#1C71DA;" d="M503.172,318.896h-8.828v-48.552c0-21.491-31.366-56.56-37.651-63.371
		c-1.672-1.81-4.022-2.836-6.487-2.836h-17.655h-17.655H308.966v-44.138c0-31.078-23.074-56.803-52.966-61.094V71.723
		c0-4.879-3.953-8.828-8.828-8.828h-70.621c-4.875,0-8.828,3.948-8.828,8.828v26.483h-26.483V71.723
		c0-4.879-3.953-8.828-8.828-8.828H61.793c-4.875,0-8.828,3.948-8.828,8.828v27.182C23.074,103.196,0,128.922,0,159.999v8.828
		v17.655v26.483v17.655v26.483v17.655v26.483v17.655v123.586c0,4.879,3.953,8.828,8.828,8.828h27.28
		c4.222,25.01,25.975,44.138,52.168,44.138s47.945-19.128,52.168-44.138h159.694h53.763c4.222,25.01,25.975,44.138,52.168,44.138
		s47.945-19.128,52.168-44.138h44.935c4.875,0,8.828-3.948,8.828-8.828V327.723C512,322.844,508.047,318.896,503.172,318.896z
		 M446.293,221.792c13.405,15.086,30.396,38.396,30.396,48.552v48.552h-44.138v-97.103H446.293z M414.897,221.792v97.103H308.966
		v-97.103H414.897z M185.379,80.551h52.966v17.655h-52.966V80.551z M70.621,80.551h52.966v17.655H70.621V80.551z M17.655,318.896
		h45.224v-17.655H17.655v-26.483h45.224v-17.655H17.655V230.62h45.224v-17.655H17.655v-26.483h45.224v-17.655H17.655v-8.828
		c0-24.336,19.78-44.138,44.095-44.138h0.043h70.621h44.138h70.621h0.043c24.315,0,44.095,19.802,44.095,44.138v52.966v114.759
		v105.931H140.504c-0.032-0.19-0.111-0.363-0.145-0.553c-0.488-2.714-1.186-5.348-2.072-7.902c-0.152-0.439-0.314-0.868-0.477-1.302
		c-0.958-2.546-2.08-5.007-3.402-7.351c-0.177-0.314-0.376-0.61-0.559-0.92c-1.433-2.421-3.008-4.748-4.795-6.903
		c-0.032-0.039-0.069-0.072-0.101-0.11c-1.795-2.152-3.783-4.132-5.893-5.976c-0.225-0.196-0.432-0.407-0.659-0.6
		c-2.059-1.74-4.268-3.294-6.578-4.708c-0.382-0.234-0.757-0.471-1.145-0.696c-2.301-1.33-4.706-2.485-7.208-3.463
		c-0.435-0.17-0.871-0.323-1.311-0.481c-2.566-0.924-5.207-1.684-7.939-2.205c-0.348-0.066-0.704-0.101-1.055-0.161
		c-2.897-0.492-5.854-0.807-8.89-0.807c-3.036,0-5.993,0.315-8.89,0.807c-0.351,0.06-0.707,0.095-1.055,0.161
		c-2.732,0.521-5.372,1.281-7.939,2.205c-0.44,0.158-0.877,0.311-1.311,0.481c-2.502,0.977-4.907,2.133-7.208,3.463
		c-0.388,0.225-0.762,0.462-1.145,0.696c-2.309,1.414-4.519,2.968-6.578,4.708c-0.228,0.193-0.435,0.404-0.659,0.6
		c-2.11,1.844-4.098,3.823-5.893,5.976c-0.032,0.038-0.068,0.072-0.101,0.11c-1.787,2.155-3.362,4.482-4.795,6.903
		c-0.183,0.31-0.382,0.606-0.559,0.92c-1.322,2.343-2.444,4.805-3.402,7.351c-0.163,0.434-0.324,0.863-0.477,1.302
		c-0.886,2.554-1.584,5.189-2.072,7.902c-0.034,0.19-0.113,0.363-0.145,0.553H17.655V318.896z M88.276,477.792
		c-19.47,0-35.31-15.836-35.31-35.31c0-19.474,15.84-35.31,35.31-35.31s35.31,15.836,35.31,35.31
		C123.586,461.956,107.746,477.792,88.276,477.792z M406.069,477.792c-19.47,0-35.31-15.836-35.31-35.31
		c0-19.474,15.84-35.31,35.31-35.31c19.47,0,35.31,15.836,35.31,35.31C441.379,461.956,425.539,477.792,406.069,477.792z
		 M494.345,433.654h-36.047c-0.032-0.19-0.111-0.363-0.145-0.553c-0.488-2.714-1.186-5.348-2.072-7.902
		c-0.153-0.439-0.314-0.868-0.477-1.302c-0.958-2.546-2.08-5.007-3.402-7.351c-0.177-0.314-0.376-0.61-0.559-0.92
		c-1.433-2.421-3.008-4.748-4.795-6.903c-0.032-0.039-0.069-0.072-0.101-0.11c-1.795-2.152-3.783-4.132-5.893-5.976
		c-0.225-0.196-0.432-0.407-0.659-0.6c-2.059-1.74-4.268-3.294-6.578-4.708c-0.382-0.234-0.757-0.471-1.145-0.696
		c-2.301-1.33-4.706-2.485-7.208-3.463c-0.435-0.17-0.871-0.323-1.311-0.481c-2.566-0.924-5.207-1.684-7.939-2.205
		c-0.348-0.066-0.704-0.101-1.055-0.161c-2.897-0.492-5.854-0.807-8.89-0.807c-3.036,0-5.993,0.315-8.89,0.807
		c-0.351,0.06-0.707,0.095-1.055,0.161c-2.732,0.521-5.372,1.281-7.939,2.205c-0.44,0.158-0.877,0.311-1.311,0.481
		c-2.502,0.977-4.907,2.133-7.208,3.463c-0.388,0.225-0.762,0.462-1.145,0.696c-2.309,1.414-4.519,2.968-6.578,4.708
		c-0.228,0.193-0.435,0.404-0.659,0.6c-2.11,1.844-4.098,3.823-5.893,5.976c-0.032,0.038-0.068,0.072-0.101,0.11
		c-1.787,2.155-3.362,4.482-4.795,6.903c-0.183,0.31-0.382,0.606-0.559,0.92c-1.322,2.343-2.444,4.805-3.402,7.351
		c-0.163,0.434-0.324,0.863-0.477,1.302c-0.886,2.554-1.584,5.189-2.072,7.902c-0.034,0.19-0.113,0.363-0.145,0.553h-44.875v-97.103
		h105.931v0.336h17.655v-0.336h52.966h8.828V433.654z"/>
	<rect x="379.586" y="345.38" style="fill:#1C71DA;" width="35.31" height="17.655"/>
</g>
<g>
	<path style="fill:#FF5D5D;" d="M416.032,166.62c-2.26,0-4.518-0.862-6.242-2.586c-3.447-3.446-3.447-9.037,0-12.483L441,120.34
		c3.448-3.448,9.037-3.448,12.485,0c3.447,3.446,3.447,9.037,0,12.483l-31.21,31.211C420.551,165.758,418.292,166.62,416.032,166.62
		z"/>
	<path style="fill:#FF5D5D;" d="M447.242,166.62c-2.26,0-4.518-0.862-6.242-2.586l-31.21-31.209c-3.447-3.446-3.447-9.037,0-12.483
		c3.448-3.448,9.037-3.448,12.485,0l31.21,31.209c3.447,3.446,3.447,9.037,0,12.483C451.761,165.758,449.502,166.62,447.242,166.62z
		"/>
</g>
<path style="fill:#00D40B;" d="M164.446,334.344c-17.037,0-30.897-13.86-30.897-30.897c0-17.037,13.86-30.897,30.897-30.897
	s30.897,13.86,30.897,30.897C195.343,320.484,181.483,334.344,164.446,334.344z M164.446,290.206
	c-7.302,0-13.241,5.94-13.241,13.241c0,7.302,5.94,13.241,13.241,13.241s13.241-5.94,13.241-13.241
	C177.687,296.146,171.748,290.206,164.446,290.206z"/>
<path style="fill:#FFC504;" d="M308.587,84.141c-2.259,0-4.518-0.862-6.241-2.586l-24.969-24.968
	c-1.656-1.655-2.586-3.901-2.586-6.241s0.93-4.586,2.586-6.241l24.969-24.968c3.448-3.446,9.038-3.446,12.484,0l24.968,24.968
	c3.447,3.446,3.447,9.037,0,12.483L314.83,81.555C313.106,83.279,310.846,84.141,308.587,84.141z M296.102,50.346l12.485,12.483
	l12.484-12.483l-12.484-12.483L296.102,50.346z"/>
<g>
</g>
<g>
</g>
<g>
</g>
<g>
</g>
<g>
</g>
<g>
</g>
<g>
</g>
<g>
</g>
<g>
</g>
<g>
</g>
<g>
</g>
<g>
</g>
<g>
</g>
<g>
</g>
<g>
</g>
</svg>
