<?xml version="1.0" encoding="iso-8859-1"?>
<!-- Generator: Adobe Illustrator 19.0.0, SVG Export Plug-In . SVG Version: 6.00 Build 0)  -->
<svg version="1.1" id="Capa_1" xmlns="http://www.w3.org/2000/svg" xmlns:xlink="http://www.w3.org/1999/xlink" x="0px" y="0px"
	 viewBox="0 0 512 512" style="enable-background:new 0 0 512 512;" xml:space="preserve">
<path style="fill:#495A79;" d="M483.199,296.499L357.1,316c-19.799,2.999-35.4,19.2-37.8,39.3l-14.4,122.8l-48.9-1.201l-49.2-1.5
	L192.7,355.3c-2.401-20.099-18.001-36.301-37.8-39.3L29.7,296.8l-7.2-60.601l121-59.099C178.9,159.699,217.301,151,256,151
	c39,0,77.999,8.699,113.401,26.4l106,51.899L483.199,296.499z"/>
<path style="fill:#42516D;" d="M483.199,296.499L357.1,316c-19.799,2.999-35.4,19.2-37.8,39.3l-14.4,122.8l-48.9-1.201V151
	c39,0,77.999,8.699,113.401,26.4l106,51.899L483.199,296.499z"/>
<path style="fill:#17ACE8;" d="M256,0C115.3,0,0,115.3,0,256s115.3,256,256,256s256-115.3,256-256S396.7,0,256,0z M256,452
	c-107.401,0-196-88.601-196-196c0-107.401,88.599-196,196-196s196,88.599,196,196C452,363.399,363.401,452,256,452z"/>
<path style="fill:#1689FC;" d="M512,256c0,140.7-115.3,256-256,256v-60c107.401,0,196-88.601,196-196c0-107.401-88.599-196-196-196
	V0C396.7,0,512,115.3,512,256z"/>
<path style="fill:#17ACE8;" d="M256,151c-57.9,0-105,47.1-105,105s47.1,105,105,105s105-47.1,105-105S313.9,151,256,151z"/>
<path style="fill:#1689FC;" d="M361,256c0,57.9-47.1,105-105,105V151C313.9,151,361,198.1,361,256z"/>
<path style="fill:#495A79;" d="M256,211c-24.901,0-45,20.099-45,45c0,24.899,20.099,45,45,45s45-20.101,45-45
	C301,231.099,280.901,211,256,211z"/>
<path style="fill:#42516D;" d="M301,256c0,24.899-20.099,45-45,45v-90C280.901,211,301,231.099,301,256z"/>
<path style="fill:#E1E4FB;" d="M256,241c-8.401,0-15,6.599-15,15c0,8.399,6.599,15,15,15s15-6.601,15-15
	C271,247.599,264.401,241,256,241z"/>
<path style="fill:#C5C9F7;" d="M271,256c0,8.399-6.599,15-15,15v-30C264.401,241,271,247.599,271,256z"/>
<g>
</g>
<g>
</g>
<g>
</g>
<g>
</g>
<g>
</g>
<g>
</g>
<g>
</g>
<g>
</g>
<g>
</g>
<g>
</g>
<g>
</g>
<g>
</g>
<g>
</g>
<g>
</g>
<g>
</g>
</svg>
