<?xml version="1.0" encoding="iso-8859-1"?>
<!-- Generator: Adobe Illustrator 19.1.0, SVG Export Plug-In . SVG Version: 6.00 Build 0)  -->
<svg version="1.1" id="Capa_1" xmlns="http://www.w3.org/2000/svg" xmlns:xlink="http://www.w3.org/1999/xlink" x="0px" y="0px"
	 viewBox="0 0 218.333 218.333" style="enable-background:new 0 0 218.333 218.333;" xml:space="preserve">
<g>
	<g id="group-74svg">
		<path id="path-1_140_" style="fill:#2476FF;" d="M123.527,26.776v26.998H61.919c-10.64,0-23.387,5.006-23.387,15.546v86.616
			c0,10.54,12.747,19.835,23.387,19.835h87.971c10.641,0,9.635-9.295,9.635-19.835v-70.69V69.32V26.776H123.527z"/>
		<path id="path-2_140_" style="opacity:0.25;fill:#010101;enable-background:new    ;" d="M144.956,27.138v27.936V71v70.688
			c0,10.542-1.686,19.823-12.326,19.823H44.658c-1.829,0-2.964-1.139-4.71-1.648c2.328,8.547,12.18,14.949,19.672,15.624h87.97
			c10.64,0,12.03-3.267,12.03-19.272V85.527V69.599V27.138H144.956z"/>
		<path id="path-3_140_" style="fill:#FF3A2F;" d="M155.525,9.776h-28.998v17h28.998V9.776z"/>
		<path id="path-4_139_" style="opacity:0.25;fill:#010101;enable-background:new    ;" d="M144.946,9.598v2.269
			c0,4.764-3.898,8.625-8.707,8.625h-9.623v7.263h29.327V9.598H144.946z"/>
		<path id="path-5_139_" style="fill:#142A3B;" d="M132.289,122.939c0-15.693-28.684-45.877-28.684-45.877
			s-28.684,30.184-28.684,45.877c0,15.695,12.842,28.417,28.684,28.417C119.448,151.357,132.289,138.635,132.289,122.939z"/>
		<path id="path-6_137_" style="fill:#FFFFFF;" d="M52.239,83.82c-2.012,0-3.64-1.614-3.64-3.605
			c0-13.409,12.53-20.644,24.318-20.644c2.01,0,3.639,1.614,3.639,3.605c0,1.99-1.629,3.604-3.639,3.604
			c-8.26,0-17.04,4.709-17.04,13.435C55.877,82.205,54.25,83.82,52.239,83.82z"/>
		<path id="path-7_137_" style="fill:#FFFFFF;" d="M108.434,145.218c-15.063,0-27.316-12.139-27.316-27.059
			c0-1.99,1.627-3.605,3.639-3.605c2.01,0,3.638,1.615,3.638,3.605c0,10.945,8.991,19.849,20.039,19.849
			c2.012,0,3.639,1.613,3.639,3.605C112.073,143.604,110.446,145.218,108.434,145.218z"/>
		<path id="path-8_134_" style="fill:#142A3B;" d="M108.584,169.857H92.577c-3.086,0-5.589,2.902-5.589,6.48
			c0,3.578,2.503,6.479,5.589,6.479h0.745c3.086,0,5.588,2.901,5.588,6.48c0,3.579-2.502,6.48-5.588,6.48h-34.41
			c-3.086,0-5.588,2.901-5.588,6.48s2.502,6.48,5.588,6.48h41.352h84.522c3.087,0,5.589-2.901,5.589-6.48s-2.502-6.48-5.589-6.48
			h-9.549c-3.087,0-5.589-2.901-5.589-6.48c0-3.579,2.502-6.48,5.589-6.48h37.508c3.085,0,5.588-2.901,5.588-6.479
			c0-3.578-2.503-6.48-5.588-6.48h-2.8H108.584z"/>
		<path id="path-9_128_" style="fill:#142A3B;" d="M174.69,107.81h-4.372c-0.843,0-1.527,0.698-1.527,1.559s0.684,1.558,1.527,1.558
			h0.204c0.842,0,1.526,0.698,1.526,1.558c0,0.86-0.684,1.558-1.526,1.558h-9.401c-0.843,0-1.527,0.698-1.527,1.559
			s0.684,1.558,1.527,1.558h11.297h23.092c0.843,0,1.525-0.697,1.525-1.558s-0.682-1.559-1.525-1.559h-2.61
			c-0.844,0-1.527-0.698-1.527-1.558c0-0.86,0.683-1.558,1.527-1.558h10.247c0.842,0,1.526-0.697,1.526-1.558
			s-0.684-1.559-1.526-1.559h-0.765H174.69z"/>
		<path id="path-10_117_" style="fill:#142A3B;" d="M14.838,144.544c-3.183,0-5.763-1.419-5.763-3.171c0-1.751,2.58-3.17,5.763-3.17
			h17.661c3.184,0,5.764,1.419,5.764,3.17c0,1.752-2.58,3.171-5.764,3.171H14.838z"/>
		<path id="path-11_103_" style="fill:#142A3B;" d="M8.176,207.639C3.66,207.639,0,205.2,0,202.191s3.66-5.448,8.176-5.448h25.055
			c4.516,0,8.176,2.439,8.176,5.448s-3.66,5.448-8.176,5.448H8.176z"/>
	</g>
</g>
<g>
</g>
<g>
</g>
<g>
</g>
<g>
</g>
<g>
</g>
<g>
</g>
<g>
</g>
<g>
</g>
<g>
</g>
<g>
</g>
<g>
</g>
<g>
</g>
<g>
</g>
<g>
</g>
<g>
</g>
</svg>
