<?xml version="1.0" encoding="iso-8859-1"?>
<!-- Generator: Adobe Illustrator 19.0.0, SVG Export Plug-In . SVG Version: 6.00 Build 0)  -->
<svg version="1.1" id="Layer_1" xmlns="http://www.w3.org/2000/svg" xmlns:xlink="http://www.w3.org/1999/xlink" x="0px" y="0px"
	 viewBox="0 0 496.412 496.412" style="enable-background:new 0 0 496.412 496.412;" xml:space="preserve">
<path d="M317.222,80.584C333.414,59.696,345.686,30.152,341.246,0c-26.472,1.84-57.384,18.768-75.432,40.832
	c-16.456,20-29.976,49.728-24.688,78.608C270.054,120.344,299.91,103.008,317.222,80.584z"/>
<path style="fill:#1B546B;" d="M445.838,166.544c-25.4-31.872-61.12-50.344-94.848-50.344c-44.512,0-63.352,21.312-94.264,21.312
	c-31.896,0-56.12-21.248-94.624-21.248c-37.832,0-78.112,23.12-103.64,62.64C22.574,234.576,28.694,339.2,86.894,428.336
	c20.808,31.904,48.592,67.744,84.952,68.072c32.36,0.32,41.488-20.752,85.336-20.992c43.832-0.256,52.16,21.264,84.456,20.896
	c36.384-0.288,65.712-40.016,86.512-71.92c14.912-22.848,20.48-34.376,32.056-60.184
	C376.014,332.184,362.518,212.488,445.838,166.544z"/>
<path d="M394.774,228.08c-63.632,51.52-153.592,83.712-253.44,83.712c-35.776,0-70.288-4.144-102.768-11.808
	c5.496,41.808,21.16,86.736,48.336,128.344c20.808,31.904,48.592,67.744,84.952,68.072c32.36,0.32,41.488-20.752,85.336-20.992
	c43.832-0.256,52.16,21.264,84.456,20.896c36.384-0.288,65.712-40.016,86.512-71.92c14.912-22.848,20.48-34.376,32.056-60.184
	C402.966,342.44,378.454,280.176,394.774,228.08z"/>
<g>
</g>
<g>
</g>
<g>
</g>
<g>
</g>
<g>
</g>
<g>
</g>
<g>
</g>
<g>
</g>
<g>
</g>
<g>
</g>
<g>
</g>
<g>
</g>
<g>
</g>
<g>
</g>
<g>
</g>
</svg>
