<?xml version="1.0" encoding="iso-8859-1"?>
<!-- Generator: Adobe Illustrator 19.0.0, SVG Export Plug-In . SVG Version: 6.00 Build 0)  -->
<svg version="1.1" id="Layer_1" xmlns="http://www.w3.org/2000/svg" xmlns:xlink="http://www.w3.org/1999/xlink" x="0px" y="0px"
	 viewBox="0 0 512 512" style="enable-background:new 0 0 512 512;" xml:space="preserve">
<path style="fill:#959CB3;" d="M485.517,467.862H26.483c-4.875,0-8.828-3.953-8.828-8.828v-17.655h476.69v17.655
	C494.345,463.91,490.392,467.862,485.517,467.862z"/>
<g>
	<path style="fill:#C7CFE2;" d="M504.276,450.207H7.724c-4.266,0-7.724-3.458-7.724-7.724v-27.586h512v27.586
		C512,446.749,508.542,450.207,504.276,450.207z"/>
	<path style="fill:#C7CFE2;" d="M353.103,256H158.897V52.966c0-4.875,3.953-8.828,8.828-8.828h176.552
		c4.875,0,8.828,3.953,8.828,8.828V256z"/>
</g>
<polygon style="fill:#AFB9D2;" points="353.103,247.172 158.897,247.172 0,414.897 512,414.897 "/>
<path style="fill:#959CB3;" d="M332.029,379.586H179.971c-6.025,0-10.28-5.903-8.374-11.619l11.77-35.31
	c1.202-3.605,4.575-6.036,8.374-6.036h128.516c3.799,0,7.174,2.431,8.374,6.036l11.77,35.31
	C342.308,373.683,338.053,379.586,332.029,379.586z"/>
<path style="fill:#464655;" d="M264.828,361.931h-17.655c-4.875,0-8.828-3.953-8.828-8.828s3.953-8.828,8.828-8.828h17.655
	c4.875,0,8.828,3.953,8.828,8.828S269.703,361.931,264.828,361.931z"/>
<g>
	<path style="fill:#707487;" d="M308.966,361.931H291.31c-4.875,0-8.828-3.953-8.828-8.828s3.953-8.828,8.828-8.828h17.655
		c4.875,0,8.828,3.953,8.828,8.828S313.841,361.931,308.966,361.931z"/>
	<path style="fill:#707487;" d="M220.69,361.931h-17.655c-4.875,0-8.828-3.953-8.828-8.828s3.953-8.828,8.828-8.828h17.655
		c4.875,0,8.828,3.953,8.828,8.828S225.565,361.931,220.69,361.931z"/>
</g>
<g>
</g>
<g>
</g>
<g>
</g>
<g>
</g>
<g>
</g>
<g>
</g>
<g>
</g>
<g>
</g>
<g>
</g>
<g>
</g>
<g>
</g>
<g>
</g>
<g>
</g>
<g>
</g>
<g>
</g>
</svg>
