<?xml version="1.0" encoding="iso-8859-1"?>
<!-- Generator: Adobe Illustrator 19.0.0, SVG Export Plug-In . SVG Version: 6.00 Build 0)  -->
<svg version="1.1" id="Capa_1" xmlns="http://www.w3.org/2000/svg" xmlns:xlink="http://www.w3.org/1999/xlink" x="0px" y="0px"
	 viewBox="0 0 512 512" style="enable-background:new 0 0 512 512;" xml:space="preserve">
<path style="fill:#D3D6DC;" d="M52.966,476.69h406.069c9.754,0,17.655-7.901,17.655-17.655V35.31H35.31v423.724
	C35.31,468.789,43.211,476.69,52.966,476.69z"/>
<path style="fill:#F0F5F3;" d="M459.034,0H52.966C43.22,0,35.31,7.901,35.31,17.655v88.276h150.069l17.655,35.31h105.931
	l17.655-35.31H476.69V17.655C476.69,7.901,468.78,0,459.034,0z"/>
<path style="fill:#D3D6DC;" d="M300.138,123.586h-88.276c-4.873,0-8.828-3.946-8.828-8.828s3.955-8.828,8.828-8.828h88.276
	c4.873,0,8.828,3.946,8.828,8.828S305.011,123.586,300.138,123.586z"/>
<rect x="70.621" y="176.552" style="fill:#9CC2E9;" width="370.759" height="264.828"/>
<path style="fill:#5083AC;" d="M361.931,441.379H150.069c-19.5,0-35.31-15.81-35.31-35.31l0,0h282.483l0,0
	C397.241,425.569,381.431,441.379,361.931,441.379z"/>
<rect x="52.966" y="476.69" style="fill:#E5EAEB;" width="406.069" height="35.31"/>
<g>
	<path style="fill:#5083AC;" d="M141.241,220.69h-35.31c-4.873,0-8.828-3.946-8.828-8.828c0-4.882,3.955-8.828,8.828-8.828h35.31
		c4.873,0,8.828,3.946,8.828,8.828C150.069,216.744,146.114,220.69,141.241,220.69z"/>
	<path style="fill:#5083AC;" d="M123.586,273.655c-4.873,0-8.828-3.946-8.828-8.828v-52.966c0-4.882,3.955-8.828,8.828-8.828
		s8.828,3.946,8.828,8.828v52.966C132.414,269.709,128.459,273.655,123.586,273.655z"/>
	<path style="fill:#5083AC;" d="M406.069,220.69h-35.31c-4.873,0-8.828-3.946-8.828-8.828c0-4.882,3.955-8.828,8.828-8.828h35.31
		c4.873,0,8.828,3.946,8.828,8.828C414.897,216.744,410.942,220.69,406.069,220.69z"/>
	<path style="fill:#5083AC;" d="M388.414,273.655c-4.873,0-8.828-3.946-8.828-8.828v-52.966c0-4.882,3.955-8.828,8.828-8.828
		s8.828,3.946,8.828,8.828v52.966C397.241,269.709,393.287,273.655,388.414,273.655z"/>
	<path style="fill:#5083AC;" d="M317.793,220.69h-35.31c-4.873,0-8.828-3.946-8.828-8.828c0-4.882,3.955-8.828,8.828-8.828h35.31
		c4.873,0,8.828,3.946,8.828,8.828C326.621,216.744,322.666,220.69,317.793,220.69z"/>
	<path style="fill:#5083AC;" d="M300.138,273.655c-4.873,0-8.828-3.946-8.828-8.828v-52.966c0-4.882,3.955-8.828,8.828-8.828
		s8.828,3.946,8.828,8.828v52.966C308.966,269.709,305.011,273.655,300.138,273.655z"/>
	<path style="fill:#5083AC;" d="M229.517,220.69h-35.31c-4.873,0-8.828-3.946-8.828-8.828c0-4.882,3.955-8.828,8.828-8.828h35.31
		c4.873,0,8.828,3.946,8.828,8.828C238.345,216.744,234.39,220.69,229.517,220.69z"/>
	<path style="fill:#5083AC;" d="M211.862,273.655c-4.873,0-8.828-3.946-8.828-8.828v-52.966c0-4.882,3.955-8.828,8.828-8.828
		c4.873,0,8.828,3.946,8.828,8.828v52.966C220.69,269.709,216.735,273.655,211.862,273.655z"/>
</g>
<rect x="70.621" y="229.517" style="fill:#79A4D7;" width="370.759" height="17.655"/>
<path style="fill:#6890B7;" d="M335.448,406.069H176.552c-19.5,0-35.31-15.81-35.31-35.31l0,0h229.517l0,0
	C370.759,390.259,354.948,406.069,335.448,406.069z"/>
<path style="fill:#34B250;" d="M158.897,79.448H79.448c-4.873,0-8.828-3.946-8.828-8.828s3.955-8.828,8.828-8.828h79.448
	c4.873,0,8.828,3.946,8.828,8.828S163.769,79.448,158.897,79.448z"/>
<path style="fill:#E98316;" d="M432.552,79.448h-79.448c-4.873,0-8.828-3.946-8.828-8.828s3.955-8.828,8.828-8.828h79.448
	c4.873,0,8.828,3.946,8.828,8.828S437.425,79.448,432.552,79.448z"/>
<path style="fill:#F32631;" d="M291.31,79.448H220.69c-4.873,0-8.828-3.946-8.828-8.828s3.955-8.828,8.828-8.828h70.621
	c4.873,0,8.828,3.946,8.828,8.828S296.183,79.448,291.31,79.448z"/>
<g>
	<path style="fill:#5083AC;" d="M150.069,326.621H97.103c-4.873,0-8.828-3.946-8.828-8.828V291.31
		c0-19.474,15.837-35.31,35.31-35.31s35.31,15.837,35.31,35.31v26.483C158.897,322.675,154.942,326.621,150.069,326.621z"/>
	<path style="fill:#5083AC;" d="M414.897,326.621h-52.966c-4.873,0-8.828-3.946-8.828-8.828V291.31
		c0-19.474,15.837-35.31,35.31-35.31s35.31,15.837,35.31,35.31v26.483C423.724,322.675,419.769,326.621,414.897,326.621z"/>
	<path style="fill:#5083AC;" d="M326.621,326.621h-52.966c-4.873,0-8.828-3.946-8.828-8.828V291.31
		c0-19.474,15.837-35.31,35.31-35.31s35.31,15.837,35.31,35.31v26.483C335.448,322.675,331.493,326.621,326.621,326.621z"/>
	<path style="fill:#5083AC;" d="M238.345,326.621h-52.966c-4.873,0-8.828-3.946-8.828-8.828V291.31
		c0-19.474,15.837-35.31,35.31-35.31s35.31,15.837,35.31,35.31v26.483C247.172,322.675,243.218,326.621,238.345,326.621z"/>
</g>
<g>
</g>
<g>
</g>
<g>
</g>
<g>
</g>
<g>
</g>
<g>
</g>
<g>
</g>
<g>
</g>
<g>
</g>
<g>
</g>
<g>
</g>
<g>
</g>
<g>
</g>
<g>
</g>
<g>
</g>
</svg>
