<?xml version="1.0" encoding="iso-8859-1"?>
<!-- Generator: Adobe Illustrator 19.0.0, SVG Export Plug-In . SVG Version: 6.00 Build 0)  -->
<svg version="1.1" id="Layer_1" xmlns="http://www.w3.org/2000/svg" xmlns:xlink="http://www.w3.org/1999/xlink" x="0px" y="0px"
	 viewBox="0 0 512 512" style="enable-background:new 0 0 512 512;" xml:space="preserve">
<g>
	<path style="fill:#555558;" d="M202.128,70.221c0-8.917-7.228-16.145-16.145-16.145H117.82c-8.917,0-16.145,7.228-16.145,16.145
		v58.981h100.452V70.221z"/>
	<path style="fill:#555558;" d="M410.325,70.221c0-8.917-7.228-16.145-16.145-16.145h-68.163c-8.917,0-16.145,7.228-16.145,16.145
		v58.981h100.452V70.221z"/>
</g>
<g>
	<rect x="101.677" y="81.375" style="fill:#272728;" width="100.452" height="47.823"/>
	<rect x="309.871" y="81.375" style="fill:#272728;" width="100.452" height="47.823"/>
</g>
<path style="fill:#F20013;" d="M484.719,441.779c0,8.917-7.228,16.145-16.145,16.145H43.427c-8.917,0-16.145-7.228-16.145-16.145
	V183.473h457.437V441.779z"/>
<g>
	<path style="fill:#B7000A;" d="M255.762,183.473v274.451h212.812c8.917,0,16.145-7.228,16.145-16.145V183.473H255.762z"/>
	<rect x="27.281" y="183.474" style="fill:#B7000A;" width="457.439" height="38.144"/>
</g>
<path style="fill:#AEACB3;" d="M512,142.988c0-23.368-18.944-42.312-42.312-42.312H42.312C18.944,100.676,0,119.62,0,142.988v36.36
	c0,8.917,7.228,16.145,16.145,16.145h479.71c8.917,0,16.145-7.228,16.145-16.145v-36.36H512z"/>
<path style="fill:#CECED1;" d="M469.688,100.677H42.312C18.944,100.677,0,119.62,0,142.988v17.477
	c0,8.917,7.228,16.145,16.145,16.145h479.71c8.917,0,16.145-7.228,16.145-16.145v-17.477
	C512,119.62,493.056,100.677,469.688,100.677z"/>
<path style="fill:#FFDC35;" d="M304.2,322.472c2.087-2.854,2.394-6.637,0.794-9.789c-1.599-3.152-4.835-5.139-8.37-5.139H260.01
	l14.844-72.572c0.551-2.696-0.849-5.413-3.366-6.526c-2.517-1.114-5.47-0.324-7.093,1.898l-71.397,97.623
	c-2.087,2.854-2.394,6.637-0.794,9.789c1.599,3.152,4.835,5.139,8.37,5.139h36.614l-14.844,72.572
	c-0.551,2.696,0.849,5.413,3.366,6.526c2.517,1.113,5.469,0.324,7.093-1.898L304.2,322.472z"/>
<g>
</g>
<g>
</g>
<g>
</g>
<g>
</g>
<g>
</g>
<g>
</g>
<g>
</g>
<g>
</g>
<g>
</g>
<g>
</g>
<g>
</g>
<g>
</g>
<g>
</g>
<g>
</g>
<g>
</g>
</svg>
