<?xml version="1.0" encoding="iso-8859-1"?>
<!-- Generator: Adobe Illustrator 19.0.0, SVG Export Plug-In . SVG Version: 6.00 Build 0)  -->
<svg version="1.1" id="Layer_1" xmlns="http://www.w3.org/2000/svg" xmlns:xlink="http://www.w3.org/1999/xlink" x="0px" y="0px"
	 viewBox="0 0 512 512" style="enable-background:new 0 0 512 512;" xml:space="preserve">
<g>
	<path style="fill:#707487;" d="M52.966,392.828H35.31c-4.875,0-8.828-3.953-8.828-8.828v-18.759h35.31V384
		C61.793,388.875,57.841,392.828,52.966,392.828z"/>
	<path style="fill:#707487;" d="M476.69,392.828h-17.655c-4.875,0-8.828-3.953-8.828-8.828v-17.655h35.31V384
		C485.517,388.875,481.565,392.828,476.69,392.828z"/>
</g>
<path style="fill:#D7DEED;" d="M485.517,375.172H26.483C11.857,375.172,0,363.316,0,348.69V172.138
	c0-14.626,11.857-26.483,26.483-26.483h459.034c14.626,0,26.483,11.857,26.483,26.483V348.69
	C512,363.316,500.143,375.172,485.517,375.172z"/>
<path style="fill:#AFB9D2;" d="M0,295.724v52.966c0,14.626,11.857,26.483,26.483,26.483h459.034
	c14.626,0,26.483-11.857,26.483-26.483v-52.966H0z"/>
<path style="fill:#464655;" d="M432.552,357.517H79.448c-9.751,0-17.655-7.904-17.655-17.655v-44.138
	c0-9.751,7.904-17.655,17.655-17.655h353.103c9.751,0,17.655,7.904,17.655,17.655v44.138
	C450.207,349.613,442.303,357.517,432.552,357.517z"/>
<path style="fill:#959CB3;" d="M366.734,87.106l-4.803,14.411H150.069l-4.803-14.411c-2.403-7.209-9.15-12.072-16.749-12.072H97.103
	c-9.751,0-17.655,7.904-17.655,17.655v61.793h353.103V92.69c0-9.751-7.904-17.655-17.655-17.655h-31.413
	C375.884,75.034,369.138,79.897,366.734,87.106z"/>
<path style="fill:#00D2F0;" d="M61.793,145.655v70.621c0,9.751,7.904,17.655,17.655,17.655h353.103
	c9.751,0,17.655-7.904,17.655-17.655v-70.621"/>
<circle style="fill:#FFFFFF;" cx="397.241" cy="189.793" r="17.655"/>
<circle style="fill:#00FFBE;" cx="353.103" cy="189.793" r="13.241"/>
<path style="fill:#00B9DC;" d="M317.793,198.621h-44.138c-4.875,0-8.828-3.948-8.828-8.828c0-4.879,3.953-8.828,8.828-8.828h44.138
	c4.875,0,8.828,3.948,8.828,8.828C326.621,194.673,322.668,198.621,317.793,198.621z"/>
<path style="fill:#707487;" d="M450.207,313.379H61.793v-17.655c0-9.751,7.904-17.655,17.655-17.655h353.103
	c9.751,0,17.655,7.904,17.655,17.655V313.379z"/>
<path style="fill:#959CB3;" d="M414.897,436.966H97.103c-9.751,0-17.655-7.904-17.655-17.655V313.379h353.103V419.31
	C432.552,429.062,424.648,436.966,414.897,436.966z"/>
<path style="fill:#EFF2FA;" d="M388.414,419.31H123.586c-4.875,0-8.828-3.953-8.828-8.828v-97.103h282.483v97.103
	C397.241,415.358,393.289,419.31,388.414,419.31z"/>
<path style="fill:#707487;" d="M383.484,75.034c-7.601,0-14.346,4.863-16.749,12.072l-4.803,14.411H150.069l-4.803-14.411
	c-2.403-7.209-9.15-12.072-16.749-12.072h-4.93v79.448h264.828V75.034H383.484z"/>
<g>
</g>
<g>
</g>
<g>
</g>
<g>
</g>
<g>
</g>
<g>
</g>
<g>
</g>
<g>
</g>
<g>
</g>
<g>
</g>
<g>
</g>
<g>
</g>
<g>
</g>
<g>
</g>
<g>
</g>
</svg>
