<?xml version="1.0" encoding="iso-8859-1"?>
<!-- Generator: Adobe Illustrator 19.0.0, SVG Export Plug-In . SVG Version: 6.00 Build 0)  -->
<svg version="1.1" id="Layer_1" xmlns="http://www.w3.org/2000/svg" xmlns:xlink="http://www.w3.org/1999/xlink" x="0px" y="0px"
	 viewBox="0 0 503.759 503.759" style="enable-background:new 0 0 503.759 503.759;" xml:space="preserve">
<g>
	<path style="fill:#BDC3C7;" d="M251.661,91.21c-4.79,0-8.678-3.879-8.678-8.678V47.82c0-4.799,3.888-8.678,8.678-8.678
		c4.79,0,8.678,3.879,8.678,8.678v34.712C260.339,87.331,256.451,91.21,251.661,91.21"/>
	<path style="fill:#35495E;" d="M0,308.159v86.78c0,4.53,4.148,8.678,8.678,8.678h34.929V299.481H8.678
		C4.148,299.481,0,303.638,0,308.159"/>
	<g>
		<path style="fill:#21313F;" d="M43.61,282.125v139.793c0,4.278,3.463,7.732,7.732,7.732h36.126c4.539,0,8.209-3.671,8.209-8.201
			V281.648c0-4.521-3.671-8.201-8.209-8.201h-35.18C47.515,273.447,43.61,277.352,43.61,282.125"/>
		<path style="fill:#21313F;" d="M321.305,134.6H181.512c-4.27,0-7.732,3.462-7.732,7.741v36.126c0,4.53,3.671,8.201,8.201,8.201
			h139.793c4.539,0,8.209-3.671,8.209-8.201v-35.189C329.983,138.505,326.078,134.6,321.305,134.6"/>
	</g>
	<path style="fill:#35495E;" d="M503.759,308.159v86.78c0,4.53-4.148,8.678-8.678,8.678h-34.929V299.481h34.929
		C499.61,299.481,503.759,303.638,503.759,308.159"/>
	<path style="fill:#21313F;" d="M460.153,282.125v139.793c0,4.278-3.462,7.732-7.732,7.732h-36.135c-4.53,0-8.201-3.671-8.201-8.201
		V281.648c0-4.521,3.671-8.201,8.201-8.201h35.189C456.248,273.447,460.153,277.352,460.153,282.125"/>
	<g>
		<path style="fill:#35495E;" d="M408.085,299.481c0,0-34.347-1.805-60.746-26.034l-8.244-6.179
			c-16.662-12.496-26.468-32.108-26.468-52.944v-27.657H191.136v27.657c0,20.836-9.806,40.448-26.476,52.944l-8.235,6.179
			c-26.398,24.229-60.746,26.034-60.746,26.034v104.136c37.081,0,47.755,13.581,50.827,21.131
			c2.265,5.545,4.643,11.108,8.279,15.872c11.481,15.022,27.778,26.936,43.754,35.979c33.072,18.736,73.615,18.736,106.687,0
			c15.967-9.042,32.273-20.957,43.746-35.979c3.645-4.764,6.022-10.327,8.287-15.872c3.063-7.55,13.746-21.131,50.827-21.131
			V299.481z"/>
		<polygon style="fill:#35495E;" points="242.983,82.532 208.271,134.6 295.051,134.6 260.339,82.532 		"/>
	</g>
	<path style="fill:#D25627;" d="M121.492,30.464L121.492,30.464c0,9.554,7.81,17.356,17.356,17.356h225.627
		c9.546,0,17.356-7.801,17.356-17.356c0-9.546-7.81-17.356-17.356-17.356H138.847C129.302,13.108,121.492,20.918,121.492,30.464"/>
</g>
<g>
</g>
<g>
</g>
<g>
</g>
<g>
</g>
<g>
</g>
<g>
</g>
<g>
</g>
<g>
</g>
<g>
</g>
<g>
</g>
<g>
</g>
<g>
</g>
<g>
</g>
<g>
</g>
<g>
</g>
</svg>
