<?xml version="1.0" encoding="iso-8859-1"?>
<!-- Generator: Adobe Illustrator 18.0.0, SVG Export Plug-In . SVG Version: 6.00 Build 0)  -->
<!DOCTYPE svg PUBLIC "-//W3C//DTD SVG 1.1//EN" "http://www.w3.org/Graphics/SVG/1.1/DTD/svg11.dtd">
<svg version="1.1" id="Capa_1" xmlns="http://www.w3.org/2000/svg" xmlns:xlink="http://www.w3.org/1999/xlink" x="0px" y="0px"
	 viewBox="0 0 512 512" style="enable-background:new 0 0 512 512;" xml:space="preserve">
<g>
	<path style="fill:#B1C3D0;" d="M432,0H256H80c-8.8,0-16,7.2-16,16v464c0,8.8,7.2,16,16,16h176h176c8.8,0,16-7.2,16-16V16
		C448,7.2,440.8,0,432,0z M184,272c0,4.418-3.582,8-8,8h-64c-4.418,0-8-3.582-8-8v-80c0-4.418,3.582-8,8-8h64c4.418,0,8,3.582,8,8
		V272z M232,304c0,4.417-3.579,8-8,8h-8c-4.422,0-8-3.583-8-8s3.578-8,8-8v-80c-4.422,0-8-3.583-8-8s3.578-8,8-8h8
		c4.421,0,8,3.583,8,8V304z M296,304c0,4.417-3.579,8-8,8h-8c-4.422,0-8-3.583-8-8v-96c0-4.417,3.578-8,8-8h8c4.421,0,8,3.583,8,8
		s-3.579,8-8,8v80C292.421,296,296,299.583,296,304z"/>
	<path style="fill:#8EADBE;" d="M240,32v432c0,8.837-7.163,16-16,16H96c-8.837,0-16,7.163-16,16l0,0h120h-64h120V16l0,0
		C247.163,16,240,23.163,240,32z"/>
	<path style="fill:#7B9BB1;" d="M368,504c0,4.4,3.6,8,8,8h40c4.4,0,8-3.6,8-8v-8h-56V504z"/>
	<path style="fill:#7B9BB1;" d="M88,504c0,4.4,3.6,8,8,8h40c4.4,0,8-3.6,8-8v-8H88V504z"/>
	<path style="fill:#8EADBE;" d="M432,32v432c0,8.837-7.163,16-16,16H288c-8.837,0-16,7.163-16,16l0,0h120h-64h104
		c8.837,0,16-7.163,16-16V16l0,0C439.163,16,432,23.163,432,32z"/>
	<g>
		<path style="fill:#7B9BB1;" d="M216,216v80c-4.422,0-8,3.583-8,8c0,4.418,3.578,8,8,8h8c4.421,0,8-3.582,8-8v-96
			c0-4.417-3.579-8-8-8h-8c-4.422,0-8,3.583-8,8C208,212.418,211.578,216,216,216z"/>
	</g>
	<g>
		<path style="fill:#7B9BB1;" d="M288,296v-80c4.421,0,8-3.582,8-8c0-4.417-3.579-8-8-8h-8c-4.422,0-8,3.583-8,8v96
			c0,4.418,3.578,8,8,8h8c4.421,0,8-3.582,8-8C296,299.583,292.421,296,288,296z"/>
	</g>
	<path style="fill:#8EADBE;" d="M104,272c0,4.418,3.581,8,8,8h64c4.418,0,8-3.582,8-8H104z"/>
	<path style="fill:#7B9BB1;" d="M156,224L156,224c-2.209,0-4-1.791-4-4v-12h-16v12c0,2.209-1.791,4-4,4l0,0c-2.209,0-4-1.791-4-4
		v-12h-24v64h80v-64h-24v12C160,222.209,158.209,224,156,224z"/>
	<path style="fill:#8EADBE;" d="M176,184h-64c-4.418,0-8,3.582-8,8v16h24v12c0,2.209,1.791,4,4,4l0,0c2.209,0,4-1.791,4-4v-12h16v12
		c0,2.209,1.791,4,4,4l0,0c2.209,0,4-1.791,4-4v-12h24v-16C184,187.582,180.418,184,176,184z"/>
</g>
<g>
</g>
<g>
</g>
<g>
</g>
<g>
</g>
<g>
</g>
<g>
</g>
<g>
</g>
<g>
</g>
<g>
</g>
<g>
</g>
<g>
</g>
<g>
</g>
<g>
</g>
<g>
</g>
<g>
</g>
</svg>
