<?xml version="1.0" encoding="iso-8859-1"?>
<!-- Generator: Adobe Illustrator 18.0.0, SVG Export Plug-In . SVG Version: 6.00 Build 0)  -->
<!DOCTYPE svg PUBLIC "-//W3C//DTD SVG 1.1//EN" "http://www.w3.org/Graphics/SVG/1.1/DTD/svg11.dtd">
<svg version="1.1" id="Capa_1" xmlns="http://www.w3.org/2000/svg" xmlns:xlink="http://www.w3.org/1999/xlink" x="0px" y="0px"
	 viewBox="0 0 512 512" style="enable-background:new 0 0 512 512;" xml:space="preserve">
<g>
	<polygon style="fill:#A25425;" points="264,336.004 264,448.004 304,448.004 304,400.004 448,400.004 448,448.004 496,448.004 
		496,336.004 	"/>
	<rect x="88" y="55.996" style="fill:#32373C;" width="336" height="192"/>
	<path style="fill:#35495C;" d="M440,31.996H72c-4.418,0-8,3.582-8,8v224c0,4.418,3.582,8,8,8h168v31.058l-19.578,9.794
		c-2.751,1.376-4.32,4.175-4.326,7.148h79.809c-0.006-2.973-1.575-5.772-4.326-7.148L272,303.059v-31.063h168c4.418,0,8-3.582,8-8
		v-224C448,35.578,444.418,31.996,440,31.996z M424,247.996H88v-192h336V247.996z"/>
	<polygon style="fill:#373D41;" points="424,247.996 320,247.996 288,55.996 424,55.996 	"/>
	<rect x="16" y="336.004" style="fill:#A25425;" width="232" height="112"/>
	<path style="fill:#C87629;" d="M496,320.004H16c-8.8,0-16,7.2-16,16v112c0,8.8,7.2,16,16,16h480c8.8,0,16-7.2,16-16v-112
		C512,327.204,504.8,320.004,496,320.004z M248,448.004H16v-112h232V448.004z M496,448.004H264v-112h232V448.004z"/>
	<path style="fill:#59340F;" d="M432,464.004l4.422,8.845c1.968,3.936,7.178,7.155,11.578,7.155h24c4.4,0,8-3.6,8-8v-8H432z"/>
	<path style="fill:#59340F;" d="M32,464.004v8c0,4.4,3.6,8,8,8h24c4.4,0,9.609-3.22,11.578-7.155L80,464.004H32z"/>
	<path style="fill:#7F4122;" d="M16,336.004v8v104h8v-72c0-17.673,14.327-32,32-32h192v-8H16z"/>
	<path style="fill:#7F4122;" d="M264,336.004v8v104h8v-72c0-17.673,14.327-32,32-32h192v-8H264z"/>
	<rect x="304" y="400.004" style="fill:#B1C3D0;" width="144" height="48"/>
	<circle style="fill:#566E7F;" cx="424" cy="424.004" r="8"/>
	<rect x="320" y="416.004" style="fill:#566E7F;" width="80" height="16"/>
	<rect x="232" y="376.004" style="fill:#3CB44A;" width="16" height="72"/>
	<rect x="216" y="376.004" style="fill:#00ACDD;" width="16" height="72"/>
	
		<rect x="184" y="376.475" transform="matrix(0.8823 0.4706 -0.4706 0.8823 216.7008 -41.8261)" style="fill:#3CB44A;" width="16" height="71.999"/>
</g>
<g>
</g>
<g>
</g>
<g>
</g>
<g>
</g>
<g>
</g>
<g>
</g>
<g>
</g>
<g>
</g>
<g>
</g>
<g>
</g>
<g>
</g>
<g>
</g>
<g>
</g>
<g>
</g>
<g>
</g>
</svg>
