<?xml version="1.0" encoding="iso-8859-1"?>
<!-- Generator: Adobe Illustrator 18.0.0, SVG Export Plug-In . SVG Version: 6.00 Build 0)  -->
<!DOCTYPE svg PUBLIC "-//W3C//DTD SVG 1.1//EN" "http://www.w3.org/Graphics/SVG/1.1/DTD/svg11.dtd">
<svg version="1.1" id="Capa_1" xmlns="http://www.w3.org/2000/svg" xmlns:xlink="http://www.w3.org/1999/xlink" x="0px" y="0px"
	 viewBox="0 0 512 512" style="enable-background:new 0 0 512 512;" xml:space="preserve">
<g>
	<path style="fill:#B1C3D0;" d="M432,0H80c-8.836,0-16,7.164-16,16v480c0,8.836,7.164,16,16,16h352c8.836,0,16-7.164,16-16V16
		C448,7.164,440.836,0,432,0z"/>
	<path style="fill:#8EADBE;" d="M303.435,72c-7.447,0-13.651-5.107-15.435-12c-0.332,1.286-0.565,2.61-0.565,4
		c0,8.844,7.164,16,16,16c8.836,0,16-7.156,16-16c0-1.39-0.233-2.714-0.565-4C317.086,66.893,310.882,72,303.435,72z"/>
	<path style="fill:#E2E4E6;" d="M319.435,56c0,8.844-7.164,16-16,16c-8.836,0-16-7.156-16-16c0-8.843,7.164-16,16-16
		C312.271,40,319.435,47.157,319.435,56z"/>
	<path style="fill:#8EADBE;" d="M255.435,72c-7.447,0-13.651-5.107-15.435-12c-0.332,1.286-0.565,2.61-0.565,4
		c0,8.844,7.164,16,16,16c8.836,0,16-7.156,16-16c0-1.39-0.233-2.714-0.565-4C269.086,66.893,262.882,72,255.435,72z"/>
	<path style="fill:#E2E4E6;" d="M271.435,56c0,8.844-7.164,16-16,16c-8.836,0-16-7.156-16-16c0-8.843,7.164-16,16-16
		C264.271,40,271.435,47.157,271.435,56z"/>
	<rect x="336" y="40" style="fill:#3CB44A;" width="88" height="40"/>
	<rect x="336" y="32" style="fill:#0E9247;" width="88" height="8"/>
	<path style="fill:#00ACDD;" d="M352,304c0,53.022-42.982,96-96,96c-53.019,0-96-42.978-96-96s42.981-96,96-96
		C309.018,208,352,250.978,352,304z"/>
	<path style="fill:#35495C;" d="M256,432c-70.579,0-128-57.421-128-128c0-70.578,57.421-128,128-128c70.578,0,128,57.422,128,128
		C384,374.579,326.578,432,256,432z M256,208c-52.931,0-96,43.069-96,96s43.069,96,96,96c52.931,0,96-43.069,96-96
		S308.931,208,256,208z"/>
	<path style="fill:#8EADBE;" d="M256,432c-67.992,0-123.447-53.053-127.596-120c-0.166,2.659-0.404,5.299-0.404,8
		c0,70.692,57.308,128,128,128c70.692,0,128-57.308,128-128c0-2.701-0.239-5.341-0.404-8C379.446,378.947,323.992,432,256,432z"/>
	<path style="fill:#50BEE7;" d="M166.47,338.435l179.06-68.869c-2.731-7.095-6.22-13.805-10.472-19.972l-174.142,66.978
		C161.914,324.18,163.799,331.495,166.47,338.435z"/>
	<path style="fill:#50BEE7;" d="M199.71,381.65l150.203-57.771C351.265,317.462,352,310.819,352,304
		c0-6.898-0.761-13.613-2.143-20.099l-176.938,68.053C179.683,363.645,188.829,373.748,199.71,381.65z"/>
	<path style="fill:#8EADBE;" d="M224,104V16c-8.837,0-16,7.163-16,16v72H80c0,8.837,7.163,16,16,16h88h48h184
		c8.836,0,16,7.163,16,16v344c0,8.837-7.164,16-16,16H232h-48H96c-8.837,0-16,7.163-16,16h176h24h152c8.836,0,16-7.163,16-16V120
		v-16H224z"/>
</g>
<g>
</g>
<g>
</g>
<g>
</g>
<g>
</g>
<g>
</g>
<g>
</g>
<g>
</g>
<g>
</g>
<g>
</g>
<g>
</g>
<g>
</g>
<g>
</g>
<g>
</g>
<g>
</g>
<g>
</g>
</svg>
