<?xml version="1.0" encoding="iso-8859-1"?>
<!-- Generator: Adobe Illustrator 18.0.0, SVG Export Plug-In . SVG Version: 6.00 Build 0)  -->
<!DOCTYPE svg PUBLIC "-//W3C//DTD SVG 1.1//EN" "http://www.w3.org/Graphics/SVG/1.1/DTD/svg11.dtd">
<svg version="1.1" id="Capa_1" xmlns="http://www.w3.org/2000/svg" xmlns:xlink="http://www.w3.org/1999/xlink" x="0px" y="0px"
	 viewBox="0 0 58 58" style="enable-background:new 0 0 58 58;" xml:space="preserve">
<path style="fill:#D6CBC7;" d="M48.067,58H9.933C9.694,58,9.5,57.806,9.5,57.567V0h39v57.567C48.5,57.806,48.306,58,48.067,58z"/>
<rect x="12.5" y="31" style="fill:#AFA7A5;" width="20" height="13"/>
<path style="fill:#EDE5E2;" d="M48.067,58H9.933C9.694,58,9.5,57.806,9.5,57.567V46h39v11.567C48.5,57.806,48.306,58,48.067,58z"/>
<line style="fill:none;stroke:#4C4C4F;stroke-width:2;stroke-linecap:round;stroke-miterlimit:10;" x1="26.5" y1="52" x2="31.5" y2="52"/>
<rect x="14.5" y="33" style="fill:#A4CA83;" width="16" height="9"/>
<rect x="17.5" y="36" style="fill:#475B34;" width="3" height="3"/>
<rect x="24.5" y="36" style="fill:#475B34;" width="3" height="3"/>
<circle style="fill:#556080;stroke:#556080;stroke-width:2;stroke-miterlimit:10;" cx="39.5" cy="38" r="4"/>
<line style="fill:none;stroke:#7383BF;stroke-width:2;stroke-miterlimit:10;" x1="39.5" y1="38" x2="42.5" y2="35"/>
<g>
</g>
<g>
</g>
<g>
</g>
<g>
</g>
<g>
</g>
<g>
</g>
<g>
</g>
<g>
</g>
<g>
</g>
<g>
</g>
<g>
</g>
<g>
</g>
<g>
</g>
<g>
</g>
<g>
</g>
</svg>
