<?xml version="1.0" encoding="iso-8859-1"?>
<!-- Generator: Adobe Illustrator 19.0.0, SVG Export Plug-In . SVG Version: 6.00 Build 0)  -->
<svg version="1.1" id="Capa_1" xmlns="http://www.w3.org/2000/svg" xmlns:xlink="http://www.w3.org/1999/xlink" x="0px" y="0px"
	 viewBox="0 0 512 512" style="enable-background:new 0 0 512 512;" xml:space="preserve">
<path style="fill:#FFA81F;" d="M76.141,512c-8.303,0-15.035-6.732-15.035-15.035V395.947c0-8.303,6.732-15.035,15.035-15.035
	s15.035,6.732,15.035,15.035v101.019C91.176,505.268,84.444,512,76.141,512z"/>
<path style="fill:#FF8700;" d="M232.438,512c-8.303,0-15.035-6.732-15.035-15.035V395.947c0-8.303,6.732-15.035,15.035-15.035
	s15.035,6.732,15.035,15.035v101.019C247.472,505.268,240.741,512,232.438,512z"/>
<path style="fill:#FFCD00;" d="M299.786,40.112v338.289c0,4.25-1.363,8.229-3.739,11.466c-2.375,3.237-5.763,5.743-9.823,7.016
	l-6.956,2.195c-41.175,12.97-83.532,19.455-125.88,19.455c-42.368,0-84.705-6.485-125.89-19.455l-6.956-2.195
	c-8.109-2.556-13.561-9.983-13.561-18.483V40.112c0-8.339,5.322-15.726,13.22-18.382C63.221,7.307,108.024,0,153.389,0
	c45.354,0,90.168,7.307,133.177,21.73C294.474,24.386,299.786,31.773,299.786,40.112z"/>
<g>
	<path style="fill:#FFA81F;" d="M299.786,40.112v338.289c0,4.25-1.363,8.229-3.739,11.466c-2.375,3.237-5.763,5.743-9.823,7.016
		l-6.956,2.195c-41.175,12.97-83.532,19.455-125.88,19.455V0c45.354,0,90.168,7.307,133.177,21.73
		C294.474,24.386,299.786,31.773,299.786,40.112z"/>
	<path style="fill:#FFA81F;" d="M230.837,250.878v3.789c0,22.241-18.092,40.333-40.333,40.333h-74.241
		c-22.241,0-40.333-18.092-40.333-40.333v-3.789c0-22.241,18.092-40.343,40.333-40.343h74.241
		C212.745,210.535,230.837,228.636,230.837,250.878z"/>
	<path style="fill:#FFA81F;" d="M180.952,331.543c0,8.309-6.725,15.035-15.035,15.035H140.85c-8.299,0-15.035-6.725-15.035-15.035
		c0-8.299,6.736-15.035,15.035-15.035h25.068C174.227,316.509,180.952,323.244,180.952,331.543z"/>
</g>
<g>
	<path style="fill:#FF8700;" d="M180.952,331.543c0,8.309-6.725,15.035-15.035,15.035h-12.529v-30.069h12.529
		C174.227,316.509,180.952,323.244,180.952,331.543z"/>
	<path style="fill:#FF8700;" d="M230.837,250.878v3.789c0,22.241-18.092,40.333-40.333,40.333h-37.115v-84.464h37.115
		C212.745,210.535,230.837,228.636,230.837,250.878z"/>
</g>
<path style="fill:#E6F1FF;" d="M202.251,143.691c0,26.952-21.92,48.873-48.863,48.873c-26.952,0-48.873-21.92-48.873-48.873
	c0-7.908,2.746-22.612,26.511-58.775c4.681-7.116,12.549-11.506,21.058-11.747c0.441-0.01,0.872-0.01,1.303,0
	c8.028,0.17,15.556,4.059,20.347,10.544C180.431,92.754,202.251,123.795,202.251,143.691z"/>
<path style="fill:#BBDCFF;" d="M202.251,143.691c0,26.952-21.92,48.873-48.863,48.873V73.168c8.028,0.17,15.556,4.059,20.347,10.544
	C180.431,92.754,202.251,123.795,202.251,143.691z"/>
<path style="fill:#0088FF;" d="M481.975,277.629v156.43c0,15.125-12.298,27.433-27.423,27.433h-91.571
	c-15.115,0-27.423-12.308-27.423-27.433v-156.43c0-15.125,12.308-27.433,27.423-27.433h91.571
	C469.677,250.196,481.975,262.504,481.975,277.629z"/>
<path style="fill:#006DF3;" d="M481.975,277.629v156.43c0,15.125-12.298,27.433-27.423,27.433H409.96V250.196h44.593
	C469.677,250.196,481.975,262.504,481.975,277.629z"/>
<g>
	<path style="fill:#9990A5;" d="M408.766,341.146c-0.491,0-0.982-0.03-1.473-0.08c-0.491-0.04-0.982-0.12-1.463-0.221
		c-0.481-0.09-0.962-0.21-1.423-0.361c-0.471-0.14-0.942-0.301-1.393-0.491s-0.892-0.401-1.323-0.631
		c-0.431-0.231-0.862-0.481-1.273-0.752c-0.401-0.271-0.802-0.571-1.183-0.882c-0.381-0.311-0.752-0.641-1.103-0.992
		c-0.341-0.341-0.682-0.712-0.992-1.092c-0.311-0.381-0.601-0.782-0.872-1.193c-0.271-0.401-0.521-0.832-0.752-1.263
		s-0.441-0.872-0.631-1.333c-0.19-0.451-0.351-0.912-0.501-1.383c-0.14-0.461-0.261-0.942-0.361-1.423
		c-0.09-0.481-0.17-0.972-0.22-1.463c-0.04-0.491-0.07-0.982-0.07-1.473s0.03-0.992,0.07-1.483c0.05-0.481,0.13-0.972,0.22-1.453
		c0.1-0.481,0.221-0.962,0.361-1.433c0.15-0.461,0.311-0.932,0.501-1.383c0.19-0.451,0.401-0.902,0.631-1.333
		c0.231-0.431,0.481-0.852,0.752-1.263c0.271-0.411,0.561-0.812,0.872-1.183c0.311-0.381,0.651-0.752,0.992-1.103
		c0.351-0.341,0.722-0.682,1.103-0.992c0.381-0.311,0.782-0.601,1.183-0.872c0.411-0.271,0.842-0.531,1.273-0.762
		c0.431-0.231,0.872-0.441,1.323-0.621c0.451-0.19,0.922-0.361,1.393-0.501c0.461-0.14,0.942-0.261,1.423-0.361
		c0.481-0.1,0.972-0.17,1.463-0.221c0.982-0.1,1.975-0.1,2.957,0c0.481,0.05,0.972,0.12,1.453,0.221
		c0.481,0.1,0.962,0.221,1.433,0.361c0.461,0.14,0.932,0.311,1.383,0.501c0.451,0.18,0.902,0.391,1.333,0.621
		c0.431,0.231,0.852,0.491,1.263,0.762c0.411,0.271,0.802,0.561,1.183,0.872c0.381,0.311,0.752,0.651,1.103,0.992
		c0.341,0.351,0.682,0.722,0.992,1.103c0.311,0.371,0.601,0.772,0.872,1.183s0.531,0.832,0.762,1.263
		c0.221,0.431,0.441,0.882,0.621,1.333c0.19,0.451,0.361,0.922,0.501,1.383c0.14,0.471,0.261,0.952,0.361,1.433
		c0.09,0.481,0.17,0.972,0.221,1.453c0.05,0.491,0.07,0.992,0.07,1.483c0,0.491-0.02,0.982-0.07,1.473
		c-0.05,0.491-0.13,0.982-0.221,1.463c-0.1,0.481-0.22,0.962-0.361,1.423c-0.14,0.471-0.311,0.932-0.501,1.383
		c-0.18,0.461-0.401,0.902-0.621,1.333c-0.231,0.431-0.491,0.862-0.762,1.263c-0.271,0.411-0.561,0.812-0.872,1.193
		c-0.311,0.381-0.651,0.752-0.992,1.092c-0.351,0.351-0.722,0.682-1.103,0.992c-0.381,0.311-0.772,0.611-1.183,0.882
		c-0.411,0.271-0.832,0.521-1.263,0.752c-0.431,0.231-0.882,0.441-1.333,0.631c-0.451,0.19-0.922,0.351-1.383,0.491
		c-0.471,0.15-0.952,0.271-1.433,0.361c-0.481,0.1-0.972,0.18-1.453,0.221C409.759,341.115,409.258,341.146,408.766,341.146z"/>
	<path style="fill:#9990A5;" d="M408.766,401.284c-0.491,0-0.982-0.03-1.473-0.08s-0.982-0.12-1.463-0.221
		c-0.481-0.09-0.962-0.21-1.423-0.361c-0.471-0.14-0.932-0.311-1.393-0.491c-0.451-0.19-0.892-0.401-1.323-0.631
		c-0.431-0.231-0.862-0.481-1.273-0.752c-0.401-0.271-0.802-0.571-1.183-0.872c-0.381-0.321-0.752-0.652-1.103-0.992
		c-0.341-0.351-0.682-0.722-0.992-1.103c-0.311-0.381-0.601-0.782-0.872-1.193c-0.271-0.401-0.521-0.832-0.752-1.263
		c-0.231-0.431-0.441-0.872-0.631-1.333c-0.19-0.451-0.351-0.912-0.501-1.383c-0.14-0.461-0.261-0.942-0.361-1.423
		c-0.09-0.481-0.17-0.972-0.22-1.463c-0.04-0.491-0.07-0.982-0.07-1.473s0.03-0.992,0.07-1.483c0.05-0.481,0.13-0.972,0.22-1.453
		c0.1-0.481,0.221-0.962,0.361-1.433c0.15-0.461,0.311-0.932,0.501-1.383c0.19-0.451,0.401-0.902,0.631-1.333
		c0.231-0.431,0.481-0.852,0.752-1.263c0.271-0.411,0.561-0.812,0.872-1.183c0.311-0.381,0.651-0.752,0.992-1.103
		c0.351-0.351,0.722-0.682,1.103-0.992c0.381-0.311,0.782-0.601,1.183-0.872c0.411-0.271,0.842-0.531,1.273-0.762
		c0.431-0.231,0.872-0.441,1.323-0.621c0.451-0.19,0.922-0.361,1.393-0.501c0.461-0.14,0.942-0.261,1.423-0.361
		c0.481-0.1,0.972-0.17,1.463-0.221c0.982-0.1,1.975-0.1,2.957,0c0.481,0.05,0.972,0.12,1.453,0.221
		c0.481,0.1,0.962,0.22,1.433,0.361c0.461,0.14,0.932,0.311,1.383,0.501c0.451,0.18,0.902,0.391,1.333,0.621
		c0.431,0.231,0.852,0.491,1.263,0.762c0.411,0.271,0.802,0.561,1.183,0.872c0.381,0.311,0.752,0.641,1.103,0.992
		c0.341,0.351,0.682,0.722,0.992,1.103c0.311,0.371,0.601,0.772,0.872,1.183s0.531,0.832,0.762,1.263
		c0.221,0.431,0.441,0.882,0.621,1.333c0.19,0.451,0.361,0.922,0.501,1.383c0.14,0.471,0.261,0.952,0.361,1.433
		c0.09,0.481,0.17,0.972,0.221,1.453c0.05,0.491,0.07,0.992,0.07,1.483c0,0.491-0.02,0.982-0.07,1.473
		c-0.05,0.491-0.13,0.982-0.221,1.463c-0.1,0.481-0.22,0.962-0.361,1.423c-0.14,0.471-0.311,0.932-0.501,1.383
		c-0.18,0.461-0.401,0.902-0.621,1.333c-0.231,0.431-0.491,0.862-0.762,1.263c-0.271,0.411-0.561,0.812-0.872,1.193
		c-0.311,0.381-0.651,0.752-0.992,1.103c-0.351,0.341-0.722,0.672-1.103,0.992c-0.381,0.301-0.772,0.601-1.183,0.872
		c-0.411,0.271-0.832,0.521-1.263,0.752c-0.431,0.231-0.882,0.441-1.333,0.631c-0.451,0.18-0.922,0.351-1.383,0.491
		c-0.471,0.15-0.952,0.271-1.433,0.361c-0.481,0.1-0.972,0.17-1.453,0.221C409.759,401.254,409.258,401.284,408.766,401.284z"/>
</g>
<g>
	<path style="fill:#E6F1FF;" d="M458.321,220.047c-2.937,7.768-11.617,11.677-19.385,8.73c-9.843-3.729-18.713-5.533-27.102-5.533
		c-0.631,0-1.253,0.01-1.874,0.02c-9.913,0.241-19.655,2.325-28.315,6.074c-1.944,0.852-3.979,1.253-5.974,1.253
		c-5.813,0-11.346-3.388-13.802-9.061c-3.308-7.608,0.19-16.468,7.808-19.776c12.389-5.372,26.281-8.319,40.283-8.56
		c0.621-0.01,1.253-0.02,1.874-0.02c12.098,0,24.446,2.446,37.757,7.487C457.349,203.599,461.258,212.279,458.321,220.047z"/>
	<path style="fill:#E6F1FF;" d="M479.941,190.378c-2.937,7.758-11.617,11.667-19.385,8.73c-17.37-6.585-33.136-9.783-48.201-9.783
		c-0.802,0-1.604,0.01-2.396,0.02c-17.921,0.311-35.612,4.049-51.318,10.865c-1.944,0.842-3.979,1.243-5.974,1.243
		c-5.813,0-11.336-3.388-13.802-9.051c-3.308-7.618,0.19-16.478,7.808-19.776c19.445-8.429,41.275-13.04,63.286-13.361
		c0.792,0,1.594-0.01,2.396-0.01c9.392,0,18.893,0.962,28.656,2.907s19.786,4.881,30.2,8.82
		C478.979,173.931,482.888,182.611,479.941,190.378z"/>
	<path style="fill:#E6F1FF;" d="M504.036,160.73c-2.937,7.758-11.617,11.667-19.385,8.73c-19.806-7.507-43.641-15.175-70.252-15.175
		c-1.483,0-2.967,0.02-4.44,0.06c-26.321,0.551-52.31,6.094-75.414,16.127c-1.944,0.842-3.979,1.243-5.974,1.243
		c-5.813,0-11.346-3.388-13.802-9.051c-3.308-7.618,0.19-16.468,7.808-19.776c26.842-11.647,56.961-18.062,87.381-18.623
		c1.483-0.04,2.957-0.05,4.44-0.05c31.462,0,58.555,8.66,80.906,17.129C503.074,144.282,506.983,152.962,504.036,160.73z"/>
</g>
<g>
	<path style="fill:#BBDCFF;" d="M458.321,220.047c-2.937,7.768-11.617,11.677-19.385,8.73c-9.843-3.729-18.713-5.533-27.102-5.533
		c-0.631,0-1.253,0.01-1.874,0.02v-30.069c0.621-0.01,1.253-0.02,1.874-0.02c12.098,0,24.446,2.446,37.757,7.487
		C457.349,203.599,461.258,212.279,458.321,220.047z"/>
	<path style="fill:#BBDCFF;" d="M479.941,190.378c-2.937,7.758-11.617,11.667-19.385,8.73c-17.37-6.585-33.136-9.783-48.201-9.783
		c-0.802,0-1.604,0.01-2.396,0.02v-30.079c0.792,0,1.594-0.01,2.396-0.01c9.392,0,18.893,0.962,28.656,2.907s19.786,4.881,30.2,8.82
		C478.979,173.931,482.888,182.611,479.941,190.378z"/>
	<path style="fill:#BBDCFF;" d="M504.036,160.73c-2.937,7.758-11.617,11.667-19.385,8.73c-19.806-7.507-43.641-15.175-70.252-15.175
		c-1.483,0-2.967,0.02-4.44,0.06v-30.079c1.483-0.04,2.957-0.05,4.44-0.05c31.462,0,58.555,8.66,80.906,17.129
		C503.074,144.282,506.983,152.962,504.036,160.73z"/>
</g>
<g>
</g>
<g>
</g>
<g>
</g>
<g>
</g>
<g>
</g>
<g>
</g>
<g>
</g>
<g>
</g>
<g>
</g>
<g>
</g>
<g>
</g>
<g>
</g>
<g>
</g>
<g>
</g>
<g>
</g>
</svg>
