<?xml version="1.0" encoding="iso-8859-1"?>
<!-- Generator: Adobe Illustrator 19.0.0, SVG Export Plug-In . SVG Version: 6.00 Build 0)  -->
<svg version="1.1" id="Layer_1" xmlns="http://www.w3.org/2000/svg" xmlns:xlink="http://www.w3.org/1999/xlink" x="0px" y="0px"
	 viewBox="0 0 512 512" style="enable-background:new 0 0 512 512;" xml:space="preserve">
<g>
	<path style="fill:#AFB9D2;" d="M485.517,441.379h-17.655c-4.875,0-8.828-3.953-8.828-8.828v-17.655h35.31v17.655
		C494.345,437.427,490.392,441.379,485.517,441.379z"/>
	<path style="fill:#AFB9D2;" d="M44.138,441.379H26.483c-4.875,0-8.828-3.953-8.828-8.828v-17.655h35.31v17.655
		C52.966,437.427,49.013,441.379,44.138,441.379z"/>
</g>
<path style="fill:#E4EAF6;" d="M494.345,423.724H17.655C7.904,423.724,0,415.82,0,406.069V88.276
	c0-9.751,7.904-17.655,17.655-17.655h476.69c9.751,0,17.655,7.904,17.655,17.655v317.793
	C512,415.82,504.096,423.724,494.345,423.724z"/>
<path style="fill:#D7DEED;" d="M308.966,406.069H44.138c-14.626,0-26.483-11.857-26.483-26.483V114.759
	c0-14.626,11.857-26.483,26.483-26.483h264.828c14.626,0,26.483,11.857,26.483,26.483v264.828
	C335.448,394.212,323.592,406.069,308.966,406.069z"/>
<circle style="fill:#464655;" cx="176.552" cy="247.172" r="141.241"/>
<g>
	<path style="fill:#707487;" d="M176.237,221.649l52.128-59.575c4.676-5.345,12.899-5.619,17.921-0.597l0.021,0.021
		c13.76,13.76,13.01,36.289-1.635,49.103l-42.39,37.091"/>
	<path style="fill:#707487;" d="M175.197,272.696l-52.128,59.575c-4.676,5.345-12.899,5.619-17.921,0.597l-0.021-0.021
		c-13.76-13.76-13.01-36.289,1.635-49.103l42.39-37.091"/>
	<path style="fill:#707487;" d="M201.241,247.692l59.575,52.128c5.345,4.676,5.619,12.899,0.597,17.921l-0.021,0.021
		c-13.76,13.76-36.289,13.01-49.103-1.635l-37.091-42.39"/>
	<path style="fill:#707487;" d="M150.193,246.653l-59.575-52.128c-5.345-4.676-5.619-12.899-0.597-17.921l0.021-0.021
		c13.76-13.76,36.289-13.01,49.103,1.635l37.091,42.39"/>
</g>
<g>
	<circle style="fill:#959CB3;" cx="176.552" cy="247.172" r="35.31"/>
	<circle style="fill:#959CB3;" cx="44.138" cy="114.759" r="8.828"/>
	<circle style="fill:#959CB3;" cx="308.966" cy="114.759" r="8.828"/>
	<circle style="fill:#959CB3;" cx="44.138" cy="379.586" r="8.828"/>
	<circle style="fill:#959CB3;" cx="308.966" cy="379.586" r="8.828"/>
</g>
<g>
</g>
<g>
</g>
<g>
</g>
<g>
</g>
<g>
</g>
<g>
</g>
<g>
</g>
<g>
</g>
<g>
</g>
<g>
</g>
<g>
</g>
<g>
</g>
<g>
</g>
<g>
</g>
<g>
</g>
</svg>
