<?xml version="1.0" encoding="iso-8859-1"?>
<!-- Generator: Adobe Illustrator 18.0.0, SVG Export Plug-In . SVG Version: 6.00 Build 0)  -->
<!DOCTYPE svg PUBLIC "-//W3C//DTD SVG 1.1//EN" "http://www.w3.org/Graphics/SVG/1.1/DTD/svg11.dtd">
<svg version="1.1" id="Capa_1" xmlns="http://www.w3.org/2000/svg" xmlns:xlink="http://www.w3.org/1999/xlink" x="0px" y="0px"
	 viewBox="0 0 60 60" style="enable-background:new 0 0 60 60;" xml:space="preserve">
<circle style="fill:none;stroke:#AFB6BB;stroke-width:2;stroke-linecap:round;stroke-miterlimit:10;" cx="30" cy="21" r="20"/>
<circle style="fill:#556080;" cx="30" cy="21" r="6"/>
<path style="fill:#C7CAC7;" d="M37.383,5.758c-3.742-1.84-8.158-2.331-12.461-1.016c-1.35,0.413-2.598,0.994-3.757,1.688
	c12.207,2.046,5.24,6.014,6.472,9.008c0.726-0.294,1.508-0.439,2.298-0.435C29.956,15.003,29.978,15,30,15
	c0.014,0,0.028,0.002,0.042,0.002c0.089,0.002,0.177,0.007,0.266,0.013c1.942,0.099,3.641,1.112,4.666,2.627
	C42.002,13.28,42.447,8.795,37.383,5.758z"/>
<path style="fill:#C7CAC7;" d="M35.94,21.983c-0.266,1.694-1.251,3.263-2.836,4.215c-0.891,0.535-1.866,0.812-2.836,0.852
	c0.095,8.362,3.736,11.072,8.987,8.252c4.779-3.101,7.744-8.453,7.745-14.233C38.954,30.488,39.142,22.469,35.94,21.983z"/>
<path style="fill:#C7CAC7;" d="M25.704,25.184c-0.031-0.032-0.06-0.067-0.091-0.1c-0.109-0.117-0.214-0.236-0.313-0.361
	c-0.038-0.048-0.073-0.098-0.11-0.147c-0.086-0.115-0.168-0.232-0.245-0.353c-0.038-0.059-0.074-0.12-0.109-0.18
	c-0.069-0.116-0.133-0.234-0.194-0.355c-0.034-0.068-0.067-0.136-0.099-0.205c-0.055-0.12-0.104-0.242-0.151-0.366
	c-0.028-0.074-0.056-0.146-0.081-0.221c-0.042-0.126-0.077-0.256-0.111-0.385c-0.02-0.075-0.041-0.149-0.058-0.226
	c-0.031-0.141-0.053-0.286-0.074-0.431c-0.01-0.068-0.023-0.134-0.031-0.202C24.014,21.437,24,21.22,24,21
	c0-0.238,0.018-0.471,0.044-0.702c0.008-0.071,0.021-0.14,0.032-0.21c0.025-0.162,0.055-0.322,0.092-0.479
	c0.018-0.074,0.036-0.147,0.057-0.22c0.044-0.159,0.096-0.315,0.153-0.469c0.022-0.059,0.041-0.118,0.064-0.176
	c0.085-0.21,0.18-0.415,0.287-0.613l0,0c-7.21-4.222-11.407-2.503-11.702,3.437c0.196,5.94,3.432,11.097,8.209,13.981
	c-3.926-11.742,2.849-7.453,4.915-9.946c0,0-0.002-0.001-0.002-0.002C25.994,25.469,25.846,25.33,25.704,25.184z"/>
<rect x="22" y="56" style="fill:#556080;" width="16" height="3"/>
<rect x="26" y="45" style="fill:#556080;" width="8" height="6"/>
<g>
	<rect x="28" y="51" style="fill:#AFB6BB;" width="4" height="5"/>
	<rect x="28" y="41" style="fill:#AFB6BB;" width="4" height="4"/>
</g>
<line style="fill:none;stroke:#38454F;stroke-width:2;stroke-linecap:round;stroke-linejoin:round;stroke-miterlimit:10;" x1="19" y1="59" x2="41" y2="59"/>
<g>
</g>
<g>
</g>
<g>
</g>
<g>
</g>
<g>
</g>
<g>
</g>
<g>
</g>
<g>
</g>
<g>
</g>
<g>
</g>
<g>
</g>
<g>
</g>
<g>
</g>
<g>
</g>
<g>
</g>
</svg>
