<?xml version="1.0" encoding="iso-8859-1"?>
<!-- Generator: Adobe Illustrator 19.0.0, SVG Export Plug-In . SVG Version: 6.00 Build 0)  -->
<svg version="1.1" id="Layer_1" xmlns="http://www.w3.org/2000/svg" xmlns:xlink="http://www.w3.org/1999/xlink" x="0px" y="0px"
	 viewBox="0 0 512 512" style="enable-background:new 0 0 512 512;" xml:space="preserve">
<polygon style="fill:#CFDCE5;" points="409.748,251.37 380.89,285.904 358.617,262.87 329.77,297.416 307.497,274.37 
	278.639,308.904 256.365,285.859 227.507,320.382 205.234,297.336 176.376,331.871 136.268,331.871 180.497,173.436 
	183.289,173.095 512,172.766 512,228.404 483.153,262.927 460.868,239.882 432.022,274.404 "/>
<path style="fill:#4EBFED;" d="M136.268,331.871l-11.057,12.317l-91.217,2.146c-11.262,0.261-21.286-7.073-24.43-17.88
	l-4.507-15.496c-9.604-33.024-5.415-68.546,11.625-98.426c2.543-4.473,3.826-9.445,3.826-14.429c0-4.745-1.158-9.479-3.474-13.793
	l-3.803-7.084c-3.247-6.062,1.135-13.396,8.015-13.407l158.321-0.159l0.931,7.776l9.491,79.024
	c1.317,10.989-2.168,22.024-9.57,30.254L136.268,331.871z M121.362,219.424c0.272-1.442,0.397-2.872,0.397-4.291
	c0-10.819-7.674-20.446-18.697-22.535c-12.454-2.361-24.465,5.835-26.814,18.289v5.392c0,0.114,0,0.227,0,0.341
	c0,26.258-5.279,52.233-15.542,76.402c-2.35,12.465,5.835,24.476,18.3,26.826c12.454,2.361,24.465-5.835,26.814-18.289
	L121.362,219.424z"/>
<path style="fill:#3BA4BC;" d="M83.335,325.934c-1.788,0-3.59-0.168-5.387-0.509c-15.506-2.924-25.746-17.932-22.821-33.455
	c0.075-0.401,0.194-0.792,0.353-1.167c10.013-23.582,15.091-48.541,15.091-74.184v-5.733c0-0.353,0.033-0.706,0.099-1.052
	c1.418-7.514,5.678-14.026,11.996-18.336c6.321-4.311,13.939-5.899,21.453-4.476c13.509,2.561,23.316,14.384,23.316,28.112
	c0,1.802-0.166,3.599-0.496,5.342c0,0.001,0,0.002,0,0.005l-15.542,82.135c-1.418,7.512-5.678,14.024-11.997,18.333
	C94.59,324.229,89.03,325.934,83.335,325.934z M66.187,294.632c-1.424,9.171,4.695,17.908,13.87,19.639
	c4.533,0.859,9.132-0.098,12.945-2.7c3.812-2.601,6.383-6.53,7.239-11.064l15.542-82.137c0.199-1.051,0.299-2.14,0.299-3.237
	c0-8.279-5.92-15.412-14.077-16.958c-4.536-0.859-9.129,0.101-12.941,2.701c-3.676,2.508-6.198,6.251-7.141,10.579v5.164
	C81.923,243.576,76.63,269.818,66.187,294.632z M121.362,219.424h0.011H121.362z"/>
<g>
</g>
<g>
</g>
<g>
</g>
<g>
</g>
<g>
</g>
<g>
</g>
<g>
</g>
<g>
</g>
<g>
</g>
<g>
</g>
<g>
</g>
<g>
</g>
<g>
</g>
<g>
</g>
<g>
</g>
</svg>
