<svg id="Layer_1" data-name="Layer 1" xmlns="http://www.w3.org/2000/svg" viewBox="0 0 512 512"><defs><style>.cls-1{fill:#cad8dd;}.cls-2{fill:#dde5e8;}.cls-3{fill:#198fd8;}.cls-4{fill:#afc3c9;}</style></defs><title>truck-flat</title><path class="cls-1" d="M256,70.4H76.8A76.88,76.88,0,0,0,0,147.2V326.4a76.88,76.88,0,0,0,76.8,76.8h256v-256A76.88,76.88,0,0,0,256,70.4Z"/><path class="cls-2" d="M502.33,267.28,464.68,199.5A76.83,76.83,0,0,0,397.54,160H332.8V403.2H435.2A76.88,76.88,0,0,0,512,326.4V304.58A77.05,77.05,0,0,0,502.33,267.28Z"/><path class="cls-3" d="M460,278.49,433.57,231A38.4,38.4,0,0,0,400,211.2H374.8a6.4,6.4,0,0,0-6.4,6.4v64a6.4,6.4,0,0,0,6.4,6.4h79.59A6.4,6.4,0,0,0,460,278.49Z"/><circle class="cls-4" cx="128" cy="390.4" r="51.2"/><circle class="cls-4" cx="409.6" cy="390.4" r="51.2"/></svg>