<?xml version="1.0" encoding="iso-8859-1"?>
<!-- Generator: Adobe Illustrator 19.0.0, SVG Export Plug-In . SVG Version: 6.00 Build 0)  -->
<svg version="1.1" id="Layer_1" xmlns="http://www.w3.org/2000/svg" xmlns:xlink="http://www.w3.org/1999/xlink" x="0px" y="0px"
	 viewBox="0 0 503.607 503.607" style="enable-background:new 0 0 503.607 503.607;" xml:space="preserve">
<g transform="translate(1 1)">
	<g>
		<path style="fill:#FFE100;" d="M284.377,82.934h-67.148c-3.357,0-5.875-1.679-7.554-5.036l-16.787-33.574
			c-1.679-2.518-0.839-5.875,0-8.393c2.518-1.679,5.036-3.357,7.554-3.357h100.721c2.518,0,5.875,1.679,7.554,4.197
			c1.679,2.518,1.679,5.875,0,8.393l-16.787,33.574C291.092,81.256,287.734,82.934,284.377,82.934z M222.266,66.148h57.075
			l8.393-16.787h-73.862L222.266,66.148z"/>
		<path style="fill:#FFE100;" d="M157.636,494.213H42.646c-5.875,0-10.072-4.197-10.072-9.233v-57.915h134.295v57.915
			C166.869,490.016,162.672,494.213,157.636,494.213"/>
	</g>
	<path style="fill:#FFA800;" d="M141.689,427.066v57.915c0,5.036-4.197,9.233-9.233,9.233h25.18c5.036,0,9.233-4.197,9.233-9.233
		v-57.915H141.689z"/>
	<path style="fill:#FFFFFF;" d="M57.754,484.98v-57.915h-25.18v57.915c0,5.036,4.197,9.233,10.072,9.233h25.18
		C61.951,494.213,57.754,490.016,57.754,484.98"/>
	<path style="fill:#FFE100;" d="M182.816,427.066H17.466c-5.875,0-10.072-4.197-10.072-9.233v-31.056
		c0-5.875,4.197-10.072,10.072-10.072h165.351c5.036,0,9.233,4.197,9.233,9.233v31.056
		C192.049,422.869,187.852,427.066,182.816,427.066"/>
	<path style="fill:#FFFFFF;" d="M32.574,416.154v-31.056c0-5.036,4.197-9.233,9.233-9.233h-25.18c-5.036,0-9.233,4.197-9.233,9.233
		v31.056c0,5.036,4.197,9.233,9.233,9.233h25.18C36.77,426.226,32.574,422.03,32.574,416.154"/>
	<path style="fill:#FFE100;" d="M494.213,142.528v114.99c0,5.036-4.197,9.233-9.233,9.233h-57.915V133.295h57.915
		C490.016,133.295,494.213,137.492,494.213,142.528"/>
	<path style="fill:#FFA800;" d="M485.82,133.295h-25.18c5.036,0,9.233,4.197,9.233,9.233v114.99c0,5.036-4.197,9.233-9.233,9.233
		h25.18c5.036,0,9.233-4.197,9.233-9.233v-114.99C495.892,137.492,491.695,133.295,485.82,133.295"/>
	<g>
		<path style="fill:#FFE100;" d="M427.066,117.348v165.351c0,5.036-4.197,9.233-9.233,9.233h-31.056
			c-5.036,0-9.233-4.197-9.233-9.233V117.348c0-5.036,4.197-9.233,9.233-9.233h31.056
			C422.869,108.115,427.066,112.311,427.066,117.348"/>
		<path style="fill:#FFE100;" d="M275.984,133.295c-134.295,0-243.41,109.115-243.41,243.41h134.295
			c0-60.433,48.682-109.115,109.115-109.115h100.721V133.295H275.984z"/>
	</g>
	<path style="fill:#FFFFFF;" d="M301.164,133.295h-25.18c-134.295,0-243.41,109.115-243.41,243.41h25.18
		C57.754,242.41,166.869,133.295,301.164,133.295"/>
	<path style="fill:#FFE100;" d="M275.984,133.295h16.787V74.541H192.049v73.862C218.069,138.331,246.607,133.295,275.984,133.295"/>
	<path style="fill:#FFFFFF;" d="M217.229,74.541h-25.18v73.862c8.393-3.357,16.787-5.875,25.18-7.554V74.541z"/>
	<path style="fill:#63D3FD;" d="M141.689,40.967h201.443c9.233,0,16.787-7.554,16.787-16.787s-7.554-16.787-16.787-16.787H141.689
		c-9.233,0-16.787,7.554-16.787,16.787S132.456,40.967,141.689,40.967"/>
	<path style="fill:#3DB9F9;" d="M343.131,7.393h-25.18c9.233,0,16.787,7.554,16.787,16.787s-7.554,16.787-16.787,16.787h25.18
		c9.233,0,16.787-7.554,16.787-16.787S352.364,7.393,343.131,7.393"/>
	<path style="fill:#FFFFFF;" d="M141.689,7.393h25.18c-9.233,0-16.787,7.554-16.787,16.787s7.554,16.787,16.787,16.787h-25.18
		c-9.233,0-16.787-7.554-16.787-16.787S132.456,7.393,141.689,7.393"/>
	<path d="M275.984,82.934h-67.148c-3.357,0-5.875-1.679-7.554-5.036l-16.787-33.574c-1.679-2.518-0.839-5.875,0-8.393
		c2.518-1.679,5.036-3.357,7.554-3.357H292.77c2.518,0,5.875,1.679,7.554,4.197c1.679,2.518,1.679,5.875,0,8.393l-16.787,33.574
		C282.698,81.256,279.341,82.934,275.984,82.934z M213.872,66.148h57.075l8.393-16.787h-73.862L213.872,66.148z"/>
	<path d="M343.131,49.361H141.689c-14.269,0-25.18-10.911-25.18-25.18S127.42-1,141.689-1h201.443
		c14.269,0,25.18,10.911,25.18,25.18S357.4,49.361,343.131,49.361z M141.689,15.787c-5.036,0-8.393,3.357-8.393,8.393
		s3.357,8.393,8.393,8.393h201.443c5.036,0,8.393-3.357,8.393-8.393s-3.357-8.393-8.393-8.393H141.689z"/>
	<path d="M157.636,502.607H42.646c-10.072,0-18.466-8.393-18.466-17.626v-66.308h151.082v66.308
		C175.262,494.213,167.708,502.607,157.636,502.607z M40.967,435.459v49.521c0,0,0.839,0.839,1.679,0.839h114.99
		c0.839,0,0.839-0.839,0.839-0.839v-49.521H40.967z"/>
	<path d="M182.816,435.459H17.466C7.393,435.459-1,427.066-1,417.833v-31.056c0-10.072,8.393-18.466,18.466-18.466h165.351
		c10.072,0,17.626,8.393,17.626,17.626v31.056C200.443,427.066,192.889,435.459,182.816,435.459z M17.466,385.098
		c-0.839,0-1.679,0.839-1.679,0.839v31.056c0,0.839,0.839,1.679,1.679,1.679h165.351c0.839,0,0.839-0.839,0.839-0.839v-31.056
		c0-0.839-0.839-0.839-0.839-0.839H17.466V385.098z"/>
	<path d="M484.98,275.984h-66.308V124.902h66.308c10.072,0,17.626,8.393,17.626,17.626v114.99
		C502.607,267.59,495.052,275.984,484.98,275.984z M435.459,259.197h49.521c0.839,0,0.839-0.839,0.839-0.839V142.528
		c0-0.839-0.839-0.839-0.839-0.839h-49.521V259.197z"/>
	<path d="M417.833,301.164h-31.056c-10.072,0-18.466-8.393-18.466-17.626v-166.19c0-10.072,8.393-17.626,17.626-17.626h31.056
		c10.072,0,17.626,8.393,17.626,17.626v165.351C435.459,292.77,427.905,301.164,417.833,301.164z M386.777,116.508
		c-0.839,0-0.839,0.839-0.839,0.839v165.351c0,0.839,0.839,0.839,0.839,0.839h31.056c0.839,0,0.839-0.839,0.839-0.839V117.348
		c0-0.839-0.839-0.839-0.839-0.839H386.777z"/>
	<path d="M175.262,385.098H24.18v-8.393c0-138.492,113.311-251.803,251.803-251.803h109.115v151.082H275.984
		c-55.397,0-100.721,45.325-100.721,100.721V385.098z M40.967,368.311h117.508c4.197-61.272,55.397-109.115,117.508-109.115h92.328
		V141.689h-92.328C149.243,141.689,46.003,242.41,40.967,368.311z"/>
	<path d="M192.049,156.797c-1.679,0-3.357-0.839-5.036-1.679c-2.518-1.679-3.357-4.197-3.357-6.715V74.541
		c0-5.036,3.357-8.393,8.393-8.393H292.77c5.036,0,8.393,3.357,8.393,8.393v58.754c0,5.036-3.357,8.393-8.393,8.393h-16.787
		c-27.698,0-55.397,5.036-81.416,14.269C194.567,156.797,192.889,156.797,192.049,156.797z M200.443,82.934v53.718
		c24.341-7.554,49.521-11.751,75.541-11.751h8.393V82.934H200.443z"/>
</g>
<g>
</g>
<g>
</g>
<g>
</g>
<g>
</g>
<g>
</g>
<g>
</g>
<g>
</g>
<g>
</g>
<g>
</g>
<g>
</g>
<g>
</g>
<g>
</g>
<g>
</g>
<g>
</g>
<g>
</g>
</svg>
