<?xml version="1.0" encoding="iso-8859-1"?>
<!-- Generator: Adobe Illustrator 19.0.0, SVG Export Plug-In . SVG Version: 6.00 Build 0)  -->
<svg xmlns="http://www.w3.org/2000/svg" xmlns:xlink="http://www.w3.org/1999/xlink" version="1.1" id="Layer_1" x="0px" y="0px" viewBox="0 0 347.812 347.812" style="enable-background:new 0 0 347.812 347.812;" xml:space="preserve" width="512px" height="512px">
<g>
	<g>
		<path d="M173.906,0C78.094,0,0,78.094,0,173.906s78.094,173.906,173.906,173.906s173.906-78.094,173.906-173.906    S269.718,0,173.906,0z M173.906,342.222c-92.716,0-168.315-75.514-168.315-168.315S81.105,5.591,173.906,5.591    c92.716,0,168.316,75.514,168.316,168.315S266.622,342.222,173.906,342.222z" fill="#91DC5A"/>
	</g>
</g>
<g>
	<g>
		<path d="M295.692,69.924c-0.86-1.118-2.838-1.376-3.956-0.258c-1.118,0.86-1.376,2.838-0.258,3.956    c23.996,27.866,37.241,63.387,37.241,100.37c0,85.405-69.322,154.727-154.727,154.727S19.265,259.397,19.265,173.992    S88.587,19.266,173.992,19.266c36.897,0,72.418,13.245,100.37,36.897c1.118,1.118,2.838,0.86,3.956-0.258    c1.118-1.118,0.86-2.838-0.258-3.956c-29.07-24.771-65.967-38.36-103.983-38.36c-88.501,0-160.403,71.902-160.403,160.403    s71.902,160.403,160.403,160.403s160.403-71.902,160.145-160.403C333.966,135.891,320.462,98.908,295.692,69.924z" fill="#91DC5A"/>
	</g>
</g>
<g>
	<g>
		<path d="M257.764,135.976l-7.913-7.913c-4.044-4.299-10.838-4.299-15.052-0.085l-75.858,75.858l-45.669-45.67    c-4.214-4.214-11.009-4.214-15.223,0l-7.913,7.913c-4.214,4.214-4.214,11.009,0,15.223l61.151,61.151    c1.978,1.978,4.816,3.097,7.569,3.097c2.753,0,5.677-1.118,7.569-3.097l91.34-91.34c1.978-1.978,3.096-4.816,3.096-7.569    C260.86,140.707,259.742,137.868,257.764,135.976z M253.979,146.9l-91.339,91.34c-1.978,1.978-5.333,1.978-7.311,0l-61.151-61.151    c-1.978-1.978-1.978-5.333,0-7.311l7.913-7.913c1.118-0.86,2.236-1.376,3.698-1.376s2.494,0.602,3.698,1.376l47.648,47.648    c0.602,0.602,1.118,0.86,1.978,0.86s1.376-0.258,1.978-0.86l77.836-77.836c1.978-1.978,5.333-1.978,7.311,0l7.913,7.913    c0.602,0.774,1.204,2.151,1.204,3.612C255.355,144.578,254.753,146.04,253.979,146.9z" fill="#91DC5A"/>
	</g>
</g>
<g>
</g>
<g>
</g>
<g>
</g>
<g>
</g>
<g>
</g>
<g>
</g>
<g>
</g>
<g>
</g>
<g>
</g>
<g>
</g>
<g>
</g>
<g>
</g>
<g>
</g>
<g>
</g>
<g>
</g>
</svg>
