<?xml version="1.0" encoding="iso-8859-1"?>
<!-- Generator: Adobe Illustrator 19.0.0, SVG Export Plug-In . SVG Version: 6.00 Build 0)  -->
<svg version="1.1" id="Layer_1" xmlns="http://www.w3.org/2000/svg" xmlns:xlink="http://www.w3.org/1999/xlink" x="0px" y="0px"
	 viewBox="0 0 460 460" style="enable-background:new 0 0 460 460;" xml:space="preserve">
<g id="XMLID_1172_">
	<rect id="XMLID_1173_" x="230" y="20" style="fill:#8799B3;" width="99.994" height="100"/>
	<polygon id="XMLID_1174_" style="fill:#A3B1C4;" points="130.008,20 130,120 230,120 230,20 	"/>
	<path id="XMLID_1175_" style="fill:#233145;" d="M230,0l-20,15l20,15h45.838c8.118,20.045,24.117,36.044,44.162,44.162V120h30V0
		H230z"/>
	<path id="XMLID_1176_" style="fill:#354A67;" d="M110,0v120h30V74.162c20.045-8.118,36.044-24.117,44.162-44.162H230V0H110z"/>
	<polygon id="XMLID_1177_" style="fill:#FFB739;" points="230,110 200,360 410,340 410,255 390,225 410,195 410,110 	"/>
	<path id="XMLID_1178_" style="fill:#FFD488;" d="M230,110v253.59L50,400c0,0,0-196.92,0-230s26.92-60,60-60H230z"/>
	<polygon id="XMLID_1179_" style="fill:#FB992D;" points="330,195 320,225 330,255 410,255 410,195 	"/>
	<path id="XMLID_1180_" style="fill:#FB992D;" d="M270,225c0,16.568,13.431,30,30,30l10-30l-10-30C283.431,195,270,208.431,270,225z
		"/>
	<rect id="XMLID_1181_" x="300" y="195" style="fill:#FFD488;" width="30" height="60"/>
	<path id="XMLID_1182_" style="fill:#FB992D;" d="M110,460c-33.084,0-60-26.916-60-60s26.916-60,60-60h300v30h-30v90H110z"/>
	<path id="XMLID_1183_" style="fill:#FFB739;" d="M350,400v30H110c-16.57,0-30-13.43-30-30l135-20L350,400z"/>
	<path id="XMLID_1184_" style="fill:#FFD488;" d="M350,370v30H80c0-16.57,13.43-30,30-30H350z"/>
</g>
<g>
</g>
<g>
</g>
<g>
</g>
<g>
</g>
<g>
</g>
<g>
</g>
<g>
</g>
<g>
</g>
<g>
</g>
<g>
</g>
<g>
</g>
<g>
</g>
<g>
</g>
<g>
</g>
<g>
</g>
</svg>
