<?xml version="1.0" encoding="iso-8859-1"?>
<!-- Generator: Adobe Illustrator 19.0.0, SVG Export Plug-In . SVG Version: 6.00 Build 0)  -->
<svg version="1.1" id="Layer_1" xmlns="http://www.w3.org/2000/svg" xmlns:xlink="http://www.w3.org/1999/xlink" x="0px" y="0px"
	 viewBox="0 0 512 512" style="enable-background:new 0 0 512 512;" xml:space="preserve">
<g>
	<path style="fill:#34394C;" d="M329.018,512c-36.594,0-66.364-29.77-66.364-66.362V182.019c0-4.46,3.614-8.073,8.073-8.073
		c4.459,0,8.073,3.614,8.073,8.073v263.619c0,27.689,22.527,50.215,50.217,50.215c27.69,0,50.22-22.527,50.22-50.215
		c0-4.46,3.614-8.073,8.073-8.073c4.459,0,8.073,3.614,8.073,8.073C395.385,482.23,365.612,512,329.018,512z"/>
	<path style="fill:#34394C;" d="M95.848,359.361c-4.46,0-8.073-3.614-8.073-8.073c0-4.46,3.614-8.073,8.073-8.073
		c27.691,0,50.22-22.527,50.22-50.217V66.362C146.067,29.77,175.838,0,212.432,0C249.027,0,278.8,29.77,278.8,66.362v89.822
		c0,4.46-3.615,8.073-8.073,8.073c-4.46,0-8.073-3.614-8.073-8.073V66.362c0-27.689-22.531-50.215-50.222-50.215
		s-50.217,22.527-50.217,50.215v226.634C162.214,329.59,132.442,359.361,95.848,359.361z"/>
	<path style="fill:#34394C;" d="M387.312,453.712c-4.46,0-8.073-3.615-8.073-8.073v-185.69c0-4.46,3.614-8.073,8.073-8.073
		c4.459,0,8.073,3.614,8.073,8.073v185.69C395.385,450.098,391.769,453.712,387.312,453.712z"/>
</g>
<path style="fill:#ED7E06;" d="M365.602,178.208c-4.459,0-8.073-3.614-8.073-8.073v-60.168c0-4.46,3.615-8.073,8.073-8.073
	c4.46,0,8.073,3.614,8.073,8.073v60.168C373.675,174.593,370.061,178.208,365.602,178.208z"/>
<path style="fill:#EE9A04;" d="M407.941,178.208c-4.46,0-8.073-3.614-8.073-8.073v-60.168c0-4.46,3.614-8.073,8.073-8.073
	c4.459,0,8.073,3.614,8.073,8.073v60.168C416.015,174.593,412.4,178.208,407.941,178.208z"/>
<path style="fill:#828186;" d="M403.796,228.551h-34.048c-0.249,0-0.49-0.027-0.736-0.036v4.307v10.26v4.307
	c0,7.133,5.781,12.917,12.917,12.917h9.688c7.133,0,12.917-5.784,12.917-12.917v-4.307v-10.26v-4.307
	C404.286,228.524,404.044,228.551,403.796,228.551z"/>
<path style="fill:#48ADE1;" d="M411.307,150.241h-49.072c-7.133,0-12.917,5.784-12.917,12.917v44.966
	c0,11.28,9.147,20.427,20.43,20.427h34.048c11.283,0,20.43-9.147,20.43-20.427v-5.945v-24.758v-14.263
	C424.224,156.025,418.441,150.241,411.307,150.241z"/>
<g>
	<path style="fill:#625F70;" d="M404.534,228.516c-0.248,0.009-0.49,0.036-0.738,0.036h0.738V228.516z"/>
	<path style="fill:#625F70;" d="M390.18,247.39v-4.307v-10.26v-4.271h-20.433c-0.249,0-0.49-0.027-0.736-0.036v4.307v10.26v4.307
		c0,7.133,5.781,12.917,12.917,12.917h9.688c2.065,0,4.01-0.497,5.74-1.36C393.107,256.833,390.18,252.459,390.18,247.39z"/>
</g>
<path style="fill:#2595B7;" d="M370.489,208.125v-44.966c0-7.133,5.783-12.917,12.917-12.917h-21.17
	c-7.133,0-12.917,5.784-12.917,12.917v44.966c0,11.28,9.147,20.427,20.43,20.427h21.17
	C379.636,228.551,370.489,219.404,370.489,208.125z"/>
<path style="fill:#399EC6;" d="M396.101,184.777h-18.659c-4.459,0-8.073-3.614-8.073-8.073s3.615-8.073,8.073-8.073h18.659
	c4.459,0,8.073,3.614,8.073,8.073C404.174,181.164,400.559,184.777,396.101,184.777z"/>
<g>
</g>
<g>
</g>
<g>
</g>
<g>
</g>
<g>
</g>
<g>
</g>
<g>
</g>
<g>
</g>
<g>
</g>
<g>
</g>
<g>
</g>
<g>
</g>
<g>
</g>
<g>
</g>
<g>
</g>
</svg>
