<?xml version="1.0" encoding="iso-8859-1"?>
<!-- Generator: Adobe Illustrator 19.0.0, SVG Export Plug-In . SVG Version: 6.00 Build 0)  -->
<svg version="1.1" id="Capa_1" xmlns="http://www.w3.org/2000/svg" xmlns:xlink="http://www.w3.org/1999/xlink" x="0px" y="0px"
	 viewBox="0 0 511.999 511.999" style="enable-background:new 0 0 511.999 511.999;" xml:space="preserve">
<path style="fill:#EA8D4E;" d="M256.682,242.387c-13.123,0.656-26.412,0.534-38.598-0.788c-20.033-2.173-40.67-0.486-60.896-0.51
	c-36.041-0.041-72.183-0.587-108.149,0.788c-14.077,0.538-41.755-3.291-42.399,16.519c-0.244,7.536,2.244,16.06,2.982,23.675
	c1.034,10.654,3.697,9.676,14.535,10.772c13.701,1.386,14.541,2.268,15.191,16.844c0.417,9.345-0.858,18.634-0.701,27.951
	c0.344,20.323-1.675,41.634,0.954,61.865c2.385,18.35,7.042,20.386,25.646,21.916c27.76,2.283,57.004,1.769,84.838,1.744
	c61.617-0.054,123.174,6.256,184.724,9.025c34.308,1.543,68.724,1.177,103.124,1.177c15.898,0,33.771,4.351,38.563-14.454
	c5.013-19.667,2.643-42.948,1.68-63.09c-0.605-12.637-2.406-25.068-2.396-37.872c0.006-7.078-3.013-14.329,3.198-19.382
	c6.311-5.135,15.199-2.886,21.15-9.784c6.625-7.681,4.771-20.849,2.966-29.835c-2.972-14.793-11.751-14.482-25.253-16.84
	c-38.023-6.638-75.19-5.734-113.691-5.729c-25.467,0.003-51.403-0.324-76.694,3.12C277.75,240.822,267.27,241.858,256.682,242.387z"
	/>
<path style="fill:#CC6D3E;" d="M10.626,250.822c-3.339,8.988-9.015,31.058,1.171,37.806c6.859,4.53,18.873-1.056,24.438,3.5
	c3.759,3.077,3.254,12.264,3.475,16.467c0.741,14.113-1.575,28.094-1.541,42.162c0.046,18.816-1.718,38.5,0,57.249
	c1.583,17.285,17.368,17.852,32.214,17.567c26.783-0.514,53.875-1.896,81.016-1.896c61.334,0,122.592,3.833,183.595,6.645
	c22.51,1.038,44.907-0.195,67.429,0.953c16.799,0.857,41.219,5.222,57.391-0.192c18.412-6.165,22.864-30.293,3.513-38.836
	c-20.945-9.246-50.445-7.899-72.886-10.411c-31.828-3.563-64.023-4.468-95.961-6.808c-43.903-3.216-88.254-13.545-120.764-45.367
	c-10.121-9.907-20.626-29.598-2.109-36.588c10.202-3.852,24.836-1.457,35.457-1.491c14.927-0.048,29.852,0.079,44.777,0.079
	c65.529,0,131.45,1.182,196.807,2.848c7.324,0.187,60.453,3.399,48.437-11.393c-5.567-6.854-22.735-5.772-30.354-6.648
	c-18.421-2.117-36.969-3.905-55.499-4.749c-43.088-1.963-86.168-1.903-129.314-1.903c-47.893,0-95.988,1.28-143.865,0.049
	c-26.162-0.672-54.995-3.155-79.789-12.343C45.43,252.768,20.83,232.431,10.626,250.822z"/>
<g>
	<path style="fill:#AA4130;" d="M238.562,304.335c-11.715-0.025-23.441,0.58-35.174,1.26c-10.82,0.627-21.848,0.438-32.594,0.95
		c-20.854,0.994-41.84-0.854-62.701,0.001c-6.729,0.275-36.166,0.082-32.311,12.666c3.97,12.952,41.271,6.741,50.365,6.3
		c56.392-2.736,113.27,0.124,169.535,2.707c30.533,1.402,61.213,0.35,91.828,1.773c10.988,0.511,21.973,1.126,32.914,1.252
		c5.725,0.065,22.354,2.425,25.201-4.806c7.467-19.172-71.969-15.459-79.04-15.461c-24.384-0.004-48.68-2.674-72.929-3.806
		c-10.898-0.509-21.514-0.848-32.301-1.841C253.766,304.634,246.166,304.352,238.562,304.335z"/>
	<path style="fill:#AA4130;" d="M237.295,340.435c-11.714-0.025-23.44,0.579-35.173,1.26c-10.82,0.627-21.849,0.438-32.593,0.95
		c-20.854,0.994-41.842-0.854-62.702,0.001c-6.729,0.276-36.166,0.082-32.31,12.666c3.969,12.952,41.271,6.742,50.365,6.301
		c56.391-2.736,113.269,0.123,169.535,2.707c30.532,1.402,61.213,0.35,91.826,1.774c10.99,0.511,21.973,1.126,32.916,1.252
		c5.724,0.065,22.354,2.425,25.201-4.805c7.465-19.172-71.971-15.459-79.041-15.461c-24.384-0.004-48.68-2.674-72.929-3.806
		c-10.899-0.509-21.513-0.848-32.3-1.841C252.499,340.732,244.9,340.451,237.295,340.435z"/>
	<path style="fill:#AA4130;" d="M237.295,377.166c-11.714-0.025-23.44,0.58-35.173,1.26c-10.82,0.628-21.849,0.438-32.593,0.95
		c-20.854,0.994-41.842-0.854-62.702,0.001c-6.729,0.276-36.166,0.082-32.31,12.667c3.969,12.952,41.271,6.741,50.365,6.3
		c56.391-2.736,113.269,0.123,169.535,2.707c30.532,1.402,61.213,0.351,91.826,1.774c10.99,0.511,21.973,1.126,32.916,1.252
		c5.724,0.065,22.354,2.425,25.201-4.805c7.465-19.172-71.971-15.46-79.041-15.461c-24.384-0.004-48.68-2.674-72.929-3.806
		c-10.899-0.509-21.513-0.848-32.3-1.841C252.499,377.465,244.9,377.183,237.295,377.166z"/>
	<path style="fill:#AA4130;" d="M34.483,240.546c1.733-18.517,6.11-36.793,11.61-54.636c4.15-13.467,5.537-27.737,10.498-40.932
		c4.638-12.333,15.541-14.3,27.588-16.324c20.619-3.464,41.68-4.139,62.67-4.578c33.68-0.705,67.477,1.16,101.096-0.032
		c50.578-1.793,101.392-4.014,152.046-1.392c8.978,0.464,18.024,0.727,27.013,0.919c5.703,0.123,13.782-0.992,18.74,2.545
		c7.361,5.252,9.035,18.011,12.496,25.868c4.335,9.845,7.803,20.238,10.598,30.616c2.612,9.698,6.721,19.162,8.428,29.069
		c0.905,5.255,1.586,10.833,2.071,16.104c0.192,2.087,1.338,7.016,0.567,8.944c-1.779,4.454-10.644,6.268-14.82,3.315
		c-4.225-2.986-3.145-9.246-4.15-13.946c-1.123-5.26-2.689-10.441-3.979-15.668c-3.709-15.036-4.049-31.095-10.594-45.334
		c-4.55-9.901-9.049-18.549-19.938-21.23c-13.07-3.218-25.934-2.925-39.467-2.925c-26.762,0-53.929,1.079-80.609-0.113
		c-12.291-0.55-24.703-1.117-36.984-0.511c-13.675,0.675-27.004,0.113-40.664,0.113c-14.764,0-29.334-0.393-44.023-1.048
		c-27.289-1.218-56.408,0.605-83.413,4.624c-11.218,1.669-17.537,1.291-22.847,11.739c-5.555,10.93-8.4,23.017-12.646,34.488
		c-5.035,13.604-9.202,26.998-11.334,41.214c-0.506,3.372-1.088,7.566-3.568,10.13C47.704,244.835,40.113,244.408,34.483,240.546z"
		/>
</g>
<g>
	<path style="fill:#D2D2CC;" d="M103.449,240.035c-3.98-0.565-8.947-8.539-10.456-11.73c-2.419-5.115-2.401-11.517-0.931-16.911
		c2.316-8.49,7.672-5.743,15.07-6.1c9.891-0.478,19.338,0.064,29.168,0.04c9.85-0.024,19.807-1.182,29.619-1.569
		c4.967-0.196,16.425-1.839,20.27,2.258c4.439,4.73-1.611,15.081-2.919,20.247c-1.38,5.454-1.536,9.827-7.145,11.721
		c-4.375,1.479-10.195,0.454-14.798,0.882c-6.883,0.64-13.104,0.698-19.964,0.627C128.564,239.368,116.111,241.832,103.449,240.035z
		"/>
	<path style="fill:#D2D2CC;" d="M301.144,222.498c-14.141-0.02-28.653,0.675-42.777-0.512c-8.47-0.712-21.475-4.798-29.454-0.432
		c-6.392,3.496-4.47,16.697,0.933,18.761c2.953,1.128,8.189,0.002,11.313,0.002c7.415,0,14.831,0,22.247,0
		c11.133,0,22.412-0.533,33.533-0.013c3.852,0.181,10.674,2.243,13.788-1.175C317.543,231.651,306.439,224.546,301.144,222.498z"/>
	<path style="fill:#D2D2CC;" d="M413.455,201.439c-9.82-2.879-24.334,0.174-34.422,1.064c-8.139,0.718-16.389,0.803-24.419,0.003
		c-4.234-0.422-8.73-1.272-12.461,1.634c-4.995,3.89-1.741,8.423,0.027,13.711c3.755,11.223,4.571,25.145,18.632,25.164
		c16.06,0.022,32.059-1.706,48.056-2.654c5.842-0.346,13.366,1.174,17.006-3.288c3.58-4.387,4.9-14.049,5.953-19.438
		C434.189,205.547,426.034,203.121,413.455,201.439z"/>
	<path style="fill:#D2D2CC;" d="M414.535,102.627c-18.072,0.026-36.156,1.46-54.129,2.158c-7.707,0.3-16.014-2.536-19.186,5.941
		c-5.405,14.453,8.229,10.799,18.984,10.799c13.51,0,27.02,0,40.529,0c5.16,0,14.317,1.79,19.198,0.537
		C431.816,119.011,424.006,104.358,414.535,102.627z"/>
	<path style="fill:#D2D2CC;" d="M266.047,103.707c-14.057,0-29.215-1.056-42.629,2.835c-3.902,1.132-7.424,1.634-8.672,5.529
		c-0.586,1.831,0.703,9.166,2.274,10.425c1.688,1.354,7.774,0.627,9.716,0.649c7.146,0.082,14.248,0.056,21.368,0.524
		c16.905,1.114,33.519,0.558,50.419,0.556c7.791-0.001,26.813,2.098,19.521-10.812C308.202,95.986,275.68,108.578,266.047,103.707z"
		/>
	<path style="fill:#D2D2CC;" d="M135.377,105.327c-10.143,0-20.078,0.65-30.157,1.08c-3.304,0.141-11.606,0.372-12.417,4.859
		c-0.558,3.082,6.037,8.877,8.151,10.666c4.962,4.198,8.952,4.262,15.604,4.574c20.467,0.958,41.073-0.66,61.605-0.66
		c11.484,0,18.359-0.604,14.434-14.052c-2.191-7.511-7.752-7.261-15.589-7.56C163.973,103.738,149.158,103.898,135.377,105.327z"/>
</g>
<g>
	<path style="fill:#A8A6A2;" d="M132.206,203.558c2.651,4.656-0.302,13.423,2.934,19.711c2.866,5.572,6.987,9.522,11.924,12.724
		c-5.777,6.549-41.18,6.984-47.903,0.035c-1.57-1.623-9.005-19.016-9.011-21.443C90.117,201.104,120.42,206.548,132.206,203.558z"/>
	<path style="fill:#A8A6A2;" d="M258.34,222.736c17.355,12.295-18.109,16.229-25.26,16.228c-8.58-0.002-11.492-0.441-6.434-9.428
		C233.071,218.118,243.186,224.319,258.34,222.736z"/>
	<path style="fill:#A8A6A2;" d="M374.885,200.607c-0.557,9.421-1.15,14.596,5.441,21.831c4.373,4.8,10.243,7.276,14.545,11.363
		c-7.787,9.144-28.518,6.424-38.393,2.382c-5.943-2.432-9.355-7.293-11.662-13.059c-0.737-1.843-5.732-16.266-5.424-16.621
		C345.859,199.03,362.924,197.969,374.885,200.607z"/>
	<path style="fill:#A8A6A2;" d="M118.929,105.453c-4.28-0.254-22.369,0.809-24.283,4.051c-4.544,7.697,6.457,13.902,11.913,14.428
		c12.994,1.254,26.598,1.431,39.646,1.438c9.692,0.005,13.313-4.788,5.521-12.846C140.878,101.31,125.117,108.553,118.929,105.453z"
		/>
	<path style="fill:#A8A6A2;" d="M240.637,105.453c-7.32,0-20.205-2.607-23.618,5.166c-6.222,14.171,10.236,12.536,18.657,12.537
		c8.634,0.001,38.087,6.097,38.189-7.376C273.986,100.036,254.084,104.694,240.637,105.453z"/>
	<path style="fill:#A8A6A2;" d="M366.033,103.24c-3.209-1.27-22.484-1.87-25.135,1.461c-3.709,4.664,1.697,16.292,7.219,17.745
		c8.029,2.114,39.257,1.967,43.831-5.49C399.541,104.579,377.913,102.069,366.033,103.24z"/>
</g>
<path style="fill:#F27183;" d="M135.156,174.053c-5.475-1.997-8.629,0.319-13.274,2.929c-3.623,2.035-8.727,2.292-11.821,4.228
	c-3.826,2.392-5.494,8.71-6.806,12.756c-1.921,5.93-3.263,6.39,2.669,8.69c9.609,3.726,25.645-0.84,35.619-1.349
	c5.937-0.303,12.003,0.016,17.955,0.038c5.459,0.021,8.988,0.811,10.383-5.29c1.271-5.565-3.387-11.24-7.451-14.07
	C156.648,177.96,139.314,167.78,135.156,174.053z"/>
<path style="fill:#C43F55;" d="M131.982,173.326c-3.371,2.226-6.965,4.604-10.821,6.056c-3.707,1.396-8.259,0.457-11.625,1.801
	c-3.632,1.45-8.778,15.84-6.849,19.535c1.332,2.55,6.562,2.158,8.931,2.255c3.644,0.149,7.312-0.059,10.959,0.086
	c2.565,0.103,6.582,1.476,9.066,0.847c7.581-1.919,7.68-13.192,5.95-18.862C136.867,182.661,133.543,169.84,131.982,173.326z"/>
<path style="fill:#B5DA9B;" d="M250.952,186.258c-4.145-0.244-10.89,4.267-13.37,7.34c-3.064,3.799-2.377,8.815-2.138,13.339
	c0.2,3.773-1.896,9.34,1.274,11.659c4.463,3.265,15.051,1.164,20.227,1.813c9.321,1.17,18.588,1.982,27.908,2.932
	c5.409,0.551,9.725,2.804,14.712,0.084c12.585-6.864-4.279-15.419-11.495-16.021c-6.798-0.567-13.455-1.093-14.711-8.936
	c-0.57-3.555,0.5-5.714-3-7.919C266.363,188.03,261.684,189.826,250.952,186.258z"/>
<path style="fill:#6AC17B;" d="M255.693,189.706c-4.621,4.06-4.414,11.806-1.419,16.819c1.952,3.267,11.261,8.662,7.066,13.385
	c-3.267,3.679-11.337,0.664-15.118-0.046c-3.625-0.68-8.171-0.462-11.681,0.392c-2.046-5.584,2.097-12.217,2.578-17.854
	c0.244-2.854-0.624-3.965,1.185-6.555C241.076,191.877,247.022,190.768,255.693,189.706z"/>
<path style="fill:#857FAD;" d="M391.045,175.051c-5.375,0-9.637,0.904-14.666,1.723c-4.041,0.657-7.92-1.233-11.942-1.41
	c-5.399-0.237-9.192,2.249-11.218,7.025c-1.313,3.095-4.001,10.779-3.121,13.784c2.068,7.065,20.867,3.448,26.368,3.448
	c11.167,0.001,22.479,1.367,33.622,0.861c9.925-0.451,23.219-2.339,16.84-15.743c-3.307-6.949-9.963-10.374-17.346-11.529
	C403.694,172.289,399.381,176.221,391.045,175.051z"/>
<g>
	<path style="fill:#6A658C;" d="M364.75,175.913c-4.276,5.161-2.016,12.675-0.945,18.231c0.75,3.899-1.24,5.991-5.988,5.875
		c-5.492-0.134-9.25-3.581-9.001-8.577C349.186,183.987,354.346,179.878,364.75,175.913z"/>
	<path style="fill:#6A658C;" d="M383.286,173.757c-5.29-0.604-8.78,3.582-7.51,8.585c0.716,2.815,2.944,4.697,3.218,7.785
		c0.271,3.071-1.426,5.927,0.428,8.757C387.827,211.719,402.551,176.63,383.286,173.757z"/>
	<path style="fill:#6A658C;" d="M410.441,175.051c-3.393-1.501-8.63-1.256-10.374,2.684c-1.222,2.758,0.515,4.259,1.236,6.78
		c0.956,3.335,0.449,6.585,0.985,9.9c0.959,5.919,6.561,7.926,10.995,2.834C416.312,193.77,418.635,179.062,410.441,175.051z"/>
</g>
<path style="fill:#FFE355;" d="M382.424,81.081c-3.525-3.941-8.896-0.256-12.289,1.508c-1.553,0.807-1.49,1.491-2.896,1.614
	c-1.82,0.159-4.211-1.619-6.032-1.945c-5.397-0.967-8.704,0.758-10.259,5.949c-0.674,2.249-3.246,9.572-1.949,11.178
	c2.605,3.225,20.867,1.77,24.57,1.969c10.499,0.564,21.048,1.286,31.529,1.734c7.486,0.32,21.229-0.44,14.163-12.108
	c-3.459-5.712-10.062-9.648-16.448-9.035C397.49,82.456,392.174,84.858,382.424,81.081z"/>
<path style="fill:#FDB827;" d="M358.715,84.96c-4.92,1.563-13.359,9.228-8.1,14.223c5.117,4.862,20.51,2.232,26.989,2.157
	c5.647-0.066,16.524-1.883,12.155-9.699c-2.257-4.037-8.299-8.741-13.145-9.051C372.73,82.343,362.826,87.603,358.715,84.96z"/>
<path style="fill:#72C057;" d="M263.022,81.512c-4.976,0-8.733-0.735-13.341-1.638c-6.1-1.196-9.949,1.675-14.688,5.099
	c-3.358,2.426-8.091,6.851-10.556,10.154c-2.196,2.943-1.812,6.587,1.062,9.137c6.248,5.546,21.939,0.921,29.283,0.623
	c13.391-0.543,26.882,0.559,40.111,0.67c5.289,0.044,11.57,0.176,10.729-6.79c-0.668-5.517-7.492-9.845-12.225-11.898
	c-4.45-1.931-10.369-3.439-15.184-4.396C272.83,81.401,270.472,79.854,263.022,81.512z"/>
<path style="fill:#59A03F;" d="M252.246,81.081c-10.38,13.886,21.358,8.601,23.22,15.949c1.958,7.73-23.85,4.331-26.518,4.311
	c-5.552-0.04-11.349-0.458-16.876-0.011c-3.158,0.256-7.084,2.42-8.729-0.854C218.195,90.223,244.92,81.956,252.246,81.081z"/>
<path style="fill:#8082A6;" d="M137.586,86.685c-4.839-4.377-8.289-0.56-12.166,2.49c-4.459,3.509-5.33,1.638-10.143,0.853
	c-6.26-1.021-9.482,3.255-11.658,8.653c-2.857,7.091-1.039,6.954,6.184,7.076c15.15,0.255,30.452-0.109,45.636,0.333
	c5.786,0.169,11.702-0.528,17.479-0.861c2.957-0.17,7.057,0.148,9.829-0.894c3.698-1.39,5.763-9.124,2.22-12.66
	c-4.353-4.345-12.669-0.477-17.637-1.102c-5.146-0.647-7.929-5.541-13.269-5.622C150.319,84.894,139.775,92.254,137.586,86.685z"/>
<path style="fill:#6A658C;" d="M152.241,88.409c-3.796,3.52-1.75,10.196-5.165,13.802c-3.768,3.978-12.564,2.096-17.465,2.147
	c-8.863,0.094-18.506,1.53-26.866-1.8c-0.281-5.119,4.562-9.838,9.38-10.94c5.428-1.243,8.738,3.761,14.818,1.541
	c4.539-1.658,7.191-4.071,12.238-4.319C145,88.554,147.703,92.027,152.241,88.409z"/>
<path d="M503.08,241.772c-4.391-3.269-9.942-4.782-15.815-5.487c-3.304-22.269-8.487-44.161-15.159-65.659
	c-3.361-10.83-6.891-21.713-11.085-32.253c-2.514-6.317-5.667-12.495-11.402-16.459c-6.284-4.345-13.976-4.637-21.372-4.934
	c0.065-0.157,0.133-0.313,0.18-0.485c1.589-5.794-0.063-11.749-4.918-14.439c1.398-5.375-2.535-13.454-5.246-17.563
	c-3.958-6.001-10.256-9.557-17.535-8.658c-1.811,0.224-3.37,0.685-5.01,1.476c-1.301,0.627-3.562,2.67-4.908,2.477
	c-1.205-0.172-3.166-2.586-4.327-3.219c-1.589-0.867-3.243-1.284-5.025-1.499c-5.354-0.646-10.489,0.948-13.685,4.812
	c-5.751-2.301-12.191-3.075-17.021,1.771c-4.355,4.37-5.365,11.188-4.686,17.291c-1.963,0.344-3.852,0.857-5.529,1.689
	c-6.396,3.168-6.225,11.414-3.649,17.467c-4.903,0.096-9.809,0.186-14.714,0.257c0.201-0.702,0.254-1.439,0.121-2.122
	c-0.82-4.257-2.074-9.999-5.288-13.097c-2.375-2.29-5.167-2.98-8.12-3.154c0.891-9.852-10.252-19.065-19.443-19.862
	c-2.23-0.193-5.424,1.458-7.334,1.061c-1.002-0.209-2.383-2.187-3.18-2.809c-1.248-0.971-2.537-1.749-4.011-2.348
	c-6.008-2.437-9.539,0.77-15.302,1.459c-3.248,0.389-5.973-1.552-9.053-2.185c-2.934-0.602-5.796-0.219-8.535,0.928
	c-4.992,2.091-9.467,6.407-13.825,9.599c-4.218,3.088-10.521,11.276-7.606,15.979c-0.941,0.24-1.855,0.535-2.721,0.918
	c-6.999,3.094-6.699,10.766-3.734,16.659c-4.606,0.502-11.738,1.546-14.09,0.104c-6.26-3.84,1.959-13.154-5.146-17.41
	c-1.126-0.675-2.353-1.073-3.632-1.296c-1.813-5.59-1.292-10.81-7.064-14.557c-5.182-3.364-11.247-2.592-16.739-0.285
	c-0.007,0.003-0.241,0.121-0.569,0.29c-0.254-0.144-0.591-0.298-1.02-0.462c-0.303-0.33-0.604-0.66-0.906-0.99
	c-2.33-1.991-4.063-3.455-7.298-3.749c-2.724-0.247-5.202,0.571-7.575,1.858c-2.305,1.249-3.932,3.191-6.674,2.206
	c-1.896-0.682-3.296-2.461-5.262-3.159c-2.226-0.79-4.566-0.79-6.842-0.163c-1.502,0.414-2.828,1.084-4.07,2
	c-0.854,0.629-1.969,2.602-2.895,2.873c-1.453,0.425-4.85-1.313-7.063-1.276c-9.774,0.16-17.042,7.506-16.291,16.506
	c-3.74,0.503-7.356,1.771-9.945,4.667c-5.732,6.411-0.749,11.856,4.672,16.249c-10.796,0.149-21.84,0.881-31.327,5.936
	c-7.706,4.105-11.446,11.238-13.42,19.493c-2.703,11.309-5.503,22.591-8.212,33.906c-2.51,10.479-5.138,20.917-7.696,31.384
	c-1.911,7.816-3.93,16.036-2.575,24.013c-2.594,0.167-5.184,0.362-7.764,0.6c-5.692,0.523-11.797,1.331-16.262,5.248
	c-4.248,3.726-5.825,9.118-6.575,14.54c-1.002,7.241-2.509,14.861-1.647,22.169c1.761,14.929,15.582,17.973,28.42,18.44
	c2.044,0.074,4.092,0.123,6.141,0.151c1.66,9.181,1.041,18.818,0.695,28.056c-0.463,12.349-0.127,24.702,0.039,37.056
	c0.141,10.5,0.263,20.972-0.291,31.459c-0.408,7.743-0.839,16.489,2.705,23.641c4.096,8.264,12.74,9.937,21.252,10.498
	c12.024,0.792,24.319-0.032,36.369-0.036c26.74-0.008,53.424,1.498,80.132,2.637c54.876,2.341,109.78,4.33,164.712,4.613
	c27.039,0.139,54.08,0.096,81.119,0.139c10.129,0.016,20.283,0.421,30.408,0.322c8.206-0.081,17.387-0.797,24.372-5.563
	c9.491-6.476,10.809-18.101,9.633-28.651c-1.532-13.746-1.597-27.361-2.026-41.179c-0.438-14.151-2.861-28.309-2.596-42.471
	c0.114-6.039,1.534-12.956-0.039-18.927c12.183,0.123,24.416-1.131,28.143-15.232C512.711,272.657,514.791,250.491,503.08,241.772z
	 M354.928,88.734c3.105-4.778,8.16-2.602,12.385-0.377c2.417,1.272,4.912,0.084,5.826-2.37c0.902-2.423,4.918-2.927,7.109-2.537
	c2.562,0.456,3.856,2.426,5.94,3.727c5.604,3.496,8.933-0.431,14.094-2.171c5.206-1.755,9.163,1.898,11.296,6.291
	c1.198,2.465,1.459,5.674,2.204,8.52c-11.288-1.35-23.194-0.577-34.376-1.136c-7.143-0.356-14.297-0.68-21.449-0.485
	c-1.961,0.053-4.1,0.063-6.268,0.164C352.377,94.974,353.135,91.495,354.928,88.734z M342.734,112.286
	c0.1-4.192,1.014-4.917,5.33-5.477c10.336-1.338,20.979-0.589,31.342-0.013c10.259,0.571,20.549,0.629,30.798,1.324
	c2.38,0.161,8.095-0.319,10.083,1.439c-0.912-0.806-0.384,0.957-0.382,1.897c0.003,1.802,0.021,3.281,0.505,5.039
	c0.018,0.068,0.049,0.125,0.07,0.191c-9.762-0.334-19.53-0.424-29.293-0.083c-16.295,0.57-32.59,1.038-48.889,1.385
	C342.746,116.172,342.687,114.245,342.734,112.286z M238.842,88.247c4.672-3.128,7.078-5.727,12.877-3.773
	c4.016,1.354,7.399,1.934,11.601,0.847c4.969-1.285,6.927-2.89,11.483,0.867c2.701,2.228,4.855,3.996,8.557,3.521
	c4.033-0.518,6.195-1.46,10.049,0.904c3.59,2.203,5.721,5.31,5.951,9.419c-13.426,0.149-26.857-0.087-40.282,0.142
	c-7.489,0.128-14.978,0.374-22.461,0.679c-3.302,0.135-7.05-0.061-10.68,0.17C224.669,94.491,234.041,91.462,238.842,88.247z
	 M220.207,112.206c1.467-3.48,7.443-2.42,10.807-2.58c11.96-0.568,23.925-0.941,35.898-0.934c11.454,0.007,22.907,0.12,34.36,0.091
	c2.079-0.006,4.749-0.483,6.796-0.11c3.322,0.604,3.47,2.152,3.939,5.126c0.307,1.932,0.686,3.448,1.462,4.667
	c-25.153,0.29-50.308,0.295-75.462,0.48c-6.1,0.045-12.201,0.107-18.302,0.181C219.764,116.754,219.445,114.01,220.207,112.206z
	 M112.133,94.906c2.479-1.398,5.031-1.538,7.687-0.677c1.719,0.558,3.166,1.509,5.071,1.334c4.285-0.393,6.732-6.888,10.875-5.41
	c3.494,1.246,5.247,3.983,9.429,3.94c4.206-0.043,6.775-3.881,10.503-4.299c2.586-0.291,3.456,2.18,5.235,3.539
	c1.504,1.149,3.603,2.217,5.517,2.395c3.76,0.35,7.051-3.373,11.061-2.488c3.774,0.833,3.499,4.332,4.135,7.205
	c0.043,0.198,0.111,0.369,0.162,0.558c-0.576,0.051-1.143,0.094-1.694,0.121c-17.079,0.822-34.235-0.078-51.327,0.646
	c-7.371,0.313-14.568-0.091-21.912-0.184C108.1,98.87,109.732,96.261,112.133,94.906z M96.992,112.471
	c0.674-1.939,5.531-2.301,6.969-2.377c4.785-0.256,9.572,0.487,14.359,0.458c6.635-0.042,13.257-0.546,19.893-0.582
	c12.951-0.069,25.906,0.214,38.857,0.239c2.828,0.006,10.158-1.876,12.457-0.389c1.397,0.905,0.69,3.533,0.801,5.267
	c0.105,1.627,0.432,3.1,1.063,4.524c-5.188,0.125-10.373,0.26-15.559,0.431c-22.969,0.757-45.936,2.198-68.912,2.641
	c-1.105,0.021-2.223,0.034-3.346,0.042c-1.315-1.901-2.759-3.723-4.102-5.594C98.87,116.29,96.542,113.764,96.992,112.471z
	 M49.692,194.244c2.477-10.462,5.472-20.757,8.175-31.155c1.865-7.178,1.96-16.945,7.363-22.573
	c8.793-9.158,26.737-7.569,38.256-7.648c20.398-0.14,40.815-1.484,61.199-2.229c44.619-1.63,89.279-1.302,133.92-1.678
	c22.328-0.188,44.656-0.492,66.977-1.105c22.139-0.608,44.129-1.476,66.268-0.245c8.278,0.46,13.75,2.635,17.595,10.251
	c4.947,9.802,7.901,21.048,11.099,31.517c6.631,21.708,11.932,43.882,15.453,66.313c-2.992-0.018-5.92,0.02-8.709,0.007
	c0.413-7.307-1.915-14.562-4.277-21.388c-2.619-7.567-4.945-14.958-6.678-22.786c-3.521-15.913-6.563-35.083-17.618-47.85
	c-5.224-6.033-12.043-6.424-19.56-6.422c-9.698,0.003-19.434-1.429-29.125-1.95c-20.973-1.129-41.907-0.721-62.889-0.084
	c-42.568,1.292-84.986-1.672-127.551,1.042c-21.043,1.342-42.015,2.307-63.091,2.947c-8.177,0.249-16.327,0.736-24.509,0.538
	c-6.824-0.165-13.739-0.339-20.461,1.064c-17.807,3.717-22.483,22.102-26.254,37.643c-2.427,10.004-4.949,19.89-8.088,29.702
	c-3.037,9.496-5.792,18.718-6.849,28.557c-3.881,0.135-7.767,0.278-11.652,0.468C41.824,222.756,46.293,208.609,49.692,194.244z
	 M434.478,206.201c-1.042-2.651-2.523-4.635-4.309-6.111c0.639-0.647,1.064-1.525,1.111-2.535c0.438-9.271-0.928-17.66-8.988-23.323
	c-7.424-5.214-17.42-6.441-25.018-1.405c-7.133-4.381-18.118-3.829-24.262,1.629c-1.726-0.897-3.705-1.459-5.889-1.666
	c-6.946-0.655-14.408,1.569-18.418,7.61c-2.848,4.289-3.753,10.292-1.797,15.133c-9.264,0.66-14.287,7.588-12.736,17.037
	c1.234,7.517,5.335,17.068,11.453,22.901c-5.186,0.087-10.369,0.172-15.553,0.244c-4.121,0.057-8.24,0.057-12.359,0.037
	c-0.205-3.104-1.688-6.754-2.521-9.307c-1.019-3.12-2.831-5.654-5.696-7.058c-0.324-10.903-10.521-17.109-20.684-17.298
	c-2.339-0.043-4.756,0.218-7.1,0.518c-0.128-0.233-0.279-0.539-0.459-0.961c-0.621-1.464-1.552-2.903-2.314-4.295
	c-2.732-4.991-6.131-9.117-11.68-10.978c-8.818-2.957-22.154-2.546-30.096,2.68c-9.207,6.057-8.916,18.541-5.063,27.749
	c-1.43,0.314-2.828,0.722-4.182,1.258c-7.031,2.789-9.434,12.031-5.852,18.089c-11.542-0.134-23.074-0.19-34.576-0.176
	c-0.669,0-1.338-0.002-2.008-0.002c5.186-10.565,8.516-25.25-0.085-33.66c-2.901-2.837-6.78-4.231-11.023-4.832
	c-0.403-4.395-2.194-10.097-4.212-13.668c-2.646-4.684-6.995-8.589-12.146-10.267c-3.218-1.047-6.65-0.786-9.602-2.648
	c-2.021-1.275-3.604-2.99-5.85-3.931c-4.473-1.872-9.238-0.813-13.067,1.946c-2.159,1.557-4.073,3.901-6.741,4.614
	c-2.224,0.595-4.662-0.126-6.947,0.065c-4.549,0.381-8.589,2.737-11.529,6.176c-4.377,5.121-7.721,13.64-5.133,20.156
	c-8.077,1.475-13.223,6.889-11.692,16.678c0.909,5.822,2.738,12.183,6.102,17.085c0.46,0.67,1.024,1.394,1.664,2.108
	c-13.044,0.094-26.079,0.295-39.095,0.723c5.193-15.635,11.809-30.784,15.785-46.82c1.902-7.674,3.573-15.434,6.246-22.89
	c2.33-6.504,5.086-13.363,11.973-15.917c5.972-2.214,12.771-1.957,19.035-1.828c6.928,0.142,13.771,0.004,20.699-0.236
	c19.521-0.678,39.047-0.885,58.534-2.331c19.423-1.44,38.886-2.322,58.364-2.358c19.777-0.037,39.508,1.38,59.285,1.139
	c19.256-0.235,38.5-1.299,57.762-1.169c9.834,0.067,19.669,0.407,29.484,1.002c8.606,0.522,17.236,1.78,25.857,1.785
	c4.032,0.002,8.56-0.544,11.683,2.438c2.926,2.792,4.83,7.126,6.491,10.746c3.99,8.687,6.086,18.148,8.057,27.456
	c1.822,8.612,3.559,17.069,6.392,25.413c2.446,7.203,5.454,14.747,5.056,22.459c-8.389-0.272-16.781-0.414-25.174-0.49
	C436.832,226.738,437.443,213.752,434.478,206.201z M357.907,205.188c4.8,0.375,9.606,0.684,14.417,0.897
	c9.186,0.407,18.618,0.944,27.801,0.325c5.973-0.402,11.941-1.809,17.953-1.438c7.47,0.459,9.59,5.275,9.091,12.386
	c-0.269,3.809-1.396,7.582-3.098,10.987c-1.146,2.291-2.739,4.267-3.908,6.501c-7.876-0.023-15.753-0.008-23.627,0
	c-14.722,0.016-29.44,0.261-44.158,0.512c-2.197-8.015-7.528-15.048-9.114-23.306c-0.663-3.454-0.787-6.647,3.173-7.445
	C350.068,203.875,354.302,204.906,357.907,205.188z M352.894,195.613c0.512-3.792,0.658-7.916,3.041-10.987
	c2.684-3.457,10.707-5.526,14.229-2.27c2.377,2.2,1.943,7.077,2.274,10.005c0.187,1.647,0.418,3.318,0.875,4.88
	C366.505,196.799,359.686,195.948,352.894,195.613z M378.052,179.239c7.003-0.765,14.585-2.834,17.933,5.094
	c1.261,2.987,1.941,6.212,2.588,9.375c0.251,1.227,0.395,2.589,0.714,3.875c-5.505,0.335-11.064,0.212-16.586,0.039
	c-0.69-2.298-1.694-4.339-2.046-6.82c-0.37-2.617-0.41-5.304-1.085-7.872C379.209,181.561,378.693,180.336,378.052,179.239z
	 M422.223,196.65c-4.265-0.767-9.004-0.478-13.455-0.011c-0.18-2.753-1.57-5.908-2.287-8.157c-1.26-3.946-2.482-8.415-4.973-11.807
	c5.644,0.115,11.084,0.6,16.01,4.048c2.661,1.862,5.138,4.676,5.263,8.103C422.885,191.67,421.868,193.882,422.223,196.65z
	 M242.818,225.707c10.299,0.268,20.442,2.428,30.744,2.803c5.646,0.206,11.297,0.098,16.938-0.202c2.828-0.15,5.65-0.374,8.475-0.58
	c1.318-0.096,5.229-0.894,6.508,0.155c1.204,0.987,1.283,3.916,1.653,5.332c0.224,0.854,0.446,1.671,0.7,2.442
	c-14.691-0.207-29.378-0.63-44.066-0.544c-8.029,0.047-16.006,0.646-23.988,1.302c-3.314-0.065-6.628-0.115-9.941-0.165
	c-0.418-2.851-1.126-6.502,0.334-8.398C232.461,224.886,239.477,225.62,242.818,225.707z M237.337,216.084
	c0.751-3.185,0.956-6.254,1.202-9.755c0.307-4.367,1.328-8.688,5.66-10.568c6.615-2.872,20.496-4.539,25.039,2.459
	c4.026,6.2,3.958,14.883,13.265,14.294c3.899-0.247,8.237-1.375,12.075-0.121c2.842,0.929,4.234,3.144,5.354,5.617
	c-3.568,0.185-7.196,0.796-10.488,0.966c-8.032,0.414-16.102,0.435-24.116-0.304C256.701,217.88,246.605,215.474,237.337,216.084z
	 M106.815,209.185c6.506,0.102,12.937,0.27,19.45-0.02c14.03-0.624,28.138-2.248,42.188-2.161
	c6.461,0.039,11.409,0.748,12.215,8.146c0.825,7.576-3.062,14.27-6.271,20.807c-22.624-0.057-45.285-0.284-67.934-0.229
	c-2.196-3.546-4.825-6.348-6.316-10.535c-1.018-2.855-4.186-10.701-2.672-13.707C98.906,208.651,104.129,209.143,106.815,209.185z
	 M106.096,199.507c0.346-5.973,2.22-12.755,7.522-15.876c3.084-1.816,6.724-0.623,10.065-1.498c3.626-0.949,6.191-3.35,8.834-5.821
	c4.359-4.076,7.133-2.971,11.398,0.417c3.791,3.012,8.098,3.364,12.176,5.659c4.174,2.351,6.08,6.57,6.988,11.043
	c0.26,1.27,0.485,2.571,0.827,3.798c-4.448,0.259-8.782,0.806-12.394,0.998C136.303,199.037,121.303,199.649,106.096,199.507z
	 M470.838,421.336c-5.51,4.813-14.973,4.425-21.801,4.371c-9.918-0.079-19.824-0.228-29.746-0.206
	c-25.535,0.057-51.073,0.168-76.609,0.083c-50.412-0.168-100.807-1.79-151.174-3.815c-25.04-1.007-50.096-2.543-75.15-3.052
	c-12.392-0.251-24.785-0.132-37.178-0.108c-5.066,0.009-10.134,0.205-15.198,0.166c-4.319-0.033-10.985,0.358-14.687-2.319
	c-5.563-4.026-3.928-16.067-3.691-21.863c0.465-11.352,0.076-22.714-0.167-34.069c-0.267-12.463-0.458-24.899-0.302-37.363
	c0.104-8.247,0.013-16.573-2.119-24.48c11.461-0.087,22.967-0.574,34.377-0.565c88.273,0.068,176.547,0.217,264.82,0.177
	c22.105-0.01,44.224-0.263,66.326-0.007c11.024,0.129,22.044,0.5,33.063,0.883c5.676,0.197,11.352,0.397,17.029,0.568
	c3.24,0.098,7.318-0.91,10.291,0.805c3.102,1.79,1.475,7.367,1.303,10.443c-0.23,4.162-0.561,8.231-0.445,12.407
	c0.33,12.041,1.985,23.999,2.423,36.037c0.425,11.678-0.131,23.541,1.172,35.166C474.268,402.576,477.961,415.111,470.838,421.336z
	 M497.886,284.239c-2.341,5.562-9.126,4.752-14.192,4.75c-19.902-0.008-39.789-1.023-59.681-1.56
	c-20.5-0.554-41.011-0.309-61.517-0.275c-81.506,0.13-163.014,0.083-244.52,0.068c-20.294-0.003-40.587-0.005-60.881-0.001
	c-12.274,0.002-25.656,2.198-37.701-0.654c-6.346-1.501-8.42-4.39-8.31-11.04c0.103-6.151,0.869-13.245,2.458-19.204
	c1.207-4.523,3.715-5.853,8.177-6.616c8.72-1.49,17.938-1.272,26.759-1.675c40.289-1.838,80.713-1.426,121.037-1.878
	c20.43-0.229,40.876-0.597,61.305-0.154c19.539,0.423,39.123,1.505,58.654,0.372c0.77,0.02,1.537,0.054,2.305,0.068
	c20.656,0.38,41.317-0.022,61.97-0.365c39.929-0.663,79.841-0.683,119.745,0.945c5.826,0.238,11.793,0.12,17.473,1.611
	c6.825,1.793,8.304,5.798,8.979,12.598C500.653,268.347,500.713,277.519,497.886,284.239z"/>
<path d="M431.232,309.234c-8.092-1.474-16.311-1.484-24.53-1.504c-15.159-1.212-30.524-0.757-45.925-1.118
	c-30.215-0.71-60.38-3.176-90.604-3.916c-30.855-0.756-61.726-0.135-92.583,0.128c-15.589,0.133-31.189-0.055-46.77,0.487
	c-6.836,0.237-13.669,0.563-20.504,0.829c-7.029,0.272-14.161-0.2-21.143,0.787c-7.922,1.12-18.91,5.772-16.414,15.746
	c2.309,9.223,11.851,11.198,20.113,11.149c28.316-0.168,56.586-2.593,84.88-3.515c30.386-0.991,60.747,1.252,91.142,1.233
	c30.297-0.019,60.492,0.278,90.761,1.694c16.979,0.794,33.952,1.709,50.927,2.565c11.135,0.561,29.069,5.369,36.742-5.898
	C454.894,316.781,439.654,310.768,431.232,309.234z M429.15,327.13c-12.424-0.242-24.953-1.516-37.385-2.099
	c-13.285-0.622-26.572-1.239-39.862-1.766c-26.95-1.068-53.829-1.058-80.794-0.8c-26.662,0.255-53.294-1.449-79.935-1.069
	c-26.854,0.382-53.628,2.79-80.472,3.438c-5.031,0.122-10.055,0.213-15.084,0.39c-4.116,0.145-9.18,0.522-12.904-1.577
	c-7.193-4.054-2.17-9.749,3.473-11.44c6.074-1.82,12.687-1.216,18.938-1.33c26.428-0.479,52.816-1.312,79.258-1.568
	c27.471-0.266,54.952-0.761,82.422-0.167c30.033,0.65,60.002,2.795,90.021,3.665c11.002,0.319,22.02-0.694,33.012,0.097
	c10.025,0.721,20.116,1.212,30.17,2.157c5.889,0.553,12.649,1.391,17.934,4.299C446.428,324.03,433.38,327.212,429.15,327.13z"/>
<path d="M429.438,345.464c-8.092-1.474-16.31-1.483-24.53-1.505c-15.16-1.211-30.523-0.756-45.926-1.118
	c-30.213-0.71-60.378-3.176-90.604-3.916c-30.854-0.756-61.726-0.135-92.584,0.128c-15.588,0.133-31.188-0.055-46.77,0.487
	c-6.834,0.238-13.668,0.564-20.502,0.829c-7.03,0.273-14.162-0.2-21.143,0.787c-7.923,1.12-18.911,5.772-16.415,15.745
	c2.31,9.223,11.851,11.198,20.112,11.149c28.318-0.168,56.586-2.593,84.881-3.516c30.385-0.99,60.748,1.252,91.142,1.234
	c30.297-0.018,60.491,0.278,90.761,1.694c16.979,0.794,33.951,1.709,50.927,2.565c11.136,0.561,29.069,5.37,36.742-5.898
	C453.102,353.011,437.861,346.998,429.438,345.464z M427.357,363.359c-12.424-0.242-24.954-1.516-37.385-2.098
	c-13.286-0.622-26.573-1.24-39.863-1.767c-26.951-1.068-53.828-1.058-80.795-0.799c-26.661,0.255-53.293-1.449-79.934-1.07
	c-26.854,0.382-53.627,2.79-80.471,3.438c-5.033,0.121-10.056,0.212-15.084,0.39c-4.117,0.145-9.18,0.522-12.905-1.577
	c-7.192-4.054-2.17-9.749,3.473-11.44c6.073-1.82,12.687-1.216,18.938-1.329c26.429-0.48,52.816-1.312,79.259-1.568
	c27.471-0.266,54.951-0.761,82.42-0.167c30.035,0.651,60.002,2.795,90.021,3.665c10.84,0.314,21.684,0.224,32.525,0.17
	c10.155-0.05,20.494,1.129,30.657,2.083c5.888,0.553,12.649,1.392,17.933,4.3C444.633,360.261,431.586,363.442,427.357,363.359z"/>
<path d="M427.644,381.694c-8.092-1.474-16.311-1.484-24.531-1.505c-15.158-1.211-30.522-0.756-45.924-1.118
	c-30.215-0.71-60.379-3.176-90.604-3.916c-30.855-0.756-61.727-0.135-92.584,0.128c-15.589,0.133-31.188-0.055-46.77,0.486
	c-6.836,0.238-13.669,0.564-20.504,0.83c-7.029,0.273-14.162-0.2-21.142,0.787c-7.923,1.12-18.911,5.772-16.415,15.745
	c2.309,9.223,11.85,11.198,20.113,11.149c28.317-0.168,56.586-2.593,84.881-3.516c30.385-0.99,60.746,1.252,91.141,1.233
	c30.297-0.018,60.492,0.278,90.762,1.694c16.979,0.794,33.951,1.709,50.926,2.564c11.135,0.562,29.069,5.37,36.742-5.897
	C451.308,389.241,436.066,383.228,427.644,381.694z M425.562,399.59c-12.424-0.242-24.953-1.516-37.385-2.098
	c-13.285-0.622-26.572-1.24-39.863-1.767c-26.949-1.068-53.828-1.058-80.793-0.799c-26.662,0.255-53.295-1.449-79.935-1.07
	c-26.854,0.382-53.626,2.79-80.472,3.438c-5.031,0.121-10.055,0.212-15.084,0.39c-4.115,0.145-9.18,0.522-12.904-1.577
	c-7.193-4.054-2.17-9.75,3.473-11.44c6.074-1.82,12.687-1.216,18.938-1.329c26.428-0.48,52.816-1.312,79.258-1.568
	c27.471-0.267,54.952-0.761,82.422-0.167c30.033,0.651,60.001,2.795,90.021,3.665c10.742,0.312,21.488-0.363,32.231-0.037
	c10.278,0.313,20.71,1.329,30.95,2.29c5.889,0.553,12.649,1.392,17.934,4.3C442.84,396.491,429.792,399.672,425.562,399.59z"/>
<g>
</g>
<g>
</g>
<g>
</g>
<g>
</g>
<g>
</g>
<g>
</g>
<g>
</g>
<g>
</g>
<g>
</g>
<g>
</g>
<g>
</g>
<g>
</g>
<g>
</g>
<g>
</g>
<g>
</g>
</svg>
