<?xml version="1.0" encoding="iso-8859-1"?>
<!-- Generator: Adobe Illustrator 18.1.1, SVG Export Plug-In . SVG Version: 6.00 Build 0)  -->
<svg xmlns="http://www.w3.org/2000/svg" xmlns:xlink="http://www.w3.org/1999/xlink" version="1.1" id="Capa_1" x="0px" y="0px" viewBox="0 0 63.655 63.655" style="enable-background:new 0 0 63.655 63.655;" xml:space="preserve" width="512px" height="512px">
<g>
	<g>
		<path d="M49.834,19.482c-1.499-2.236-5.116-2.08-6.953-0.481c-0.911,0.792-1.4,1.733-1.567,2.72    c-2.107,3.476-5.289,5.157-9.343,4.113c-1.869-0.481-3.159,1.198-3.046,2.639l-4.903,2l0.012-0.137l-11.796-1.021l-0.197,2.257    l11.797,1.021l0.041-0.468l5.711-2.329c0.228,0.188,0.517,0.335,0.875,0.427c4.843,1.249,9.345,0.114,12.596-3.186    c3.597,6.149,2.713,10.997,3.151,12.678c-2.398,1.5-4.532,4.054-4.532,8.38v6.933l2.099-0.058    c-0.013,1.907,0.147,3.847,0.485,5.803c0.297,1.689,1.764,2.882,3.425,2.882c0.2,0,0.398-0.018,0.603-0.053    c1.894-0.333,3.159-2.136,2.83-4.027c-1.141-6.52,0.164-12.522,3.86-17.853c0.776-1.024,0.849-1.993,0.89-2.765    C55.97,31.81,53.791,25.375,49.834,19.482z" fill="#91DC5A"/>
		<rect x="7.78" y="43.958" width="20.152" height="19.693" fill="#91DC5A"/>
		<path d="M44.27,17.151c1.976-0.909,2.767-3.212,1.767-5.144l-7.159,3.292    C39.876,17.23,42.293,18.059,44.27,17.151z" fill="#91DC5A"/>
		<path d="M35.412,7.436l3.606,6.966l6.46-2.969L41.825,4.38c0.436-0.799,0.475-1.792,0.017-2.685    c-0.762-1.474-2.607-2.106-4.116-1.414c-0.64,0.295-1.116,0.783-1.394,1.359c-0.657-0.147-1.353-0.094-1.995,0.201    c-1.509,0.693-2.114,2.45-1.347,3.926C33.474,6.713,34.407,7.31,35.412,7.436z" fill="#91DC5A"/>
		<path d="M15.814,19.953l-0.017-0.337l-0.335,0.018l0.017,0.337C15.675,19.97,15.598,19.974,15.814,19.953z" fill="#91DC5A"/>
		<polygon points="21.582,19.64 21.759,19.623 21.741,19.285 21.406,19.304 21.422,19.64   " fill="#91DC5A"/>
		<path d="M25.479,24.037l-0.018-0.335l-0.335,0.018l0.017,0.336C25.339,24.056,25.263,24.06,25.479,24.037z" fill="#91DC5A"/>
		<polygon points="21.723,21.232 21.881,21.232 22.059,21.216 22.041,20.78 21.704,20.797   " fill="#91DC5A"/>
		<polygon points="19.822,22.662 19.999,22.643 19.981,22.305 19.645,22.324 19.662,22.662   " fill="#91DC5A"/>
		<path d="M16.935,21.702l-0.015-0.336l-0.339,0.018l0.02,0.336C16.796,21.719,16.72,21.724,16.935,21.702z" fill="#91DC5A"/>
		<polygon points="21.045,28.5 21.205,28.5 21.381,28.483 21.364,28.148 21.028,28.165   " fill="#91DC5A"/>
		<path d="M19.365,27.245c0.195,0,0.121,0.004,0.335-0.02l-0.017-0.335l-0.336,0.018L19.365,27.245z" fill="#91DC5A"/>
		<polygon points="13.205,25.882 13.382,25.863 13.365,25.526 13.029,25.544 13.046,25.882   " fill="#91DC5A"/>
		<polygon points="17.683,28.483 17.842,28.483 18.019,28.467 18.001,28.13 17.665,28.148   " fill="#91DC5A"/>
		<path d="M15.976,28.74c0.195,0,0.12,0.004,0.335-0.02l-0.016-0.337l-0.337,0.018L15.976,28.74z" fill="#91DC5A"/>
		<path d="M15.595,26.663c3.452,0,6.16-0.791,7.074-1.096c1.265-0.422,1.958-0.902,1.687-2.152    c-0.213-0.983-0.813-1.11-1.813-0.932c-1,0.178-1.69,0.479-2.335,0.786c-1.304,0.625-0.976,0.405-4.612,0.405    C13.621,23.674,13.617,26.663,15.595,26.663z" fill="#91DC5A"/>
	</g>
</g>
<g>
</g>
<g>
</g>
<g>
</g>
<g>
</g>
<g>
</g>
<g>
</g>
<g>
</g>
<g>
</g>
<g>
</g>
<g>
</g>
<g>
</g>
<g>
</g>
<g>
</g>
<g>
</g>
<g>
</g>
</svg>
