<?xml version="1.0" encoding="iso-8859-1"?>
<!-- Generator: Adobe Illustrator 19.0.0, SVG Export Plug-In . SVG Version: 6.00 Build 0)  -->
<svg version="1.1" id="Layer_1" xmlns="http://www.w3.org/2000/svg" xmlns:xlink="http://www.w3.org/1999/xlink" x="0px" y="0px"
	 viewBox="0 0 512 512" style="enable-background:new 0 0 512 512;" xml:space="preserve">
<path style="fill:#391B10;" d="M312.287,425.183v77.913c0,4.917-3.987,8.904-8.904,8.904c-0.073,0-0.148-0.001-0.223-0.002H265.78
	c-4.917,0-8.904-3.987-8.904-8.904c0-4.917,3.987-8.904,8.904-8.904h28.697v-69.006c0-4.917,3.987-8.904,8.904-8.904
	S312.287,420.265,312.287,425.183z M408.751,494.189h-28.697v-69.006c0-4.917-3.987-8.904-8.904-8.904s-8.904,3.987-8.904,8.904
	v77.913c0,4.917,3.987,8.904,8.904,8.904c0.073,0,0.148-0.001,0.223-0.002h37.379c4.917,0,8.904-3.987,8.904-8.904
	C417.656,498.176,413.668,494.189,408.751,494.189z"/>
<path style="fill:#234848;" d="M269.852,306.859h134.507v149.488H269.852V306.859L269.852,306.859z"/>
<path style="fill:#5B7F81;" d="M337.576,306.859h67.721v149.488h-67.721V306.859L337.576,306.859z"/>
<path style="fill:#FF4328;" d="M506.43,355.522c-1.093,0.442-2.223,0.651-3.334,0.651c-3.523,0-6.857-2.105-8.259-5.57
	l-38.341-94.848c-14.813-36.63-31.397-60.058-52.138-72.417v139.444H269.852V183.525c-20.59,12.409-37.078,35.79-51.816,72.232
	l-38.34,94.847c-1.843,4.559-7.032,6.762-11.592,4.917c-4.559-1.843-6.762-7.033-4.919-11.592l38.341-94.848
	c17.759-43.907,46.344-94.304,110.308-94.304h50.864c63.971,0,92.555,50.396,110.309,94.304l38.341,94.848
	C513.192,348.49,510.989,353.68,506.43,355.522z"/>
<path style="fill:#981700;" d="M440.754,53.023c0,4.917-3.987,8.904-8.904,8.904H306.326c-4.917,0-8.904-3.987-8.904-8.904
	s3.987-8.904,8.904-8.904H431.85C436.767,44.119,440.754,48.106,440.754,53.023z"/>
<path style="fill:#CF8F3D;" d="M337.266,0c29.075,0,52.646,23.657,52.646,52.837c0,29.182-23.57,52.837-52.646,52.837
	s-52.643-23.654-52.643-52.837C284.623,23.657,308.191,0,337.266,0L337.266,0z"/>
<path style="fill:#FF4328;" d="M285.415,61.928c-0.511-2.955-0.792-5.988-0.792-9.09C284.623,23.657,308.191,0,337.266,0
	c29.075,0,52.646,23.657,52.646,52.837c0,3.101-0.282,6.135-0.792,9.09H285.415z"/>
<path style="fill:#967342;" d="M203.989,345.044v133.565h-95.277V345.044H203.989L203.989,345.044z"/>
<path style="fill:#97BAA8;" d="M81.252,370.091H8.904c-4.917,0-8.904-3.987-8.904-8.904c0-4.917,3.987-8.904,8.904-8.904h72.348
	c4.917,0,8.904,3.987,8.904,8.904C90.157,366.105,86.171,370.091,81.252,370.091z M81.252,400.976H60.25
	c-4.917,0-8.904,3.987-8.904,8.904s3.987,8.904,8.904,8.904h21.002c4.917,0,8.904-3.987,8.904-8.904S86.171,400.976,81.252,400.976z
	 M81.252,449.67h-5.811c-4.917,0-8.904,3.987-8.904,8.904s3.987,8.904,8.904,8.904h5.811c4.917,0,8.904-3.987,8.904-8.904
	S86.171,449.67,81.252,449.67z"/>
<g>
</g>
<g>
</g>
<g>
</g>
<g>
</g>
<g>
</g>
<g>
</g>
<g>
</g>
<g>
</g>
<g>
</g>
<g>
</g>
<g>
</g>
<g>
</g>
<g>
</g>
<g>
</g>
<g>
</g>
</svg>
