<?xml version="1.0" encoding="iso-8859-1"?>
<!-- Generator: Adobe Illustrator 19.0.0, SVG Export Plug-In . SVG Version: 6.00 Build 0)  -->
<svg version="1.1" id="Layer_1" xmlns="http://www.w3.org/2000/svg" xmlns:xlink="http://www.w3.org/1999/xlink" x="0px" y="0px"
	 viewBox="0 0 512.002 512.002" style="enable-background:new 0 0 512.002 512.002;" xml:space="preserve">
<g>
	<path style="fill:#B2B5C8;" d="M381.56,512.002H135.042c-10.477,0-18.963-8.486-18.963-18.963c0-10.477,8.486-18.963,18.963-18.963
		H381.56c10.477,0,18.963,8.486,18.963,18.963C400.523,503.516,392.037,512.002,381.56,512.002"/>
	<g>
		<path style="fill:#868BA5;" d="M296.227,436.151c0-20.945-16.981-37.926-37.926-37.926s-37.926,16.981-37.926,37.926
			c0,20.945,16.981,37.926,37.926,37.926S296.227,457.095,296.227,436.151"/>
		<path style="fill:#868BA5;" d="M476.375,256.002c0-20.945-16.981-37.926-37.926-37.926s-37.926,16.981-37.926,37.926
			s16.981,37.926,37.926,37.926S476.375,276.947,476.375,256.002"/>
	</g>
	<path style="fill:#B2B5C8;" d="M49.034,84.663L35.627,98.069l134.087,134.087l13.407-13.407c37.025-37.025,37.025-97.062,0-134.087
		l0,0C146.096,47.637,86.059,47.637,49.034,84.663"/>
	<path style="fill:#ECBA16;" d="M64.738,127.269c-10.088,21.144-6.438,47.199,11.074,64.702
		c17.503,17.512,43.558,21.163,64.702,11.074L64.738,127.269z"/>
	<g>
		<path style="fill:#B2B5C8;" d="M429.64,219.209L265.421,63.57c-2.304,6.002-5.812,11.653-10.648,16.488l-13.672,13.521
			l160.825,152.747C405.472,232.909,416.1,222.442,429.64,219.209"/>
		<path style="fill:#B2B5C8;" d="M401.864,265.481L266.743,399.246l0,0c2.588,0.588,5.063,1.46,7.415,2.551
			c0.199,0.095,0.379,0.218,0.578,0.313c2.181,1.062,4.238,2.304,6.163,3.745c0.123,0.085,0.228,0.19,0.341,0.275
			c1.991,1.527,3.812,3.243,5.471,5.129c0.009,0.009,0.019,0.019,0.019,0.028c1.726,1.972,3.224,4.105,4.513,6.409
			c1.726,3.081,3.119,6.372,3.935,9.908l133.357-135.149C415.46,288.9,405.268,278.613,401.864,265.481"/>
	</g>
	<path style="fill:#868BA5;" d="M253.898,13.888c-18.517-18.517-48.526-18.517-67.044,0l-45.89,46.393
		c15.436,4.191,30.037,12.26,42.155,24.377l0,0c12.127,12.127,20.196,26.728,24.386,42.164l46.393-45.89
		C272.415,62.414,272.415,32.405,253.898,13.888"/>
</g>
<g>
</g>
<g>
</g>
<g>
</g>
<g>
</g>
<g>
</g>
<g>
</g>
<g>
</g>
<g>
</g>
<g>
</g>
<g>
</g>
<g>
</g>
<g>
</g>
<g>
</g>
<g>
</g>
<g>
</g>
</svg>
