<?xml version="1.0" encoding="iso-8859-1"?>
<!-- Generator: Adobe Illustrator 19.0.0, SVG Export Plug-In . SVG Version: 6.00 Build 0)  -->
<svg version="1.1" id="Capa_1" xmlns="http://www.w3.org/2000/svg" xmlns:xlink="http://www.w3.org/1999/xlink" x="0px" y="0px"
	 viewBox="0 0 512 512" style="enable-background:new 0 0 512 512;" xml:space="preserve">
<path style="fill:#303C42;" d="M480,85.333c-17.646,0-32,14.354-32,32V256h-74.667c-17.646,0-32,14.354-32,32
	c0,17.646,14.354,32,32,32h53.333v85.333h-32c-5.896,0-10.667,4.771-10.667,10.667c0,5.896,4.771,10.667,10.667,10.667H480
	c5.896,0,10.667-4.771,10.667-10.667c0-5.896-4.771-10.667-10.667-10.667h-32V320h32c17.646,0,32-14.354,32-32V117.333
	C512,99.688,497.646,85.333,480,85.333z"/>
<path style="fill:#E0E0E0;" d="M490.667,288c0,5.885-4.781,10.667-10.667,10.667H373.333c-5.885,0-10.667-4.781-10.667-10.667
	c0-5.885,4.781-10.667,10.667-10.667h85.333c5.896,0,10.667-4.771,10.667-10.667V117.333c0-5.885,4.781-10.667,10.667-10.667
	c5.885,0,10.667,4.781,10.667,10.667V288z"/>
<path style="opacity:0.1;fill:#010101;enable-background:new    ;" d="M480,106.667v170.667c0,5.885-4.781,10.667-10.667,10.667
	H362.667c0,5.885,4.781,10.667,10.667,10.667H480c5.885,0,10.667-4.781,10.667-10.667V117.333
	C490.667,111.448,485.885,106.667,480,106.667z"/>
<path style="fill:#303C42;" d="M138.667,256H64V117.333c0-17.646-14.354-32-32-32s-32,14.354-32,32V288c0,17.646,14.354,32,32,32h32
	v85.333H32c-5.896,0-10.667,4.771-10.667,10.667c0,5.896,4.771,10.667,10.667,10.667h85.333c5.896,0,10.667-4.771,10.667-10.667
	c0-5.896-4.771-10.667-10.667-10.667h-32V320h53.333c17.646,0,32-14.354,32-32C170.667,270.354,156.313,256,138.667,256z"/>
<path style="fill:#E0E0E0;" d="M138.667,298.667H32c-5.885,0-10.667-4.781-10.667-10.667V117.333
	c0-5.885,4.781-10.667,10.667-10.667s10.667,4.781,10.667,10.667v149.333c0,5.896,4.771,10.667,10.667,10.667h85.333
	c5.885,0,10.667,4.781,10.667,10.667C149.333,293.885,144.552,298.667,138.667,298.667z"/>
<path style="opacity:0.1;fill:#010101;enable-background:new    ;" d="M138.667,277.333c0,5.885-4.781,10.667-10.667,10.667H21.333
	c0,5.885,4.781,10.667,10.667,10.667h106.667c5.885,0,10.667-4.781,10.667-10.667C149.333,282.115,144.552,277.333,138.667,277.333z
	"/>
<path style="fill:#303C42;" d="M284.99,243.75c9.333,5.74,19.917,12.25,40.281,12.25s30.948-6.51,40.281-12.25
	c8.26-5.073,14.781-9.083,29.115-9.083c5.896,0,10.667-4.771,10.667-10.667v-32c0-23.531-19.135-42.667-42.667-42.667H149.333
	c-23.531,0-42.667,19.135-42.667,42.667v32c0,5.896,4.771,10.667,10.667,10.667c14.292,0,20.792,4.01,29.031,9.083
	c9.323,5.74,19.885,12.25,40.229,12.25c20.333,0,30.906-6.51,40.229-12.25c5.865-3.611,10.964-6.611,18.51-8.082v169.665h-42.667
	c-5.896,0-10.667,4.771-10.667,10.667c0,5.896,4.771,10.667,10.667,10.667h106.667c5.896,0,10.667-4.771,10.667-10.667
	c0-5.896-4.771-10.667-10.667-10.667h-42.667V235.727C274.094,237.216,279.173,240.178,284.99,243.75z"/>
<path style="fill:#3D82C4;" d="M215.635,225.583c-8.24,5.073-14.75,9.083-29.042,9.083c-14.302,0-20.802-4.01-29.042-9.083
	c-7.531-4.646-15.885-9.781-29.552-11.583v-22c0-11.76,9.573-21.333,21.333-21.333h213.333c11.76,0,21.333,9.573,21.333,21.333v22
	c-13.698,1.792-22.063,6.938-29.615,11.583c-8.26,5.073-14.781,9.083-29.115,9.083s-20.854-4.01-29.115-9.083
	c-9.333-5.74-19.917-12.25-40.281-12.25C235.531,213.333,224.958,219.844,215.635,225.583z"/>
<path style="opacity:0.2;fill:#FFFFFF;enable-background:new    ;" d="M362.667,170.667H149.333C137.573,170.667,128,180.24,128,192
	v10.667c0-11.76,9.573-21.333,21.333-21.333h213.333c11.76,0,21.333,9.573,21.333,21.333V192
	C384,180.24,374.427,170.667,362.667,170.667z"/>
<path style="opacity:0.1;fill:#010101;enable-background:new    ;" d="M325.271,224c-14.333,0-20.854-4.01-29.115-9.083
	c-9.333-5.74-19.917-12.25-40.281-12.25c-20.344,0-30.917,6.51-40.24,12.25c-8.24,5.073-14.75,9.083-29.042,9.083
	c-14.302,0-20.802-4.01-29.042-9.083c-7.531-4.646-15.885-9.781-29.552-11.583V214c13.667,1.802,22.021,6.938,29.552,11.583
	c8.24,5.073,14.74,9.083,29.042,9.083c14.292,0,20.802-4.01,29.042-9.083c9.323-5.74,19.896-12.25,40.24-12.25
	c20.365,0,30.948,6.51,40.281,12.25c8.26,5.073,14.781,9.083,29.115,9.083s20.854-4.01,29.115-9.083
	c7.552-4.646,15.917-9.792,29.615-11.583v-10.667c-13.698,1.792-22.063,6.938-29.615,11.583C346.125,219.99,339.604,224,325.271,224
	z"/>
<linearGradient id="SVGID_1_" gradientUnits="userSpaceOnUse" x1="-47.1571" y1="640.3433" x2="-22.7327" y2="628.9541" gradientTransform="matrix(21.3333 0 0 -21.3333 996.3334 13791.667)">
	<stop  offset="0" style="stop-color:#FFFFFF;stop-opacity:0.2"/>
	<stop  offset="1" style="stop-color:#FFFFFF;stop-opacity:0"/>
</linearGradient>
<path style="fill:url(#SVGID_1_);" d="M480,85.333c-17.646,0-32,14.354-32,32V256h-74.667c-17.646,0-32,14.354-32,32
	c0,17.646,14.354,32,32,32h53.333v85.333h-32c-5.896,0-10.667,4.771-10.667,10.667c0,5.896,4.771,10.667,10.667,10.667H480
	c5.896,0,10.667-4.771,10.667-10.667c0-5.896-4.771-10.667-10.667-10.667h-32V320h32c17.646,0,32-14.354,32-32V117.333
	C512,99.688,497.646,85.333,480,85.333z M138.667,256H64V117.333c0-17.646-14.354-32-32-32s-32,14.354-32,32V288
	c0,17.646,14.354,32,32,32h32v85.333H32c-5.896,0-10.667,4.771-10.667,10.667c0,5.896,4.771,10.667,10.667,10.667h85.333
	c5.896,0,10.667-4.771,10.667-10.667c0-5.896-4.771-10.667-10.667-10.667h-32V320h53.333c17.646,0,32-14.354,32-32
	C170.667,270.354,156.313,256,138.667,256z M284.99,243.75c9.333,5.74,19.917,12.25,40.281,12.25s30.948-6.51,40.281-12.25
	c8.26-5.073,14.781-9.083,29.115-9.083c5.896,0,10.667-4.771,10.667-10.667v-32c0-23.531-19.135-42.667-42.667-42.667H149.333
	c-23.531,0-42.667,19.135-42.667,42.667v32c0,5.896,4.771,10.667,10.667,10.667c14.292,0,20.792,4.01,29.031,9.083
	c9.323,5.74,19.885,12.25,40.229,12.25c20.333,0,30.906-6.51,40.229-12.25c5.865-3.611,10.964-6.611,18.51-8.082v169.665h-42.667
	c-5.896,0-10.667,4.771-10.667,10.667c0,5.896,4.771,10.667,10.667,10.667h106.667c5.896,0,10.667-4.771,10.667-10.667
	c0-5.896-4.771-10.667-10.667-10.667h-42.667V235.727C274.094,237.216,279.173,240.178,284.99,243.75z"/>
<g>
</g>
<g>
</g>
<g>
</g>
<g>
</g>
<g>
</g>
<g>
</g>
<g>
</g>
<g>
</g>
<g>
</g>
<g>
</g>
<g>
</g>
<g>
</g>
<g>
</g>
<g>
</g>
<g>
</g>
</svg>
