<?xml version="1.0" encoding="iso-8859-1"?>
<!-- Generator: Adobe Illustrator 18.0.0, SVG Export Plug-In . SVG Version: 6.00 Build 0)  -->
<!DOCTYPE svg PUBLIC "-//W3C//DTD SVG 1.1//EN" "http://www.w3.org/Graphics/SVG/1.1/DTD/svg11.dtd">
<svg version="1.1" id="Capa_1" xmlns="http://www.w3.org/2000/svg" xmlns:xlink="http://www.w3.org/1999/xlink" x="0px" y="0px"
	 viewBox="0 0 423.42 423.42" style="enable-background:new 0 0 423.42 423.42;" xml:space="preserve">
<g>
	<g>
		<path style="fill:none;" d="M232.104,171.354c30.555,0,55.412-24.858,55.412-55.414c0-30.555-24.857-55.412-55.412-55.412
			c-30.557,0-55.416,24.857-55.416,55.412C176.688,146.496,201.547,171.354,232.104,171.354z"/>
		<path style="fill:none;" d="M127.316,179.227h56.883c-13.523-10.261-23.656-24.75-28.441-41.48
			C150.971,154.477,140.84,168.966,127.316,179.227z"/>
		<path style="fill:none;" d="M79.414,171.354c30.555,0,55.412-24.858,55.412-55.414c0-30.555-24.857-55.412-55.412-55.412
			S24,85.385,24,115.94C24,146.496,48.859,171.354,79.414,171.354z"/>
		<path style="fill:none;" d="M24,351.477h281.379v-25.095v-98.059v-25.097H24V351.477z"/>
		<rect x="94.131" y="263.888" style="fill:#73D0F4;" width="58.916" height="36.593"/>
		<polygon style="fill:#73D0F4;" points="329.379,319.07 399.42,355.2 399.42,199.505 329.379,235.636 		"/>
		<path style="fill:#3D6889;" d="M82.131,324.481h82.916c6.627,0,12-5.372,12-12v-60.593c0-6.627-5.373-12-12-12H82.131
			c-6.627,0-12,5.373-12,12v60.593C70.131,319.109,75.504,324.481,82.131,324.481z M94.131,263.888h58.916v36.593H94.131V263.888z"
			/>
		<path style="fill:#3D6889;" d="M417.664,169.566c-3.574-2.18-8.027-2.337-11.744-0.418l-76.541,39.483v-17.404
			c0-6.628-5.373-12-12-12h-37.373c19.127-14.515,31.51-37.479,31.51-63.287c0-43.788-35.625-79.412-79.412-79.412
			c-36.227,0-66.844,24.39-76.346,57.604c-9.504-33.215-40.119-57.604-76.344-57.604C35.625,36.528,0,72.152,0,115.94
			c0,25.809,12.383,48.772,31.51,63.287H12c-6.627,0-12,5.372-12,12v172.25c0,6.627,5.373,12,12,12h305.379c6.627,0,12-5.373,12-12
			v-17.402l76.541,39.481c1.729,0.893,3.615,1.336,5.5,1.336c2.168,0,4.332-0.588,6.244-1.753c3.576-2.178,5.756-6.062,5.756-10.247
			V179.813C423.42,175.626,421.24,171.744,417.664,169.566z M232.104,60.528c30.555,0,55.412,24.857,55.412,55.412
			c0,30.556-24.857,55.414-55.412,55.414c-30.557,0-55.416-24.858-55.416-55.414C176.688,85.385,201.547,60.528,232.104,60.528z
			 M184.199,179.227h-56.883c13.524-10.261,23.654-24.75,28.441-41.48C160.543,154.477,170.676,168.966,184.199,179.227z M24,115.94
			c0-30.555,24.859-55.412,55.414-55.412s55.412,24.857,55.412,55.412c0,30.556-24.857,55.414-55.412,55.414S24,146.496,24,115.94z
			 M305.379,228.324v98.059v25.095H24v-148.25h281.379V228.324z M399.42,355.2l-70.041-36.13v-83.434l70.041-36.131V355.2z"/>
	</g>
</g>
<g>
</g>
<g>
</g>
<g>
</g>
<g>
</g>
<g>
</g>
<g>
</g>
<g>
</g>
<g>
</g>
<g>
</g>
<g>
</g>
<g>
</g>
<g>
</g>
<g>
</g>
<g>
</g>
<g>
</g>
</svg>
