<?xml version="1.0" encoding="iso-8859-1"?>
<!-- Generator: Adobe Illustrator 19.0.0, SVG Export Plug-In . SVG Version: 6.00 Build 0)  -->
<svg version="1.1" id="Layer_1" xmlns="http://www.w3.org/2000/svg" xmlns:xlink="http://www.w3.org/1999/xlink" x="0px" y="0px"
	 viewBox="0 0 512 512" style="enable-background:new 0 0 512 512;" xml:space="preserve">
<polygon style="fill:#E0FAF2;" points="140.631,56.224 0,171.733 0,505.863 512,505.863 512,171.733 369.02,56.224 "/>
<polygon style="fill:#D1E9E2;" points="512,171.733 369.02,56.224 256,56.224 256,505.863 512,505.863 "/>
<rect x="80.785" y="6.137" style="fill:#FC9FD8;" width="352.746" height="363.665"/>
<rect x="256.267" y="6.137" style="fill:#EC96CB;" width="177.263" height="363.665"/>
<polygon style="fill:#F2FAF8;" points="0,505.863 215.61,363.215 0,171.733 "/>
<polygon style="fill:#E6F0EE;" points="512,505.863 295.665,363.858 512,171.733 "/>
<polygon style="fill:#D1E9E2;" points="0,505.863 256,297.568 512,505.863 "/>
<polygon style="fill:#C3D9D2;" points="256,505.863 256,297.568 512,505.863 "/>
<path style="fill:#D4498D;" d="M287.896,108.537c-13.195,0-24.691,7.728-30.737,19.162c-6.046-11.434-17.54-19.162-30.737-19.162
	c-23.159,0-38.504,16.823-38.504,37.574c0,20.75,11.698,33.309,38.504,52.246c23.422,16.549,30.737,28.161,30.737,28.161
	s7.315-11.612,30.737-28.161c26.804-18.938,38.502-31.496,38.502-52.246C326.399,125.359,311.056,108.537,287.896,108.537z"/>
<path style="fill:#C84788;" d="M287.896,108.537c-13.195,0-24.691,7.728-30.737,19.162c0,19.899,0,98.82,0,98.82
	s7.315-11.612,30.737-28.161c26.804-18.938,38.502-31.496,38.502-52.246C326.399,125.359,311.056,108.537,287.896,108.537z"/>
<g>
</g>
<g>
</g>
<g>
</g>
<g>
</g>
<g>
</g>
<g>
</g>
<g>
</g>
<g>
</g>
<g>
</g>
<g>
</g>
<g>
</g>
<g>
</g>
<g>
</g>
<g>
</g>
<g>
</g>
</svg>
