<?xml version="1.0" encoding="iso-8859-1"?>
<!-- Generator: Adobe Illustrator 19.0.0, SVG Export Plug-In . SVG Version: 6.00 Build 0)  -->
<svg version="1.1" id="Layer_1" xmlns="http://www.w3.org/2000/svg" xmlns:xlink="http://www.w3.org/1999/xlink" x="0px" y="0px"
	 viewBox="0 0 512 512" style="enable-background:new 0 0 512 512;" xml:space="preserve">
<g>
	<g>
		<path style="fill:#F29C1F;" d="M0,256c0-14.627,11.855-26.483,26.483-26.483S52.966,241.373,52.966,256
			c0,14.627-11.855,26.483-26.483,26.483S0,270.627,0,256"/>
		<path style="fill:#F29C1F;" d="M459.034,256c0-14.627,11.855-26.483,26.483-26.483C500.145,229.517,512,241.373,512,256
			c0,14.627-11.855,26.483-26.483,26.483C470.89,282.483,459.034,270.627,459.034,256"/>
		<path style="fill:#F29C1F;" d="M229.517,26.483C229.517,11.855,241.373,0,256,0s26.483,11.855,26.483,26.483
			S270.627,52.966,256,52.966S229.517,41.11,229.517,26.483"/>
		<path style="fill:#F29C1F;" d="M229.517,485.517c0-14.627,11.855-26.483,26.483-26.483s26.483,11.855,26.483,26.483
			S270.627,512,256,512S229.517,500.145,229.517,485.517"/>
		<path style="fill:#F29C1F;" d="M74.981,437.019c-10.346-10.346-10.346-27.11,0-37.455c10.346-10.337,27.11-10.337,37.455,0
			c10.337,10.346,10.337,27.11,0,37.455C102.09,447.365,85.327,447.365,74.981,437.019"/>
		<path style="fill:#F29C1F;" d="M399.567,112.433c-10.346-10.346-10.346-27.11,0-37.455c10.346-10.337,27.109-10.337,37.455,0
			c10.337,10.346,10.337,27.11,0,37.455C426.677,122.778,409.913,122.778,399.567,112.433"/>
		<path style="fill:#F29C1F;" d="M74.981,112.433c-10.346-10.346-10.346-27.11,0-37.455c10.346-10.337,27.11-10.337,37.455,0
			c10.337,10.346,10.337,27.11,0,37.455C102.09,122.778,85.327,122.778,74.981,112.433"/>
		<path style="fill:#F29C1F;" d="M399.567,437.019c-10.346-10.346-10.346-27.11,0-37.455c10.346-10.337,27.109-10.337,37.455,0
			c10.337,10.346,10.337,27.11,0,37.455C426.677,447.365,409.913,447.365,399.567,437.019"/>
	</g>
	<path style="fill:#2980BA;" d="M423.724,256c0,92.628-75.096,167.724-167.724,167.724S88.276,348.628,88.276,256
		S163.372,88.276,256,88.276S423.724,163.372,423.724,256"/>
</g>
<g>
</g>
<g>
</g>
<g>
</g>
<g>
</g>
<g>
</g>
<g>
</g>
<g>
</g>
<g>
</g>
<g>
</g>
<g>
</g>
<g>
</g>
<g>
</g>
<g>
</g>
<g>
</g>
<g>
</g>
</svg>
