<?xml version="1.0" encoding="iso-8859-1"?>
<!-- Generator: Adobe Illustrator 19.0.0, SVG Export Plug-In . SVG Version: 6.00 Build 0)  -->
<svg version="1.1" id="Capa_1" xmlns="http://www.w3.org/2000/svg" xmlns:xlink="http://www.w3.org/1999/xlink" x="0px" y="0px"
	 viewBox="0 0 512 512" style="enable-background:new 0 0 512 512;" xml:space="preserve">
<circle style="fill:#AEAFB0;" cx="267.442" cy="215.224" r="215.224"/>
<g>
	<circle style="opacity:0.6;fill:#FFFFFF;enable-background:new    ;" cx="267.442" cy="215.224" r="166.106"/>
	<path style="fill:#FFFFFF;" d="M110.997,273.24c16.801,45.066,52.604,80.869,97.669,97.669l213.698-213.698
		c-16.801-45.066-52.604-80.869-97.669-97.669L110.997,273.24z"/>
</g>
<path style="opacity:0.1;fill:#332E2F;enable-background:new    ;" d="M404.823,49.704c31.034,37.299,49.704,85.248,49.704,137.562
	c0,118.866-96.36,215.226-215.226,215.226c-52.314,0-100.263-18.672-137.562-49.704c39.479,47.451,98.969,77.663,165.522,77.663
	c118.866,0,215.226-96.359,215.226-215.225C482.486,148.673,452.274,89.183,404.823,49.704z"/>
<path style="fill:#F23366;" d="M98.371,259.929V140.316c0-8.919-10.197-13.995-17.314-8.619l-42.215,31.896
	c-2.702,2.042-4.291,5.233-4.291,8.619v87.717H98.371z"/>
<path style="fill:#98D4AD;" d="M378.001,402.136h-203.49v99.061c0,5.966,4.836,10.802,10.802,10.802h181.886
	c5.966,0,10.802-4.836,10.802-10.802V402.136z"/>
<path style="fill:#48C2E0;" d="M361.618,355.144H190.893c-9.048,0-16.383,7.335-16.383,16.383v36.805h203.49v-36.805
	C378.001,362.479,370.666,355.144,361.618,355.144z"/>
<rect x="174.511" y="435.33" style="fill:#F23366;" width="203.492" height="39.664"/>
<path style="opacity:0.2;fill:#332E2F;enable-background:new    ;" d="M361.619,355.144h-5.688v24.921v6.196v27v39.664v26.201
	c0,5.966-4.836,10.802-10.802,10.802H174.511v11.269c0,5.966,4.836,10.802,10.802,10.802h181.886
	c5.966,0,10.802-4.836,10.802-10.802v-26.201v-39.664v-27v-6.196v-30.61C378.002,362.479,370.667,355.144,361.619,355.144z"/>
<path style="fill:#FFD05B;" d="M466.813,197.856h-38.802v294.742c0,10.715,8.686,19.401,19.401,19.401l0,0
	c10.715,0,19.401-8.686,19.401-19.401L466.813,197.856L466.813,197.856z"/>
<rect x="428.018" y="151.717" style="fill:#98D4AD;" width="38.802" height="56.869"/>
<path style="fill:#B57049;" d="M499.129,105.032c21.125-38.447-5.23-86.485-49.075-87.966c-0.733-0.025-1.471-0.038-2.211-0.038
	c-5.207,0-10.268,0.619-15.119,1.787c-37.714,9.079-55.963,52.139-37.3,86.147l32.587,56.919h38.802L499.129,105.032z"/>
<path style="fill:#E2E3E4;" d="M119.575,307.536H13.347v-51.096c0-5.966,4.836-10.802,10.802-10.802h84.624
	c5.966,0,10.802,4.836,10.802,10.802V307.536z"/>
<path style="fill:#98D4AD;" d="M116.668,511.999H16.254c-5.966,0-10.802-4.836-10.802-10.802V311.25
	c0-5.966,4.836-10.802,10.802-10.802h100.414c5.966,0,10.802,4.836,10.802,10.802v189.947
	C127.47,507.163,122.634,511.999,116.668,511.999z"/>
<rect x="5.456" y="355.145" style="fill:#F23366;" width="122.022" height="93.979"/>
<path style="opacity:0.2;fill:#332E2F;enable-background:new    ;" d="M119.084,300.856v-44.416c0-5.966-4.836-10.802-10.802-10.802
	H97.881V140.316c0-8.919-10.197-13.995-17.314-8.619l-10.804,8.163c0.006,0.153,0.032,0.299,0.032,0.456v105.323h10.401
	c5.966,0,10.802,4.836,10.802,10.802v44.416c4.552,1.27,7.895,5.438,7.895,10.395v43.893v93.985v52.069
	c0,5.966-4.836,10.802-10.802,10.802h28.086c5.966,0,10.802-4.836,10.802-10.802v-52.069v-93.985v-43.893
	C126.98,306.294,123.636,302.127,119.084,300.856z"/>
<g style="opacity:0.2;">
	<path d="M447.759,93.808c4.475,0,8.102-3.626,8.102-8.102V17.557c-1.926-0.256-3.89-0.423-5.892-0.492
		c-0.733-0.025-1.471-0.037-2.211-0.037c-2.745,0-5.447,0.183-8.102,0.516v68.161C439.657,90.181,443.284,93.808,447.759,93.808z"/>
	<path d="M420.378,93.809c1.416,0,2.85-0.372,4.152-1.15c3.84-2.297,5.09-7.271,2.792-11.111l-23.3-38.944
		c-0.844-1.411-2.051-2.469-3.429-3.133c-3.519,4.516-6.358,9.521-8.448,14.839l21.274,35.557
		C414.936,92.402,417.622,93.809,420.378,93.809z"/>
	<path d="M491.497,42.603l-23.301,38.944c-2.298,3.839-1.048,8.815,2.792,11.111c1.303,0.78,2.736,1.15,4.152,1.15
		c2.756,0,5.442-1.406,6.959-3.943l20.583-34.399c-2.076-5.578-4.967-10.825-8.559-15.547
		C493.082,40.578,492.171,41.474,491.497,42.603z"/>
</g>
<path style="opacity:0.2;enable-background:new    ;" d="M452.948,17.241c-0.002,0-0.005,0-0.009-0.001
	c-0.954-0.078-1.913-0.142-2.885-0.175c-0.733-0.025-1.471-0.037-2.211-0.037c-0.011,0-0.022,0.001-0.032,0.001
	c-0.017,0-0.035-0.001-0.053-0.001c-1.207,0-2.405,0.041-3.594,0.109c-0.097,0.005-0.194,0.009-0.291,0.014
	c-1.154,0.071-2.298,0.177-3.435,0.307c-0.149,0.017-0.299,0.031-0.449,0.05c-0.11,0.013-0.223,0.023-0.333,0.037v0.013
	c-1.478,0.188-2.936,0.44-4.382,0.722c37.649,7.828,58.461,51.349,39.009,86.752l-32.316,56.849l0,0v35.976v10.731v284.011
	c0,5.987-2.716,11.337-6.978,14.896c3.366,2.81,7.695,4.505,12.423,4.505c10.715,0,19.401-8.686,19.401-19.401v-284.01v-10.731
	v-35.976l0,0l32.316-56.849C519.785,67.439,495.043,20.686,452.948,17.241z"/>
<g>
</g>
<g>
</g>
<g>
</g>
<g>
</g>
<g>
</g>
<g>
</g>
<g>
</g>
<g>
</g>
<g>
</g>
<g>
</g>
<g>
</g>
<g>
</g>
<g>
</g>
<g>
</g>
<g>
</g>
</svg>
