<?xml version="1.0" encoding="iso-8859-1"?>
<!-- Generator: Adobe Illustrator 19.0.0, SVG Export Plug-In . SVG Version: 6.00 Build 0)  -->
<svg version="1.1" id="Layer_1" xmlns="http://www.w3.org/2000/svg" xmlns:xlink="http://www.w3.org/1999/xlink" x="0px" y="0px"
	 viewBox="0 0 496.158 496.158" style="enable-background:new 0 0 496.158 496.158;" xml:space="preserve">
<path style="fill:#25B7D3;" d="M0,248.085C0,111.062,111.07,0.003,248.076,0.003c137.012,0,248.082,111.059,248.082,248.082
	c0,137-111.07,248.07-248.082,248.07C111.07,496.155,0,385.085,0,248.085z"/>
<path style="fill:#B4222D;" d="M146.133,312.723c0,2.591-3.667-72.7-3.667-72.7s-15.156-1.084-25.701-1.084
	c-10.607,0-25.805,1.455-25.805,1.455s-3.562,74.897-3.562,72.329H146.133z"/>
<polygon style="fill:#2D2D2D;" points="105.21,175.454 102.321,239.444 131.21,239.444 128.321,175.454 "/>
<rect x="110.579" y="239.449" style="fill:#BC2A3C;" width="5.5" height="73.28"/>
<polygon style="fill:#333333;" points="110.583,175.454 110.583,239.067 110.583,239.444 116.083,239.444 116.083,238.941 
	116.083,175.454 "/>
<path style="fill:#B4222D;" d="M194.397,207.007c0,2.087-19.839,2.087-19.839,0c0,0,0-29.209,0-35.898
	c0-6.691,9.673-18.383,13.217-18.383c4.251,0,6.622,11.963,6.622,18.383C194.397,177.526,194.397,207.007,194.397,207.007z"/>
<path style="fill:#BC2A3C;" d="M184.587,209.149c0,0-4.606-0.056-4.606-2.143c0-27.703,0-27.703,0-35.898
	c0-6.691,1.062-12.006,4.604-10.5L184.587,209.149z"/>
<path style="fill:#A31D2D;" d="M174.871,168.809c1.838-6.721,9.739-16.084,12.904-16.084c1.953,0,4.328,4.158,1.64,9.654
	c-3.058,6.244-7.117,8.816-10.631,9.301C174.931,172.212,174.871,168.809,174.871,168.809z"/>
<path style="fill:#EABC60;" d="M197.231,250.134c0,2.683-25.508,2.683-25.508,0v-46.157c0,0,5.492-1.294,12.554-1.294
	s12.954,1.294,12.954,1.294V250.134z"/>
<path style="fill:#F7CD84;" d="M184.277,202.683c-2.256,0-4.351,0.285-6.156,0.675v48.547c1.947,0.162,4.162,0.241,6.376,0.241
	v-49.461C184.424,202.683,184.35,202.683,184.277,202.683z"/>
<path style="fill:#2D2D2D;" d="M184.233,247.663c-8.606,0-15.298,1.771-15.298,1.771v63.288h31.087v-63.288
	C200.022,249.434,192.842,247.663,184.233,247.663z"/>
<path style="fill:#333333;" d="M184.231,251.133c-2.186,0-4.25,0.114-6.11,0.284v61.305h6.358c0.007,0,0.018-61.586,0.018-61.586
	C184.408,251.136,184.32,251.133,184.231,251.133z"/>
<path style="fill:#CE9D4E;" d="M200.155,257.245h-31.354v-11.057c0,0,6.748-0.547,15.43-0.547c8.68,0,15.924,0.547,15.924,0.547
	V257.245z"/>
<path style="fill:#E0AE55;" d="M200.155,258.042h-31.354v-11.057c0,0,6.748-0.547,15.43-0.547c8.68,0,15.924,0.547,15.924,0.547
	V258.042z"/>
<g>
	<path style="fill:#333333;" d="M182.614,245.22h0.003H182.614z"/>
	<polygon style="fill:#333333;" points="178.121,245.481 178.121,245.481 178.126,245.481 	"/>
</g>
<path style="fill:#EDBF77;" d="M184.231,246.438c-2.186,0-4.25,0.035-6.11,0.088v0.459v11.057h6.376v-11.057v-0.545
	C184.408,246.44,184.32,246.438,184.231,246.438z"/>
<g>
	<path style="fill:#303030;" d="M291.739,152.145c0,3.261-2.644,2.623-5.905,2.623h-6.886c-3.263,0-5.905,0.638-5.905-2.623v-11.406
		c0-3.261-0.025-5.903,4.535-5.903h9.626c4.56,0,4.535,2.643,4.535,5.903L291.739,152.145L291.739,152.145z"/>
	<path style="fill:#303030;" d="M292.433,141.661c0,0.342-0.268,0.619-0.599,0.619h-18.889c-0.331,0-0.599-0.277-0.599-0.619l0,0
		c0-0.343,0.268-0.62,0.599-0.62h18.889C292.165,141.041,292.433,141.318,292.433,141.661L292.433,141.661z"/>
	<path style="fill:#303030;" d="M292.433,144.439c0,0.343-0.268,0.62-0.599,0.62h-18.889c-0.331,0-0.599-0.277-0.599-0.62l0,0
		c0-0.343,0.268-0.62,0.599-0.62h18.889C292.165,143.819,292.433,144.097,292.433,144.439L292.433,144.439z"/>
</g>
<path style="fill:#444444;" d="M296.791,308.776c0,5.023-4.07,4.044-9.095,4.044h-10.61c-5.024,0-9.096,0.979-9.096-4.044v-155.72
	c0-5.022,4.071-4.291,9.096-4.291h10.61c5.024,0,9.095-0.731,9.095,4.291V308.776z"/>
<rect x="277.089" y="148.769" style="fill:#515151;" width="5" height="164.06"/>
<g>
	<path style="fill:#282828;" d="M237.675,250.167c0,3.209-1.131,5.811-2.527,5.811l0,0c-1.394,0-2.524-2.602-2.524-5.811V135.472
		c0-3.21,1.131-5.811,2.524-5.811l0,0c1.396,0,2.527,2.601,2.527,5.811V250.167z"/>
	<path style="fill:#282828;" d="M236.515,97.378c0-0.276,3.11-0.553,4.477-0.662c-0.943-0.563-3.2-0.688-5.844-0.688
		c-2.633,0-4.887,0.123-5.834,0.683c1.309,0.104,4.451,0.387,4.451,0.667c0,0.307-4.284,0.531-4.93,0.564v0.39
		c0.646,0.048,4.93,0.376,4.93,0.704c0,0.307-4.284,0.531-4.93,0.564v0.531c0.646,0.047,4.93,0.376,4.93,0.705
		c0,0.307-4.284,0.531-4.93,0.562v0.438c0.646,0.047,4.93,0.375,4.93,0.704c0,0.307-4.284,0.531-4.93,0.562v0.392
		c0.646,0.048,4.93,0.374,4.93,0.703c0,0.307-4.284,0.531-4.93,0.564v0.531c0.646,0.048,4.93,0.376,4.93,0.704
		c0,0.307-4.284,0.532-4.93,0.564v0.438c0.646,0.047,4.93,0.375,4.93,0.703c0,0.307-4.284,0.531-4.93,0.564v0.152
		c0.646,0.049,4.93,0.377,4.93,0.705c0,0.307-4.284,0.531-4.93,0.562v0.392c0.646,0.048,4.93,0.375,4.93,0.704
		c0,0.307-4.284,0.531-4.93,0.563v0.532c0.646,0.047,4.93,0.376,4.93,0.703c0,0.308-4.284,0.531-4.93,0.564v0.438
		c0.646,0.048,4.93,0.375,4.93,0.703c0,0.308-4.284,0.533-4.93,0.564v0.391c0.646,0.047,4.93,0.375,4.93,0.704
		c0,0.306-4.284,0.53-4.93,0.563v0.532c0.646,0.048,4.93,0.375,4.93,0.704c0,0.307-4.284,0.531-4.93,0.563v0.438
		c0.646,0.047,4.93,0.375,4.93,0.703c0,0.307-4.284,0.531-4.93,0.564v0.152c0.646,0.047,4.93,0.377,4.93,0.705
		c0,0.306-4.284,0.531-4.93,0.563v0.39c0.646,0.047,4.93,0.376,4.93,0.704c0,0.306-4.284,0.531-4.93,0.563v0.533
		c0.646,0.047,4.93,0.375,4.93,0.703c0,0.307-4.284,0.531-4.93,0.564v0.438c0.646,0.047,4.93,0.375,4.93,0.704
		c0,0.306-4.284,0.53-4.93,0.563v0.39c0.646,0.048,4.93,0.376,4.93,0.704c0,0.307-4.284,0.531-4.93,0.564v0.531
		c0.646,0.048,4.93,0.376,4.93,0.703c0,0.309-4.284,0.533-4.93,0.564v0.438c0.646,0.047,4.93,0.374,4.93,0.704
		c0,0.305-4.284,0.531-4.93,0.563v0.153c0.646,0.047,4.93,0.375,4.93,0.704c0,0.307-4.284,0.531-4.93,0.563v0.391
		c0.646,0.047,4.93,0.375,4.93,0.703c0,0.307-4.284,0.533-4.93,0.563v0.532c0.646,0.049,4.93,0.375,4.93,0.705
		c0,0.306-4.284,0.531-4.93,0.564v0.449c0.646,0.049,4.93,0.377,4.93,0.704c0,0.308-4.284,0.532-4.93,0.564v0.39
		c0.646,0.048,4.93,0.376,4.93,0.704c0,0.243-2.663,0.433-4.107,0.519c1.085,0.638,3.136,1.068,5.49,1.068
		c2.362,0,4.417-0.432,5.5-1.071c-1.482-0.087-4.133-0.276-4.133-0.516c0-0.318,4.096-0.636,4.949-0.698v-0.398
		c-0.854-0.043-4.949-0.263-4.949-0.562c0-0.317,4.096-0.635,4.949-0.698v-0.447c-0.854-0.041-4.949-0.261-4.949-0.559
		c0-0.318,4.096-0.636,4.949-0.699v-0.541c-0.854-0.043-4.949-0.263-4.949-0.561c0-0.318,4.096-0.635,4.949-0.698v-0.399
		c-0.854-0.043-4.949-0.263-4.949-0.56c0-0.317,4.096-0.636,4.949-0.699v-0.161c-0.854-0.043-4.949-0.264-4.949-0.561
		c0-0.318,4.096-0.637,4.949-0.698v-0.447c-0.854-0.043-4.949-0.263-4.949-0.562c0-0.317,4.096-0.635,4.949-0.697v-0.541
		c-0.854-0.044-4.949-0.263-4.949-0.561c0-0.318,4.096-0.637,4.949-0.698v-0.399c-0.854-0.043-4.949-0.262-4.949-0.56
		c0-0.319,4.096-0.637,4.949-0.7v-0.445c-0.854-0.043-4.949-0.264-4.949-0.561c0-0.318,4.096-0.636,4.949-0.699v-0.54
		c-0.854-0.043-4.949-0.264-4.949-0.561c0-0.318,4.096-0.636,4.949-0.698v-0.4c-0.854-0.043-4.949-0.262-4.949-0.559
		c0-0.319,4.096-0.637,4.949-0.699v-0.162c-0.854-0.044-4.949-0.264-4.949-0.561c0-0.318,4.096-0.636,4.949-0.699v-0.446
		c-0.854-0.042-4.949-0.263-4.949-0.56c0-0.318,4.096-0.636,4.949-0.699v-0.541c-0.854-0.043-4.949-0.263-4.949-0.56
		c0-0.319,4.096-0.636,4.949-0.699v-0.399c-0.854-0.043-4.949-0.263-4.949-0.561c0-0.317,4.096-0.635,4.949-0.697v-0.447
		c-0.854-0.042-4.949-0.262-4.949-0.561c0-0.317,4.096-0.635,4.949-0.697v-0.542c-0.854-0.044-4.949-0.263-4.949-0.56
		c0-0.318,4.096-0.637,4.949-0.699v-0.398c-0.854-0.043-4.949-0.264-4.949-0.561c0-0.319,4.096-0.636,4.949-0.699v-0.162
		c-0.854-0.043-4.949-0.262-4.949-0.561c0-0.317,4.096-0.635,4.949-0.697v-0.447c-0.854-0.043-4.949-0.263-4.949-0.561
		c0-0.318,4.096-0.635,4.949-0.698v-0.542c-0.854-0.041-4.949-0.262-4.949-0.56c0-0.317,4.096-0.636,4.949-0.698v-0.399
		c-0.854-0.044-4.949-0.263-4.949-0.56c0-0.319,4.096-0.637,4.949-0.699v-0.446c-0.854-0.042-4.949-0.263-4.949-0.56
		c0-0.318,4.096-0.637,4.949-0.699v-0.541c-0.854-0.043-4.949-0.263-4.949-0.561c0-0.318,4.096-0.636,4.949-0.698v-0.399
		C240.61,97.895,236.515,97.677,236.515,97.378z"/>
	<path style="fill:#282828;" d="M228.835,103.496c-0.055-0.005-0.089-0.008-0.089-0.008"/>
	<path style="fill:#282828;" d="M228.746,104.767c0,0,0.034,0,0.089-0.003"/>
</g>
<path style="fill:#444444;" d="M249.801,308.776c0,5.023-4.071,4.044-9.095,4.044h-10.61c-5.023,0-9.096,0.979-9.096-4.044v-66.189
	h28.801V308.776z"/>
<rect x="227.509" y="242.569" style="fill:#515151;" width="5" height="70.25"/>
<circle style="fill:#333333;" cx="363.579" cy="243.209" r="47.613"/>
<circle style="fill:#A3D5E0;" cx="363.579" cy="243.209" r="32.13"/>
<path style="fill:#444444;" d="M411.581,283.857c0,4.489-4.16,8.129-9.29,8.129h-77.419c-5.131,0-9.291-3.64-9.291-8.129v-2.71
	c0-4.489,4.16-8.129,9.291-8.129h77.419c5.13,0,9.29,3.64,9.29,8.129L411.581,283.857L411.581,283.857z"/>
<g>
	<path style="fill:#DAEEF2;" d="M361.938,266.725c-0.594,0-1.188-0.227-1.643-0.681l-19.16-19.16c-0.906-0.906-0.906-2.377,0-3.284
		c0.908-0.907,2.377-0.907,3.285,0l19.16,19.16c0.907,0.907,0.907,2.378,0,3.284C363.128,266.498,362.533,266.725,361.938,266.725z"
		/>
	<path style="fill:#DAEEF2;" d="M384.384,244.28c-0.594,0-1.189-0.227-1.643-0.681l-19.16-19.161c-0.907-0.906-0.907-2.377,0-3.283
		c0.907-0.908,2.377-0.908,3.283,0l19.162,19.16c0.906,0.906,0.906,2.377,0,3.284C385.572,244.054,384.977,244.28,384.384,244.28z"
		/>
	<path style="fill:#DAEEF2;" d="M378.909,261.25c-0.594,0-1.188-0.227-1.643-0.681l-30.656-30.656c-0.906-0.906-0.906-2.377,0-3.284
		c0.908-0.907,2.377-0.907,3.285,0l30.656,30.656c0.906,0.907,0.906,2.378,0,3.284C380.097,261.023,379.503,261.25,378.909,261.25z"
		/>
</g>
<path style="fill:#2D2D2D;" d="M310.366,343.645c0,5.583-4.527,10.11-10.115,10.11H94.69c-5.586,0-10.113-4.527-10.113-10.11l0,0
	c0-5.586,4.527-10.114,10.113-10.114h205.561C305.839,333.531,310.366,338.059,310.366,343.645L310.366,343.645z"/>
<path style="fill:#444444;" d="M301.071,358.247c-2.49-3.334-2.443-25.682,0.084-29.147l69.068-19.509
	c2.51,0,10.33,16.457,10.361,33.117c0.031,17.071-7.789,34.355-10.361,34.355L301.071,358.247z"/>
<path style="fill:#E0AE55;" d="M301.149,358.192l-61.662-4.437c-5.588,0-5.588-20.225,0-20.225l61.662-4.437V358.192z"/>
<g>
	<path style="fill:#2D2D2D;" d="M317.749,334.659c-1.137,0-2.164-0.779-2.433-1.934c-0.313-1.346,0.522-2.689,1.867-3.002
		l48.667-11.334c1.353-0.312,2.689,0.523,3.002,1.869c0.313,1.344-0.521,2.688-1.867,3.002l-48.667,11.332
		C318.127,334.638,317.936,334.659,317.749,334.659z"/>
	<path style="fill:#2D2D2D;" d="M316.522,345.72c-1.105-0.262-1.926-1.257-1.922-2.441c0.004-1.381,1.126-2.496,2.507-2.492
		l49.969,0.161c1.388,0.006,2.497,1.128,2.492,2.509c-0.004,1.381-1.126,2.496-2.507,2.492l-49.969-0.162
		C316.895,345.786,316.706,345.763,316.522,345.72z"/>
	<path style="fill:#2D2D2D;" d="M366.421,368.409c1.137,0,2.164-0.779,2.433-1.934c0.313-1.346-0.522-2.689-1.867-3.002
		l-48.667-11.334c-1.353-0.312-2.689,0.523-3.002,1.869c-0.313,1.344,0.522,2.688,1.867,3.002l48.667,11.332
		C366.043,368.388,366.233,368.409,366.421,368.409z"/>
</g>
<g>
</g>
<g>
</g>
<g>
</g>
<g>
</g>
<g>
</g>
<g>
</g>
<g>
</g>
<g>
</g>
<g>
</g>
<g>
</g>
<g>
</g>
<g>
</g>
<g>
</g>
<g>
</g>
<g>
</g>
</svg>
