<?xml version="1.0" encoding="iso-8859-1"?>
<!-- Generator: Adobe Illustrator 19.0.0, SVG Export Plug-In . SVG Version: 6.00 Build 0)  -->
<svg version="1.1" id="Capa_1" xmlns="http://www.w3.org/2000/svg" xmlns:xlink="http://www.w3.org/1999/xlink" x="0px" y="0px"
	 viewBox="0 0 512 512" style="enable-background:new 0 0 512 512;" xml:space="preserve">
<circle style="fill:#0074A3;" cx="256" cy="256" r="256"/>
<path style="fill:#005C83;" d="M510.601,282.849l-81.941-81.941l-236.044-60.857l-53.928-53.928l-0.73,30.836l-31.268,1.165
	l60.139,60.139l-62.408,49.321L216.538,339.7l-89.784,71.485l99.031,99.031C235.696,511.382,245.775,512,256,512
	C388.317,512,497.18,411.614,510.601,282.849z"/>
<polygon style="fill:#35CCFF;" points="385.247,411.185 126.753,411.185 126.753,200.759 256,98.615 385.247,200.759 "/>
<polygon style="fill:#00BAFF;" points="385.247,200.759 256,98.615 255.979,98.566 255.979,410.873 385.247,411.185 "/>
<polygon style="fill:#B9EAFF;" points="407.579,227.583 256,107.791 104.421,227.583 83.34,200.908 256,64.455 428.66,200.908 "/>
<polygon style="fill:#35CCFF;" points="256,107.791 407.579,227.583 428.66,200.908 256,64.455 "/>
<path style="fill:#FFFFFF;" d="M138.69,150.123c-1.814-19.52-12.48-30.186-31.999-31.999c19.519-1.814,30.185-12.481,31.997-32.001
	c1.814,19.52,12.48,30.186,31.999,31.999C151.168,119.936,140.502,130.602,138.69,150.123z"/>
<path style="fill:#E0E0E0;" d="M403.003,326c-1.814-19.52-12.48-30.186-31.999-31.999c19.519-1.814,30.185-12.481,31.997-32.001
	c1.814,19.52,12.48,30.186,31.999,31.999C415.481,295.813,404.815,306.48,403.003,326z"/>
<rect x="203" y="281.65" style="fill:#FFFFFF;" width="106" height="129.53"/>
<rect x="256" y="281.65" style="fill:#E0E0E0;" width="53" height="129.53"/>
<g>
</g>
<g>
</g>
<g>
</g>
<g>
</g>
<g>
</g>
<g>
</g>
<g>
</g>
<g>
</g>
<g>
</g>
<g>
</g>
<g>
</g>
<g>
</g>
<g>
</g>
<g>
</g>
<g>
</g>
</svg>
