<?xml version="1.0" encoding="iso-8859-1"?>
<!-- Generator: Adobe Illustrator 19.0.0, SVG Export Plug-In . SVG Version: 6.00 Build 0)  -->
<svg version="1.1" id="Layer_1" xmlns="http://www.w3.org/2000/svg" xmlns:xlink="http://www.w3.org/1999/xlink" x="0px" y="0px"
	 viewBox="0 0 508.497 508.497" style="enable-background:new 0 0 508.497 508.497;" xml:space="preserve">
<circle style="fill:#FD8469;" cx="254.248" cy="254.192" r="217.007"/>
<g>
	<path style="fill:#E6E9EE;" d="M339.017,208.756c0.678,7.799-2.034,15.258-6.781,20.683c-4.408,5.086-11.189,11.868-20.005,18.31
		c-4.408,3.052-9.155,6.103-14.241,8.816l-8.816-26.448l20.005-15.258l9.155-7.121l-9.494-28.143
		c3.391-35.264,12.207-66.119,12.207-66.119S334.948,147.723,339.017,208.756z"/>
	<path style="fill:#E6E9EE;" d="M169.48,208.756c-0.678,7.799,2.034,15.258,6.781,20.683c4.408,5.086,11.189,11.868,20.005,18.31
		c4.408,3.052,9.155,6.103,14.241,8.816l8.816-26.448l-20.005-15.258l-9.155-7.121l9.494-28.143
		c-3.391-35.264-12.207-66.119-12.207-66.119S173.549,147.723,169.48,208.756z"/>
</g>
<g>
	<polygon style="fill:#FFD05B;" points="254.248,108.391 254.248,108.391 254.248,108.052 	"/>
	<path style="fill:#FFD05B;" d="M267.472,65.329l-13.224-0.678l0,0l0,0l0,0l0,0l-13.224,0.678c0,0,1.017,11.868-4.747,22.379v14.58
		l17.971,5.764l0,0l0,0l17.293-5.425V86.351C266.455,76.179,267.472,65.329,267.472,65.329z"/>
	<polygon style="fill:#FFD05B;" points="254.248,108.052 254.248,108.391 254.248,108.391 	"/>
</g>
<polygon style="fill:#FFFFFF;" points="254.248,108.391 254.248,108.391 254.248,108.052 "/>
<path style="fill:#FFD05B;" d="M271.541,86.351v16.615l-17.293,5.425l0,0l0,0l-17.971-5.764v-14.58
	c1.356-2.374,2.373-5.086,3.052-7.46c2.374-8.138,1.695-14.919,1.695-14.919l13.224-0.678l0,0l0,0l0,0l0,0l13.224,0.678
	c0,0-0.678,6.781,1.695,14.58C269.846,81.943,270.524,83.978,271.541,86.351z"/>
<polygon style="fill:#FFFFFF;" points="254.248,108.052 254.248,108.391 254.248,108.391 "/>
<polygon style="fill:#54C0EB;" points="201.692,265.042 201.014,304.375 210.169,492.899 234.921,492.899 254.248,338.282 
	273.576,492.899 298.328,492.899 307.483,304.375 306.805,265.042 "/>
<rect x="246.789" y="265.042" style="fill:#324A5E;" width="14.241" height="12.207"/>
<path style="fill:#F9B54C;" d="M269.168,79.57l-1.017,1.356c-2.374,3.052-5.764,4.747-9.494,5.425l-2.713,0.339
	c-1.356,0.339-2.713,0.339-4.069,0l-2.374-0.339c-3.73-0.678-7.121-2.374-9.494-5.425l-1.017-0.678
	c2.374-8.138,1.695-14.919,1.695-14.919l13.224-0.678l0,0l0,0l0,0l0,0l13.224,0.678C267.472,65.329,266.794,71.771,269.168,79.57z"
	/>
<path style="fill:#324A5E;" d="M302.058,492.899h-28.821v11.868c0,2.034,1.695,3.73,3.73,3.73h38.654v-1.695
	C315.96,499.003,309.856,492.899,302.058,492.899z"/>
<path style="fill:#2B3B4E;" d="M206.439,492.899h28.821v11.868c0,2.034-1.695,3.73-3.73,3.73h-38.993v-1.695
	C192.537,499.003,198.64,492.899,206.439,492.899z"/>
<g>
	<path style="fill:#84DBFF;" d="M283.409,90.42c-7.121-3.391-12.546-5.764-12.546-5.764v0.339
		c-2.374,8.477-9.494,12.885-16.615,12.885c-7.121,0-14.241-4.408-16.615-12.885v-0.339c0,0-9.155,3.73-19.327,9.155V266.06h65.102
		L283.409,90.42L283.409,90.42z"/>
</g>
<g>
	<path style="fill:#FFD05B;" d="M253.57,21.927h-25.091l4.069,42.045c0.339,3.052,1.356,5.764,3.391,8.138l3.391,4.069
		c2.374,3.052,5.764,4.747,9.494,5.425l2.374,0.339c1.356,0.339,2.713,0.339,4.069,0l2.373-0.339
		c3.73-0.678,7.121-2.374,9.494-5.425l3.391-4.069c2.034-2.374,3.052-5.086,3.391-8.138l4.747-42.045H253.57z"/>
	<path style="fill:#FFD05B;" d="M281.374,46.68c-1.356,3.052-4.069,5.086-6.103,4.408c-2.034-0.678-3.052-4.069-1.695-7.46
		c1.356-3.052,4.069-5.086,6.103-4.408C281.713,40.237,282.73,43.628,281.374,46.68z"/>
	<path style="fill:#FFD05B;" d="M225.766,46.68c1.356,3.052,4.069,5.086,6.103,4.408c2.034-0.678,3.052-4.069,1.695-7.46
		c-1.356-3.052-4.069-5.086-6.103-4.408C225.088,40.237,224.41,43.628,225.766,46.68z"/>
</g>
<path style="fill:#324A5E;" d="M232.887,12.433c0,0,20.344-30.517,48.827,4.069l-3.052-1.017c0,0,5.425,5.764,0.678,25.091
	c0,0-3.052,0.339-4.069,7.121c0,0-0.678-15.936-4.747-18.988c0,0-26.787,1.695-33.229-4.408c0,0-6.781,11.189-4.069,26.787
	c0,0-5.086-9.833-7.799-15.258c-2.034-3.73-3.052-7.799-3.052-12.207C222.715,18.536,224.749,12.433,232.887,12.433z"/>
<path style="fill:#FFFFFF;" d="M309.517,279.623c0.678-34.925-5.764-62.05-1.017-94.94c5.425-40.35,12.885-70.866,12.885-70.866
	c-11.529-13.563-49.505-28.821-49.505-28.821c7.799,23.057-9.833,43.062-12.885,46.453l1.356,259.391h47.47l2.374-86.464
	L309.517,279.623L309.517,279.623z"/>
<path style="fill:#E6E9EE;" d="M271.88,84.656l11.189,11.868l-6.781,3.391l5.086,12.546l-22.04,18.649
	C259.334,131.109,275.949,106.017,271.88,84.656z"/>
<path style="fill:#FFFFFF;" d="M198.98,279.623c-0.678-34.925,5.764-62.05,1.017-94.94c-5.425-40.35-12.885-70.866-12.885-70.866
	c11.528-13.563,49.505-28.821,49.505-28.821c-7.799,23.057,9.833,43.062,12.885,46.453l-1.356,259.391h-47.47l-2.374-86.464
	L198.98,279.623L198.98,279.623z"/>
<path style="fill:#E6E9EE;" d="M236.617,84.656l-11.189,12.207l6.781,3.052l-5.086,12.546l22.04,18.988
	C249.501,131.109,232.548,106.017,236.617,84.656z"/>
<g>
</g>
<g>
</g>
<g>
</g>
<g>
</g>
<g>
</g>
<g>
</g>
<g>
</g>
<g>
</g>
<g>
</g>
<g>
</g>
<g>
</g>
<g>
</g>
<g>
</g>
<g>
</g>
<g>
</g>
</svg>
