<?xml version="1.0" encoding="iso-8859-1"?>
<!-- Generator: Adobe Illustrator 19.0.0, SVG Export Plug-In . SVG Version: 6.00 Build 0)  -->
<svg version="1.1" id="Capa_1" xmlns="http://www.w3.org/2000/svg" xmlns:xlink="http://www.w3.org/1999/xlink" x="0px" y="0px"
	 viewBox="0 0 512 512" style="enable-background:new 0 0 512 512;" xml:space="preserve">
<circle style="fill:#00EED0;" cx="256" cy="256" r="256"/>
<path style="fill:#00AD95;" d="M512,256c0-7.109-0.303-14.146-0.872-21.109L384.066,107.283c-0.997-1.23-2.251-2.317-3.767-3.182
	L277.554,45.444c-13.27-7.576-29.838-7.576-43.108,0L131.701,104.1c-7.606,4.342-8.829,14.188-2.932,20.119l31.59,31.017v3.951
	c0,3.055,0,7.284,0,7.284c0.634,3.749,1.73,7.098,3.209,10.108c0,5.76,0,12.714,0,19.849c-9.185,2.645-15.476,11.621-14.413,21.431
	l1.752,16.178c0.542,5.002,2.906,9.385,6.357,12.564l28.596,28.505c6.766,12.024,14.185,21.428,21.769,28.77l13.186,13.135V356H150
	c-23.833,0-43.333,19.5-43.333,43.333v64.606c0.002,0.001,0.003,0.002,0.005,0.003c1.843,1.326,3.71,2.618,5.589,3.896v0.02
	C153.237,495.714,202.715,512,256,512C397.385,512,512,397.385,512,256z"/>
<rect x="220.81" y="313.11" style="fill:#FFC473;" width="70.37" height="65.879"/>
<rect x="255.61" y="313.1" style="fill:#FFAA20;" width="35.575" height="65.884"/>
<path style="fill:#006EF5;" d="M362,356H150c-23.833,0-43.333,19.5-43.333,43.333v64.606C148.7,494.179,200.266,512,256,512
	s107.3-17.821,149.333-48.061v-64.606C405.333,375.5,385.833,356,362,356z"/>
<path style="fill:#004EB1;" d="M405.33,399.33v64.61c-38.42,27.64-84.81,44.91-135.06,47.66c-2.15,0.13-4.3,0.22-6.46,0.28
	c-0.33,0.01-0.66,0.02-0.99,0.03c-1.08,0.03-2.15,0.05-3.23,0.06c-1.2,0.02-2.39,0.03-3.59,0.03V356h106
	C385.83,356,405.33,375.5,405.33,399.33z"/>
<path style="fill:#003D8D;" d="M241.729,427.5v84.099C246.454,511.859,251.21,512,256,512c4.79,0,9.546-0.141,14.271-0.401V427.5
	H241.729z"/>
<path style="fill:#002D6B;" d="M270.27,427.5v84.1c-2.14,0.12-4.3,0.21-6.46,0.28c-0.33,0.01-0.66,0.02-0.99,0.03
	c-1.08,0.03-2.15,0.05-3.23,0.06c-1.2,0.02-2.39,0.03-3.59,0.03v-84.5H270.27z"/>
<polygon style="fill:#FFFFFF;" points="220.815,356 256,427.5 291.185,356 "/>
<polygon style="fill:#FFF5CB;" points="291.19,356 256,427.5 256,356 "/>
<polygon style="fill:#004EB2;" points="220.815,356 180.667,356 213.333,446.5 256,427.5 "/>
<polygon style="fill:#003D8D;" points="291.185,356 331.333,356 298.667,446.5 256,427.5 "/>
<path style="fill:#FFDBA9;" d="M346.582,195.99C342.8,140.315,295.32,108.717,256,108.717c-39.321,0-86.801,31.598-90.583,87.272
	c-10.175,1.906-17.395,11.415-16.263,21.87l1.752,16.178c1.189,10.975,11.141,18.982,22.115,17.793l1.89-0.205
	c22.467,58.481,58.722,73.537,81.088,76.958c22.366-3.421,58.622-18.477,81.088-76.958l1.89,0.205
	c10.975,1.189,20.927-6.818,22.115-17.793l1.752-16.178C363.978,207.404,356.757,197.895,346.582,195.99z"/>
<path style="fill:#FFC473;" d="M362.844,217.856l-1.751,16.178c-1.187,10.976-11.137,18.985-22.114,17.798l-1.891-0.201
	c-12.596,32.778-29.519,51.914-45.908,63.001c-12.848,8.703-25.353,12.455-35.183,13.954c-0.131-0.02-0.261-0.04-0.392-0.06V108.717
	h0.392c39.318,0,86.805,31.601,90.588,87.278c0.634,0.121,1.247,0.262,1.851,0.443C357.623,199.073,363.911,208.047,362.844,217.856
	z"/>
<polygon style="fill:#FFAA20;" points="313.975,214.849 255.606,214.849 255.606,278.594 274.863,278.594 274.863,232.715 
	313.975,232.715 "/>
<rect x="196.15" y="214.85" style="fill:#FFC473;" width="45.2" height="17.867"/>
<path style="fill:#FF8900;" d="M256,84.204c-72.588,0-92.432,66.424-92.432,86.166s0,68.092,0,68.092h13.055
	c3.656-26.635,12.533-71.486,12.533-71.486C221.012,173.242,256,172.72,256,172.72s34.988,0.522,66.844-5.745
	c0,0,8.878,44.851,12.533,71.486h13.056c0,0,0-48.35,0-68.092C348.432,150.628,328.588,84.204,256,84.204z"/>
<path style="fill:#C06100;" d="M348.437,170.369v26.068c0,20.283,0,42.024,0,42.024h-13.059
	c-3.662-26.631-12.536-71.482-12.536-71.482c-31.852,6.258-66.844,5.745-66.844,5.745s-0.131,0-0.392,0V84.209h0.392
	C328.587,84.209,348.437,150.63,348.437,170.369z"/>
<path style="fill:#004EB2;" d="M285.336,200.552h-58.671c-33.263,0-61.686-6.741-66.306-34.08c0,0,0-4.23,0-7.284l0,0h191.283l0,0
	c0,3.095,0,7.284,0,7.284C346.969,193.721,318.557,200.552,285.336,200.552z"/>
<path style="fill:#003D8D;" d="M351.64,159.19v4.8c0,1.43,0,2.48,0,2.48c-4.67,27.25-33.08,34.08-66.3,34.08H256v-41.36H351.64z"/>
<rect x="160.36" y="145.74" style="fill:#57555C;" width="191.28" height="20.733"/>
<rect x="256" y="145.74" style="fill:#3C3B41;" width="95.64" height="20.734"/>
<path style="fill:#006EF5;" d="M234.446,45.444L131.701,104.1c-8.114,4.632-8.963,15.526-1.658,21.25l30.315,23.754h191.283
	l30.315-23.754c7.306-5.724,6.456-16.618-1.658-21.25L277.554,45.444C264.284,37.869,247.716,37.869,234.446,45.444z"/>
<path style="fill:#004EB1;" d="M381.957,125.353l-30.312,23.751H256V39.765c7.457,0,14.921,1.892,21.557,5.682L380.296,104.1
	C388.415,108.733,389.261,119.629,381.957,125.353z"/>
<circle style="fill:#FFD400;" cx="256" cy="104.72" r="24.513"/>
<path style="fill:#FFAA20;" d="M280.51,104.72c0,13.54-10.97,24.51-24.51,24.51V80.2C269.54,80.2,280.51,91.18,280.51,104.72z"/>
<circle style="fill:#FFD400;" cx="336" cy="456.22" r="20"/>
<path style="fill:#FFAA20;" d="M356,456.219c0,11.049-8.952,20.001-20,20.001v-40.01C347.049,436.21,356,445.17,356,456.219z"/>
<g>
</g>
<g>
</g>
<g>
</g>
<g>
</g>
<g>
</g>
<g>
</g>
<g>
</g>
<g>
</g>
<g>
</g>
<g>
</g>
<g>
</g>
<g>
</g>
<g>
</g>
<g>
</g>
<g>
</g>
</svg>
