<?xml version="1.0" encoding="iso-8859-1"?>
<!-- Generator: Adobe Illustrator 19.0.0, SVG Export Plug-In . SVG Version: 6.00 Build 0)  -->
<svg version="1.1" id="Layer_1" xmlns="http://www.w3.org/2000/svg" xmlns:xlink="http://www.w3.org/1999/xlink" x="0px" y="0px"
	 viewBox="0 0 501.999 501.999" style="enable-background:new 0 0 501.999 501.999;" xml:space="preserve">
<path style="fill:#0D8DBF;" d="M230.88,212.952c0,81.28-33.944,183.144-83.656,183.144C97.528,396.096,67,298.152,67,216.872
	C67,135.616,112.472,0,162.184,0S230.88,131.688,230.88,212.952z"/>
<path style="fill:#136FA8;" d="M162.184,0c49.712,0,68.696,131.688,68.696,212.952c0,81.28-33.944,183.144-83.656,183.144
	C97.528,396.096,67,298.152,67,216.872"/>
<path style="fill:#075D91;" d="M162.184,0c49.712,0,68.696,131.688,68.696,212.952c0,81.28-33.944,183.144-83.656,183.144"/>
<path style="fill:#30697F;" d="M77.592,350.208c3.712-207.36,25.512-208.896,70.856-208.896s66.632-12.048,68.888,265.944
	c0.592,74.104-30.736,101.248-75.408,93.456C68.384,487.856,76.256,424.32,77.592,350.208z"/>
<path style="fill:#26556D;" d="M148.448,141.312c45.344,0,66.632-12.048,68.888,265.944c0.592,74.104-30.736,101.248-75.408,93.456
	c-73.536-12.848-65.672-76.392-64.336-150.496"/>
<path style="fill:#174456;" d="M148.448,141.312c45.344,0,66.632-12.048,68.888,265.944c0.592,74.104-30.736,101.248-75.408,93.456"
	/>
<path style="fill:#6591A0;" d="M196.568,347.288c-2.496,148.472-25.36,132.344-53.912,131.864
	c-28.552-0.472-51.512-10.176-49.464-133.592c1.24-73.296,24.208-63.104,52.76-62.608C174.48,283.432,197.8,274.016,196.568,347.288
	z"/>
<path style="fill:#75A3AF;" d="M196.568,347.288c-2.496,148.472-25.36,132.344-53.912,131.864
	c-28.552-0.472-51.512-10.176-49.464-133.592c1.24-73.296,24.208-63.104,52.76-62.608C174.48,283.432,197.8,274.016,196.568,347.288
	z"/>
<path style="fill:#6591A0;" d="M145.952,349.688c23.968,0.4,44.224-6.16,49.384,35.128c0.584-11.168,0.992-23.616,1.224-37.52
	c1.232-73.272-22.088-63.856-50.616-64.336c-28.552-0.496-51.512-10.688-52.76,62.608c-0.32,19.248-0.032,35.72,0.792,49.832
	C98.384,340.712,119.816,349.232,145.952,349.688z"/>
<path style="fill:#0D8DBF;" d="M271.12,212.952c0,81.28,33.944,183.144,83.656,183.144c49.696,0,80.224-97.944,80.224-179.224
	C435,135.616,389.52,0,339.816,0C290.104,0,271.12,131.688,271.12,212.952z"/>
<path style="fill:#136FA8;" d="M339.816,0c-49.712,0-68.696,131.688-68.696,212.952c0,81.28,33.944,183.144,83.656,183.144
	c49.696,0,80.224-97.944,80.224-179.224"/>
<path style="fill:#075D91;" d="M339.816,0c-49.712,0-68.696,131.688-68.696,212.952c0,81.28,33.944,183.144,83.656,183.144"/>
<path style="fill:#30697F;" d="M424.408,350.208c-3.712-207.36-25.52-208.896-70.856-208.896
	c-45.344,0-66.648-12.048-68.888,265.944c-0.592,74.104,30.736,101.248,75.392,93.456C433.6,487.856,425.728,424.32,424.408,350.208
	z"/>
<path style="fill:#26556D;" d="M353.552,141.312c-45.344,0-66.648-12.048-68.888,265.944
	c-0.592,74.104,30.736,101.248,75.392,93.456c73.536-12.848,65.672-76.392,64.344-150.496"/>
<path style="fill:#174456;" d="M353.552,141.312c-45.344,0-66.648-12.048-68.888,265.944
	c-0.592,74.104,30.736,101.248,75.392,93.456"/>
<path style="fill:#6591A0;" d="M305.432,347.288c2.496,148.472,25.36,132.344,53.912,131.864
	c28.552-0.472,51.52-10.176,49.464-133.592c-1.232-73.296-24.208-63.104-52.76-62.608
	C327.512,283.432,304.208,274.016,305.432,347.288z"/>
<path style="fill:#75A3AF;" d="M305.432,347.288c2.496,148.472,25.36,132.344,53.912,131.864
	c28.552-0.472,51.52-10.176,49.464-133.592c-1.232-73.296-24.208-63.104-52.76-62.608
	C327.512,283.432,304.208,274.016,305.432,347.288z"/>
<path style="fill:#6591A0;" d="M356.048,349.688c-23.968,0.4-44.232-6.16-49.392,35.128c-0.576-11.168-0.992-23.616-1.216-37.52
	c-1.224-73.272,22.08-63.856,50.616-64.336c28.552-0.496,51.52-10.688,52.76,62.608c0.32,19.248,0.032,35.72-0.792,49.832
	C403.608,340.712,382.168,349.232,356.048,349.688z"/>
<g>
</g>
<g>
</g>
<g>
</g>
<g>
</g>
<g>
</g>
<g>
</g>
<g>
</g>
<g>
</g>
<g>
</g>
<g>
</g>
<g>
</g>
<g>
</g>
<g>
</g>
<g>
</g>
<g>
</g>
</svg>
