<?xml version="1.0" encoding="iso-8859-1"?>
<!-- Generator: Adobe Illustrator 19.0.0, SVG Export Plug-In . SVG Version: 6.00 Build 0)  -->
<svg version="1.1" id="Layer_1" xmlns="http://www.w3.org/2000/svg" xmlns:xlink="http://www.w3.org/1999/xlink" x="0px" y="0px"
	 viewBox="0 0 512 512" style="enable-background:new 0 0 512 512;" xml:space="preserve">
<rect x="171.445" y="154.984" style="fill:#FFD691;" width="33.211" height="55.351"/>
<path style="fill:#FEC76B;" d="M204.656,199.265c22.008,0,39.853,17.845,39.853,39.853l-56.458,22.141l-56.458-22.141
	c0-22.008,17.845-39.853,39.853-39.853H204.656z"/>
<path style="fill:#FAB43E;" d="M179.748,449.477v54.22c0,4.585,3.717,8.303,8.303,8.303c4.585,0,8.303-3.717,8.303-8.303v-54.22
	H179.748z"/>
<path style="fill:#FFD691;" d="M204.656,397.445v52.03c0,6.089-4.982,11.07-11.07,11.07h-5.535h-5.535
	c-6.089,0-11.07-4.982-11.07-11.07v-52.03H204.656z"/>
<g>
	<path style="fill:#FEC76B;" d="M131.592,368.662l56.458-22.141l56.458,22.141c0,22.008-17.845,39.853-39.853,39.853h-33.211
		C149.438,408.515,131.592,390.67,131.592,368.662z"/>
	<rect x="407.807" y="22.141" style="fill:#FEC76B;" width="16.605" height="121.773"/>
	<rect x="87.311" y="141.146" style="fill:#FEC76B;" width="55.351" height="16.605"/>
</g>
<rect x="131.592" y="239.118" style="fill:#FFD691;" width="112.917" height="129.544"/>
<g>
	<rect x="318.691" y="22.141" style="fill:#F53635;" width="64.208" height="121.773"/>
	<rect x="221.261" y="22.141" style="fill:#F53635;" width="64.219" height="121.773"/>
</g>
<g>
	<polygon style="fill:#FAB43E;" points="449.32,33.211 449.32,0 179.748,0 179.748,132.843 131.592,132.843 131.592,166.054 
		449.32,166.054 449.32,132.843 196.353,132.843 196.353,33.211 	"/>
	<path style="fill:#FAB43E;" d="M211.298,376.967h-46.495c-4.585,0-8.303-3.717-8.303-8.303s3.717-8.303,8.303-8.303h46.495
		c4.585,0,8.303,3.717,8.303,8.303S215.884,376.967,211.298,376.967z"/>
	<path style="fill:#FAB43E;" d="M211.298,344.581h-46.495c-4.585,0-8.303-3.717-8.303-8.303s3.717-8.303,8.303-8.303h46.495
		c4.585,0,8.303,3.717,8.303,8.303S215.884,344.581,211.298,344.581z"/>
	<path style="fill:#FAB43E;" d="M211.298,312.194h-46.495c-4.585,0-8.303-3.717-8.303-8.303s3.717-8.303,8.303-8.303h46.495
		c4.585,0,8.303,3.717,8.303,8.303S215.884,312.194,211.298,312.194z"/>
	<path style="fill:#FAB43E;" d="M211.298,279.807h-46.495c-4.585,0-8.303-3.717-8.303-8.303c0-4.585,3.717-8.303,8.303-8.303h46.495
		c4.585,0,8.303,3.717,8.303,8.303C219.601,276.089,215.884,279.807,211.298,279.807z"/>
	<path style="fill:#FAB43E;" d="M211.298,247.421h-46.495c-4.585,0-8.303-3.717-8.303-8.303s3.717-8.303,8.303-8.303h46.495
		c4.585,0,8.303,3.717,8.303,8.303S215.884,247.421,211.298,247.421z"/>
</g>
<path style="fill:#FFD691;" d="M98.381,149.449v16.605H79.285c-9.177,0-16.605-7.439-16.605-16.605s7.428-16.605,16.605-16.605
	h19.096V149.449z"/>
<g>
</g>
<g>
</g>
<g>
</g>
<g>
</g>
<g>
</g>
<g>
</g>
<g>
</g>
<g>
</g>
<g>
</g>
<g>
</g>
<g>
</g>
<g>
</g>
<g>
</g>
<g>
</g>
<g>
</g>
</svg>
