<?xml version="1.0" encoding="iso-8859-1"?>
<!-- Generator: Adobe Illustrator 19.0.0, SVG Export Plug-In . SVG Version: 6.00 Build 0)  -->
<svg version="1.1" id="Capa_1" xmlns="http://www.w3.org/2000/svg" xmlns:xlink="http://www.w3.org/1999/xlink" x="0px" y="0px"
	 viewBox="0 0 512 512" style="enable-background:new 0 0 512 512;" xml:space="preserve">
<path style="fill:#31D1F6;" d="M77.735,49.86c-5.231,5.7-8.694,14.234-12.089,21.11c-5.753,11.651-11.772,23.748-16.142,35.983
	c-7.933,22.213-16.456,45.179-22.927,67.829c-7.508,26.277-12.887,51.846-17.507,78.672c-4.359,25.313,2.061,50.516,11.422,74.026
	c3.613,9.075,14.64,25.671,9.044,35.851c-1.752,3.188-6.042,4.548-7.962,7.865c-3.148,5.44-0.833,10.758-0.498,16.439
	c0.364,6.185-2.379,8.579-5.313,13.509c-3.125,5.253-3.627,11.455-3.01,17.474c1.755,17.132,19.566,13.911,29.272,24.008
	c4.127,4.293,7.217,9.854,12.492,12.933c5.879,3.432,10.996,2.479,17.539,1.531c10.551-1.529,17.638-4.563,27.611-0.139
	c10.364,4.597,18.776,10.511,30.285,12.923c17.082,3.58,34.88,3.802,52.215,2.945c9.16-0.453,17.829-0.863,26.985,0.528
	c11.58,1.76,22.618,4.093,34.416,2.729c22.738-2.627,46.121-11.122,69.068-9.842c23.408,1.305,45.228-0.193,66.853-10.658
	c9.803-4.745,19.235-10.265,30.158-11.758c9.744-1.331,17.993-1.042,27.204-5.276c18.528-8.516,25.209-24.586,30.499-43.323
	c2.544-9.012,5.34-16.643,10.78-24.377c5.038-7.163,8.469-13.114,8.098-22.185c-0.308-7.537-3.48-14.709-0.328-22.185
	c3.499-8.298,11.301-14.08,15.064-22.368c6.795-14.967-6.219-26.098-8.525-40.696c-1.225-7.755-1.993-15.208-1.774-23.17
	c0.201-7.301,2.29-16.135-1.599-22.833c-5.424-9.341-22.625-7.715-24.3-18.604c-1.753-11.399,7.943-21.727,9.848-32.533
	c1.827-10.368-3.485-19.686-3.355-29.92c0.155-12.104,8.344-22.147,9.4-34.109c0.837-9.479-3.592-15.435-8.351-22.694
	c-4.24-6.467-5.689-14.153-9.294-20.793c-3.973-7.316-11.953-13.465-19.8-16.888c-12.32-5.374-24.938,1.364-37.579,0.769
	c-12.751-0.6-22.839-10.742-36.13-9.457c-17.197,1.663-30.527,11.18-48.378,6.248c-10.01-2.766-20.828-3.614-31.089-1.834
	c-9.219,1.599-17.876,8.623-27.268,8.409c-10.494-0.24-19.822-13.269-31.603-11.724c-7.115,0.933-11.197,8.889-18.355,10.473
	c-6.014,1.331-11.42-3.329-16.716-5.584c-9.661-4.113-16.813-2.33-24.883,4.177c-6.408,5.167-11.095,8.136-19.561,7.644
	C130.908,49.78,102.699,30.179,77.735,49.86z"/>
<g>
	<path style="fill:#387BD2;" d="M273.333,328.214c-3.435-2.92-5.277-7.547-6.29-11.931c-1.733-7.494-4.484-14.629-6.41-22.169
		c-4.75-18.591-2.132-43.589,3.96-61.55c5.795-17.085,16.604-32.017,21.318-49.11c4.836-17.536,17.488-31.997,25.796-47.885
		c15.194-29.055,30.4-57.82,45.803-86.731c3.405-6.39,5.972-13.28,13.652-14.553c11.846-1.963,30.875,4.138,22.798,18.074
		c-24.489,42.255-45.247,87.156-65.259,132.006c-12.137,27.201-18.132,55.929-22.146,85.325
		c-1.724,12.622-2.627,24.531-1.028,37.212c0.821,6.514,3.109,13.757,2.868,20.31c-0.241,6.573-1.53,5.738-6.955,5.637
		c-7.699-0.144-16.884,0.199-24.241-2.404C275.725,329.926,274.446,329.16,273.333,328.214z"/>
	<path style="fill:#387BD2;" d="M152.206,400.542c-7.766,9-12.318,25.82-13.896,37.207c-0.992,7.159-0.632,13.949,1.392,20.939
		c2.776,9.583,2.149,10.659-7.614,9.103c-8.259-1.317-17.234-1.708-25.197-4.501c-7.251-2.543-6.349-7.883-7.05-15.103
		c-1.208-12.443,0.495-24.314,4.152-35.974c2.029-6.47,2.456-10.578,9.63-12.504c5.829-1.565,12.659-2.155,18.629-2.453
		C139.346,396.901,145.252,400.668,152.206,400.542z"/>
</g>
<path d="M503.284,313.743c4.248-5.628,8.554-11.097,8.711-18.482c0.146-6.854-2.717-14.393-6.112-20.256
	c-4.509-7.785-13.065-11.783-12.616-21.861c0.599-13.436,7.089-26.66,0.441-39.867c-4.784-9.505-13.246-14.113-22.794-15.186
	c1.7-2.706,3.313-5.376,4.478-8.011c6.385-14.438,11.105-29.655,4.048-44.874c-1.778-3.832-3.763-5.61-2.981-9.606
	c0.619-3.165,3.896-6.831,5.326-9.797c3.959-8.211,7.037-16.56,7.058-25.784c0.017-7.544-1.471-16.022-6.056-22.21
	c-1.737-2.343-4.943-3.696-6.452-5.969c-1.917-2.889-1.487-7.658-2.842-11.061c-5.574-13.984-20.984-26.192-35.841-28.186
	c-9.375-1.258-15.885,1.535-24.57,4.028c-8.285,2.378-19.774-5.845-28.099-7.938c-8.846-2.224-17.319-2.794-26.305-1.113
	c-10.051,1.881-20.222,7.138-30.533,6.247c-18.918-1.635-37.45-10.043-56.187-0.902c-7.164,3.495-11.637,6.633-19.65,2.804
	c-3.255-1.555-5.845-4.265-9.281-5.591c-8.597-3.319-17.93-0.574-25.701,3.651c-0.8,0.435-3.84,2.869-5.081,3.101
	c-4.168,0.78-8.873-2.829-12.487-4.447c-3.753-1.681-7.538-2.798-11.647-3.052c-8.857-0.547-16.041,3.299-22.845,8.596
	c-2.716,2.115-6.041,6.781-9.097,8.074c-4.618,1.955-13.194-3.058-17.049-4.699c-8.205-3.493-16.295-6.338-25.359-5.421
	c-0.402,0.041-0.808,0.122-1.212,0.176c-9.429-1.387-19.399-1.196-28.321,1.98c-9.583,3.411-16.572,11.184-21.21,19.986
	c-6.024,11.435-12.359,22.492-18.11,34.079c-12.619,25.421-23.203,50.433-29.328,78.318c-6.09,27.727-11.13,56.152-14.418,84.357
	c-1.517,13.01-1.769,26.159,0.585,39.09c2.618,14.383,9.162,27.499,13.41,41.391c2.594,8.484,5.379,16.565,10.682,23.247
	c-2.767,1.276-5.559,2.527-7.805,4.818c-3.528,3.599-5.141,8.402-5.616,13.32c-0.701,7.249-0.434,13.359-2.978,20.41
	c-2.526,7.003-6.097,14.193-5.085,21.858c1.449,10.972,8.611,15.666,17.68,20.052c12.216,5.906,17.959,20.478,31.114,24.539
	c5.964,1.841,11.864,0.717,17.862-0.119c9.546-1.331,18.01,0.359,26.794,4.219c14.876,6.537,29.703,11.752,46.201,12.448
	c13.664,0.576,26.751-4.739,40.4-2.395c15.243,2.618,29.428,8.455,45.204,7.618c15.048-0.799,30.426-4.784,45.263-7.382
	c17.629-3.088,34.47,0.478,52.162-0.116c14.942-0.501,29.824-3.17,43.727-8.741c6.776-2.715,13.04-6.23,19.453-9.676
	c9.882-5.31,18.689-7.582,29.767-8.929c12.857-1.563,26.588-2.517,37.212-10.719c8.614-6.65,16.637-18.151,17.832-29.166
	c0.846-7.792-2.214-15.697,3.059-22.361c3.867-4.888,8.487-8.76,11.927-14.108c8.641-13.436,4.05-22.384,1.345-36.682
	c-1.072-5.665-1.233-8.063,2.815-12.687C497.344,321.127,500.377,317.594,503.284,313.743z M403.986,51.734
	c7.039,2.252,10.946-0.286,17.528-2.589c11.493-4.021,21.433-1.229,29.951,7.073c2.777,2.707,6.07,5.745,7.683,9.319
	c1.36,3.016,0.745,6.341,1.676,9.368c2.26,7.347,9.938,9.68,12.181,16.995c2.947,9.614-0.781,19.402-5.11,27.877
	c-2.835,5.548-8.246,11.797-8.183,18.399c0.055,5.715,4.68,9.938,6.557,15.043c2.924,7.949,1.166,16.508-1.935,24.07
	c-6.049,14.751-17.979,27.116-17.396,43.703c0.136,3.852,0.379,4.013-1.278,6.807c-1.008,1.7-2.662,2.532-3.529,4.589
	c-2.505,5.948,1.507,12.069-0.31,18.47c-3.862,13.604-20.274,16.667-18.149,32.747c2.268,17.162-14.806,34.875-32.325,32.566
	c-16.665-2.196-31.22,4.455-47.625,7.162c-10.55,1.741-20.747,1.361-30.904,0.42c-3.682-7.784-5.026-23.265-5.268-26.62
	c-1.094-15.151,1.122-29.526,4.229-44.304c5.835-27.756,15.315-55.164,26.588-81.188c9.974-23.026,20.218-46.047,31.046-68.678
	c5.244-10.961,10.438-22.446,16.296-33.059c3.679-6.665,8.248-13.569,11.802-20.598C399.631,50.189,401.776,51.027,403.986,51.734z
	 M363.383,41.766c5.239-0.585,10.493-0.488,15.905,0.729c5.364,1.206,10.255,3.387,15.18,5.517
	c-6.186,8.239-12.72,16.148-17.459,25.615c-6.322,12.631-13.1,24.973-19.076,37.784c-12.319,26.409-25.351,52.569-35.294,80.016
	c-10.384,28.662-21.596,58.562-23.09,89.372c-0.639,13.187,0.675,25.832,4.384,38.457c0.346,1.178,0.674,2.427,1.029,3.688
	c-9.67-1.075-19.376-2.299-29.387-2.337c-1.032-0.004-2.061,0.003-3.089,0.007c-9.939-21.669-13.835-50.339-7.708-72.143
	c7.607-27.067,17.887-52.588,30.66-77.682c12.426-24.415,24.576-49.145,38.816-72.55c6.919-11.37,13.119-23.178,19.468-34.874
	C357.378,56.629,361.614,49.385,363.383,41.766z M79.881,446.096c-6.745-0.255-14.223,2.921-20.702,1.274
	c-6.947-1.766-10.289-8.656-15.244-13.42c-4.029-3.874-8.545-6.807-13.579-9.175c-6.752-3.176-11.39-4.34-9.054-13.318
	c1.809-6.954,5.355-13.188,6.456-20.37c1.015-6.621-1.724-13.833,4.049-18.501c2.01-1.625,3.922-2.919,5.724-4.365
	c3.181,1.672,6.537,2.981,9.887,4.371c8.257,3.427,13.026,9.243,19.848,14.76c11.275,9.119,23.562,14.266,36.677,16.24
	c-4.648,8.214-6.25,18.939-6.991,27.513c-0.496,5.737-0.452,12.427,0.909,18.677C92.071,447.737,86.039,446.328,79.881,446.096z
	 M107.728,453.642c-2.247-6.639-4.193-13.21-3.968-20.651c0.313-10.325,2.511-19.658,6.294-28.712
	c6.497,0.491,13.18,0.273,20.037-0.602c6.016-0.768,11.578-0.72,16.984-0.163c-7.924,13.19-13.322,25.646-13.747,41.976
	c-0.125,4.809-0.039,11.658,2.074,16.894C125.724,460.716,116.843,457.297,107.728,453.642z M472.935,328.262
	c-2.077,10.743,7.632,20.63,5.411,31.04c-2.511,11.772-16.896,16.979-19.949,28.835c-3.065,11.9,1.537,21.864-6.829,32.458
	c-9.016,11.417-24.5,11.824-37.829,13.858c-13.08,1.996-23.573,6.659-35.129,12.891c-13.243,7.141-26.815,11.972-41.85,13.543
	c-12.375,1.293-24.411,0.191-36.75-0.773c-14.961-1.169-28.723,2.191-43.431,4.233c-12.616,1.752-24.977,5.327-37.809,3.922
	c-13.373-1.464-25.901-6.954-39.383-8.038c-10.883-0.875-21.555,2.979-32.409,3.174c-0.199-0.171-0.416-0.328-0.673-0.45
	c-9.184-4.368-4.823-28.108-3.352-35.129c1.821-8.689,5.9-15.76,9.215-23.635c7.629,1.222,15.126,3.3,23.35,5.394
	c12.994,3.308,24.999,3.654,38.212,1.25c15.18-2.761,29.665-9.432,45.128-10.641c15.665-1.224,31.139,0.854,46.745,1.187
	c16.091,0.343,31.962-3.145,47.529-6.802c16.652-3.912,32.716-3.586,49.534-5.375c2.752-0.293,3.959-4.693,0.715-5.288
	c-10.392-1.907-20.342-4.401-30.975-4.471c-12.846-0.085-24.874,2.703-37.49,4.646c-26.143,4.027-51.763-1.428-77.917,1.119
	c-24.204,2.357-46.91,16.488-71.712,11.623c-11.194-2.196-21.748-6.76-33.111-8.155c-12.973-1.592-25.24,1.761-38.127,1.535
	c-11.837-0.207-22.407-4.247-32.239-10.704c-10.348-6.796-16.608-16.349-28.212-21.592c-13.397-6.054-18.6-12.931-22.872-26.905
	c-3.856-12.613-9.73-24.578-12.608-37.499c-5.966-26.789,1.674-55.873,5.9-82.443c3.91-24.586,9.415-49.312,17.286-72.946
	c6.067-18.219,14.725-35.413,23.294-52.55c4.065-8.129,8.408-16.32,14.571-23.083c9.595-10.529,22.849-16.854,37.074-14.789
	c6.438,0.935,13.755,3.095,20.846,4.315c9.966,5.16,19.289,10.84,29.195,2.348c6.594-5.653,13.101-12.827,22.59-11.32
	c7.855,1.247,13.987,8.466,22.257,8.13c6.766-0.275,11.807-5.889,18.011-7.872c9.78-3.126,15.096,5.191,23.484,8.18
	c6.794,2.421,12.231,0.404,18.553-2.449c9.495-4.284,17.545-6.915,28.224-6.232c9.478,0.607,18.353,4.272,27.783,5.253
	c8.628,0.898,15.637-1.566,23.799-3.812c1.016-0.279,2.026-0.536,3.035-0.783c-9.278,23.458-23.956,44.611-36.213,66.588
	c-14.484,25.967-28.478,53.166-40.353,80.425c-10.141,23.279-22.182,49.104-22.611,74.941c-0.219,13.224,2.165,26.131,6.319,38.648
	c1.65,4.971,3.415,11.177,6.082,16.606c-20.484,0.329-40.329,1.759-60.906-1.65c-10.85-1.797-21.629-4.407-32.576-5.581
	c-8.573-0.919-17.713,0.994-26.196,2.188c-20.364,2.864-39.821,9.221-59.782,13.542c-2.845,0.616-2.251,5.289,0.692,5.117
	c20.078-1.17,39.85-3.885,60.078-3.91c10.535-0.013,19.687-1.063,30.155,0.995c11.201,2.202,22.414,4.537,33.744,5.974
	c22.528,2.855,44.776-0.956,67.377-0.557c21.918,0.386,41.926,6.062,63.952,2.423c9.908-1.637,19.228-3.401,28.748-6.564
	c9.906-3.291,18.528,0.797,28.481-0.736c15.754-2.426,28.253-15.085,35.05-28.943c2.901-5.916,4.531-12.454,3.447-19.014
	c-0.883-5.349-0.592-4.871,3.02-8.885c2.966-3.297,6.232-6.478,8.936-9.988c4.464-5.794,5.935-12.065,6.3-19.281
	c0.07-1.365,0.753-5.443,0.121-7.589c0.736-0.715,1.379-1.631,1.87-2.269c4.569-5.934,1.664-12.616,2.456-19.372
	c0.437-3.724,2.072-7.385,4.104-10.987c11.562,3.627,18.191,12.592,16.681,26.003c-1.238,10.996-7.561,22.801-3.057,33.649
	c4.047,9.747,20.163,19.709,14.889,32.055C489.818,309.032,475.499,315.004,472.935,328.262z"/>
<g>
</g>
<g>
</g>
<g>
</g>
<g>
</g>
<g>
</g>
<g>
</g>
<g>
</g>
<g>
</g>
<g>
</g>
<g>
</g>
<g>
</g>
<g>
</g>
<g>
</g>
<g>
</g>
<g>
</g>
</svg>
