<?xml version="1.0" encoding="iso-8859-1"?>
<!-- Generator: Adobe Illustrator 19.0.0, SVG Export Plug-In . SVG Version: 6.00 Build 0)  -->
<svg version="1.1" id="Layer_1" xmlns="http://www.w3.org/2000/svg" xmlns:xlink="http://www.w3.org/1999/xlink" x="0px" y="0px"
	 viewBox="0 0 437.156 437.156" style="enable-background:new 0 0 437.156 437.156;" xml:space="preserve">
<g>
	<rect x="80.899" y="30.227" style="fill:#4CC18E;" width="275.359" height="376.101"/>
	<path style="fill:#F24125;" d="M218.582,271.027c20.261,0,38.978,6.772,53.955,18.179c-14.966,11.418-33.672,18.19-53.955,18.19
		c-20.272,0-38.978-6.772-53.955-18.19C179.593,277.799,198.298,271.027,218.582,271.027z"/>
	<path style="fill:#F24125;" d="M147.645,164.325c11.407,14.978,18.179,33.683,18.179,53.955s-6.772,38.978-18.179,53.944
		c-11.418-14.966-18.19-33.672-18.19-53.944S136.227,179.303,147.645,164.325z"/>
	<path style="fill:#F24125;" d="M272.537,147.344c-14.978,11.407-33.694,18.179-53.955,18.179c-20.284,0-38.989-6.772-53.955-18.179
		c14.978-11.418,33.683-18.19,53.955-18.19C238.865,129.154,257.571,135.926,272.537,147.344z"/>
	<path style="fill:#F24125;" d="M289.518,164.325c11.407,14.978,18.179,33.683,18.179,53.955s-6.772,38.978-18.179,53.944
		c-11.418-14.966-18.19-33.672-18.19-53.944S278.1,179.303,289.518,164.325z"/>
	<path style="fill:#F7B239;" d="M356.257,119.348v197.866c-49.22,0-89.127,39.896-89.127,89.116h-97.108
		c0-49.22-39.907-89.116-89.127-89.116V119.348c49.22,0,89.127-39.896,89.127-89.116h97.108
		C267.13,79.452,307.037,119.348,356.257,119.348z M307.697,218.281c0-20.272-6.772-38.978-18.179-53.955
		c-4.869-6.392-10.578-12.112-16.981-16.981c-14.966-11.418-33.672-18.19-53.955-18.19c-20.272,0-38.978,6.772-53.955,18.19
		c-6.392,4.869-12.112,10.59-16.981,16.981c-11.418,14.978-18.19,33.683-18.19,53.955s6.772,38.978,18.19,53.944
		c4.869,6.403,10.59,12.123,16.981,16.981c14.978,11.418,33.683,18.19,53.955,18.19c20.284,0,38.989-6.772,53.955-18.19
		c6.403-4.869,12.112-10.578,16.981-16.981C300.925,257.258,307.697,238.553,307.697,218.281z"/>
	<path style="fill:#F7B239;" d="M272.537,147.344c6.403,4.869,12.112,10.59,16.981,16.981c-11.418,14.978-18.19,33.683-18.19,53.955
		s6.772,38.978,18.19,53.944c-4.869,6.403-10.578,12.112-16.981,16.981c-14.978-11.407-33.694-18.179-53.955-18.179
		c-20.284,0-38.989,6.772-53.955,18.179c-6.392-4.858-12.112-10.578-16.981-16.981c11.407-14.966,18.179-33.672,18.179-53.944
		s-6.772-38.978-18.179-53.955c4.869-6.392,10.59-12.112,16.981-16.981c14.966,11.407,33.672,18.179,53.955,18.179
		C238.843,165.523,257.559,158.751,272.537,147.344z M239.447,218.281c0-11.53-9.347-20.866-20.866-20.866
		c-11.53,0-20.866,9.336-20.866,20.866c0,11.519,9.336,20.866,20.866,20.866C230.1,239.146,239.447,229.799,239.447,218.281z"/>
	<path style="fill:#F24125;" d="M218.582,197.415c11.519,0,20.866,9.336,20.866,20.866c0,11.519-9.347,20.866-20.866,20.866
		c-11.53,0-20.866-9.347-20.866-20.866C197.716,206.751,207.052,197.415,218.582,197.415z"/>
	<path style="fill:#333333;" d="M218.582,245.146c-14.814,0-26.866-12.052-26.866-26.865c0-14.814,12.052-26.866,26.866-26.866
		s26.866,12.052,26.866,26.866C245.447,233.094,233.396,245.146,218.582,245.146z M218.582,203.415
		c-8.197,0-14.866,6.669-14.866,14.866s6.669,14.865,14.866,14.865s14.866-6.668,14.866-14.865S226.779,203.415,218.582,203.415z"/>
	<path style="fill:#333333;" d="M294.291,160.689c-5.216-6.846-11.313-12.943-18.115-18.116
		c-16.653-12.704-36.569-19.419-57.594-19.419c-21.013,0-40.928,6.715-57.591,19.417c-6.824,5.199-12.92,11.295-18.117,18.117
		c-12.704,16.665-19.419,36.58-19.419,57.593c0,21.018,6.715,40.93,19.415,57.576c5.2,6.838,11.299,12.937,18.12,18.121
		c16.664,12.704,36.579,19.418,57.593,19.418c21.026,0,40.942-6.715,57.587-19.414c6.831-5.195,12.929-11.293,18.125-18.125
		c12.693-16.657,19.403-36.567,19.403-57.576C313.697,197.274,306.987,177.359,294.291,160.689z M261.912,147.34
		c-13.007,7.984-27.824,12.183-43.331,12.183c-15.515,0-30.332-4.198-43.331-12.18c13.004-7.988,27.82-12.189,43.331-12.189
		C234.098,135.154,248.913,139.353,261.912,147.34z M135.455,218.281c0-15.51,4.2-30.325,12.188-43.329
		c7.983,13.007,12.181,27.823,12.181,43.329c0,15.51-4.198,30.324-12.182,43.323C139.655,248.608,135.455,233.794,135.455,218.281z
		 M175.251,289.207c12.999-7.982,27.816-12.18,43.331-12.18c15.507,0,30.324,4.199,43.331,12.183
		c-12.995,7.987-27.812,12.186-43.331,12.186C203.072,301.396,188.257,297.196,175.251,289.207z M272.327,281.666
		c-15.851-10.894-34.329-16.639-53.746-16.639c-19.428,0-37.906,5.745-53.748,16.639c-3.473-2.943-6.699-6.169-9.648-9.649
		c10.893-15.841,16.638-34.316,16.638-53.736c0-19.417-5.745-37.894-16.637-53.744c2.948-3.474,6.176-6.701,9.65-9.65
		c15.841,10.892,34.318,16.636,53.744,16.636c19.417,0,37.895-5.745,53.746-16.639c3.468,2.941,6.694,6.169,9.648,9.651
		c-10.9,15.846-16.648,34.324-16.648,53.746c0,19.426,5.748,37.901,16.648,53.737C279.03,275.493,275.804,278.719,272.327,281.666z
		 M289.516,261.604c-7.988-12.995-12.188-27.809-12.188-43.323c0-15.51,4.2-30.326,12.188-43.329
		c7.983,13.007,12.182,27.823,12.182,43.329C301.697,233.791,297.499,248.604,289.516,261.604z"/>
	<path style="fill:#333333;" d="M362.257,30.246c0-0.007,0.001-0.013,0.001-0.019V6c0-3.313-2.687-6-6-6s-6,2.687-6,6v18.232
		h-18.595V6c0-3.313-2.687-6-6-6s-6,2.687-6,6v18.232h-18.596V6c0-3.313-2.687-6-6-6s-6,2.687-6,6v18.232h-18.595V6
		c0-3.313-2.687-6-6-6s-6,2.687-6,6v18.232h-18.596V6c0-3.313-2.687-6-6-6s-6,2.687-6,6v18.232H209.28V6c0-3.313-2.687-6-6-6
		s-6,2.687-6,6v18.232h-18.595V6c0-3.313-2.687-6-6-6s-6,2.687-6,6v18.232h-18.596V6c0-3.313-2.687-6-6-6s-6,2.687-6,6v18.232
		h-18.595V6c0-3.313-2.687-6-6-6s-6,2.687-6,6v18.232H86.899V6c0-3.313-2.687-6-6-6s-6,2.687-6,6v24.164
		c0,0.023-0.003,0.045-0.003,0.068v376.097c0,0.112,0.011,0.222,0.017,0.333c-0.004,0.089-0.013,0.176-0.013,0.266v24.228
		c0,3.313,2.687,6,6,6s6-2.687,6-6V412.33h18.596v18.826c0,3.313,2.687,6,6,6s6-2.687,6-6V412.33h18.595v18.826c0,3.313,2.687,6,6,6
		s6-2.687,6-6V412.33h18.596v18.826c0,3.313,2.687,6,6,6s6-2.687,6-6V412.33h18.595v18.826c0,3.313,2.687,6,6,6s6-2.687,6-6V412.33
		h18.596v18.826c0,3.313,2.687,6,6,6s6-2.687,6-6V412.33h18.596v18.826c0,3.313,2.687,6,6,6s6-2.687,6-6V412.33h18.595v18.826
		c0,3.313,2.687,6,6,6s6-2.687,6-6V412.33h18.596v18.826c0,3.313,2.687,6,6,6s6-2.687,6-6V412.33h18.595v18.826c0,3.313,2.687,6,6,6
		s6-2.687,6-6v-24.228c0-0.104-0.01-0.206-0.016-0.309c0.005-0.097,0.015-0.192,0.015-0.29V30.246H362.257z M350.257,36.232v76.875
		c-41.059-2.945-73.94-35.822-76.887-76.875C273.37,36.232,350.257,36.232,350.257,36.232z M163.782,36.232
		c-2.946,41.053-35.828,73.93-76.887,76.875V36.232H163.782z M86.895,400.329v-76.875c41.059,2.945,73.94,35.822,76.887,76.875
		H86.895z M175.827,400.329c-2.983-47.677-41.249-85.938-88.932-88.921V125.153c47.683-2.982,85.949-41.244,88.932-88.921h85.497
		c2.983,47.677,41.249,85.938,88.932,88.921v186.255c-47.683,2.982-85.949,41.244-88.932,88.921H175.827z M273.37,400.329
		c2.946-41.053,35.828-73.93,76.887-76.875v76.875H273.37z"/>
	<g>
		<g>
			<path style="fill:#333333;" d="M115.969,70.176c-0.39,0-0.79-0.04-1.18-0.12c-0.38-0.08-0.76-0.19-1.12-0.34
				s-0.71-0.34-1.03-0.56c-0.33-0.21-0.64-0.47-0.92-0.74c-0.27-0.28-0.52-0.58-0.74-0.91s-0.4-0.68-0.55-1.04s-0.27-0.74-0.35-1.12
				c-0.07-0.39-0.11-0.78-0.11-1.17s0.04-0.79,0.11-1.18c0.08-0.38,0.2-0.76,0.35-1.12s0.33-0.71,0.55-1.03
				c0.22-0.33,0.47-0.64,0.74-0.92c0.28-0.27,0.59-0.52,0.92-0.74c0.32-0.22,0.67-0.4,1.03-0.55s0.74-0.27,1.12-0.35
				c0.78-0.15,1.58-0.15,2.35,0c0.38,0.08,0.76,0.2,1.12,0.35c0.36,0.15,0.71,0.33,1.04,0.55c0.33,0.22,0.63,0.47,0.91,0.74
				c1.12,1.12,1.76,2.67,1.76,4.25c0,1.57-0.64,3.12-1.76,4.24c-0.28,0.27-0.58,0.53-0.91,0.74c-0.33,0.22-0.68,0.41-1.04,0.56
				c-0.36,0.15-0.74,0.26-1.12,0.34C116.75,70.136,116.36,70.176,115.969,70.176z"/>
			<path style="fill:#333333;" d="M321.19,70.176c-0.39,0-0.78-0.04-1.17-0.12c-0.38-0.08-0.76-0.19-1.12-0.34
				c-0.37-0.15-0.72-0.34-1.04-0.56c-0.33-0.21-0.64-0.47-0.91-0.74c-0.28-0.28-0.53-0.59-0.75-0.91c-0.21-0.33-0.4-0.68-0.55-1.04
				c-0.15-0.36-0.26-0.74-0.34-1.12c-0.08-0.39-0.12-0.78-0.12-1.17s0.04-0.79,0.12-1.18c0.08-0.38,0.19-0.76,0.34-1.12
				c0.15-0.36,0.34-0.71,0.55-1.04c0.22-0.32,0.47-0.63,0.75-0.91c0.27-0.27,0.58-0.52,0.91-0.74c0.32-0.22,0.67-0.4,1.04-0.55
				c0.36-0.15,0.74-0.27,1.12-0.35c1.95-0.39,4.02,0.25,5.41,1.64c0.28,0.28,0.53,0.59,0.75,0.91c0.22,0.33,0.4,0.68,0.55,1.04
				c0.15,0.36,0.27,0.74,0.34,1.12c0.08,0.39,0.12,0.79,0.12,1.18s-0.04,0.78-0.12,1.17c-0.07,0.38-0.19,0.76-0.34,1.12
				c-0.15,0.36-0.33,0.71-0.55,1.04c-0.22,0.32-0.47,0.63-0.75,0.91C324.32,69.536,322.77,70.176,321.19,70.176z"/>
		</g>
		<g>
			<path style="fill:#333333;" d="M115.969,378.386c-0.39,0-0.79-0.04-1.18-0.12c-0.38-0.08-0.76-0.19-1.12-0.34
				s-0.71-0.34-1.03-0.56c-0.33-0.21-0.64-0.47-0.92-0.74c-0.27-0.28-0.52-0.58-0.74-0.91c-0.22-0.33-0.4-0.68-0.55-1.04
				c-0.15-0.36-0.27-0.74-0.35-1.12c-0.07-0.39-0.11-0.78-0.11-1.17c0-0.4,0.04-0.79,0.11-1.18c0.08-0.38,0.2-0.76,0.35-1.12
				s0.33-0.71,0.55-1.04c0.22-0.32,0.47-0.63,0.74-0.91c0.28-0.27,0.59-0.52,0.92-0.74c0.32-0.22,0.67-0.4,1.03-0.56
				c0.36-0.15,0.74-0.26,1.12-0.34c0.78-0.15,1.58-0.15,2.35,0c0.38,0.08,0.76,0.19,1.12,0.34c0.36,0.16,0.71,0.34,1.04,0.56
				s0.63,0.47,0.91,0.74c1.12,1.12,1.76,2.67,1.76,4.25c0,1.57-0.64,3.12-1.76,4.24c-0.28,0.27-0.58,0.53-0.91,0.74
				c-0.33,0.22-0.68,0.41-1.04,0.56s-0.74,0.26-1.12,0.34C116.75,378.346,116.36,378.386,115.969,378.386z"/>
			<path style="fill:#333333;" d="M321.19,378.386c-0.39,0-0.78-0.04-1.17-0.12c-0.38-0.08-0.76-0.19-1.12-0.34
				c-0.37-0.15-0.72-0.34-1.04-0.56c-0.33-0.22-0.64-0.47-0.91-0.74c-0.28-0.28-0.53-0.59-0.75-0.91c-0.21-0.33-0.4-0.68-0.55-1.04
				c-0.15-0.36-0.26-0.74-0.34-1.12c-0.08-0.39-0.12-0.78-0.12-1.17s0.04-0.79,0.12-1.18c0.08-0.38,0.19-0.76,0.34-1.12
				c0.15-0.36,0.34-0.71,0.55-1.04c0.22-0.32,0.47-0.63,0.75-0.91c0.27-0.27,0.58-0.53,0.91-0.74c0.32-0.22,0.67-0.41,1.04-0.56
				c0.36-0.15,0.74-0.26,1.12-0.34c1.95-0.39,4.02,0.25,5.41,1.64c0.28,0.28,0.53,0.59,0.75,0.91c0.22,0.33,0.4,0.68,0.55,1.04
				c0.15,0.36,0.27,0.74,0.34,1.12c0.08,0.39,0.12,0.79,0.12,1.18s-0.04,0.78-0.12,1.17c-0.07,0.38-0.19,0.76-0.34,1.12
				c-0.15,0.36-0.33,0.71-0.55,1.04c-0.22,0.32-0.47,0.63-0.75,0.91C324.32,377.736,322.77,378.386,321.19,378.386z"/>
		</g>
	</g>
	<g>
		<g>
			<path style="fill:#333333;" d="M115.969,158.106c-0.39,0-0.79-0.04-1.18-0.11c-0.38-0.08-0.76-0.2-1.12-0.35
				c-0.36-0.15-0.71-0.33-1.03-0.55c-0.33-0.22-0.64-0.47-0.92-0.74c-0.27-0.28-0.52-0.59-0.74-0.92c-0.22-0.32-0.4-0.67-0.55-1.03
				s-0.27-0.74-0.35-1.12c-0.07-0.39-0.11-0.79-0.11-1.18s0.04-0.78,0.11-1.17c0.08-0.38,0.2-0.76,0.35-1.12s0.33-0.71,0.55-1.04
				c0.22-0.33,0.47-0.63,0.74-0.91c0.28-0.27,0.59-0.53,0.92-0.74c0.32-0.22,0.67-0.41,1.03-0.56s0.74-0.26,1.12-0.34
				c0.78-0.15,1.58-0.15,2.35,0c0.38,0.08,0.76,0.19,1.12,0.34s0.71,0.34,1.04,0.56c0.33,0.21,0.63,0.47,0.91,0.74
				c1.12,1.12,1.76,2.67,1.76,4.24c0,1.58-0.64,3.13-1.76,4.25c-0.28,0.27-0.58,0.52-0.91,0.74s-0.68,0.4-1.04,0.55
				c-0.36,0.15-0.74,0.27-1.12,0.35C116.75,158.066,116.36,158.106,115.969,158.106z"/>
			<path style="fill:#333333;" d="M321.19,158.106c-0.39,0-0.79-0.03-1.17-0.11s-0.76-0.19-1.12-0.34
				c-0.37-0.15-0.72-0.34-1.04-0.56c-0.33-0.21-0.64-0.47-0.91-0.74c-1.12-1.12-1.76-2.67-1.76-4.24c0-0.4,0.04-0.79,0.12-1.18
				c0.08-0.38,0.19-0.76,0.34-1.12c0.15-0.36,0.34-0.71,0.55-1.04c0.22-0.32,0.47-0.63,0.75-0.91c0.27-0.27,0.58-0.53,0.91-0.74
				c0.32-0.22,0.67-0.41,1.04-0.56c0.36-0.15,0.74-0.26,1.12-0.34c1.95-0.39,4.02,0.25,5.41,1.64c0.28,0.28,0.53,0.59,0.75,0.91
				c0.22,0.33,0.4,0.68,0.55,1.04c0.15,0.36,0.27,0.74,0.34,1.12c0.08,0.39,0.12,0.78,0.12,1.18c0,1.58-0.64,3.12-1.76,4.24
				C324.32,157.466,322.77,158.106,321.19,158.106z"/>
		</g>
		<g>
			<path style="fill:#333333;" d="M115.969,290.446c-0.39,0-0.79-0.04-1.18-0.12c-0.38-0.08-0.76-0.19-1.12-0.34
				s-0.71-0.34-1.03-0.55c-0.33-0.22-0.64-0.47-0.92-0.75c-0.27-0.28-0.52-0.58-0.74-0.91c-0.22-0.33-0.4-0.68-0.55-1.04
				c-0.15-0.36-0.27-0.74-0.35-1.12c-0.07-0.39-0.11-0.78-0.11-1.17s0.04-0.79,0.11-1.17c0.08-0.39,0.2-0.77,0.35-1.13
				c0.15-0.36,0.33-0.71,0.55-1.03c0.22-0.33,0.47-0.64,0.74-0.91c0.28-0.28,0.59-0.53,0.92-0.75c0.32-0.22,0.67-0.4,1.03-0.55
				s0.74-0.27,1.12-0.35c0.78-0.15,1.58-0.15,2.35,0c0.38,0.08,0.76,0.2,1.12,0.35s0.71,0.33,1.04,0.55s0.63,0.47,0.91,0.75
				c1.12,1.11,1.76,2.66,1.76,4.24s-0.64,3.12-1.76,4.24c-0.28,0.28-0.58,0.53-0.91,0.75c-0.33,0.21-0.68,0.4-1.04,0.55
				s-0.74,0.26-1.12,0.34C116.75,290.406,116.36,290.446,115.969,290.446z"/>
			<path style="fill:#333333;" d="M321.19,290.446c-0.39,0-0.78-0.04-1.17-0.12c-0.38-0.08-0.76-0.19-1.12-0.34
				c-0.37-0.15-0.72-0.34-1.04-0.55c-0.33-0.22-0.64-0.47-0.91-0.75c-0.28-0.28-0.53-0.58-0.75-0.91c-0.21-0.33-0.4-0.68-0.55-1.04
				c-0.15-0.36-0.26-0.74-0.34-1.12c-0.08-0.39-0.12-0.78-0.12-1.17c0-1.58,0.64-3.13,1.76-4.25c0.27-0.27,0.58-0.52,0.91-0.74
				c0.32-0.22,0.67-0.4,1.04-0.55c0.36-0.15,0.74-0.27,1.12-0.35c1.95-0.39,4.02,0.25,5.41,1.64c1.12,1.12,1.76,2.67,1.76,4.25
				c0,0.39-0.04,0.78-0.12,1.17c-0.07,0.38-0.19,0.76-0.34,1.12c-0.15,0.36-0.33,0.71-0.55,1.04c-0.22,0.33-0.47,0.63-0.75,0.91
				C324.32,289.806,322.77,290.446,321.19,290.446z"/>
		</g>
	</g>
</g>
<g>
</g>
<g>
</g>
<g>
</g>
<g>
</g>
<g>
</g>
<g>
</g>
<g>
</g>
<g>
</g>
<g>
</g>
<g>
</g>
<g>
</g>
<g>
</g>
<g>
</g>
<g>
</g>
<g>
</g>
</svg>
