<?xml version="1.0" encoding="iso-8859-1"?>
<!-- Generator: Adobe Illustrator 19.0.0, SVG Export Plug-In . SVG Version: 6.00 Build 0)  -->
<svg version="1.1" id="Layer_1" xmlns="http://www.w3.org/2000/svg" xmlns:xlink="http://www.w3.org/1999/xlink" x="0px" y="0px"
	 viewBox="0 0 512 512" style="enable-background:new 0 0 512 512;" xml:space="preserve">
<g>
	<g>
		<path style="fill:#C7CBC7;" d="M256,402.286c-5.056,0-9.143-4.096-9.143-9.143v-36.571c0-5.047,4.087-9.143,9.143-9.143
			c5.056,0,9.143,4.096,9.143,9.143v36.571C265.143,398.19,261.056,402.286,256,402.286"/>
		<path style="fill:#C7CBC7;" d="M402.13,428.944c-0.055-0.631-0.183-1.216-0.366-1.81c-0.165-0.558-0.347-1.088-0.613-1.591
			c-0.265-0.521-0.594-0.969-0.96-1.426c-0.366-0.466-0.741-0.887-1.189-1.28c-0.43-0.366-0.896-0.658-1.399-0.942
			c-0.539-0.311-1.079-0.567-1.682-0.768c-0.265-0.082-0.457-0.265-0.722-0.32l-118.857-27.429
			c-4.91-1.125-9.829,1.929-10.971,6.848c-1.134,4.928,1.938,9.829,6.857,10.971l1.49,0.338c-2.139,0.137-4.261,0.933-5.897,2.569
			c-3.575,3.575-3.575,9.362,0,12.928l27.429,27.429c1.783,1.792,4.123,2.679,6.464,2.679s4.681-0.887,6.464-2.679
			c3.575-3.566,3.575-9.353,0-12.928l-27.429-27.429c-0.64-0.64-1.417-1.033-2.176-1.445L384,436.99v11.008
			c0,5.047,4.087,9.143,9.143,9.143c5.056,0,9.143-4.096,9.143-9.143v-18.286C402.286,429.438,402.158,429.21,402.13,428.944"/>
		<path style="fill:#C7CBC7;" d="M238.282,411.539l1.481-0.338c4.928-1.143,7.991-6.053,6.857-10.971
			c-1.143-4.919-6.043-7.973-10.962-6.857l-118.857,27.429c-0.265,0.064-0.466,0.247-0.722,0.329
			c-0.603,0.201-1.143,0.457-1.682,0.768c-0.503,0.283-0.969,0.576-1.399,0.942c-0.448,0.384-0.823,0.814-1.189,1.28
			c-0.366,0.457-0.695,0.905-0.96,1.417c-0.265,0.512-0.448,1.033-0.613,1.591c-0.183,0.603-0.311,1.189-0.366,1.819
			c-0.027,0.265-0.155,0.494-0.155,0.768v18.286c0,5.047,4.087,9.143,9.143,9.143s9.143-4.096,9.143-9.143v-11.008l105.426-24.338
			c-0.759,0.421-1.536,0.814-2.176,1.454l-27.429,27.429c-3.575,3.575-3.575,9.353,0,12.928c1.783,1.783,4.123,2.679,6.464,2.679
			s4.681-0.896,6.464-2.679l27.429-27.429c3.575-3.575,3.575-9.353,0-12.928C242.543,412.472,240.422,411.676,238.282,411.539"/>
	</g>
	<g>
		<path style="fill:#61B972;" d="M384,155.429v118.857H128V155.429h-27.429c-15.15,0-27.429,12.279-27.429,27.429v91.429v27.429
			c0,15.15,12.279,27.429,27.429,27.429H128h256h27.429c15.15,0,27.429-12.279,27.429-27.429v-27.429v-91.429
			c0-15.15-12.279-27.429-27.429-27.429H384z"/>
		<polygon style="fill:#61B972;" points="128,274.286 384,274.286 384,54.857 128,54.857 		"/>
	</g>
	<polygon style="fill:#88C057;" points="128,274.286 384,274.286 384,109.714 128,109.714 	"/>
	<g>
		<polygon style="fill:#B0B6BB;" points="237.714,356.571 274.286,356.571 274.286,329.143 237.714,329.143 		"/>
		<polygon style="fill:#B0B6BB;" points="237.714,420.571 274.286,420.571 274.286,393.143 237.714,393.143 		"/>
	</g>
	<path style="fill:#88C057;" d="M365.714,73.143H146.286c-20.197,0-36.571-16.375-36.571-36.571S126.089,0,146.286,0h219.429
		c20.197,0,36.571,16.375,36.571,36.571S385.911,73.143,365.714,73.143"/>
	<g>
		<path style="fill:#38454F;" d="M146.286,480c0,17.673-14.327,32-32,32s-32-14.327-32-32s14.327-32,32-32
			S146.286,462.327,146.286,480"/>
		<path style="fill:#38454F;" d="M429.714,480c0,17.673-14.327,32-32,32s-32-14.327-32-32s14.327-32,32-32
			S429.714,462.327,429.714,480"/>
		<path style="fill:#38454F;" d="M237.714,480c0,17.673-14.327,32-32,32s-32-14.327-32-32s14.327-32,32-32
			S237.714,462.327,237.714,480"/>
		<path style="fill:#38454F;" d="M338.286,480c0,17.673-14.327,32-32,32c-17.673,0-32-14.327-32-32s14.327-32,32-32
			C323.959,448,338.286,462.327,338.286,480"/>
	</g>
</g>
<g>
</g>
<g>
</g>
<g>
</g>
<g>
</g>
<g>
</g>
<g>
</g>
<g>
</g>
<g>
</g>
<g>
</g>
<g>
</g>
<g>
</g>
<g>
</g>
<g>
</g>
<g>
</g>
<g>
</g>
</svg>
