<?xml version="1.0" encoding="iso-8859-1"?>
<!-- Generator: Adobe Illustrator 19.0.0, SVG Export Plug-In . SVG Version: 6.00 Build 0)  -->
<svg version="1.1" id="Capa_1" xmlns="http://www.w3.org/2000/svg" xmlns:xlink="http://www.w3.org/1999/xlink" x="0px" y="0px"
	 viewBox="0 0 512.074 512.074" style="enable-background:new 0 0 512.074 512.074;" xml:space="preserve">
<path style="fill:#F2F2F2;" d="M447.022,512.074l29.867-25.6c9.6-8.533,16-21.333,16-35.2c0-13.867-4.267-26.667-13.867-36.267
	l-13.867-14.933l-17.067,17.067l13.867,14.933c5.333,5.333,7.467,11.733,7.467,19.2s-3.2,13.867-8.533,18.133l-30.933,27.733
	L447.022,512.074z"/>
<path style="fill:#40596B;" d="M353.155,61.941c-5.333-4.267-13.867-3.2-18.133,2.133l-7.467,10.667l13.867,24.533l13.867-18.133
	C359.555,74.741,358.488,66.207,353.155,61.941z"/>
<path style="fill:#FFD15C;" d="M385.155,104.607c4.267-5.333,3.2-13.867-2.133-18.133c-5.333-4.267-13.867-3.2-18.133,2.133
	l-17.067,21.333l13.867,24.533L385.155,104.607z"/>
<path style="fill:#40596B;" d="M467.288,388.341l-32,32l12.8,12.8c3.2,3.2,8.533,3.2,11.733,0l20.267-20.267
	c3.2-3.2,3.2-8.533,0-11.733L467.288,388.341z"/>
<polygon style="fill:#CDD6E0;" points="288.088,495.007 308.355,472.607 45.955,15.007 9.688,17.141 "/>
<path style="fill:#FF7058;" d="M337.155,249.674l-30.933-52.267c-3.2-4.267-8.533-6.4-12.8-3.2l-22.4,12.8l40.533,68.267l22.4-12.8
	C339.288,260.341,340.355,253.941,337.155,249.674z"/>
<path style="fill:#E8EAEA;" d="M278.488,504.607L2.222,37.407c-4.267-6.4-2.133-14.933,4.267-18.133
	c6.4-4.267,14.933-2.133,18.133,4.267l276.267,467.2c3.2,6.4,2.133,14.933-4.267,18.133
	C290.222,513.141,282.755,511.007,278.488,504.607z"/>
<path style="fill:#4CDBC4;" d="M511.022,324.341c-1.067-4.267-2.133-8.533-3.2-13.867C467.288,138.741,313.688,15.007,136.622,5.407
	l-86.4-5.333c-9.6-1.067-16,9.6-10.667,18.133l268.8,454.4l27.733-4.267l4.267,6.4c9.6,17.067,33.067,20.267,46.933,5.333
	l113.067-115.2C509.955,354.207,514.222,339.274,511.022,324.341z M355.288,322.207c0,0,0-1.067-1.067-1.067l-80-135.467
	c-25.6-42.667,26.667-89.6,66.133-58.667c0,0,69.333,46.933,108.8,145.067C473.688,331.807,389.422,376.607,355.288,322.207z"/>
<g>
</g>
<g>
</g>
<g>
</g>
<g>
</g>
<g>
</g>
<g>
</g>
<g>
</g>
<g>
</g>
<g>
</g>
<g>
</g>
<g>
</g>
<g>
</g>
<g>
</g>
<g>
</g>
<g>
</g>
</svg>
