<?xml version="1.0" encoding="iso-8859-1"?>
<!-- Generator: Adobe Illustrator 19.0.0, SVG Export Plug-In . SVG Version: 6.00 Build 0)  -->
<svg version="1.1" id="Capa_1" xmlns="http://www.w3.org/2000/svg" xmlns:xlink="http://www.w3.org/1999/xlink" x="0px" y="0px"
	 viewBox="0 0 512 512" style="enable-background:new 0 0 512 512;" xml:space="preserve">
<g>
	<g>
		<polygon style="fill:#9ADFEF;" points="104.375,377.198 93.968,126.762 92.391,88.794 38.076,308.832 101.984,414.588 		"/>
		<polygon style="fill:#9ADFEF;" points="163.947,101.181 93.968,126.762 104.375,377.198 101.984,414.588 99.162,458.806 
			236.576,458.806 215.85,225.971 231.639,198.538 179.717,176.453 210.222,126.327 154.956,144.334 		"/>
	</g>
	<polygon style="fill:#5F8ACE;" points="93.968,126.762 163.947,101.181 173.812,53.827 92.391,88.794 	"/>
	<g>
		<path style="fill:#9ADFEF;" d="M163.947,101.181l-8.991,43.154l55.266-18.007l16.71-27.462
			c-5.872-15.588-10.482-31.995-11.896-46.779c-1.697-17.743,1.209-33.152,12.057-42.023l-52.059,37.913l-1.221,5.851
			L163.947,101.181z"/>
		<path style="fill:#9ADFEF;" d="M210.222,126.327l-30.505,50.126l51.922,22.085L256,156.212
			c-7.979-11.253-20.021-33.333-29.068-57.347L210.222,126.327z"/>
		<path style="fill:#9ADFEF;" d="M285.066,98.865c-9.047,24.013-21.089,46.094-29.066,57.347l-24.361,42.326l-15.789,27.434
			l116.434-49.518l-30.505-50.126L285.066,98.865z"/>
		<path style="fill:#9ADFEF;" d="M285.066,98.865l16.712,27.462l55.264,18.009l-8.567-41.125l-10.289-49.384l-1.219-5.851
			l-52.06-37.913c10.848,8.871,13.754,24.28,12.057,42.023C295.549,66.871,290.938,83.275,285.066,98.865z"/>
	</g>
	<polygon style="fill:#5F8ACE;" points="348.475,103.211 417.953,128.612 419.607,88.794 338.186,53.827 	"/>
	<g>
		<polygon style="fill:#9ADFEF;" points="417.953,128.612 348.475,103.211 357.042,144.336 301.778,126.327 332.283,176.453 
			215.85,225.973 236.576,458.806 276.033,458.806 319.227,458.806 412.834,458.806 410.014,414.588 407.628,377.198 		"/>
		<polygon style="fill:#9ADFEF;" points="417.953,128.612 407.628,377.198 410.014,414.588 473.924,308.832 419.607,88.794 		"/>
	</g>
	<g>
		<polygon style="fill:#5F8ACE;" points="236.576,458.806 99.162,458.806 96.405,501.999 240.422,501.999 		"/>
		<polygon style="fill:#5F8ACE;" points="236.576,458.806 240.422,501.999 276.033,501.999 276.033,458.806 		"/>
		<rect x="276.03" y="458.81" style="fill:#5F8ACE;" width="43.19" height="43.19"/>
		<polygon style="fill:#5F8ACE;" points="319.227,458.806 319.227,501.999 415.593,501.996 412.834,458.806 		"/>
		<path style="fill:#5F8ACE;" d="M215.035,52.086h81.928c1.697-17.743-1.209-33.152-12.057-42.023C275.574,10.063,268.973,10,256,10
			c-12.972,0-19.576,0.063-28.908,0.063C216.244,18.934,213.338,34.343,215.035,52.086z"/>
	</g>
	<path style="fill:#E7526A;" d="M296.963,52.086h-81.928c1.414,14.785,6.024,31.191,11.898,46.779
		c9.045,24.013,21.087,46.094,29.066,57.347c7.978-11.253,20.02-33.333,29.066-57.347C290.938,83.275,295.549,66.871,296.963,52.086
		z"/>
</g>
<path d="M483.633,306.436L429.315,86.398c-0.007-0.025-0.017-0.049-0.022-0.075c-0.076-0.297-0.162-0.591-0.265-0.878
	c-0.019-0.051-0.04-0.099-0.059-0.149c-0.085-0.227-0.178-0.45-0.278-0.67c-0.047-0.103-0.098-0.204-0.147-0.305
	c-0.083-0.166-0.172-0.33-0.265-0.491c-0.058-0.101-0.113-0.203-0.174-0.301c-0.145-0.232-0.295-0.459-0.457-0.679
	c-0.057-0.075-0.117-0.145-0.175-0.218c-0.124-0.159-0.251-0.315-0.386-0.467c-0.072-0.082-0.147-0.161-0.223-0.24
	c-0.136-0.144-0.275-0.282-0.42-0.417c-0.068-0.064-0.137-0.13-0.207-0.193c-0.201-0.178-0.408-0.349-0.624-0.512
	c-0.017-0.012-0.032-0.026-0.048-0.038c-0.238-0.176-0.486-0.341-0.741-0.498c-0.063-0.038-0.128-0.072-0.19-0.109
	c-0.189-0.109-0.382-0.215-0.58-0.313c-0.09-0.045-0.182-0.087-0.272-0.13c-0.077-0.036-0.151-0.076-0.229-0.109l-76.638-32.913
	l-0.157-0.756c-0.507-2.429-1.898-4.583-3.904-6.044L290.793,1.98c-0.035-0.025-0.072-0.046-0.107-0.07
	c-0.18-0.128-0.365-0.247-0.553-0.362c-0.086-0.053-0.17-0.11-0.258-0.16c-0.228-0.131-0.463-0.251-0.701-0.364
	c-0.138-0.065-0.277-0.123-0.416-0.181c-0.18-0.074-0.357-0.15-0.54-0.214c-0.147-0.052-0.294-0.093-0.442-0.137
	c-0.145-0.043-0.288-0.088-0.434-0.125c-0.152-0.038-0.305-0.069-0.458-0.1c-0.148-0.03-0.296-0.058-0.446-0.081
	c-0.148-0.023-0.297-0.042-0.447-0.058c-0.158-0.018-0.316-0.03-0.477-0.04c-0.142-0.009-0.283-0.016-0.425-0.019
	c-0.061-0.001-0.122-0.008-0.183-0.008c-4.27,0-7.967-0.013-11.967-0.027C268.199,0.019,263.033,0,256,0
	c-7.033,0-12.199,0.019-16.939,0.036c-4.002,0.014-7.699,0.027-11.969,0.027c-0.061,0-0.123,0.007-0.184,0.008
	c-0.141,0.002-0.281,0.01-0.422,0.019c-0.161,0.01-0.321,0.023-0.48,0.04c-0.148,0.016-0.297,0.035-0.443,0.058
	c-0.152,0.023-0.301,0.052-0.451,0.082c-0.151,0.03-0.303,0.061-0.453,0.099c-0.147,0.037-0.293,0.082-0.438,0.125
	c-0.146,0.044-0.294,0.085-0.439,0.136c-0.184,0.063-0.361,0.139-0.539,0.214c-0.143,0.059-0.283,0.118-0.423,0.184
	c-0.236,0.112-0.469,0.23-0.696,0.36c-0.089,0.051-0.176,0.11-0.264,0.164c-0.185,0.113-0.367,0.23-0.544,0.355
	c-0.036,0.026-0.075,0.046-0.11,0.072l-52.06,37.913c-2.005,1.46-3.396,3.615-3.902,6.044l-0.157,0.755L88.445,79.606
	c-0.074,0.032-0.144,0.07-0.219,0.103c-0.099,0.046-0.197,0.092-0.294,0.14c-0.188,0.094-0.37,0.194-0.551,0.298
	c-0.071,0.042-0.146,0.081-0.216,0.124c-0.251,0.153-0.495,0.316-0.729,0.489c-0.031,0.022-0.059,0.047-0.088,0.07
	c-0.201,0.152-0.396,0.312-0.583,0.478c-0.077,0.068-0.151,0.14-0.228,0.211c-0.136,0.128-0.268,0.26-0.396,0.396
	C85.06,82,84.98,82.084,84.902,82.172c-0.126,0.143-0.245,0.29-0.363,0.439c-0.066,0.085-0.136,0.166-0.2,0.252
	c-0.157,0.214-0.305,0.435-0.445,0.661c-0.063,0.103-0.121,0.209-0.182,0.314c-0.089,0.157-0.175,0.315-0.256,0.476
	c-0.052,0.104-0.104,0.209-0.152,0.316c-0.099,0.215-0.189,0.434-0.272,0.656c-0.021,0.054-0.044,0.105-0.063,0.16
	c-0.102,0.286-0.188,0.579-0.264,0.876c-0.006,0.025-0.016,0.049-0.022,0.075L28.367,306.436c-0.635,2.576-0.222,5.298,1.15,7.568
	l62.29,103.079l-5.382,84.278c-0.176,2.757,0.797,5.464,2.686,7.479c1.89,2.015,4.53,3.158,7.293,3.158L240.422,512
	c0.014,0,0.025-0.002,0.039-0.002l35.564-0.001c0.003,0,0.006,0.001,0.008,0.001h43.193c0.006,0,0.012-0.001,0.018-0.001
	l96.349-0.001c2.763,0,5.402-1.143,7.293-3.158c1.89-2.015,2.862-4.722,2.686-7.479l-5.379-84.281l62.289-103.074
	C483.855,311.734,484.268,309.012,483.633,306.436z M309.227,491.997h-23.193v-23.192h23.193V491.997z M247.507,468.806h18.526
	v23.192h-16.462L247.507,468.806z M319.227,448.806h-43.193h-30.307l-19.272-216.478l109.741-46.672
	c2.672-1.136,4.719-3.378,5.607-6.142c0.888-2.764,0.531-5.778-0.979-8.258l-16.462-27.051l29.581,9.639
	c1.016,0.331,2.061,0.493,3.098,0.492c2.428,0,4.813-0.885,6.674-2.552c2.656-2.38,3.844-5.995,3.117-9.487l-4.899-23.516
	l45.726,16.717l-10.022,241.285c-0.015,0.351-0.011,0.702,0.012,1.052l2.377,37.247c0,0.005,0.001,0.01,0.001,0.014l2.151,33.712
	h-82.951V448.806z M114.353,377.835c0.023-0.35,0.027-0.702,0.012-1.052l-10.102-243.137l46.226-16.898l-5.323,25.547
	c-0.727,3.492,0.461,7.107,3.117,9.487c1.861,1.668,4.246,2.553,6.674,2.552c1.037,0,2.082-0.161,3.098-0.492l29.581-9.639
	l-16.462,27.051c-1.51,2.48-1.866,5.494-0.979,8.259c0.889,2.764,2.936,5.006,5.607,6.142l41.543,17.67l-10.164,17.658
	c-0.017,0.03-0.03,0.061-0.047,0.091c-0.048,0.085-0.09,0.171-0.135,0.257c-0.094,0.177-0.183,0.355-0.264,0.536
	c-0.048,0.105-0.092,0.212-0.137,0.319c-0.07,0.172-0.135,0.345-0.195,0.519c-0.038,0.11-0.077,0.221-0.111,0.333
	c-0.063,0.201-0.115,0.404-0.163,0.608c-0.02,0.085-0.046,0.169-0.064,0.255c-0.06,0.283-0.105,0.567-0.14,0.853
	c-0.012,0.098-0.018,0.196-0.027,0.294c-0.02,0.21-0.033,0.42-0.039,0.63c-0.003,0.103-0.004,0.206-0.004,0.31
	c0,0.237,0.01,0.474,0.027,0.709c0.004,0.054,0.001,0.108,0.006,0.163l19.758,221.946H109.822L114.353,377.835z M317.728,171.775
	l-78.32,33.309l25.045-43.513c6.609-9.413,14.854-24.178,22.298-40.703L317.728,171.775z M280.83,80.345
	c-1.564,5.139-3.316,10.213-5.179,15.162c-0.013,0.034-0.026,0.068-0.038,0.103c-6.088,16.153-13.398,30.913-19.613,41.79
	c-6.213-10.873-13.521-25.626-19.608-41.774c-0.018-0.055-0.041-0.108-0.061-0.163c-1.857-4.935-3.603-9.994-5.163-15.118
	c-1.582-5.197-3.286-11.552-4.57-18.259H285.4C284.117,68.792,282.412,75.148,280.83,80.345z M244.23,156.614l-16.836,29.252
	l-33.125-14.09l30.979-50.906C231.492,134.729,238.297,147.348,244.23,156.614z M409.33,95.264l-0.801,19.255l-51.398-18.791
	l-5.236-25.13L409.33,95.264z M343.732,129.48l-35.336-11.514l-12.289-20.193c1.389-3.875,2.684-7.756,3.855-11.604
	c3.549-11.656,5.805-22.363,6.795-32.06c0.135-0.653,0.205-1.33,0.205-2.024c0-0.024-0.004-0.046-0.004-0.07
	c0.396-4.699,0.476-9.143,0.256-13.337l20.749,15.111L343.732,129.48z M239.131,20.035C243.853,20.018,248.996,20,256,20
	c7.004,0,12.147,0.018,16.867,0.035c2.725,0.01,5.311,0.019,8.029,0.024c4.67,5.378,6.43,13.328,6.533,22.027h-62.861
	c0.104-8.699,1.863-16.649,6.533-22.027C233.821,20.054,236.406,20.045,239.131,20.035z M204.783,38.68
	c-0.22,4.194-0.141,8.637,0.256,13.336c0,0.023-0.004,0.046-0.004,0.07c0,0.693,0.07,1.371,0.205,2.024
	c0.99,9.696,3.246,20.404,6.795,32.06c1.172,3.848,2.468,7.729,3.855,11.604l-12.288,20.192l-35.337,11.514l15.77-75.69
	L204.783,38.68z M160.105,70.597l-4.813,23.1l-51.9,18.973l-0.724-17.406L160.105,70.597z M48.777,307.207l36.531-147.992
	l9.053,217.872l-0.32,5.022L48.777,307.207z M108.545,468.806h118.883L229.492,492l-122.428-0.002L108.545,468.806z
	 M329.227,491.997v-23.191h74.228l1.479,23.19L329.227,491.997z M417.961,382.103l-0.32-5.019l9.05-217.869l36.532,147.991
	L417.961,382.103z"/>
<path d="M342.848,289.143c5.434-0.99,9.035-6.197,8.045-11.63l-0.043-0.236c-0.99-5.434-6.196-9.038-11.631-8.045
	c-5.434,0.99-9.035,6.197-8.045,11.63l0.043,0.236c0.879,4.828,5.088,8.209,9.826,8.209
	C341.638,289.308,342.241,289.254,342.848,289.143z"/>
<path d="M356.029,305.788c-0.986-5.434-6.188-9.038-11.625-8.054c-5.435,0.986-9.04,6.19-8.055,11.625l12.463,68.677
	c0.876,4.831,5.086,8.216,9.827,8.216c0.593,0,1.194-0.053,1.798-0.163c5.434-0.986,9.039-6.19,8.053-11.625L356.029,305.788z"/>
<path d="M171.367,269.23c-5.438-0.988-10.639,2.62-11.624,8.054l-12.46,68.681c-0.985,5.434,2.621,10.639,8.055,11.625
	c0.604,0.109,1.204,0.163,1.797,0.163c4.741,0,8.951-3.386,9.828-8.217l12.459-68.681
	C180.408,275.42,176.802,270.216,171.367,269.23z"/>
<path d="M153.775,366.177c-5.436-0.987-10.641,2.618-11.627,8.052l-0.042,0.234c-0.987,5.434,2.618,10.639,8.052,11.626
	c0.604,0.11,1.205,0.163,1.799,0.163c4.74,0,8.95-3.385,9.827-8.215l0.042-0.234C162.814,372.369,159.209,367.164,153.775,366.177z"
	/>
<g>
</g>
<g>
</g>
<g>
</g>
<g>
</g>
<g>
</g>
<g>
</g>
<g>
</g>
<g>
</g>
<g>
</g>
<g>
</g>
<g>
</g>
<g>
</g>
<g>
</g>
<g>
</g>
<g>
</g>
</svg>
