<?xml version="1.0" encoding="iso-8859-1"?>
<!-- Generator: Adobe Illustrator 19.0.0, SVG Export Plug-In . SVG Version: 6.00 Build 0)  -->
<svg version="1.1" id="Capa_1" xmlns="http://www.w3.org/2000/svg" xmlns:xlink="http://www.w3.org/1999/xlink" x="0px" y="0px"
	 viewBox="0 0 513.067 513.067" style="enable-background:new 0 0 513.067 513.067;" xml:space="preserve">
<path style="fill:#F2F2F2;" d="M330.133,345.6h-147.2l18.133-328.533c12.8-4.267,5.333-1.067,18.133-3.2L218.133,0H296
	l-2.133,13.867c12.8,2.133,5.333,0,18.133,3.2L330.133,345.6z"/>
<g>
	<polygon style="fill:#FF7058;" points="267.2,91.733 280,70.4 256.533,50.133 232,70.4 245.867,91.733 	"/>
	<polygon style="fill:#FF7058;" points="267.2,91.733 275.733,187.733 256.533,211.2 237.333,187.733 245.867,91.733 	"/>
</g>
<g>
	<polygon style="fill:#E8EAEA;" points="256.533,50.133 218.133,0 201.067,17.067 227.733,76.8 	"/>
	<polygon style="fill:#E8EAEA;" points="256.533,50.133 294.933,0 312,17.067 285.333,76.8 	"/>
</g>
<rect x="289.6" y="170.667" style="fill:#334A5E;" width="57.6" height="8.533"/>
<polygon style="fill:#FF7058;" points="340.8,174.933 318.4,148.267 297.067,174.933 "/>
<g>
	<rect x="244.8" y="290.133" style="fill:#FFD15C;" width="24.533" height="211.2"/>
	<path style="fill:#FFD15C;" d="M190.4,512c13.867-20.267,48-39.467,65.067-46.933c18.133,7.467,52.267,26.667,65.067,46.933h27.733
		c-14.933-41.6-80-69.333-88.533-72.533l-3.2-1.067l-4.267,2.133c-7.467,3.2-73.6,30.933-88.533,72.533H190.4V512z"/>
</g>
<path style="fill:#40596B;" d="M436.8,186.667L424,96c-5.333-35.2-32-62.933-66.133-69.333L312,17.067l-55.467,156.8v140.8
	c0,25.6,20.267,45.867,45.867,45.867h69.333V137.6l8.533,49.067H436.8z"/>
<g>
	<polygon style="fill:#334A5E;" points="325.867,103.467 313.067,80 334.4,58.667 312,17.067 256.533,173.867 	"/>
	<path style="fill:#334A5E;" d="M424,96c-3.2-22.4-16-41.6-33.067-55.467c-12.8,30.933-19.2,64-19.2,97.067l25.6,142.933
		l51.2-10.667L424,96z"/>
</g>
<path style="fill:#40596B;" d="M76.267,186.667L89.067,96c5.333-35.2,32-62.933,66.133-69.333l45.867-9.6l55.467,156.8v140.8
	c0,25.6-20.267,45.867-45.867,45.867h-69.333V137.6l-8.533,49.067H76.267z"/>
<g>
	<polygon style="fill:#334A5E;" points="187.2,103.467 200,80 178.667,58.667 201.067,17.067 256.533,173.867 	"/>
	<path style="fill:#334A5E;" d="M89.067,96c3.2-22.4,16-41.6,33.067-55.467c12.8,30.933,19.2,64,19.2,97.067l-25.6,142.933
		l-51.2-10.667L89.067,96z"/>
	<circle style="fill:#334A5E;" cx="256.533" cy="212.267" r="8.533"/>
	<circle style="fill:#334A5E;" cx="256.533" cy="283.733" r="8.533"/>
</g>
<g>
</g>
<g>
</g>
<g>
</g>
<g>
</g>
<g>
</g>
<g>
</g>
<g>
</g>
<g>
</g>
<g>
</g>
<g>
</g>
<g>
</g>
<g>
</g>
<g>
</g>
<g>
</g>
<g>
</g>
</svg>
