<?xml version="1.0" encoding="iso-8859-1"?>
<!-- Generator: Adobe Illustrator 19.0.0, SVG Export Plug-In . SVG Version: 6.00 Build 0)  -->
<svg version="1.1" id="Capa_1" xmlns="http://www.w3.org/2000/svg" xmlns:xlink="http://www.w3.org/1999/xlink" x="0px" y="0px"
	 viewBox="0 0 512 512" style="enable-background:new 0 0 512 512;" xml:space="preserve">
<rect x="46.933" y="38.4" style="fill:#415A6B;" width="419.2" height="427.733"/>
<g>
	<rect x="73.6" y="65.067" style="fill:#8AD7F8;" width="169.6" height="375.467"/>
	<rect x="268.8" y="65.067" style="fill:#8AD7F8;" width="169.6" height="375.467"/>
</g>
<path style="fill:#FFD15C;" d="M492.8,38.4H19.2C8.533,38.4,0,29.867,0,19.2v-1.067C0,8.533,8.533,0,19.2,0h473.6
	C503.467,0,512,8.533,512,19.2v1.067C512,29.867,503.467,38.4,492.8,38.4z"/>
<path style="fill:#F3705A;" d="M361.6,38.4c3.2,50.133,18.133,261.333,73.6,293.333C402.133,360.533,384,451.2,384,512h106.667V38.4
	"/>
<path style="fill:#F05540;" d="M490.667,340.267h-62.933c-4.267,0-8.533-4.267-8.533-8.533l0,0c0-4.267,4.267-8.533,8.533-8.533
	h62.933V340.267z"/>
<path style="fill:#F3705A;" d="M161.067,38.4c-3.2,50.133-28.8,261.333-84.267,293.333C109.867,360.533,128,451.2,128,512H21.333
	V38.4"/>
<path style="fill:#F05540;" d="M21.333,340.267h62.933c4.267,0,8.533-4.267,8.533-8.533l0,0c0-4.267-4.267-8.533-8.533-8.533H21.333
	V340.267z"/>
<g>
</g>
<g>
</g>
<g>
</g>
<g>
</g>
<g>
</g>
<g>
</g>
<g>
</g>
<g>
</g>
<g>
</g>
<g>
</g>
<g>
</g>
<g>
</g>
<g>
</g>
<g>
</g>
<g>
</g>
</svg>
