<?xml version="1.0" encoding="iso-8859-1"?>
<!-- Generator: Adobe Illustrator 19.0.0, SVG Export Plug-In . SVG Version: 6.00 Build 0)  -->
<svg version="1.1" id="Layer_1" xmlns="http://www.w3.org/2000/svg" xmlns:xlink="http://www.w3.org/1999/xlink" x="0px" y="0px"
	 viewBox="0 0 512 512" style="enable-background:new 0 0 512 512;" xml:space="preserve">
<path style="fill:#C7CFE2;" d="M180.966,61.793h-26.483c-24.337,0-44.138,19.801-44.138,44.138v98.065
	c0,21.732,10.276,42.638,27.487,55.918l58.831,45.375l21.569-27.957l-58.831-45.375c-8.608-6.643-13.746-17.095-13.746-27.961
	v-98.065c0-4.866,3.961-8.828,8.828-8.828h26.483V61.793z"/>
<polygon style="fill:#E4EAF6;" points="163.31,17.655 198.621,361.931 357.517,361.931 392.828,17.655 "/>
<polygon style="fill:#AFB9D2;" points="195.905,335.448 198.621,361.931 357.517,361.931 360.233,335.448 "/>
<polygon style="fill:#D5DCEC;" points="163.31,17.655 198.621,361.931 252.265,361.931 225.103,17.655 "/>
<path style="fill:#959CB3;" d="M392.828,17.655H163.31c-4.875,0-8.828-3.953-8.828-8.828l0,0c0-4.875,3.953-8.828,8.828-8.828
	h229.517c4.875,0,8.828,3.953,8.828,8.828l0,0C401.655,13.703,397.703,17.655,392.828,17.655z"/>
<polygon style="fill:#AFB9D2;" points="390.112,44.138 392.828,17.655 163.31,17.655 166.026,44.138 "/>
<g>
	<polygon style="fill:#A2AAC2;" points="227.193,44.138 225.103,17.655 163.31,17.655 166.026,44.138 	"/>
	<polygon style="fill:#A2AAC2;" points="195.905,335.448 198.621,361.931 252.265,361.931 250.176,335.448 	"/>
</g>
<path style="fill:#F2F5FB;" d="M344.483,238.345c-0.301,0-0.604-0.013-0.914-0.047c-4.845-0.495-8.371-4.832-7.88-9.681
	l9.965-97.103c0.5-4.85,4.81-8.392,9.689-7.88c4.845,0.495,8.371,4.832,7.88,9.681l-9.965,97.103
	C352.793,234.962,348.957,238.345,344.483,238.345z"/>
<path style="fill:#FFFFFF;" d="M358.069,105.927c-0.301,0-0.604-0.013-0.905-0.047c-4.853-0.495-8.38-4.832-7.887-9.681
	l2.716-26.474c0.5-4.845,4.957-8.418,9.681-7.88c4.853,0.495,8.38,4.832,7.887,9.681l-2.716,26.474
	C366.379,102.543,362.543,105.927,358.069,105.927z"/>
<path style="fill:#81869B;" d="M216.276,8.828c0-4.875,3.953-8.828,8.828-8.828H163.31c-4.875,0-8.828,3.953-8.828,8.828
	s3.953,8.828,8.828,8.828h61.793C220.228,17.655,216.276,13.703,216.276,8.828z"/>
<path style="fill:#707487;" d="M317.327,283.42c-4.38-2.189-9.668-0.409-11.844,3.948l-7.78,15.561l-19.634,13.09l-19.634-13.09
	l-7.78-15.561c-2.177-4.358-7.47-6.137-11.844-3.948c-4.362,2.182-6.13,7.482-3.948,11.844l8.828,17.655
	c0.69,1.375,1.72,2.543,3,3.396l22.551,15.036v4.097h17.655v-4.097l22.552-15.034c1.28-0.853,2.311-2.022,3-3.396l8.828-17.655
	C323.457,290.903,321.689,285.601,317.327,283.42z"/>
<path style="fill:#959CB3;" d="M172.138,370.759v132.414c0,4.875,3.953,8.828,8.828,8.828h29.855c3.343,0,6.4-1.889,7.895-4.879
	l3.948-7.895c1.495-2.99,4.552-4.879,7.895-4.879h95.019c3.343,0,6.4,1.889,7.895,4.879l3.948,7.895
	c1.495,2.99,4.552,4.879,7.895,4.879h29.856c4.875,0,8.828-3.953,8.828-8.828V370.759c0-9.751-7.904-17.655-17.655-17.655H189.793
	C180.042,353.103,172.138,361.007,172.138,370.759z"/>
<g>
	<circle style="fill:#81869B;" cx="278.069" cy="414.897" r="44.138"/>
	<path style="fill:#81869B;" d="M172.138,503.172c0,4.875,3.953,8.828,8.828,8.828h29.855c3.343,0,6.4-1.889,7.895-4.879
		l3.948-7.895c1.495-2.99,4.552-4.879,7.895-4.879h95.019c3.343,0,6.4,1.889,7.895,4.879l3.948,7.895
		c1.495,2.99,4.552,4.879,7.895,4.879h29.856c4.875,0,8.828-3.953,8.828-8.828V476.69H172.138V503.172z"/>
</g>
<path style="fill:#707487;" d="M253.101,439.864L253.101,439.864c-3.447-3.447-3.447-9.037,0-12.484l37.452-37.452
	c3.447-3.447,9.037-3.447,12.484,0l0,0c3.447,3.447,3.447,9.037,0,12.484l-37.452,37.452
	C262.137,443.313,256.548,443.313,253.101,439.864z"/>
<g>
</g>
<g>
</g>
<g>
</g>
<g>
</g>
<g>
</g>
<g>
</g>
<g>
</g>
<g>
</g>
<g>
</g>
<g>
</g>
<g>
</g>
<g>
</g>
<g>
</g>
<g>
</g>
<g>
</g>
</svg>
