<?xml version="1.0" encoding="iso-8859-1"?>
<!-- Generator: Adobe Illustrator 19.0.0, SVG Export Plug-In . SVG Version: 6.00 Build 0)  -->
<svg version="1.1" id="Capa_1" xmlns="http://www.w3.org/2000/svg" xmlns:xlink="http://www.w3.org/1999/xlink" x="0px" y="0px"
	 viewBox="0 0 448.003 448.003" style="enable-background:new 0 0 448.003 448.003;" xml:space="preserve">
<path style="fill:#B6C1CC;" d="M289.282,0h-96c-17.68,0-32,14.32-32,32v144c0,17.68,14.32,32,32,32h32v80h32v-80h32
	c17.68,0,32-14.32,32-32V32C321.282,14.32,306.962,0,289.282,0z M193.282,32h32v112h-32V32z M289.282,144h-32V32h32V144z"/>
<path style="fill:#92A2B3;" d="M289.282,111.616V144h-32v-0.384l-64.336,64.336c0.112,0.016,0.224,0.048,0.336,0.048h32v80h32v-80
	h32c17.68,0,32-14.32,32-32V79.616L289.282,111.616z"/>
<path style="fill:#B6C1CC;" d="M433.282,0.272h-16v144h-32v-144h-16l-13.344,173.552c-1.36,17.696,11.968,32.784,29.344,34.176
	v80.272h32V208c17.376-1.392,30.704-16.48,29.344-34.176L433.282,0.272z"/>
<path style="fill:#92A2B3;" d="M364.466,197.872c5.28,5.648,12.56,9.456,20.816,10.128v80.272h32V208
	c17.376-1.392,30.704-16.48,29.344-34.176l-4.144-53.984L364.466,197.872z"/>
<path style="fill:#B6C1CC;" d="M65.282,0c-35.344,0-64,46.56-64,104c0,48.448,20.416,89.024,48,100.592V288h32v-83.408
	c27.584-11.568,48-52.144,48-100.592C129.282,46.56,100.626,0,65.282,0z"/>
<path style="fill:#92A2B3;" d="M32.706,193.088c5.136,4.96,10.64,9.024,16.576,11.504V288h32v-83.408
	c27.584-11.568,48-52.144,48-100.592c0-2.448-0.128-4.848-0.224-7.248L32.706,193.088z"/>
<path style="fill:#D84234;" d="M33.282,416c0,19.44,17.328,34.816,37.376,31.568c15.728-2.56,26.624-17.344,26.624-33.28V288
	c0-8.832-7.168-16-16-16h-32c-8.832,0-16,7.168-16,16V416z"/>
<path style="fill:#AE362B;" d="M81.282,272h-16v175.84c1.776,0,3.552,0.016,5.376-0.272c15.728-2.56,26.624-17.344,26.624-33.28V288
	C97.282,279.168,90.114,272,81.282,272z"/>
<g>
	<path style="fill:#92A2B3;" d="M22.306,180.88L126.914,76.272c-1.088-6.384-2.544-12.496-4.32-18.32l-108.4,108.4
		C16.642,171.568,19.314,176.48,22.306,180.88z"/>
	<path style="fill:#92A2B3;" d="M257.282,99.328l-32,32V144H212.61l-47.28,47.28c2.608,4.768,6.32,8.816,10.912,11.712l81.04-81.04
		V99.328z"/>
	<polygon style="fill:#92A2B3;" points="321.282,35.328 289.282,67.328 289.282,89.952 321.282,57.952 	"/>
	<path style="fill:#92A2B3;" d="M385.282,144.288v-11.216l-28.4,28.4l-0.944,12.352c-0.272,3.552,0.192,6.96,1.008,10.224
		l39.76-39.76H385.282z"/>
	<polygon style="fill:#92A2B3;" points="439.346,79.008 417.282,101.072 417.282,123.696 440.962,100.032 	"/>
</g>
<path style="fill:#D84234;" d="M209.282,416c0,19.44,17.328,34.816,37.376,31.568c15.728-2.56,26.624-17.328,26.624-33.28V288
	c0-8.832-7.168-16-16-16h-32c-8.832,0-16,7.168-16,16V416z"/>
<path style="fill:#AE362B;" d="M257.282,272h-16v175.84c1.776,0,3.552,0.016,5.376-0.272c15.728-2.56,26.624-17.328,26.624-33.28
	V288C273.282,279.168,266.114,272,257.282,272z"/>
<path style="fill:#D84234;" d="M369.282,416c0,19.44,17.328,34.816,37.376,31.568c15.728-2.56,26.624-17.328,26.624-33.28V288
	c0-8.832-7.168-16-16-16h-32c-8.832,0-16,7.168-16,16V416z"/>
<path style="fill:#AE362B;" d="M417.282,272h-16v175.84c1.776,0,3.552,0.016,5.376-0.272c15.728-2.56,26.624-17.328,26.624-33.28
	V288C433.282,279.168,426.114,272,417.282,272z"/>
<g>
</g>
<g>
</g>
<g>
</g>
<g>
</g>
<g>
</g>
<g>
</g>
<g>
</g>
<g>
</g>
<g>
</g>
<g>
</g>
<g>
</g>
<g>
</g>
<g>
</g>
<g>
</g>
<g>
</g>
</svg>
