<?xml version="1.0" encoding="iso-8859-1"?>
<!-- Generator: Adobe Illustrator 19.0.0, SVG Export Plug-In . SVG Version: 6.00 Build 0)  -->
<svg xmlns="http://www.w3.org/2000/svg" xmlns:xlink="http://www.w3.org/1999/xlink" version="1.1" id="Layer_1" x="0px" y="0px" viewBox="0 0 512 512" style="enable-background:new 0 0 512 512;" xml:space="preserve" width="512px" height="512px">
<g>
	<g>
		<path d="M503.526,291.33h-40.254v-70.24h40.254c4.681,0,8.474-3.794,8.474-8.474c0-4.68-3.793-8.474-8.474-8.474h-40.465    c-0.849-3.784-4.222-6.614-8.263-6.614h-21.053c-0.766-3.891-4.194-6.828-8.311-6.828h-52.996c-4.681,0-8.474,3.794-8.474,8.474    v4.965h-55.689v-56.101h4.553c4.681,0,8.474-3.794,8.474-8.474V86.568c0-3.967-2.729-7.288-6.41-8.211V57.202    c0-4.04-2.83-7.415-6.614-8.263V8.474c0-4.68-3.793-8.474-8.474-8.474c-4.681,0-8.474,3.794-8.474,8.474v40.254h-70.24V8.474    c0-4.68-3.793-8.474-8.474-8.474s-8.474,3.794-8.474,8.474v40.465c-3.784,0.849-6.614,4.222-6.614,8.263v21.054    c-3.892,0.767-6.828,4.195-6.828,8.311v52.996c0,4.68,3.793,8.474,8.474,8.474h4.965v56.101h-56.099v-4.965    c0-4.68-3.793-8.474-8.474-8.474H86.568c-3.967,0-7.287,2.73-8.21,6.409H57.202c-4.04,0-7.415,2.83-8.263,6.614H8.474    c-4.681,0-8.474,3.794-8.474,8.474s3.793,8.474,8.474,8.474h40.254v70.24H8.474c-4.681,0-8.474,3.794-8.474,8.474    c0,4.68,3.793,8.474,8.474,8.474h40.465c0.849,3.784,4.222,6.614,8.263,6.614h21.054c0.766,3.891,4.194,6.828,8.311,6.828h52.996    c4.681,0,8.474-3.794,8.474-8.474v-4.553h56.099v55.689h-4.965c-4.681,0-8.474,3.794-8.474,8.474v52.996    c0,3.966,2.729,7.287,6.409,8.21v21.156c0,4.04,2.83,7.415,6.614,8.263v40.465c0,4.68,3.793,8.474,8.474,8.474    s8.474-3.794,8.474-8.474v-40.254h70.24v40.254c0,4.68,3.793,8.474,8.474,8.474s8.474-3.794,8.474-8.474v-40.465    c3.785-0.847,6.614-4.222,6.614-8.263v-21.054c3.892-0.767,6.828-4.195,6.828-8.311v-52.996c0-4.68-3.793-8.474-8.474-8.474    h-4.553v-55.689h55.689v4.553c0,4.68,3.793,8.474,8.474,8.474h52.996c3.967,0,7.287-2.73,8.21-6.409h21.155    c4.04,0,7.415-2.83,8.263-6.614h40.465c4.681,0,8.474-3.794,8.474-8.474S508.207,291.33,503.526,291.33z M78.094,297.526H65.676    v-83.47h12.417V297.526z M131.089,304.354H95.042v-96.706h36.048V304.354z M214.475,65.676h83.469v12.417h-83.469V65.676z     M207.648,95.042h96.706v36.048h-96.706V95.042z M297.526,446.325h-83.47v-12.417h83.47V446.325z M304.354,416.958h-96.706    v-36.048h96.706V416.958z M363.964,291.326H299.8c-4.681,0-8.474,3.794-8.474,8.474v64.158h-70.24V299.8    c0-4.68-3.793-8.474-8.474-8.474h-64.568v-70.24h64.568c4.681,0,8.474-3.794,8.474-8.474v-64.575h70.24v64.575    c0,4.68,3.793,8.474,8.474,8.474h64.163V291.326z M416.959,304.354h-36.048v-96.706h36.048V304.354z M446.325,297.944h-12.416    v-83.47h12.416V297.944z" fill="#006DF0"/>
	</g>
</g>
<g>
</g>
<g>
</g>
<g>
</g>
<g>
</g>
<g>
</g>
<g>
</g>
<g>
</g>
<g>
</g>
<g>
</g>
<g>
</g>
<g>
</g>
<g>
</g>
<g>
</g>
<g>
</g>
<g>
</g>
</svg>
