<?xml version="1.0" encoding="iso-8859-1"?>
<!-- Generator: Adobe Illustrator 19.0.0, SVG Export Plug-In . SVG Version: 6.00 Build 0)  -->
<svg version="1.1" id="Capa_1" xmlns="http://www.w3.org/2000/svg" xmlns:xlink="http://www.w3.org/1999/xlink" x="0px" y="0px"
	 viewBox="0 0 512.152 512.152" style="enable-background:new 0 0 512.152 512.152;" xml:space="preserve">
<path style="fill:#415A6B;" d="M42.667,512.076H0V167.543C0,74.743,74.667,0.076,167.467,0.076c60.8,0,115.2,36.267,137.6,93.867
	l-39.467,16c-16-40.533-54.4-67.2-98.133-67.2c-69.333,0-124.8,55.467-124.8,124.8V512.076z"/>
<path style="fill:#CED6E0;" d="M503.467,182.476c-4.267-10.667-17.067-16-27.733-11.733l-281.6,112
	c-10.667,4.267-16,17.067-11.733,27.733c4.267,10.667,17.067,16,27.733,11.733l281.6-112
	C502.4,205.943,508.8,193.143,503.467,182.476z"/>
<path style="fill:#E8EAE9;" d="M473.6,170.743L196.267,281.676c-30.933-76.8,6.4-163.2,83.2-194.133S443.733,93.943,473.6,170.743z"
	/>
<path style="fill:#8AD7F8;" d="M317.867,381.943c-6.4-14.933-48-39.467-48-39.467S256,389.41,262.4,404.343
	c6.4,14.933,23.467,22.4,38.4,17.067C315.733,416.076,324.267,396.876,317.867,381.943z"/>
<path style="fill:#FFFFFF;" d="M297.6,411.81c-10.667,4.267-22.4-1.067-26.667-11.733c0-1.067,0-2.133,1.067-3.2
	c1.067,0,2.133,0,3.2,1.067c3.2,8.533,12.8,11.733,20.267,8.533c1.067,0,2.133,0,3.2,1.067
	C299.733,409.676,298.667,411.81,297.6,411.81z"/>
<path style="fill:#8AD7F8;" d="M413.867,343.543c-6.4-14.933-48-39.467-48-39.467S352,351.01,358.4,365.943s23.467,22.4,38.4,17.067
	C411.733,377.676,420.267,358.476,413.867,343.543z"/>
<path style="fill:#FFFFFF;" d="M393.6,373.41c-10.667,4.267-22.4-1.067-26.667-11.733c0-1.067,0-2.133,1.067-3.2
	c1.067,0,2.133,0,3.2,1.067c3.2,8.533,12.8,11.733,20.267,8.533c1.067,0,2.133,0,3.2,1.067S394.667,373.41,393.6,373.41z"/>
<path style="fill:#8AD7F8;" d="M509.867,305.143c-6.4-14.933-48-39.467-48-39.467S448,312.61,454.4,327.543s23.467,22.4,38.4,17.067
	C508.8,338.21,516.267,320.076,509.867,305.143z"/>
<path style="fill:#FFFFFF;" d="M489.6,335.01c-10.667,4.267-22.4-1.067-26.667-11.733c0-1.067,0-2.133,1.067-3.2
	c1.067,0,2.133,0,3.2,1.067c3.2,8.533,12.8,11.733,20.267,8.533c1.067,0,2.133,0,3.2,1.067
	C491.733,333.943,490.667,335.01,489.6,335.01z"/>
<path style="fill:#8AD7F8;" d="M402.133,453.41c-6.4-14.933-48-39.467-48-39.467s-13.867,46.933-7.467,61.867
	c6.4,14.933,23.467,22.4,38.4,17.067C400,487.543,408.533,469.41,402.133,453.41z"/>
<path style="fill:#FFFFFF;" d="M381.867,484.343c-10.667,4.267-22.4-1.067-26.667-11.733c0-1.067,0-2.133,1.067-3.2
	c1.067,0,2.133,0,3.2,1.067c3.2,8.533,12.8,11.733,20.267,8.533c1.067,0,2.133,0,3.2,1.067
	C384,482.21,382.933,483.276,381.867,484.343z"/>
<path style="fill:#8AD7F8;" d="M498.133,416.076c-6.4-14.933-48-39.467-48-39.467s-13.867,46.933-7.467,61.867
	c6.4,14.933,23.467,22.4,38.4,17.067C497.067,448.076,504.533,431.01,498.133,416.076z"/>
<path style="fill:#FFFFFF;" d="M477.867,445.943c-10.667,4.267-22.4-1.067-26.667-11.733c0-1.067,0-2.133,1.067-3.2
	s2.133,0,3.2,1.067c3.2,8.533,12.8,11.733,20.267,8.533c1.067,0,2.133,0,3.2,1.067C480,443.81,478.933,444.876,477.867,445.943z"/>
<g>
</g>
<g>
</g>
<g>
</g>
<g>
</g>
<g>
</g>
<g>
</g>
<g>
</g>
<g>
</g>
<g>
</g>
<g>
</g>
<g>
</g>
<g>
</g>
<g>
</g>
<g>
</g>
<g>
</g>
</svg>
