<?xml version="1.0" encoding="iso-8859-1"?>
<!-- Generator: Adobe Illustrator 19.0.0, SVG Export Plug-In . SVG Version: 6.00 Build 0)  -->
<svg version="1.1" id="Layer_1" xmlns="http://www.w3.org/2000/svg" xmlns:xlink="http://www.w3.org/1999/xlink" x="0px" y="0px"
	 viewBox="0 0 512 512" style="enable-background:new 0 0 512 512;" xml:space="preserve">
<path style="fill:#2BBFA3;" d="M346.346,174.603H165.647c-4.972,0-9.003-4.031-9.003-9.003v-64.832
	c0-17.967,14.617-32.584,32.584-32.584h133.538c17.966,0,32.584,14.617,32.584,32.584V165.6
	C355.349,170.572,351.318,174.603,346.346,174.603z M174.649,156.597h162.695v-55.83c0-8.038-6.54-14.578-14.578-14.578h-133.54
	c-8.038,0-14.578,6.54-14.578,14.578v55.83H174.649z"/>
<path style="fill:#CCCCCC;" d="M493.719,163.593v259.949c0,11.187-9.075,20.274-20.274,20.274H38.543
	c-11.199,0-20.274-9.087-20.274-20.274V163.593h47.666l0,0h66.752l0,0h78.803h89.006h78.803l0,0h66.764l0,0L493.719,163.593
	L493.719,163.593z"/>
<path style="fill:#E6E6E6;" d="M512,180.074v84.151c0,5.493-4.452,9.945-9.945,9.945h-8.336h-47.654h-66.764h-78.803h-89.006
	h-78.803H65.936H18.269H9.945c-5.493,0-9.945-4.452-9.945-9.945v-84.151c0-18.516,15.01-33.526,33.526-33.526h132.123h180.702
	h132.111C496.984,146.548,512,161.564,512,180.074z"/>
<g>
	<rect x="18.329" y="274.173" style="fill:#B3B3B3;" width="475.389" height="16.133"/>
	<path style="fill:#B3B3B3;" d="M446.064,282.572v38.818c0,5.749-4.66,10.408-10.408,10.408h-45.948
		c-5.749,0-10.408-4.66-10.408-10.408v-38.818v-28.807c0-5.749,4.66-10.408,10.408-10.408h45.948c5.749,0,10.408,4.66,10.408,10.408
		V282.572z"/>
	<path style="fill:#B3B3B3;" d="M132.687,282.572v38.818c0,5.749-4.66,10.408-10.408,10.408H76.344
		c-5.749,0-10.408-4.66-10.408-10.408v-38.818v-28.807c0-5.749,4.66-10.408,10.408-10.408h45.936c5.749,0,10.408,4.66,10.408,10.408
		v28.807H132.687z"/>
</g>
<path style="fill:#35D8B9;" d="M446.064,274.17v38.818c0,5.749-4.66,10.408-10.408,10.408h-45.948
	c-5.749,0-10.408-4.66-10.408-10.408V274.17v-28.807c0-5.749,4.66-10.408,10.408-10.408h45.948c5.749,0,10.408,4.66,10.408,10.408
	V274.17z"/>
<rect x="400.907" y="256.564" style="fill:#2BBFA3;" width="23.551" height="45.229"/>
<path style="fill:#35D8B9;" d="M132.687,274.17v38.818c0,5.749-4.66,10.408-10.408,10.408H76.344
	c-5.749,0-10.408-4.66-10.408-10.408V274.17v-28.807c0-5.749,4.66-10.408,10.408-10.408h45.936c5.749,0,10.408,4.66,10.408,10.408
	v28.807H132.687z"/>
<rect x="87.542" y="256.564" style="fill:#2BBFA3;" width="23.539" height="45.229"/>
<g>
</g>
<g>
</g>
<g>
</g>
<g>
</g>
<g>
</g>
<g>
</g>
<g>
</g>
<g>
</g>
<g>
</g>
<g>
</g>
<g>
</g>
<g>
</g>
<g>
</g>
<g>
</g>
<g>
</g>
</svg>
